<svg width="38" height="51" viewBox="0 0 38 51" fill="none" xmlns="http://www.w3.org/2000/svg">
<rect x="0.5" y="0.5" width="37" height="50" rx="18.5" stroke="#426ACC"/>
<path d="M18.9795 20.6763L19.0014 31.2809L15.1253 27.2282C14.9223 27.016 14.5858 27.0084 14.3736 27.2114C14.1617 27.4141 14.1539 27.7506 14.3568 27.9631L18.7838 32.5914C18.9851 32.7916 19.2522 32.9019 19.5363 32.9013C19.8202 32.9007 20.0871 32.7894 20.2963 32.579L24.6951 27.9415C24.793 27.8384 24.8413 27.7065 24.8411 27.5746C24.8408 27.4343 24.7852 27.2941 24.6752 27.1899C24.4622 26.9878 24.126 26.9967 23.9239 27.2097L20.0646 31.2954L20.0427 20.6741C20.0421 20.3806 19.8034 20.143 19.51 20.1436C19.2166 20.1442 18.9789 20.3828 18.9795 20.6763Z" fill="#426ACC"/>
</svg>
