<svg width="26" height="26" viewBox="0 0 26 26" fill="none" xmlns="http://www.w3.org/2000/svg">
<path d="M13 0C5.83197 0 0 5.83167 0 13C0 20.1683 5.83197 26 13 26C20.1683 26 26 20.1683 26 13C26 5.83167 20.168 0 13 0ZM13 24.1022C6.87832 24.1022 1.8978 19.1217 1.8978 13C1.8978 6.87832 6.87832 1.8978 13 1.8978C19.1217 1.8978 24.1022 6.87827 24.1022 12.9997C24.1022 19.1217 19.1217 24.1022 13 24.1022Z" fill="#426ACC"/>
<path d="M17.4282 13H13.3163V7.30656C13.3163 6.78245 12.8915 6.35767 12.3674 6.35767C11.8432 6.35767 11.4185 6.78245 11.4185 7.30656V13.9489C11.4185 14.473 11.8432 14.8978 12.3674 14.8978H17.4282C17.9523 14.8978 18.3771 14.473 18.3771 13.9489C18.3771 13.4248 17.9523 13 17.4282 13Z" fill="#426ACC"/>
</svg>
