<svg width="407" height="273" viewBox="0 0 407 273" fill="none" xmlns="http://www.w3.org/2000/svg">
<mask id="mask0" mask-type="alpha" maskUnits="userSpaceOnUse" x="0" y="0" width="407" height="273">
<rect width="407" height="273" fill="#C4C4C4"/>
</mask>
<g mask="url(#mask0)">
<path d="M91.6528 18.2474C91.5411 17.6303 90.0914 11.0243 79.8729 12.1527C79.8729 12.1527 84.9586 12.0234 86.1419 14.0961C86.1419 14.0961 82.3433 11.8745 79.6965 13.1499C77.0498 14.4252 76.1271 19.5208 76.3426 21.1194C76.5581 22.7199 78.8463 27.647 80.6702 27.8292C81.3618 27.8978 82.1219 27.743 82.8017 27.5216C82.4393 28.3209 82.0984 29.1947 81.7908 30.1585C78.9423 39.0762 84.3082 46.6089 87.6132 45.2101C89.7329 44.3128 90.9005 47.9822 90.9005 47.9822L109.788 27.5491C109.788 27.551 99.5655 12.425 91.6528 18.2474Z" fill="#2C3A64"/>
<path d="M116.258 264.35L111.664 266.06C111.664 266.06 91.7112 238.387 89.2545 214.039C88.8157 209.692 88.9626 205.48 89.9108 201.591C89.9108 201.591 89.7149 200.477 89.374 198.508C89.2173 197.589 89.0214 196.482 88.8 195.214C88.1515 191.498 87.2582 186.412 86.2375 180.621C83.8906 167.296 80.8481 150.262 78.4855 137.739L79.7236 137.342L93.1158 133.022L95.884 124.231L105.856 121.606C105.856 121.606 108.083 125.965 110.076 146.551C110.444 149.251 110.777 152.229 111.028 155.459C111.803 165.315 111.86 177.542 110.079 191.52C109.621 195.097 109.045 198.792 108.328 202.586C107.803 205.37 107.725 209.161 107.946 213.516C108.951 233.418 116.258 264.35 116.258 264.35Z" fill="#577EDD"/>
<path d="M101.503 127.131L101.001 122.833C92.6028 125.064 70.1616 116.599 70.1616 116.599C70.1616 116.599 62.0256 123.751 63.0933 140.895C63.6144 149.262 64.5665 184.82 65.5617 195.342C65.9222 199.156 66.2356 201.869 66.3649 202.953C66.3669 202.959 66.3669 202.961 66.3669 202.963C66.4061 203.294 66.2905 203.605 66.122 203.895C64.6566 206.381 63.4459 208.969 62.4507 211.616C52.6867 237.634 63.9553 269.675 63.9553 269.675L66.8782 268.497C66.8782 268.497 73.2903 232.84 78.4994 217.087C79.383 214.415 80.2313 212.315 81.009 211.061C83.2737 207.406 85.3758 201.433 87.2839 194.327C90.8906 180.894 93.7919 163.421 95.7255 149.932C95.9939 149.942 101.503 127.131 101.503 127.131Z" fill="#426ACC"/>
<path d="M115.046 92.6707C115.211 92.8392 115.369 93.0077 115.563 93.1644C122.741 99.8527 132.409 105.767 137.581 107.07C140.984 107.94 148.485 106.774 154.713 105.493C158.865 104.674 162.477 103.769 163.968 103.414C164.444 103.303 164.708 103.22 164.708 103.22L164.058 99.0201C164.058 99.0201 160.324 98.7243 155.685 98.2012C149.224 97.4411 141.033 96.2754 138.935 95.0353C134.069 92.1437 125.529 80.0151 118.678 72.3904C118.32 71.9751 117.963 71.5755 117.61 71.1836C117.352 70.8976 117.095 70.6155 116.839 70.3412C116.786 70.2864 116.721 70.1963 116.637 70.1492C116.321 69.8475 116.055 69.5654 115.796 69.3186C115.787 69.2873 115.741 69.2657 115.698 69.2402C114.48 68.0178 112.346 66.5328 112.346 66.5328C111.149 65.851 110.164 65.7178 109.47 66.2997C109.47 66.2997 108.575 67.1754 107.697 68.8269C107.511 69.1717 107.327 69.5517 107.153 69.9671C107.008 70.1943 106.935 70.4353 106.865 70.6762C106.283 72.2024 105.86 74.1183 105.936 76.3536C105.989 78.0463 106.312 79.9133 107.065 81.9722C108.258 85.3536 111.281 89.1091 115.046 92.6707Z" fill="#FFCEB1"/>
<path d="M108.795 74.9547C106.361 76.5435 103.329 77.8247 99.5477 78.5868C85.3719 81.4431 80.3097 69.389 78.5132 61.1589C80.4644 60.1147 82.2785 59.9227 83.3266 59.8267C84.3473 59.7347 85.4209 59.6857 86.3083 59.6661C87.9246 58.4985 90.4204 53.6086 91.159 45.9252L91.8172 46.1211L102.831 49.4711C102.831 49.4711 102.224 52.9857 101.879 56.3141C101.613 58.9177 101.513 61.4116 101.989 62.0366C102.849 62.2482 103.366 62.3853 103.366 62.3853C103.366 62.3853 103.366 62.3892 103.372 62.3951C103.515 62.6458 106.585 68.0333 108.795 74.9547Z" fill="#FFCEB1"/>
<path d="M113.729 83.8096C113.665 84.1113 113.584 84.4071 113.496 84.7108C111.008 93.031 108.994 126.29 108.994 126.29C110.313 130.447 86.1437 131.299 72.8161 129.378C67.9694 128.68 64.5567 127.616 64.3216 126.212C61.9374 120.836 67.7735 110.796 71.1431 105.692C71.5662 105.052 71.9306 104.378 72.2304 103.68C72.9925 101.925 73.3588 100.013 73.2824 98.0854C73.1805 95.4485 72.9552 92.888 72.681 90.4881C72.1657 85.9646 71.4742 82.0151 71.1137 79.2195C71.1137 79.2195 71.1137 79.2195 71.1137 79.2176C71.815 78.5201 72.4968 77.8736 73.1335 77.2585C74.1032 76.3103 74.9535 75.4326 75.549 74.5804C76.2053 73.6518 76.5697 72.7448 76.4894 71.7946C76.4267 71.0757 76.2974 70.3469 76.1172 69.6279C76.0329 69.287 75.9389 68.9501 75.837 68.6111C74.7556 65.0652 72.7632 61.9973 72.7632 61.9973C76.3718 59.8874 83.3246 59.8228 83.3246 59.8228C83.3246 59.8228 83.3716 60.2028 83.4598 60.8238C83.7987 63.3177 84.7488 69.7102 85.7225 70.8033C86.9391 72.1669 106.161 76.1183 106.83 73.932C107.488 71.7829 103.519 62.7378 103.37 62.395C103.366 62.3891 103.366 62.3832 103.366 62.3832C109.521 63.8467 112.195 65.5001 112.317 65.5981C112.317 65.5981 112.313 65.5981 112.311 65.5961C108.971 68.5249 115.483 75.8382 113.729 83.8096Z" fill="url(#paint0_linear)"/>
<path d="M102.831 49.4753C102.831 49.4753 102.222 52.9859 101.881 56.3163C95.61 55.5092 92.8595 49.44 91.8173 46.1233L102.831 49.4753Z" fill="#F2BB9A"/>
<path d="M104.616 52.8409C104.616 52.8409 89.7133 51.5969 90.6301 42.3266C91.547 33.0582 90.2422 26.654 99.7966 27.0576C109.351 27.4592 110.846 31.1795 111.292 34.3473C111.739 37.5171 108.514 52.9252 104.616 52.8409Z" fill="#FFCEB1"/>
<path d="M111.365 29.1517C109.343 26.1328 107.545 26.5717 106.487 27.3122C98.8014 22.0266 92.9006 28.1134 92.9006 28.1134C91.2393 34.6646 86.0635 37.993 86.0635 37.993C86.0635 37.993 88.6083 39.9404 95.0204 38.9589C96.9794 38.6591 98.8209 37.4719 100.435 35.9713C97.4809 39.9599 93.7313 42.6693 93.7313 42.6693C101.544 39.9658 105.584 29.8786 105.993 28.8109C106.82 29.7179 108.432 31.6692 108.804 33.4597C109.31 35.8949 109.157 40.7867 110.589 40.7632C110.587 40.7612 114.396 33.6772 111.365 29.1517Z" fill="#2C3A64"/>
<path d="M177.86 98.4676C176.369 99.8879 174.862 103.44 170.272 103.371C166.997 103.344 163.682 103.712 162.075 103.91C161.45 104.02 161.088 104.063 161.088 104.063L160.923 98.8633C160.923 98.8633 160.99 98.8692 161.139 98.8457C162.248 98.6791 167.88 97.8132 170.11 96.3341C172.611 94.6572 178.463 96.2107 178.463 96.2107C178.463 96.2107 179.36 97.0747 177.86 98.4676Z" fill="#FFCEB1"/>
<path d="M80.956 272.063H57.8194C57.8194 272.063 57.265 268.536 58.4737 265.86C59.6316 263.294 61.4457 262.126 61.0107 259.021C62.48 260.536 64.8779 262.23 68.2221 261.78C68.6315 262.444 70.8668 265.999 72.2362 266.983C73.7486 268.07 80.4898 267.684 80.956 272.063Z" fill="#233862"/>
<path d="M130.634 272.063H107.498C107.498 272.063 106.632 268.372 108.152 265.86C109.496 263.639 108.981 262.373 107.985 260.536C109.034 260.965 110.389 261.355 111.882 261.27C113.034 261.204 114.254 260.681 115.322 260.06C116.317 261.194 120.582 266.027 121.914 266.985C123.427 268.07 130.168 267.684 130.634 272.063Z" fill="#233862"/>
<path d="M75.9742 106.394C75.0593 112.191 70.8669 123.824 72.8161 129.38C67.9694 128.682 64.5567 127.619 64.3216 126.214C61.9374 120.838 67.7735 110.798 71.1431 105.695C71.5662 105.054 71.9306 104.38 72.2304 103.683C72.9925 101.927 73.3588 100.015 73.2824 98.0876C73.1805 95.4507 72.9552 92.8902 72.681 90.4904C72.681 90.4923 76.9478 100.235 75.9742 106.394Z" fill="url(#paint1_linear)"/>
<path d="M108.726 67.2832C108.887 72.4355 112.613 86.58 113.498 84.713C114.509 82.5835 118.421 74.4886 120.259 74.1908C120.163 73.8167 112.642 65.5024 112.313 65.5984C112.311 65.5984 110.268 66.2213 108.726 67.2832Z" fill="url(#paint2_linear)"/>
<path d="M73.2493 140.372L69.4115 142.927C69.4115 142.927 68.4398 141.712 66.9019 139.773C66.4415 139.189 66.1966 138.836 66.1966 138.836C64.9801 137.269 63.5656 135.345 62.0179 133.259L61.9925 133.235C59.4006 129.594 56.5521 125.454 54.3736 121.71C52.8593 119.056 51.6799 116.599 51.1039 114.667C51.0413 114.473 51.006 114.305 50.9668 114.086C49.8404 109.186 51.9072 99.4591 55.1964 89.9674C55.649 88.6548 56.125 87.3638 56.5815 86.1021C58.331 81.4474 60.2979 77.0728 62.2726 73.5386C63.4304 71.413 64.5843 69.5597 65.6971 68.1766C66.083 67.681 66.4454 67.2147 66.8372 66.817C67.0488 66.5761 67.2604 66.3449 67.47 66.1235C69.7759 66.3175 74.6128 67.2324 78.2038 71.3778C78.143 71.5952 78.0784 71.8127 78.0138 72.036C76.5621 76.7182 74.3209 82.4641 71.9974 88.0965C70.7338 91.1899 69.4409 94.2597 68.3085 97.1474C67.5895 98.8733 66.9411 100.519 66.3534 102.039C65.2484 104.948 64.4276 107.37 64.1024 109.068C63.881 110.169 64.1964 112.24 64.79 114.787C65.8087 119.226 67.7482 125.203 69.5525 130.277C70.2891 132.395 71.016 134.366 71.6233 136C72.5891 138.644 73.2493 140.372 73.2493 140.372Z" fill="#FFCEB1"/>
<path d="M74.9262 86.0337C71.0923 80.2466 60.1039 77.7566 60.1039 77.7566C66.3043 58.0817 82.5842 59.9056 82.5842 59.9056C82.5842 59.9056 76.662 80.374 74.9262 86.0337Z" fill="url(#paint3_linear)"/>
<path d="M69.4095 142.927C69.4095 142.927 70.4185 144.416 70.5301 145.486C70.6438 146.557 71.6017 150.107 72.8399 151.234C74.08 152.36 76.8971 154.615 77.2909 154.276C77.6847 153.937 78.8268 151.281 77.7689 149.402C77.2909 148.554 76.6424 146.189 75.7883 145.617C74.75 144.921 73.2454 140.37 73.2454 140.37L69.4095 142.927Z" fill="#FFCEB1"/>
<path d="M73.2649 140.95C73.2649 140.95 76.3171 142.5 76.7305 143.74C77.1439 144.98 78.8502 147.48 78.6739 147.77C78.4858 148.079 75.8332 146.389 74.9321 144.849C74.0289 143.307 73.2649 140.95 73.2649 140.95Z" fill="#FFCEB1"/>
<path d="M145.903 126.531L257.687 59.6092C263.853 55.9183 271.548 55.9183 277.711 59.6092L389.496 126.531V235.604L145.905 223.392V126.531H145.903Z" fill="#A0C5EF"/>
<path d="M368.528 78.2053H166.871V252.476H368.528V78.2053Z" fill="white"/>
<path d="M175.9 87.7227C176.957 87.2847 177.46 86.0722 177.022 85.0145C176.584 83.9569 175.371 83.4547 174.313 83.8928C173.256 84.3309 172.754 85.5434 173.192 86.601C173.63 87.6586 174.842 88.1608 175.9 87.7227Z" fill="#72A1FE"/>
<path d="M358.102 85.8083C358.102 84.6642 359.03 83.7356 360.174 83.7356C361.318 83.7356 362.247 84.6642 362.247 85.8083C362.247 86.9524 361.318 87.881 360.174 87.881C359.03 87.881 358.102 86.9524 358.102 85.8083Z" fill="#72A1FE"/>
<path d="M360.174 85.5831H175.099V86.0337H360.174V85.5831Z" fill="#72A1FE"/>
<path d="M175.324 84.9832H174.874V270.059H175.324V84.9832Z" fill="#72A1FE"/>
<path d="M360.472 84.9832H360.021V270.059H360.472V84.9832Z" fill="#72A1FE"/>
<path d="M389.496 126.231V272.063H145.903V126.231L267.698 199.148L389.496 126.231Z" fill="#DCEAF9"/>
<path d="M145.903 272.063L257.474 192.074C263.586 187.691 271.81 187.691 277.923 192.074L389.494 272.063H145.903Z" fill="#F1F6FD"/>
<path d="M304.882 102.349H231.358C230.29 102.349 229.416 101.475 229.416 100.407C229.416 99.3394 230.29 98.4657 231.358 98.4657H304.882C305.949 98.4657 306.823 99.3394 306.823 100.407C306.823 101.475 305.949 102.349 304.882 102.349Z" fill="#426ACC"/>
<path d="M323.82 110.136H212.417C211.35 110.136 210.476 109.262 210.476 108.194C210.476 107.127 211.35 106.253 212.417 106.253H323.82C324.888 106.253 325.762 107.127 325.762 108.194C325.762 109.262 324.888 110.136 323.82 110.136Z" fill="#426ACC"/>
<path d="M309.374 134.293H228.772C228 134.293 227.367 133.66 227.367 132.888C227.367 132.116 228 131.484 228.772 131.484H309.374C310.146 131.484 310.779 132.116 310.779 132.888C310.779 133.66 310.146 134.293 309.374 134.293Z" fill="#426ACC"/>
<path d="M236.865 141.629H214.138C213.366 141.629 212.733 140.996 212.733 140.224C212.733 139.452 213.366 138.819 214.138 138.819H236.865C237.637 138.819 238.27 139.452 238.27 140.224C238.27 140.996 237.637 141.629 236.865 141.629Z" fill="#426ACC"/>
<path d="M271.141 141.628H243.682C242.91 141.628 242.278 140.995 242.278 140.223C242.278 139.451 242.91 138.819 243.682 138.819H271.139C271.911 138.819 272.543 139.451 272.543 140.223C272.545 140.995 271.913 141.628 271.141 141.628Z" fill="#426ACC"/>
<path d="M324.006 141.628H276.54C275.768 141.628 275.135 140.995 275.135 140.223C275.135 139.451 275.768 138.819 276.54 138.819H324.006C324.778 138.819 325.411 139.451 325.411 140.223C325.411 140.995 324.778 141.628 324.006 141.628Z" fill="#426ACC"/>
<path d="M271.321 150.156H227.171C226.4 150.156 225.767 149.523 225.767 148.751C225.767 147.979 226.4 147.346 227.171 147.346H271.321C272.093 147.346 272.726 147.979 272.726 148.751C272.726 149.525 272.093 150.156 271.321 150.156Z" fill="#426ACC"/>
<path d="M310.972 150.156H276.199C275.427 150.156 274.794 149.523 274.794 148.751C274.794 147.979 275.427 147.346 276.199 147.346H310.972C311.744 147.346 312.377 147.979 312.377 148.751C312.377 149.525 311.744 150.156 310.972 150.156Z" fill="#426ACC"/>
<path d="M283.724 167.498C281.069 169.702 278.227 171.539 275.233 173.216C275.486 172.423 275.697 171.598 275.658 170.865C275.605 169.854 274.798 169.412 273.991 168.992C273.791 168.889 273.605 168.779 273.419 168.669C273.732 168.362 273.893 167.936 273.685 167.472C273.345 166.706 272.389 166.83 272.065 167.539C272.005 167.67 271.971 167.797 271.956 167.921C271.826 167.852 271.726 167.778 271.64 167.674C272.132 166.755 272.596 165.819 273.023 164.863C273.119 164.647 272.998 164.394 272.825 164.263C272.116 163.728 271.148 163.901 270.578 164.573C269.902 165.37 270.073 166.583 270.396 167.488C270.42 167.551 270.443 167.615 270.471 167.678C269.844 168.81 269.162 169.909 268.431 170.979C268.363 170.91 268.294 170.842 268.225 170.775C268.035 170.589 267.832 170.352 267.655 170.089C267.99 169.218 268.204 168.301 268.284 167.349C268.32 166.924 267.894 166.714 267.538 166.845C266.554 167.21 266.025 168.209 266.153 169.237C266.196 169.59 266.311 169.927 266.472 170.24C266.253 170.716 265.992 171.179 265.685 171.623C265.485 171.911 265.628 172.205 265.863 172.342C265.54 173.416 265.107 174.513 264.366 175.287C263.761 175.918 262.632 176.398 261.896 175.647C261.429 175.173 261.371 174.38 261.306 173.753C261.149 172.207 261.032 170.603 261.089 169.047C261.116 168.311 261.194 167.562 261.445 166.867C261.602 166.434 261.821 165.78 262.031 166.524C262.135 166.89 261.992 167.456 261.954 167.829C261.888 168.493 262.918 168.569 262.985 167.909C263.063 167.129 263.412 165.495 262.53 165.008C261.8 164.602 261.128 165.184 260.789 165.791C259.57 167.978 260.056 170.979 260.238 173.355C260.385 175.25 261.092 177.575 263.512 176.972C265.788 176.406 266.625 173.535 267.148 171.561C267.181 171.437 267.17 171.326 267.132 171.23C267.14 171.214 267.15 171.196 267.16 171.181C267.254 171.277 267.348 171.369 267.444 171.465C267.579 171.584 267.706 171.71 267.83 171.839C267.591 172.17 267.348 172.499 267.097 172.824C266.956 173.008 266.997 173.285 267.138 173.455C267.904 174.378 269.281 173.694 269.254 172.56C269.248 172.297 269.183 172.064 269.082 171.851C269.801 170.816 270.473 169.751 271.096 168.657C271.419 168.975 271.832 169.178 272.338 169.155C272.373 169.153 272.406 169.149 272.441 169.145C272.706 169.425 273.039 169.658 273.343 169.831C273.636 169.995 273.975 170.099 274.24 170.315C274.732 170.716 274.585 171.175 274.477 171.745C274.334 172.495 274.097 173.244 273.877 173.976C272.837 174.574 271.811 175.332 271.46 176.531C271.141 177.624 271.425 178.774 272.361 179.452C272.643 179.656 273.017 179.491 273.137 179.195C273.725 177.751 274.256 176.284 274.71 174.793C274.724 174.746 274.739 174.697 274.755 174.65C275.674 174.127 276.636 173.667 277.545 173.13C279.956 171.702 282.245 170.074 284.402 168.283C284.919 167.848 284.235 167.071 283.724 167.498ZM271.16 166.12C271.15 165.707 271.37 164.949 271.846 164.959C271.63 165.425 271.407 165.887 271.176 166.344C271.168 166.267 271.162 166.193 271.16 166.12ZM272.473 178.067C272.038 177.252 272.661 176.247 273.372 175.583C273.094 176.417 272.792 177.246 272.473 178.067Z" fill="#426ACC"/>
<path d="M162.013 98.7068C162.013 98.7068 165.318 97.4549 165.692 96.591C166.068 95.727 167.157 95.3509 168.472 94.7494C169.786 94.148 170.576 93.0588 170.764 93.2096C170.952 93.3605 170.989 94.1108 170.464 94.675C169.937 95.2392 167.71 99.1828 166.871 99.6334C166.031 100.084 162.013 98.7068 162.013 98.7068Z" fill="#FFCEB1"/>
<path d="M203.913 263.455H161.944C159.601 263.455 157.7 261.555 157.7 259.211V247.767C157.7 245.423 159.601 243.523 161.944 243.523H203.913C206.256 243.523 208.156 245.423 208.156 247.767V259.211C208.156 261.555 206.258 263.455 203.913 263.455Z" fill="white"/>
<path d="M195.375 248.476H163.76C163.407 248.476 163.117 248.188 163.117 247.833C163.117 247.481 163.405 247.191 163.76 247.191H195.375C195.728 247.191 196.018 247.479 196.018 247.833C196.018 248.188 195.728 248.476 195.375 248.476Z" fill="#426ACC"/>
<path d="M169.369 251.246H163.762C163.409 251.246 163.119 250.958 163.119 250.603C163.119 250.251 163.407 249.961 163.762 249.961H169.369C169.721 249.961 170.011 250.249 170.011 250.603C170.009 250.956 169.721 251.246 169.369 251.246Z" fill="#426ACC"/>
<path d="M187.032 251.246H171.584C171.232 251.246 170.942 250.958 170.942 250.603C170.942 250.251 171.23 249.961 171.584 249.961H187.032C187.384 249.961 187.674 250.249 187.674 250.603C187.672 250.956 187.384 251.246 187.032 251.246Z" fill="#426ACC"/>
<path d="M195.375 256.373H163.76C163.407 256.373 163.117 256.085 163.117 255.73C163.117 255.378 163.405 255.088 163.76 255.088H195.375C195.728 255.088 196.018 255.376 196.018 255.73C196.018 256.083 195.728 256.373 195.375 256.373Z" fill="#426ACC"/>
<path d="M175.236 259.141H163.762C163.409 259.141 163.119 258.853 163.119 258.498C163.119 258.146 163.407 257.856 163.762 257.856H175.236C175.589 257.856 175.879 258.144 175.879 258.498C175.877 258.851 175.589 259.141 175.236 259.141Z" fill="#426ACC"/>
<path d="M189.197 259.141H177.722C177.37 259.141 177.08 258.853 177.08 258.498C177.08 258.146 177.368 257.856 177.722 257.856H189.197C189.549 257.856 189.839 258.144 189.839 258.498C189.839 258.851 189.551 259.141 189.197 259.141Z" fill="#426ACC"/>
</g>
<defs>
<linearGradient id="paint0_linear" x1="88.8998" y1="59.8228" x2="88.8998" y2="130.355" gradientUnits="userSpaceOnUse">
<stop stop-color="#FA5252"/>
<stop offset="1" stop-color="#FA7A52"/>
</linearGradient>
<linearGradient id="paint1_linear" x1="69.9416" y1="90.4904" x2="69.9416" y2="129.38" gradientUnits="userSpaceOnUse">
<stop stop-color="#FE6E6E"/>
<stop offset="1" stop-color="#FA7A52"/>
</linearGradient>
<linearGradient id="paint2_linear" x1="114.492" y1="65.5975" x2="114.492" y2="84.8816" gradientUnits="userSpaceOnUse">
<stop stop-color="#FE6E6E"/>
<stop offset="1" stop-color="#FA7A52"/>
</linearGradient>
<linearGradient id="paint3_linear" x1="71.3441" y1="59.861" x2="71.3441" y2="86.0337" gradientUnits="userSpaceOnUse">
<stop stop-color="#FE6E6E"/>
<stop offset="1" stop-color="#FA7A52"/>
</linearGradient>
</defs>
</svg>
