<svg width="13" height="13" viewBox="0 0 13 13" fill="none" xmlns="http://www.w3.org/2000/svg">
<g clip-path="url(#clip0)">
<path d="M7.26218 6.50387L12.8347 0.931304C13.0498 0.723586 13.0558 0.380858 12.8481 0.165781C12.6404 -0.0492968 12.2976 -0.0552605 12.0825 0.152457C12.078 0.156803 12.0736 0.161244 12.0692 0.165781L6.49662 5.73835L0.924049 0.165749C0.708971 -0.0419689 0.366243 -0.0360051 0.158525 0.179072C-0.0441179 0.388884 -0.0441179 0.721492 0.158525 0.931304L5.7311 6.50387L0.158525 12.0764C-0.0528415 12.2878 -0.0528415 12.6306 0.158525 12.842C0.369922 13.0533 0.712651 13.0533 0.924049 12.842L6.49662 7.26939L12.0692 12.842C12.2843 13.0497 12.627 13.0437 12.8347 12.8286C13.0373 12.6188 13.0373 12.2862 12.8347 12.0764L7.26218 6.50387Z" fill="black"/>
</g>
<defs>
<clipPath id="clip0">
<rect width="13" height="13" fill="white"/>
</clipPath>
</defs>
</svg>
