<svg width="423" height="468" viewBox="0 0 423 468" fill="none" xmlns="http://www.w3.org/2000/svg">
<path d="M391.825 199.903L391.952 256.571C391.952 258.194 393.017 259.792 395.148 261.035C399.409 263.521 406.334 263.521 410.621 261.035C412.777 259.792 413.843 258.144 413.843 256.52C413.843 256.52 413.716 199.852 413.716 199.878C413.716 198.254 412.65 196.631 410.545 195.413C406.284 192.927 399.359 192.927 395.072 195.413C392.763 196.732 391.723 198.508 391.85 200.233C391.85 200.106 391.825 200.005 391.825 199.903Z" fill="#547CDD"/>
<path d="M287.266 259.665L287.393 316.333C287.393 317.956 288.458 319.554 290.589 320.797C294.851 323.283 301.776 323.283 306.063 320.797C308.219 319.554 309.284 317.905 309.284 316.282C309.284 316.282 309.157 259.614 309.157 259.64C309.157 258.016 308.092 256.393 305.986 255.175C301.725 252.689 294.8 252.689 290.513 255.175C288.205 256.494 287.165 258.27 287.292 259.995C287.292 259.868 287.266 259.766 287.266 259.665Z" fill="#547CDD"/>
<path d="M180.095 198.964L180.222 255.632C180.222 257.255 181.287 258.854 183.418 260.096C187.679 262.582 194.604 262.582 198.891 260.096C201.047 258.854 202.113 257.205 202.113 255.581C202.113 255.581 201.986 198.914 201.986 198.939C201.986 197.316 200.92 195.692 198.815 194.475C194.554 191.989 187.629 191.989 183.342 194.475C181.033 195.794 179.993 197.569 180.12 199.294C180.12 199.167 180.095 199.066 180.095 198.964Z" fill="black"/>
<path d="M270.246 55.3674C270.931 50.1166 274.558 44.46 278.819 41.9994L288.433 36.4443C290.843 35.0492 293.05 34.9223 294.623 35.8355L420.463 109.701C418.865 108.788 416.684 108.915 414.274 110.31L404.66 115.865C400.399 118.326 396.771 124.008 396.087 129.233L376.098 194.576L376.276 271.055L250.435 182.806L250.257 120.71L270.246 55.3674Z" fill="#C1D9F5"/>
<path d="M404.66 115.865C400.399 118.326 396.772 124.008 396.087 129.233L376.098 194.576L376.276 271.054L413.741 249.417C417.698 247.134 420.184 242.949 420.286 238.358L423 115.282C422.975 109.752 419.068 107.52 414.249 110.285L404.66 115.865Z" fill="#DCEAF9"/>
<path d="M167.411 153.458L245.741 107.926L273.974 124.211L273.898 150.997C273.872 155.867 277.297 161.778 281.533 164.238L328.054 191.202L358.848 173.319L387.106 189.629L386.954 256.697C386.929 261.948 385.077 265.651 382.084 267.402L303.753 312.934C303.931 312.832 304.109 312.68 304.286 312.553C301.217 314.684 296.778 314.608 291.831 311.767L183.95 249.366C174.691 244.04 167.233 231.103 167.284 220.5L167.411 153.458Z" fill="#CB333A"/>
<path d="M195.645 169.768L274.001 124.236L245.768 107.951L167.413 153.458L195.645 169.768Z" fill="#CB333A"/>
<path d="M195.644 169.768L273.975 124.236L273.899 151.022C273.873 155.892 277.298 161.803 281.534 164.263L351.087 204.519C353.218 205.737 355.121 205.864 356.516 205.052L278.185 250.584C276.79 251.396 274.862 251.269 272.757 250.051L203.203 209.795C198.967 207.36 195.543 201.424 195.568 196.554L195.644 169.768Z" fill="#F1F6FD"/>
<path d="M308.625 302.255L308.777 235.187L387.107 189.655L386.955 256.723C386.929 261.973 385.078 265.677 382.085 267.427L303.754 312.959C306.748 311.209 308.599 307.505 308.625 302.255Z" fill="#DCEAF9"/>
<path d="M167.412 153.457L167.26 220.525C167.234 231.128 174.692 244.039 183.925 249.392L291.807 311.792C301.04 317.119 308.548 312.857 308.599 302.254L308.751 235.187L280.494 218.876L280.417 245.663C280.392 250.533 276.968 252.486 272.757 250.051L203.203 209.795C198.967 207.36 195.543 201.424 195.568 196.554L195.644 169.768L167.412 153.457Z" fill="#C1D9F5"/>
<path d="M308.777 235.187L387.107 189.655L358.875 173.345L280.519 218.877L308.777 235.187Z" fill="#CB333A"/>
<path d="M246.655 92.7819C249.674 91.0316 253.885 91.2599 258.501 93.9487C267.709 99.2756 275.116 112.136 275.09 122.688C275.065 127.939 273.213 131.643 270.246 133.368L191.89 178.9C194.883 177.175 196.735 173.471 196.735 168.22C196.76 157.668 189.353 144.782 180.145 139.481C175.529 136.817 171.344 136.564 168.3 138.314L246.655 92.7819Z" fill="#A9C9FB"/>
<path d="M180.145 139.481C170.963 134.179 163.48 138.441 163.455 148.993C163.429 159.571 170.861 172.431 180.044 177.733C189.252 183.059 196.71 178.798 196.735 168.22C196.786 157.668 189.353 144.782 180.145 139.481Z" fill="#90B4EC"/>
<path d="M304.402 153.065C304.402 153.065 293.878 150.782 288.589 153.789L239.646 182.019C235.303 184.524 232.185 191.262 233.577 195.27L245.548 230.46C245.548 230.46 254.958 237.142 253.844 234.859C252.731 232.576 251.116 224.669 250.392 220.883C249.836 218.155 246.55 206.852 243.154 197.832C242.096 195.048 244.323 189.702 247.441 187.809C261.25 179.457 294.602 159.858 297.999 159.524C302.342 159.078 313.255 158.299 313.255 158.299C313.255 158.299 307.074 154.624 304.402 153.065Z" fill="#71A8E8"/>
<path d="M312.531 157.798C312.531 157.798 302.007 155.515 296.718 158.522L247.775 186.751C243.432 189.257 240.314 195.994 241.706 200.003L253.677 235.193C253.677 235.193 260.414 233.634 259.301 231.295C258.187 229.012 255.292 230.46 254.568 226.674C254.011 223.946 247.719 206.908 244.323 197.887C243.265 195.103 245.381 190.315 248.499 188.477C262.308 180.125 294.379 160.972 297.776 160.637C302.119 160.192 311.584 161.083 311.584 161.083C311.584 161.083 315.259 159.357 312.531 157.798Z" fill="#E3EEFA"/>
<path d="M234.913 323.669V325.228L244.434 330.685V327.121L234.913 323.669Z" fill="#2B3E6A"/>
<path d="M251.173 323.78C251.117 324.727 250.17 320.941 248.89 321.664L244.38 327.177V330.74L249.168 327.956C250.282 327.344 250.894 326.509 251.061 325.729C251.284 325.061 251.228 324.337 251.173 323.78Z" fill="#2B3E6A"/>
<path d="M251.226 319.326V323.78C251.17 323.78 244.266 326.898 241.649 329.459C239.088 331.965 229.344 341.319 223.33 343.658C214.589 347.11 203.23 345.662 202.84 343.825C202.45 342.099 204.566 335.918 207.35 334.304C210.858 332.299 217.373 325.395 219.043 322.667C220.714 319.938 224.611 314.203 227.339 315.818C230.068 317.377 236.527 322.667 236.527 322.667C236.527 322.667 245.547 317.767 246.994 315.317C248.442 312.867 248.943 309.248 248.943 309.248C248.943 309.248 251.226 315.205 251.226 319.326Z" fill="#4E6395"/>
<path d="M247.049 315.317C248.218 313.256 248.775 310.472 248.942 309.526C248.663 309.025 248.051 308.635 247.049 308.078C244.209 306.408 240.2 308.579 237.527 311.196C236.024 312.7 232.238 315.261 229.342 317.154C232.405 319.325 236.581 322.722 236.581 322.722C236.581 322.722 245.601 317.822 247.049 315.317Z" fill="#FB9668"/>
<path d="M244.765 307.521C242.316 307.521 239.532 309.247 237.527 311.196C236.024 312.699 230.623 316.207 227.727 318.045L235.021 323.668C235.021 323.668 245.601 317.766 247.048 315.316C248.218 313.256 248.774 310.472 248.941 309.526C248.663 309.025 248.05 308.635 247.048 308.078C246.324 307.688 245.545 307.521 244.765 307.521Z" fill="#EFA770"/>
<path d="M251.225 319.326V322.555C251.17 322.555 249.332 323.39 247.161 324.56C245.156 325.617 242.929 327.009 241.648 328.29C240.869 329.07 239.421 330.629 237.639 332.41C233.63 336.419 227.617 341.097 223.385 342.544C215.423 345.217 208.741 344.938 205.234 343.992C204.12 343.658 203.396 342.544 203.675 341.431C204.231 338.702 205.178 335.751 207.461 334.415C209.521 333.246 212.583 330.406 215.089 327.733C216.926 325.785 218.485 323.891 219.154 322.778C220.212 321.052 222.105 318.156 224.109 316.653C225.278 315.762 226.448 315.317 227.45 315.929C227.784 316.152 228.229 316.375 228.619 316.709C228.842 316.876 229.12 317.043 229.343 317.21C232.405 319.381 236.582 322.778 236.582 322.778C236.582 322.778 245.602 317.878 247.049 315.372C248.219 313.312 248.775 310.528 248.942 309.582C248.998 309.415 248.998 309.303 248.998 309.303C248.998 309.303 250 311.92 250.669 314.871C250.947 316.375 251.225 317.934 251.225 319.326Z" fill="#2B3E6A"/>
<path d="M250.612 314.816C250.557 314.983 250.445 315.205 250.334 315.372C248.998 317.878 247.16 322.221 247.16 324.56C245.156 325.618 242.928 327.01 241.648 328.29C240.868 329.07 239.421 330.629 237.639 332.41C235.356 330.963 232.127 329.626 229.343 330.74C224.331 332.745 220.267 330.629 219.098 329.459C217.928 328.29 218.541 327.232 218.541 327.232C218.541 327.232 225.835 316.876 227.839 316.876C228.006 316.876 228.229 316.82 228.563 316.709C228.786 316.876 229.064 317.043 229.287 317.21C232.349 319.381 236.525 322.778 236.525 322.778C236.525 322.778 245.545 317.878 246.993 315.372C248.162 313.312 248.719 310.528 248.886 309.582C248.942 309.415 248.942 309.303 248.942 309.303C248.942 309.303 249.944 311.865 250.612 314.816Z" fill="#2B3E6A"/>
<path d="M224.332 317.989C224.332 317.989 218.096 325.84 216.76 327.176C216.091 327.844 215.479 327.844 215.034 327.677C216.871 325.729 218.43 323.835 219.098 322.722C220.156 320.996 222.049 318.1 224.054 316.597C224.332 317.321 224.332 317.989 224.332 317.989Z" fill="#3A54C0"/>
<path d="M220.548 328.401C220.325 328.346 216.873 326.397 216.873 326.397C216.761 326.341 216.65 326.23 216.65 326.119C216.594 326.007 216.65 325.84 216.706 325.729C216.817 325.506 217.095 325.45 217.151 325.45C217.374 325.506 220.826 327.455 220.826 327.455C221.049 327.566 221.16 327.9 220.993 328.123C220.882 328.401 220.659 328.401 220.548 328.401Z" fill="#4C64C6"/>
<path d="M222.273 325.729C222.05 325.673 218.598 323.725 218.598 323.725C218.375 323.613 218.264 323.279 218.431 323.056C218.542 322.834 218.765 322.778 218.876 322.778C219.155 322.834 222.551 324.782 222.551 324.782C222.774 324.894 222.885 325.228 222.718 325.451C222.551 325.729 222.328 325.729 222.273 325.729Z" fill="#4C64C6"/>
<path d="M223.999 323.056C223.721 323 220.325 321.051 220.325 321.051C220.102 320.94 219.99 320.606 220.157 320.383C220.269 320.161 220.491 320.105 220.603 320.105C220.826 320.161 224.278 322.109 224.278 322.109C224.5 322.221 224.612 322.555 224.445 322.778C224.278 323.056 224.055 323.056 223.999 323.056Z" fill="#4C64C6"/>
<path d="M225.67 320.439C225.447 320.383 221.995 318.435 221.995 318.435C221.884 318.379 221.772 318.268 221.772 318.156C221.717 318.045 221.772 317.878 221.828 317.766C221.939 317.544 222.162 317.488 222.273 317.488C222.552 317.544 225.948 319.493 225.948 319.493C226.171 319.604 226.282 319.938 226.115 320.161C226.004 320.383 225.781 320.439 225.67 320.439Z" fill="#4C64C6"/>
<path d="M246.662 155.348C246.662 155.348 183.131 190.538 182.407 199.28C179.567 233.3 176.449 294.659 176.449 294.659C176.449 294.659 185.915 304.459 193.265 300.673C208.298 292.933 204.79 284.86 204.79 284.86C204.79 284.86 219.434 239.425 214.813 222.554C213.142 216.429 230.904 216.095 241.706 207.854C269.713 186.473 290.983 198.333 284.079 172.553C281.295 162.03 246.662 155.348 246.662 155.348Z" fill="#426ACC"/>
<path d="M311.64 147.163C311.64 147.163 296.16 151.729 293.711 150.281C291.261 148.833 279.958 167.041 279.958 167.041C279.958 167.041 206.794 193.712 218.877 227.008C224.166 241.541 222.83 317.989 222.83 317.989C222.83 317.989 232.964 327.399 240.314 323.613C255.347 315.873 249.612 312.143 250.67 307.521C264.868 245.717 257.463 235.75 257.463 235.75C257.463 235.75 327.787 196.83 320.882 171.05C318.043 160.526 311.64 147.163 311.64 147.163Z" fill="#527ADB"/>
<path d="M303.621 12.1947C312.418 25.4465 269.266 39.0324 269.266 39.0324C269.266 39.0324 265.758 27.785 259.689 27.785C253.564 27.785 256.905 15.8138 259.077 12.1947C262.418 6.73802 289.255 -9.46485 303.621 12.1947Z" fill="#426ACC"/>
<path d="M225.113 99.5564C225.113 99.5564 225.058 91.7612 221.327 90.7589C217.597 89.7567 209.69 93.6543 209.022 97.6633C208.298 101.672 205.347 100.002 208.465 103.064C211.583 106.127 225.113 99.5564 225.113 99.5564Z" fill="#DAECFF"/>
<path d="M259.857 114.311C256.405 124.612 254.512 128.12 247.886 137.307C241.26 146.55 211.527 101.839 211.527 101.839L215.425 91.4269C215.425 91.4269 223.721 105.904 233.02 109.022C244.378 112.808 249.222 110.971 249.222 110.971C249.222 110.971 263.31 104.011 259.857 114.311Z" fill="#FFCEB1"/>
<path d="M214.366 103.009C214.366 103.009 220.602 98.1644 221.382 92.6521C223.664 76.2822 212.306 87.0284 207.016 77.3401C207.016 77.3401 197.328 80.5138 203.675 94.1554C204.344 95.5474 206.014 96.9394 208.074 98.9996C208.798 99.7791 214.366 103.009 214.366 103.009Z" fill="#FFCEB1"/>
<path d="M221.995 91.2044C221.995 91.2044 221.883 98.4985 217.317 100.67C209.077 104.623 207.017 101.338 207.017 101.338C207.017 101.338 244.211 150.782 249.723 139.757C255.236 128.733 272.274 96.6611 272.274 94.0441C272.274 91.4271 268.71 45.0458 256.46 48.3866C244.211 51.7273 244.322 61.527 243.042 77.3958C241.761 93.2646 244.155 94.3782 240.536 100.948C236.972 107.463 221.995 91.2044 221.995 91.2044Z" fill="url(#paint0_linear)"/>
<path d="M297.218 56.6829C297.218 56.6829 318.153 65.1463 325.336 73.6097C332.574 82.073 328.009 113.532 328.009 126.728C328.009 129.345 315.871 153.622 319.323 159.357C322.831 165.092 321.049 172.386 321.049 172.386C321.049 172.386 323.833 192.264 300.893 186.807C277.952 181.35 239.366 171.662 251.282 150.893C254.567 145.158 257.518 142.987 256.015 134.969C254.511 127.007 251.226 105.18 248.72 92.2067C246.215 79.2333 255.569 56.1818 263.309 51.7274C271.104 47.2174 279.4 54.9012 285.024 56.6829C290.759 58.4647 297.218 56.6829 297.218 56.6829Z" fill="url(#paint1_linear)"/>
<path d="M300.281 69.3778L299.947 59.4668C299.947 59.4668 288.589 72.9413 283.745 72.9413C278.9 72.9413 277.731 78.0082 277.731 78.0082L280.07 86.4159C280.07 86.4159 287.865 85.8591 294.658 79.0661C301.395 72.2732 300.281 69.3778 300.281 69.3778Z" fill="#FA6653"/>
<path d="M277.174 70.38C275.448 65.9813 277.731 64.0325 277.731 64.0325C277.731 64.0325 273.388 65.4801 271.884 68.9323C270.771 71.5493 270.437 77.7854 270.325 80.7365L277.731 78.0082C277.731 77.9525 278.9 74.7787 277.174 70.38Z" fill="#FA6653"/>
<path d="M270.268 82.2397C270.491 82.1284 270.324 80.9034 270.324 80.9034C270.268 81.7386 270.268 82.2397 270.268 82.2397Z" fill="#C3DAF5"/>
<path d="M270.325 80.7366C270.325 80.9593 270.492 82.1843 270.492 82.1843L267.597 81.015L265.314 79.7344L263.031 115.481L271.717 106.628L271.884 105.904L278.454 90.2579L279.623 84.8569L277.73 78.064L270.325 80.7366Z" fill="#FFAAA2"/>
<path d="M270.325 80.7366C270.325 80.9593 270.492 82.1843 270.492 82.1843L271.383 88.3091L263.922 102.452L263.031 115.481L271.717 106.628L271.884 105.904L274.222 88.5875L279.568 84.8569L277.675 78.064L270.325 80.7366Z" fill="#FA6753"/>
<path d="M273.832 51.1705C272.218 55.792 264.868 63.0304 264.868 63.0304L271.048 70.9369L263.364 66.5939C263.364 66.5939 263.364 65.7587 263.364 75.1129C263.364 84.2444 263.364 87.3068 263.364 94.5452C263.364 99.111 262.696 116.427 262.696 116.427C262.696 116.427 266.538 88.142 270.937 79.8457C275.391 71.4937 286.583 52.6739 286.583 52.6739L282.073 47.3286L273.832 51.1705Z" fill="#FF8878"/>
<path d="M270.437 58.2421C270.437 58.2421 277.174 67.5963 277.174 70.3803C277.174 73.1643 276.45 73.9995 277.731 77.9528C279.067 81.9061 285.971 74.3336 293.043 69.211C301.562 63.0306 301.45 60.5249 301.45 60.5249C301.45 60.5249 296.773 53.9547 296.773 47.9413C296.773 41.9835 270.437 58.2421 270.437 58.2421Z" fill="#FFC39F"/>
<path d="M305.959 26.059C305.959 13.2526 295.547 2.84045 282.741 2.84045C273.442 2.84045 265.369 8.35275 261.694 16.2593C261.694 16.2593 257.462 23.8318 257.462 27.8407C257.462 31.8497 259.188 29.9009 258.353 33.7428C257.462 37.5847 254.901 39.3108 258.186 45.881C261.471 52.507 262.418 58.0749 263.086 58.7431C263.754 59.4113 262.362 61.8612 273.609 59.801C284.912 57.7409 292.708 52.1729 296.215 48.665C297.942 46.939 299.556 43.5425 300.781 40.5358C304.011 36.6382 305.959 31.5713 305.959 26.059Z" fill="#FFCEB1"/>
<path d="M307.129 17.7626C312.418 32.7406 296.884 48.9434 296.884 48.9434C296.884 48.9434 293.376 37.696 287.307 37.696C281.182 37.696 287.696 13.3639 289.868 9.74472C293.153 4.28808 301.839 2.78473 307.129 17.7626Z" fill="#426ACC"/>
<path d="M290.869 36.9164C290.925 36.805 292.762 32.9631 294.544 34.188C296.326 35.413 297.439 37.7516 296.827 40.9253C296.214 44.0991 294.544 47.9967 292.372 47.941C290.201 47.8853 289.533 48.1637 288.419 46.4933C287.25 44.8229 287.974 42.8741 287.974 42.8741L290.869 36.9164Z" fill="#FFCEB1"/>
<path d="M290.034 37.1948C290.09 37.0834 291.927 33.2415 293.709 34.4665C295.491 35.6914 296.605 38.03 295.992 41.2038C295.38 44.3775 293.709 48.2751 291.538 48.2194C289.366 48.1637 288.698 48.4422 287.584 46.7718C286.415 45.1014 287.139 43.1525 287.139 43.1525L290.034 37.1948Z" fill="#FFCEB1"/>
<path d="M291.705 38.1414C291.705 38.1414 292.373 40.0345 292.595 40.8697C292.818 41.7049 293.097 43.0412 292.651 43.7094C292.206 44.3775 291.76 44.7673 291.76 44.7673C291.76 44.7673 291.927 41.4265 291.649 40.2016C291.371 38.9209 291.315 37.8073 291.872 36.9164C292.428 35.9699 292.874 34.8006 293.765 35.9142C294.6 37.0278 295.324 38.2527 295.045 40.2572C294.823 42.2617 294.155 44.3775 293.208 45.2684C292.261 46.1593 291.036 46.6047 291.036 46.6047C291.036 46.6047 293.486 45.6025 294.043 43.3196C294.544 41.0367 294.823 37.5289 294.155 36.9164C293.486 36.3039 293.375 36.1926 293.264 37.0278C293.152 37.863 293.653 39.1993 293.041 38.7539C292.428 38.3084 292.373 37.1392 291.983 37.5846C291.538 38.03 291.705 38.1414 291.705 38.1414Z" fill="#FFCEB1"/>
<path d="M291.148 41.9832C291.148 41.9832 290.87 40.0901 290.48 40.1457C290.091 40.2014 289.979 40.2014 289.756 40.8139C289.478 41.4264 289.478 41.7048 288.866 41.482C288.309 41.315 287.863 40.7582 288.364 41.6491C288.866 42.4843 289.033 41.5934 289.868 42.2059C290.703 42.8184 290.425 43.5979 290.981 43.6536C291.538 43.7092 291.26 42.4286 291.093 42.0388L291.148 41.9832Z" fill="#FFCEB1"/>
<path d="M283.409 98.5541C285.302 97.4405 293.933 90.8703 293.933 90.8703L288.031 84.0773L296.605 86.1375C296.605 86.1375 306.349 71.8277 306.349 65.87C306.349 59.9122 298.109 54.3442 298.109 54.3442C298.109 54.3442 301.45 65.2575 298.164 68.5426C294.824 71.8834 276.449 88.1419 273.832 91.9839C271.215 95.8258 263.03 115.481 263.03 115.481L283.409 98.5541Z" fill="#FF8878"/>
<path d="M289.144 20.1568C289.144 20.1568 281.794 15.591 273.163 15.591C264.533 15.591 258.408 13.5866 261.081 5.90274C263.754 -1.7811 270.101 4.73348 280.457 1.44836C290.758 -1.78107 303.899 3.61988 303.899 12.7514C303.899 21.8829 289.144 20.1568 289.144 20.1568Z" fill="#426ACC"/>
<path d="M205.179 86.3601C205.179 86.3601 204.4 85.0795 204.4 83.4647C204.4 81.85 206.85 81.0148 207.017 78.5649C207.184 76.115 204.957 75.7252 204.957 75.7252L200.614 79.7342L198.164 85.6362L202.785 91.8724C202.785 91.8167 205.681 86.9726 205.179 86.3601Z" fill="#FFCEB1"/>
<path d="M206.182 80.5697C206.182 80.5697 205.403 79.289 205.403 77.6743C205.403 76.0596 207.853 75.2244 208.02 72.7745C208.187 70.3246 205.96 69.9348 205.96 69.9348L201.617 73.9438L199.167 79.8458L203.788 86.082C203.788 86.0263 206.684 81.2379 206.182 80.5697Z" fill="#FFCEB1"/>
<path d="M207.629 81.7392C207.629 81.7392 206.849 74.2224 206.849 72.6077C206.849 70.993 209.299 70.1577 209.466 67.7078C209.633 65.2579 207.406 64.8682 207.406 64.8682L203.063 68.8771L200.613 74.7792L201.783 83.855C201.727 83.7993 208.13 82.3517 207.629 81.7392Z" fill="#FFCEB1"/>
<path d="M217.985 73.6652C217.985 73.6652 210.023 73.2198 209.076 72.1618C208.13 71.1039 207.573 72.6073 208.631 73.9436C209.689 75.2799 210.747 76.3935 211.081 76.5606C211.415 76.6719 215.09 77.3401 215.09 77.3401L214.867 87.9193H221.66L220.881 79.2889L217.985 73.6652Z" fill="#FFCEB1"/>
<path d="M228.734 177.564C228.734 177.564 230.404 179.346 231.295 180.96C232.13 182.575 235.527 182.742 235.527 182.742L240.315 182.185L246.83 177.619L243.211 176.06L228.734 177.564Z" fill="#FFCEB1"/>
<path d="M225.727 176.283C225.727 176.283 227.397 178.065 228.288 179.68C229.123 181.294 232.52 181.462 232.52 181.462L237.308 180.905L242.208 178.622L240.148 174.724L225.727 176.283Z" fill="#FFCEB1"/>
<path d="M222.666 173.722C222.666 173.722 224.336 175.504 225.227 177.118C226.062 178.733 229.458 178.9 229.458 178.9L234.247 178.343L239.147 176.06L237.087 172.163L222.666 173.722Z" fill="#FFCEB1"/>
<path d="M320.105 83.1307C323.056 81.1262 327.733 73.9435 331.798 83.3534C335.918 92.7633 334.192 114.479 328.234 123.554C322.277 132.63 319.103 140.203 313.145 149.223C307.187 158.299 279.737 174.724 268.434 174.557C257.075 174.39 247.109 177.341 247.109 177.341L245.772 164.98C245.772 164.98 273.055 150.67 282.131 146.884C292.543 142.486 298.724 141.984 298.724 141.984C298.724 141.984 304.626 108.465 306.074 103.454C308.635 94.8235 313.034 87.9192 320.105 83.1307Z" fill="#FFCEB1"/>
<path d="M252.955 165.147C252.955 165.147 249.893 162.14 244.436 163.365C239.035 164.59 234.971 168.933 234.971 168.933C234.971 168.933 238.924 179.29 239.258 180.793C239.592 182.297 255.628 172.441 255.405 171.439C255.238 170.492 252.955 165.147 252.955 165.147Z" fill="#FFCEB1"/>
<path d="M250.95 163.922C250.95 163.922 244.769 160.916 240.203 160.749C235.638 160.582 231.016 163.811 228.51 162.196C225.949 160.582 226.784 165.036 228.51 166.094C230.237 167.152 237.308 166.372 237.698 167.987C238.032 169.49 250.95 163.922 250.95 163.922Z" fill="#FFCEB1"/>
<path d="M237.197 172.33L236.863 172.497L229.068 176.172L223.054 175.058L217.263 171.105C217.263 171.105 219.045 168.766 221.05 169.991C223.054 171.272 224.725 172.219 224.725 172.219L228.511 172.386L234.97 168.878L237.197 172.33Z" fill="#FFCEB1"/>
<path d="M309.859 87.8635C313.311 82.3512 318.656 68.4869 328.902 75.2242C339.147 81.9615 335.806 109.3 328.122 126.784C320.382 144.267 304.124 169.045 306.574 165.259L254.624 179.791C254.624 179.791 245.771 162.419 252.731 158.577C259.691 154.735 299.168 140.481 299.781 128.454C300.282 116.483 302.899 98.9995 309.859 87.8635Z" fill="url(#paint2_linear)"/>
<path opacity="0.76" d="M55.68 241.151L0 208.467V169.379L55.68 202.064V241.151Z" fill="#FEFEFE"/>
<path d="M361.183 156.984C364.201 155.233 368.412 155.462 373.029 158.15C382.237 163.477 389.644 176.338 389.618 186.89C389.593 192.141 387.741 195.844 384.773 197.569L306.443 243.101C309.436 241.376 311.288 237.673 311.288 232.422C311.313 221.87 303.906 209.009 294.699 203.682C290.082 201.019 285.871 200.765 282.853 202.516L361.183 156.984Z" fill="#A9C9FB"/>
<path d="M294.699 203.657C285.516 198.355 278.033 202.617 278.008 213.169C277.982 223.747 285.415 236.607 294.597 241.909C303.805 247.236 311.263 242.974 311.288 232.397C311.313 221.844 303.906 208.984 294.699 203.657Z" fill="#90B4EC"/>
<path d="M60.3925 382.97C61.813 382.133 63.7408 382.184 65.8969 383.249L103.413 401.995L95.9049 406.358L58.3885 387.612C56.2324 386.547 54.3046 386.496 52.8841 387.333L60.3925 382.97Z" fill="#F1F6FD"/>
<path d="M95.8797 419.066L103.388 414.703L103.413 401.969L95.9304 406.332L95.8797 419.066Z" fill="#5E3930"/>
<path d="M95.9303 406.332L58.414 387.587C53.9242 385.354 50.4237 387.612 50.4237 392.787L95.905 419.04L95.9303 406.332Z" fill="#DAE9FB"/>
<path d="M172.587 382.97C171.166 382.133 169.238 382.184 167.082 383.249L129.566 401.995L137.074 406.358L174.591 387.612C176.747 386.547 178.675 386.496 180.095 387.333L172.587 382.97Z" fill="#F1F6FD"/>
<path d="M137.1 419.066L129.617 414.703L129.566 401.969L137.074 406.332L137.1 419.066Z" fill="#5E3930"/>
<path d="M137.074 406.332L174.59 387.587C179.08 385.354 182.581 387.612 182.581 392.787L137.099 419.04L137.074 406.332Z" fill="#DAE9FB"/>
<path d="M89.5128 414.297V429.263C89.5128 433.195 92.1002 437.101 97.2748 440.094C107.65 446.081 124.442 446.081 134.791 440.094C139.966 437.101 142.553 433.195 142.553 429.263V414.297H89.5128Z" fill="#C1D9F5"/>
<path d="M116.046 429.618C130.699 429.618 142.579 422.759 142.579 414.297C142.579 405.835 130.699 398.976 116.046 398.976C101.392 398.976 89.5128 405.835 89.5128 414.297C89.5128 422.759 101.392 429.618 116.046 429.618Z" fill="#DCE9FB"/>
<path d="M105.671 324.653V408.285C105.671 409.807 106.686 411.354 108.715 412.521C112.773 414.855 119.343 414.855 123.402 412.521C125.431 411.354 126.446 409.807 126.446 408.285V324.653H105.671Z" fill="#C1D9F5"/>
<path d="M123.376 320.418C127.435 322.751 127.435 326.556 123.376 328.89C119.318 331.223 112.748 331.223 108.69 328.89C104.631 326.556 104.631 322.751 108.69 320.418C112.773 318.084 119.343 318.084 123.376 320.418Z" fill="#F1F6FD"/>
<path d="M178.42 448.364L140.929 423.784L133.421 428.147L170.912 452.727C175.402 455.669 178.877 461.96 178.852 467.134L186.36 462.771C186.36 457.571 182.885 451.281 178.42 448.364Z" fill="#F1F6FD"/>
<path d="M133.421 428.147L170.912 452.727C175.402 455.669 178.877 461.96 178.852 467.134L133.37 440.881L133.421 428.147Z" fill="#DAE9FB"/>
<path d="M53.696 448.364L91.187 423.784L98.6953 428.147L61.179 452.701C56.6892 455.644 53.214 461.934 53.2394 467.109L45.7311 462.746C45.7311 457.571 49.2062 451.281 53.696 448.364Z" fill="#F1F6FD"/>
<path d="M98.67 428.147L61.179 452.701C56.6892 455.644 53.2141 461.934 53.2394 467.109L98.7207 440.855L98.67 428.147Z" fill="#DAE9FB"/>
<path d="M4.73954 312.554V319.327C4.73954 335.764 15.5962 352.227 37.3349 364.783C80.8123 389.87 151.279 389.87 194.756 364.783C216.495 352.227 227.352 335.79 227.352 319.327V312.554H4.73954Z" fill="#C1D9F5"/>
<path d="M116.046 376.832C177.518 376.832 227.352 348.054 227.352 312.554C227.352 277.055 177.518 248.277 116.046 248.277C54.573 248.277 4.73954 277.055 4.73954 312.554C4.73954 348.054 54.573 376.832 116.046 376.832Z" fill="#F1F6FD"/>
<path d="M109.009 284.287L125.065 319.618C125.116 319.734 125.325 319.774 125.682 319.718C126.387 319.611 127.42 319.153 127.973 318.703C128.255 318.476 128.364 318.289 128.315 318.179L109.009 277.178L109.009 284.287Z" fill="#426ACC"/>
<path d="M108.169 278.47L89.9416 319.618C89.8904 319.734 89.6815 319.774 89.3239 319.718C88.6194 319.61 87.5858 319.153 87.0329 318.703C86.7511 318.476 86.6425 318.289 86.6916 318.179L105.455 277.178L108.169 278.47Z" fill="#426ACC"/>
<path d="M105.455 204.375V320.135C105.455 320.46 105.63 320.772 105.979 321.013C106.667 321.494 107.797 321.494 108.485 321.013C108.835 320.772 109.009 320.446 109.009 320.135V204.375H105.455Z" fill="#5A7FD9"/>
<path d="M108.483 203.483C109.171 203.965 109.171 204.758 108.483 205.239C107.796 205.72 106.665 205.72 105.978 205.239C105.29 204.758 105.29 203.965 105.978 203.483C106.665 203.002 107.796 203.002 108.483 203.483Z" fill="#547CDD"/>
<path d="M89.6141 182.287C89.5239 181.237 90.5152 180.424 91.5268 180.718L124.108 190.177C124.715 190.353 125.147 190.892 125.186 191.524L126.106 206.23C126.17 207.268 125.184 208.056 124.186 207.762L91.9482 198.289C91.355 198.114 90.9296 197.594 90.8766 196.978L89.6141 182.287Z" fill="url(#paint3_linear)" stroke="#FF8969"/>
<path d="M98.1653 200.94C98.0732 199.685 99.2413 198.711 100.459 199.027L114.514 202.675C115.318 202.884 115.883 203.603 115.897 204.433C115.917 205.655 114.766 206.56 113.583 206.251L99.5334 202.583C98.7728 202.384 98.2228 201.723 98.1653 200.94Z" fill="#1B2C55"/>
<circle cx="120.266" cy="193.051" r="1.77733" fill="#FAAEA0"/>
<rect x="104.27" y="255.257" width="5.92442" height="7.10931" rx="1" fill="#4A6CBE"/>
<rect x="86.4681" y="316.871" width="5.19019" height="2.36977" rx="1" transform="rotate(29.208 86.4681 316.871)" fill="#4A6CBE"/>
<rect x="104.358" y="319.241" width="5.19019" height="2.36977" rx="1" transform="rotate(2.12475 104.358 319.241)" fill="#4A6CBE"/>
<rect x="124.198" y="319.38" width="5.19019" height="2.36977" rx="1" transform="rotate(-25.4174 124.198 319.38)" fill="#4A6CBE"/>
<defs>
<linearGradient id="paint0_linear" x1="239.645" y1="48.2145" x2="239.645" y2="141.361" gradientUnits="userSpaceOnUse">
<stop stop-color="#FE6E6E"/>
<stop offset="1" stop-color="#FF9574"/>
</linearGradient>
<linearGradient id="paint1_linear" x1="288.868" y1="50.3286" x2="288.868" y2="187.755" gradientUnits="userSpaceOnUse">
<stop stop-color="#FA5252"/>
<stop offset="1" stop-color="#FA7A52"/>
</linearGradient>
<linearGradient id="paint2_linear" x1="292.692" y1="73.4164" x2="292.692" y2="179.791" gradientUnits="userSpaceOnUse">
<stop stop-color="#FE6E6E"/>
<stop offset="1" stop-color="#FF9574"/>
</linearGradient>
<linearGradient id="paint3_linear" x1="107.824" y1="179.425" x2="107.824" y2="209.047" gradientUnits="userSpaceOnUse">
<stop stop-color="#FA5252"/>
<stop offset="1" stop-color="#FA7A52"/>
</linearGradient>
</defs>
</svg>
