<svg width="463" height="449" viewBox="0 0 463 449" fill="none" xmlns="http://www.w3.org/2000/svg">
<path d="M431.576 198.903L431.703 255.571C431.703 257.194 432.768 258.792 434.899 260.035C439.161 262.521 446.086 262.521 450.372 260.035C452.529 258.792 453.594 257.144 453.594 255.52C453.594 255.52 453.467 198.852 453.467 198.878C453.467 197.254 452.402 195.631 450.296 194.413C446.035 191.927 439.11 191.927 434.823 194.413C432.515 195.732 431.475 197.508 431.602 199.233C431.602 199.106 431.576 199.005 431.576 198.903Z" fill="#547CDD"/>
<path d="M327.018 258.665L327.144 315.333C327.144 316.956 328.21 318.554 330.341 319.797C334.602 322.283 341.527 322.283 345.814 319.797C347.97 318.554 349.035 316.905 349.035 315.282C349.035 315.282 348.908 258.614 348.908 258.64C348.908 257.016 347.843 255.393 345.738 254.175C341.476 251.689 334.551 251.689 330.264 254.175C327.956 255.494 326.916 257.27 327.043 258.995C327.043 258.868 327.018 258.766 327.018 258.665Z" fill="#547CDD"/>
<path d="M309.997 54.3674C310.682 49.1166 314.309 43.46 318.571 40.9994L328.184 35.4443C330.594 34.0492 332.801 33.9223 334.374 34.8355L460.215 108.701C458.617 107.788 456.435 107.915 454.025 109.31L444.412 114.865C440.15 117.326 436.523 123.008 435.838 128.233L415.849 193.576L416.027 270.055L290.186 181.806L290.009 119.71L309.997 54.3674Z" fill="#C1D9F5"/>
<path d="M444.412 114.865C440.15 117.326 436.523 123.008 435.838 128.233L415.849 193.576L416.027 270.054L453.493 248.417C457.45 246.134 459.936 241.949 460.037 237.358L462.751 114.282C462.726 108.752 458.82 106.52 454 109.285L444.412 114.865Z" fill="#DCEAF9"/>
<path d="M207.162 152.458L285.493 106.926L313.725 123.211L313.649 149.997C313.624 154.867 317.048 160.778 321.284 163.238L367.805 190.202L398.6 172.319L426.857 188.63L426.705 255.697C426.68 260.948 424.828 264.652 421.835 266.402L343.505 311.934C343.682 311.832 343.86 311.68 344.037 311.553C340.968 313.684 336.529 313.608 331.583 310.767L223.701 248.367C214.442 243.04 206.985 230.103 207.035 219.5L207.162 152.458Z" fill="#CB333A"/>
<path d="M235.396 168.768L313.752 123.236L285.52 106.951L207.164 152.458L235.396 168.768Z" fill="#CB333A"/>
<path d="M235.396 168.768L313.726 123.236L313.65 150.022C313.624 154.893 317.049 160.803 321.285 163.263L390.839 203.519C392.969 204.737 394.872 204.864 396.267 204.052L317.937 249.584C316.542 250.396 314.614 250.269 312.508 249.051L242.955 208.795C238.719 206.36 235.294 200.425 235.32 195.554L235.396 168.768Z" fill="#F1F6FD"/>
<path d="M348.376 301.255L348.528 234.187L426.858 188.655L426.706 255.723C426.681 260.973 424.829 264.677 421.836 266.427L343.506 311.959C346.499 310.209 348.351 306.506 348.376 301.255Z" fill="#DCEAF9"/>
<path d="M207.163 152.457L207.011 219.525C206.986 230.128 214.443 243.04 223.676 248.392L331.558 310.792C340.791 316.119 348.3 311.858 348.35 301.255L348.503 234.187L320.245 217.876L320.169 244.663C320.143 249.533 316.719 251.486 312.508 249.051L242.955 208.795C238.718 206.36 235.294 200.425 235.319 195.554L235.396 168.768L207.163 152.457Z" fill="#C1D9F5"/>
<path d="M348.528 234.187L426.858 188.655L398.626 172.345L320.27 217.877L348.528 234.187Z" fill="#CB333A"/>
<path d="M286.406 91.7819C289.425 90.0316 293.636 90.2599 298.252 92.9487C307.46 98.2756 314.867 111.136 314.842 121.688C314.816 126.939 312.965 130.643 309.997 132.368L231.641 177.9C234.634 176.175 236.486 172.471 236.486 167.22C236.512 156.668 229.105 143.782 219.897 138.481C215.28 135.817 211.095 135.564 208.051 137.314L286.406 91.7819Z" fill="#A9C9FB"/>
<path d="M219.897 138.481C210.714 133.179 203.231 137.441 203.206 147.993C203.181 158.571 210.613 171.431 219.795 176.733C229.003 182.059 236.461 177.798 236.486 167.22C236.537 156.668 229.105 143.782 219.897 138.481Z" fill="#90B4EC"/>
<path d="M297.081 300.458L306.629 322.763L298.55 328.368L287.108 304.826L297.081 300.458Z" fill="#FBA569"/>
<path d="M261.363 306.218L264.068 330.339L254.714 333.355L250.558 307.513L261.363 306.218Z" fill="#FFCEB1"/>
<path d="M249.572 319.206C249.572 319.206 243.986 326.068 235.54 328.484C227.074 330.9 219.44 333.954 220.039 338.786C220.039 338.786 232.621 344.642 253.071 338.167V340.216L266.484 339.675L266.504 322.763L255.351 323.497L256.183 321.835L249.572 319.206Z" fill="#2B3959"/>
<path d="M244.18 338.399C225.856 342.845 221.218 337.897 220.155 337.549C220.039 337.974 220 338.38 220.058 338.805C220.058 338.805 232.641 344.662 253.09 338.187V340.235L266.504 339.694V336.331C261.691 336.563 257.671 335.113 244.18 338.399Z" fill="#46567D"/>
<path d="M272.863 187.02L224.175 208.455C224.175 208.455 212.404 218.68 217.41 236.829C226.146 268.644 242.807 312.867 242.807 312.867C242.807 312.867 255.467 317.931 264.745 308.093C258.56 284.512 246.654 238.337 246.654 238.337L311.906 194.829L272.863 187.02Z" fill="#00B8A6"/>
<path d="M272.863 187.02L224.175 208.455C224.175 208.455 212.404 218.68 217.41 236.829C226.146 268.644 242.807 312.867 242.807 312.867C242.807 312.867 257.71 317.042 264.745 308.093C261.363 298.544 246.654 238.337 246.654 238.337L311.906 194.829L272.863 187.02Z" fill="#587FDD"/>
<path d="M296.559 192.181C296.559 192.181 241.3 200.125 240.585 228.131C239.869 256.138 273.733 300.651 281.889 311.978C293.699 313.176 302.976 301.54 302.976 301.54C302.976 301.54 276.226 239.477 270.524 234.935L323.751 221.5L332.251 188L296.559 192.181Z" fill="#426ACC"/>
<path d="M219.884 111.543L217.951 107.233C217.951 107.233 223.305 94.2639 220.445 96.4094C218.357 97.9749 215.883 101.241 215.883 101.241C215.883 101.241 208.964 86.8612 207.282 86.7839C205.581 86.7065 209.389 97.2018 209.389 97.2018C209.389 97.2018 204.576 84.6577 202.315 84.8317C200.053 85.0056 206.219 98.4774 206.219 98.4774C206.219 98.4774 198.642 86.8032 197.908 87.325C196.033 88.62 202.972 100.816 202.972 100.816C202.972 100.816 197.599 93.8 195.878 94.2832C194.158 94.7664 210.471 117.052 210.471 117.052L219.884 111.543Z" fill="#FFCEB1"/>
<path d="M318.362 62.8362L315.907 91.5386L316.216 106.267L305.141 108.258L292.268 110.828L295.728 89.7797L298.434 68.1707L318.362 62.8362Z" fill="#FFCEB1"/>
<path d="M317.608 13.9937C331.679 18.8644 330.21 28.7412 330.21 28.7412C330.21 28.7412 330.48 34.6363 329.205 43.7206C330.732 42.0197 333.09 41.5171 335.293 42.7541C339.971 45.4021 334.655 60.4782 327.33 58.3327C326.537 62.6236 324.199 67.649 323.503 68.7507C320.932 72.9256 310.959 78.6274 302.667 78.7821C294.375 78.9367 284.44 73.2735 284.73 63.5707C285.117 50.1375 290.026 21.5897 290.026 21.5897C290.026 21.5897 294.298 5.9338 317.608 13.9937Z" fill="#FFCEB1"/>
<path d="M322.034 22.6333C325.938 23.0392 332.181 22.3627 336.086 22.7106C336.124 22.324 335.815 25.5712 335.815 25.6099C334.984 27.2334 333.399 42.4834 333.399 42.4834C329.456 42.2321 329.224 45.402 329.224 45.402L327.929 52.3602L324.083 51.5291L325.474 36.6463C322.981 34.9647 322.382 32.4907 322.382 32.4907C322.382 32.4907 322.343 25.3586 322.034 22.6333Z" fill="#426ACC"/>
<path d="M320.468 32.4521C320.468 32.4521 319.541 32.1428 318.13 31.679C317.453 31.4663 316.699 31.2344 315.907 31.0218C315.095 30.8478 314.264 30.6546 313.433 30.5773C312.602 30.442 311.771 30.442 310.959 30.4613C310.553 30.442 310.166 30.5193 309.78 30.5386C309.393 30.5579 309.045 30.6353 308.697 30.6739C308.369 30.7512 308.021 30.7319 307.731 30.8092C307.46 30.8865 307.19 30.9252 306.977 30.9638C306.533 31.0411 306.262 31.0605 306.262 31.0605C306.262 31.0605 306.397 30.8479 306.707 30.5C306.996 30.1521 307.441 29.6302 308.098 29.2243C308.427 28.9923 308.775 28.7411 309.219 28.5865C309.645 28.4125 310.089 28.1612 310.592 28.0839C311.094 27.9873 311.597 27.8133 312.138 27.8327C312.679 27.794 313.22 27.794 313.761 27.8713C315.965 28.1226 317.859 29.2823 318.961 30.3646C320.101 31.4277 320.468 32.4521 320.468 32.4521Z" fill="#212B42"/>
<path d="M300.019 33.1868C300.019 33.1868 299.265 32.8195 298.144 32.2784C297.603 32.0464 297.004 31.7758 296.385 31.5632C295.767 31.3893 295.129 31.1767 294.51 31.1573C293.892 31.0414 293.254 31.1573 292.616 31.2153C292.307 31.2926 291.998 31.37 291.689 31.4086C291.379 31.4859 291.109 31.6019 290.819 31.6792C290.239 31.8145 289.794 32.0465 289.408 32.1431C289.041 32.2591 288.809 32.317 288.809 32.317C288.809 32.317 288.886 32.1044 289.06 31.7565C289.253 31.4279 289.485 30.8867 289.988 30.4229C290.432 29.901 291.089 29.4178 291.901 29.0312C292.326 28.8959 292.771 28.664 293.254 28.6253C293.737 28.5867 294.24 28.5094 294.742 28.5674C295.245 28.606 295.709 28.7413 296.173 28.8959C296.637 29.0312 297.023 29.3018 297.41 29.5144C298.144 29.9976 298.705 30.5775 299.091 31.138C299.903 32.2397 300.019 33.1868 300.019 33.1868Z" fill="#212B42"/>
<path d="M301.275 55.1628C301.275 55.1628 313.124 53.9258 314.573 57.7528C316.023 61.5798 316.216 65.6194 319.599 64.4984C322.962 63.3966 325.61 34.2496 325.61 34.2496L328.934 44.3583C328.934 44.3583 332.432 83.5753 308.929 82.1837C284.266 80.7148 281.406 73.3121 284.885 60.5941C284.885 60.5941 287.456 62.179 289.157 58.8158C290.857 55.4527 288.538 52.109 301.275 55.1628Z" fill="#426ACC"/>
<path d="M311.249 61.2511L292.481 59.8015C292.481 59.8015 297.023 70.548 311.249 61.2511Z" fill="white"/>
<path d="M335.815 25.6099C335.815 25.6099 339.275 13.3365 328.451 13.1819C328.451 13.1819 321.899 1.44962 306.378 0L312.389 4.1942C312.389 4.1942 304.252 -2.39673 288.751 1.54624C288.751 1.54624 289.601 7.05483 295.206 8.29184C295.206 8.29184 288.441 6.47496 286.992 5.00601C286.992 5.00601 286.373 14.8634 291.341 17.666C296.308 20.4686 316.796 13.5491 322.73 23.9477C328.664 34.3463 334.733 24.0637 334.733 24.0637" fill="#426ACC"/>
<path d="M320.565 35.4674L304.445 35.3514C304.445 35.3514 302.59 48.6686 313.22 48.6299C323.851 48.5913 320.565 35.4674 320.565 35.4674Z" fill="#DFEEFF" stroke="#FA6453" stroke-width="0.6159" stroke-miterlimit="10"/>
<path d="M311.519 40.8792C311.326 42.87 312.041 44.5516 313.143 44.6675C314.225 44.7835 315.269 43.2566 315.462 41.2658C315.656 39.275 314.94 37.5934 313.839 37.4774C312.756 37.3808 311.713 38.8884 311.519 40.8792Z" fill="#212B42"/>
<path d="M303.904 34.7715L322.575 34.7135L322.865 36.859L304.117 36.511L303.904 34.7715Z" fill="url(#paint0_linear)"/>
<path d="M285.194 34.153L300.56 35.1194C300.56 35.1194 300.985 49.9055 290.471 48.2626C279.976 46.6197 285.194 34.153 285.194 34.153Z" fill="#DFEEFF" stroke="#FA5E53" stroke-width="0.6159" stroke-miterlimit="10"/>
<path d="M301.159 34.5589L283.319 33.1093L282.701 35.1773L300.715 36.3178L301.159 34.5589Z" fill="url(#paint1_linear)"/>
<path d="M293.679 39.623C293.486 41.6138 294.201 43.2953 295.303 43.4113C296.385 43.5272 297.429 42.0003 297.622 40.0095C297.816 38.0187 297.1 36.3371 295.999 36.2212C294.916 36.1052 293.873 37.6321 293.679 39.623Z" fill="#212B42"/>
<path d="M301.275 55.1628L300.927 38.4438L293.583 52.4375L301.275 55.1628Z" fill="#F5B792"/>
<path d="M322.826 36.859L335.003 42.9087L335.1 41.0145L322.575 34.7135L322.826 36.859Z" fill="url(#paint2_linear)"/>
<path d="M304.484 38.2314C303.324 37.265 301.662 37.0137 300.386 37.9221L304.484 38.2314Z" fill="url(#paint3_linear)"/>
<path d="M331.969 189.726C331.969 189.726 297.023 201.458 266.658 188.818C266.658 188.818 266.195 131.239 266.33 96.3706C266.33 96.3706 284.112 91.1713 304.252 91.1907L306.146 98.864L308.446 91.2873C308.446 91.2873 337.554 95.4236 348.398 98.864C348.398 98.8447 337.361 163.42 331.969 189.726Z" fill="url(#paint4_linear)"/>
<path d="M323.889 93.5102L313.394 102.536L308.446 91.2681L319.483 86.2814L323.889 93.5102Z" fill="#F2F0F0"/>
<path d="M288.635 91.9639L296.115 101.203L304.252 91.1135L293.351 85.663L288.635 91.9639Z" fill="#F2F0F0"/>
<path d="M266.33 96.3513C266.33 96.3513 243.735 124.841 236.197 142.14C236.197 142.14 242.324 149.949 252.085 151.379L271.877 126.31L266.33 96.3513Z" fill="url(#paint5_linear)"/>
<path d="M348.398 98.8447C348.398 98.8447 365.967 135.375 369.369 161.198C369.369 161.198 365.793 167.479 355.955 166.861L336.878 119.159L348.398 98.8447Z" fill="url(#paint6_linear)"/>
<path d="M244.064 134.1C244.064 134.1 225.934 119.487 219.034 109.05C219.034 109.05 210.954 109.707 207.92 114.172C207.92 114.172 221.875 142.778 233.414 150.78C233.414 150.78 242.788 160.56 247.04 156.907C262.406 143.667 244.064 134.1 244.064 134.1Z" fill="url(#paint7_linear)"/>
<path d="M303.247 104.179C303.092 104.991 303.575 105.784 304.349 105.938C305.122 106.093 305.856 105.532 306.03 104.721C306.185 103.909 305.701 103.116 304.928 102.962C304.155 102.807 303.401 103.348 303.247 104.179Z" fill="#F2F0F0"/>
<path d="M301.604 117.941C301.449 118.753 301.932 119.545 302.706 119.7C303.479 119.855 304.213 119.313 304.387 118.482C304.542 117.67 304.059 116.878 303.286 116.723C302.512 116.569 301.778 117.11 301.604 117.941Z" fill="#F2F0F0"/>
<path d="M298.917 135.008C298.763 135.82 299.246 136.612 300.019 136.767C300.792 136.921 301.527 136.361 301.701 135.549C301.855 134.737 301.372 133.945 300.599 133.79C299.826 133.655 299.091 134.196 298.917 135.008Z" fill="#F2F0F0"/>
<path d="M296.791 151.321C296.636 152.133 297.12 152.925 297.893 153.08C298.666 153.234 299.4 152.693 299.574 151.862C299.729 151.05 299.246 150.258 298.473 150.103C297.7 149.949 296.965 150.49 296.791 151.321Z" fill="#F2F0F0"/>
<path d="M294.858 168.755C294.704 169.567 295.187 170.359 295.96 170.514C296.733 170.669 297.468 170.108 297.642 169.296C297.796 168.485 297.313 167.692 296.54 167.537C295.767 167.402 295.013 167.943 294.858 168.755Z" fill="#F2F0F0"/>
<path d="M294.046 184.662C293.892 185.474 294.375 186.266 295.148 186.421C295.921 186.576 296.656 186.035 296.83 185.203C296.984 184.392 296.501 183.599 295.728 183.445C294.955 183.29 294.201 183.831 294.046 184.662Z" fill="#F2F0F0"/>
<path d="M312.9 130.614L312.462 133.323L331.848 136.457L332.286 133.748L312.9 130.614Z" fill="#F2F0F0"/>
<path d="M307.905 172.833C309.78 167.499 321.435 167.769 325.03 168.716C325.842 171.867 326.17 173.974 325.88 174.708C323.754 180.217 318.671 176.022 318.671 176.022C321.802 193.785 315.095 174.611 315.095 174.611C319.753 194.346 311.983 175.095 311.983 175.095C313.24 195.293 309.509 176.293 309.509 176.293C303.459 194.307 307.905 172.833 307.905 172.833Z" fill="#FFCEB1"/>
<path d="M322.304 176.757L332.858 175.133L332.162 166.706L318.845 169.045L322.304 176.757Z" fill="#FFCEB1"/>
<path d="M357.926 152.867C357.926 152.867 337.419 164.232 324.392 165.605C324.392 165.605 323.406 172.06 326.074 177.028C326.074 177.028 354.679 179.386 367.668 172.524C367.668 172.524 376.656 172.331 367.301 150.78C364.962 145.426 357.926 152.867 357.926 152.867Z" fill="url(#paint8_linear)"/>
<path d="M290.065 310.876L298.569 328.349L306.649 322.763L299.207 305.348C296.926 307.319 293.776 309.542 290.065 310.876Z" fill="#FFCEB1"/>
<path d="M289.543 316.307C289.543 316.307 286.18 324.502 278.777 329.238C271.375 333.992 264.938 339.134 266.929 343.579C266.929 343.579 280.671 345.551 298.357 333.432L298.937 335.384L311.616 330.977L306.745 314.78L296.289 318.704L296.598 316.868L289.543 316.307Z" fill="#2B3859"/>
<path d="M289.91 336.234C273.655 345.783 267.779 342.381 266.658 342.361C266.658 342.787 266.755 343.212 266.929 343.598C266.929 343.598 280.671 345.57 298.357 333.451L298.937 335.403L311.616 330.996L310.65 327.769C306.165 329.411 301.894 329.18 289.91 336.234Z" fill="#47567D"/>
<path d="M400.934 155.984C403.953 154.233 408.164 154.462 412.78 157.15C421.988 162.477 429.395 175.338 429.37 185.89C429.344 191.141 427.492 194.844 424.525 196.569L346.194 242.101C349.188 240.376 351.039 236.673 351.039 231.422C351.065 220.87 343.658 208.009 334.45 202.682C329.833 200.019 325.623 199.765 322.604 201.516L400.934 155.984Z" fill="#A9C9FB"/>
<path d="M334.45 202.657C325.267 197.355 317.784 201.617 317.759 212.169C317.734 222.747 325.166 235.607 334.348 240.909C343.556 246.236 351.014 241.974 351.039 231.397C351.065 220.844 343.658 207.984 334.45 202.657Z" fill="#90B4EC"/>
<path d="M55.6529 363.97C57.0734 363.133 59.0012 363.184 61.1574 364.249L98.6737 382.995L91.1654 387.358L53.649 368.612C51.4929 367.547 49.5651 367.496 48.1446 368.333L55.6529 363.97Z" fill="#F1F6FD"/>
<path d="M91.1402 400.066L98.6485 395.703L98.6739 382.969L91.1909 387.332L91.1402 400.066Z" fill="#5E3930"/>
<path d="M91.1908 387.332L53.6745 368.587C49.1847 366.354 45.6842 368.612 45.6842 373.787L91.1655 400.04L91.1908 387.332Z" fill="#DAE9FB"/>
<path d="M167.847 363.97C166.427 363.133 164.499 363.184 162.343 364.249L124.826 382.995L132.335 387.358L169.851 368.612C172.007 367.547 173.935 367.496 175.355 368.333L167.847 363.97Z" fill="#F1F6FD"/>
<path d="M132.36 400.066L124.877 395.703L124.826 382.969L132.335 387.332L132.36 400.066Z" fill="#5E3930"/>
<path d="M132.335 387.332L169.851 368.587C174.341 366.354 177.841 368.612 177.841 373.787L132.36 400.04L132.335 387.332Z" fill="#DAE9FB"/>
<path d="M84.7733 395.297V410.263C84.7733 414.195 87.3606 418.101 92.5353 421.094C102.91 427.081 119.702 427.081 130.052 421.094C135.226 418.101 137.814 414.195 137.814 410.263V395.297H84.7733Z" fill="#C1D9F5"/>
<path d="M111.306 410.618C125.96 410.618 137.839 403.759 137.839 395.297C137.839 386.835 125.96 379.976 111.306 379.976C96.6525 379.976 84.7733 386.835 84.7733 395.297C84.7733 403.759 96.6525 410.618 111.306 410.618Z" fill="#DCE9FB"/>
<path d="M100.931 305.653V389.285C100.931 390.807 101.946 392.354 103.975 393.521C108.034 395.855 114.604 395.855 118.662 393.521C120.692 392.354 121.706 390.807 121.706 389.285V305.653H100.931Z" fill="#C1D9F5"/>
<path d="M118.637 301.418C122.695 303.751 122.695 307.556 118.637 309.89C114.578 312.223 108.009 312.223 103.95 309.89C99.8914 307.556 99.8914 303.751 103.95 301.418C108.034 299.084 114.604 299.084 118.637 301.418Z" fill="#F1F6FD"/>
<path d="M173.681 429.364L136.19 404.784L128.681 409.147L166.172 433.727C170.662 436.669 174.137 442.96 174.112 448.134L181.62 443.771C181.62 438.571 178.145 432.281 173.681 429.364Z" fill="#F1F6FD"/>
<path d="M128.682 409.147L166.173 433.727C170.662 436.669 174.138 442.96 174.112 448.134L128.631 421.881L128.682 409.147Z" fill="#DAE9FB"/>
<path d="M48.9565 429.364L86.4474 404.784L93.9557 409.147L56.4394 433.701C51.9496 436.644 48.4745 442.934 48.4999 448.109L40.9915 443.746C40.9915 438.571 44.4667 432.281 48.9565 429.364Z" fill="#F1F6FD"/>
<path d="M93.9304 409.147L56.4394 433.701C51.9497 436.644 48.4745 442.934 48.4999 448.109L93.9812 421.855L93.9304 409.147Z" fill="#DAE9FB"/>
<path d="M0 293.554V300.327C0 316.764 10.8567 333.227 32.5954 345.783C76.0727 370.87 146.54 370.87 190.017 345.783C211.756 333.227 222.612 316.79 222.612 300.327V293.554H0Z" fill="#C1D9F5"/>
<path d="M111.306 357.832C172.779 357.832 222.612 329.054 222.612 293.554C222.612 258.055 172.779 229.277 111.306 229.277C49.8335 229.277 0 258.055 0 293.554C0 329.054 49.8335 357.832 111.306 357.832Z" fill="#F1F6FD"/>
<path d="M104.27 265.287L120.325 300.618C120.376 300.734 120.585 300.774 120.943 300.718C121.647 300.611 122.681 300.153 123.234 299.703C123.516 299.476 123.624 299.289 123.575 299.179L104.27 258.178L104.27 265.287Z" fill="#426ACC"/>
<path d="M103.43 259.47L85.2021 300.618C85.1508 300.734 84.9419 300.774 84.5843 300.718C83.8798 300.61 82.8462 300.153 82.2933 299.703C82.0115 299.476 81.903 299.289 81.952 299.179L100.715 258.178L103.43 259.47Z" fill="#426ACC"/>
<path d="M100.715 185.375V301.135C100.715 301.46 100.89 301.772 101.24 302.013C101.927 302.494 103.058 302.494 103.745 302.013C104.095 301.772 104.27 301.446 104.27 301.135V185.375H100.715Z" fill="#5A7FD9"/>
<path d="M103.744 184.483C104.431 184.965 104.431 185.758 103.744 186.239C103.056 186.72 101.926 186.72 101.238 186.239C100.55 185.758 100.55 184.965 101.238 184.483C101.926 184.002 103.056 184.002 103.744 184.483Z" fill="#547CDD"/>
<path d="M84.8746 163.287C84.7844 162.237 85.7757 161.424 86.7873 161.718L119.368 171.177C119.976 171.353 120.407 171.892 120.447 172.524L121.366 187.23C121.431 188.268 120.444 189.056 119.446 188.762L87.2087 179.289C86.6155 179.114 86.19 178.594 86.1371 177.978L84.8746 163.287Z" fill="url(#paint9_linear)" stroke="#FF8969"/>
<path d="M93.4258 181.94C93.3337 180.685 94.5017 179.711 95.7195 180.027L109.775 183.675C110.578 183.884 111.144 184.603 111.157 185.433C111.178 186.655 110.027 187.56 108.844 187.251L94.7938 183.583C94.0333 183.384 93.4833 182.723 93.4258 181.94Z" fill="#1B2C55"/>
<circle cx="115.526" cy="174.051" r="1.77733" fill="#FAAEA0"/>
<rect x="99.5302" y="236.257" width="5.92442" height="7.10931" rx="1" fill="#4A6CBE"/>
<rect x="81.7285" y="297.871" width="5.19019" height="2.36977" rx="1" transform="rotate(29.208 81.7285 297.871)" fill="#4A6CBE"/>
<rect x="99.6181" y="300.241" width="5.19019" height="2.36977" rx="1" transform="rotate(2.12475 99.6181 300.241)" fill="#4A6CBE"/>
<rect x="119.458" y="300.38" width="5.19019" height="2.36977" rx="1" transform="rotate(-25.4174 119.458 300.38)" fill="#4A6CBE"/>
<defs>
<linearGradient id="paint0_linear" x1="313.385" y1="34.7135" x2="313.385" y2="36.859" gradientUnits="userSpaceOnUse">
<stop stop-color="#FA5252"/>
<stop offset="1" stop-color="#FA7A52"/>
</linearGradient>
<linearGradient id="paint1_linear" x1="291.93" y1="33.1093" x2="291.93" y2="36.3178" gradientUnits="userSpaceOnUse">
<stop stop-color="#FA5252"/>
<stop offset="1" stop-color="#FA7A52"/>
</linearGradient>
<linearGradient id="paint2_linear" x1="328.837" y1="34.7135" x2="328.837" y2="42.9087" gradientUnits="userSpaceOnUse">
<stop stop-color="#FA5252"/>
<stop offset="1" stop-color="#FA7A52"/>
</linearGradient>
<linearGradient id="paint3_linear" x1="302.435" y1="37.3582" x2="302.435" y2="38.2314" gradientUnits="userSpaceOnUse">
<stop stop-color="#FA5252"/>
<stop offset="1" stop-color="#FA7A52"/>
</linearGradient>
<linearGradient id="paint4_linear" x1="307.351" y1="91.1906" x2="307.351" y2="194.681" gradientUnits="userSpaceOnUse">
<stop stop-color="#FA5252"/>
<stop offset="1" stop-color="#FA7A52"/>
</linearGradient>
<linearGradient id="paint5_linear" x1="254.037" y1="96.3513" x2="254.037" y2="151.379" gradientUnits="userSpaceOnUse">
<stop stop-color="#FE7D7D"/>
<stop offset="1" stop-color="#FF8F6B"/>
</linearGradient>
<linearGradient id="paint6_linear" x1="353.123" y1="98.8447" x2="353.123" y2="166.904" gradientUnits="userSpaceOnUse">
<stop stop-color="#FE7D7D"/>
<stop offset="1" stop-color="#FF8F6B"/>
</linearGradient>
<linearGradient id="paint7_linear" x1="247.76" y1="136" x2="213.26" y2="160" gradientUnits="userSpaceOnUse">
<stop stop-color="#FF8C70"/>
<stop offset="1" stop-color="#FF8F6B"/>
</linearGradient>
<linearGradient id="paint8_linear" x1="356.76" y1="153.5" x2="351.76" y2="195" gradientUnits="userSpaceOnUse">
<stop stop-color="#FF8B70"/>
<stop offset="1" stop-color="#FF8F6B"/>
</linearGradient>
<linearGradient id="paint9_linear" x1="103.085" y1="160.425" x2="103.085" y2="190.047" gradientUnits="userSpaceOnUse">
<stop stop-color="#FA5252"/>
<stop offset="1" stop-color="#FA7A52"/>
</linearGradient>
</defs>
</svg>
