<svg width="42" height="42" viewBox="0 0 42 42" fill="none" xmlns="http://www.w3.org/2000/svg">
<rect width="42" height="42" fill="url(#paint0_linear)"/>
<path d="M20.3567 28.1548C19.1558 28.1548 18.1836 29.1556 18.1836 30.3565C18.1836 31.5288 19.1272 32.5582 20.3567 32.5582C21.5862 32.5582 22.5584 31.5289 22.5584 30.3565C22.5584 29.1556 21.5577 28.1548 20.3567 28.1548Z" fill="#456DCD"/>
<path d="M20.7285 11.4846C16.8683 11.4846 15.0956 13.772 15.0956 15.3161C15.0956 16.4313 16.0391 16.9459 16.8112 16.9459C18.3551 16.9459 17.7261 14.7442 20.6427 14.7442C22.0724 14.7442 23.2162 15.3733 23.2162 16.6886C23.2162 18.2328 21.6149 19.1191 20.6713 19.9197C19.8421 20.6346 18.7555 21.8069 18.7555 24.266C18.7555 25.7528 19.1558 26.1818 20.3282 26.1818C21.7293 26.1818 22.0151 25.5527 22.0151 25.0094C22.0151 23.5226 22.0438 22.6647 23.6165 21.4353C24.3885 20.8348 26.819 18.8904 26.819 16.2026C26.819 13.5147 24.3885 11.4846 20.7285 11.4846Z" fill="#456DCD"/>
<path d="M21 0C9.39389 0 0 9.39233 0 21V40.3594C0 41.2655 0.734508 42 1.64062 42H21C32.606 42 42 32.6077 42 21C42 9.39389 32.6077 0 21 0ZM21 38.7188H3.28125V21C3.28125 11.2074 11.206 3.28125 21 3.28125C30.7926 3.28125 38.7188 11.206 38.7188 21C38.7188 30.7926 30.794 38.7188 21 38.7188Z" fill="#456DCD"/>
<defs>
<linearGradient id="paint0_linear" x1="-15.75" y1="-6.34231e-07" x2="55.5" y2="49.5" gradientUnits="userSpaceOnUse">
<stop stop-color="white"/>
<stop offset="1" stop-color="white" stop-opacity="0"/>
</linearGradient>
</defs>
</svg>
