<svg width="43" height="43" viewBox="0 0 43 43" fill="none" xmlns="http://www.w3.org/2000/svg">
<path d="M27.7148 13.8574C27.7148 6.21644 21.4984 0 13.8574 0C6.21644 0 0 6.21644 0 13.8574C0 17.3597 0.651383 20.8418 1.28127 24.2092C1.89007 27.4636 2.51953 30.829 2.51953 34.0977C2.51953 39.0064 6.47545 43 11.3379 43C16.2003 43 20.1562 39.0064 20.1562 34.0977C20.1562 33.4721 20.091 32.7941 19.977 32.2377C19.3623 29.2339 21.5747 25.7374 23.6561 23.656C26.2734 21.0388 27.7148 17.5589 27.7148 13.8574ZM17.5087 32.7429C17.5888 33.1346 17.6367 33.641 17.6367 34.0977C17.6367 37.6171 14.8111 40.4805 11.3379 40.4805C7.86472 40.4805 5.03906 37.6171 5.03906 34.0977C5.03906 30.5953 4.38768 27.1133 3.7578 23.7459C3.14899 20.4914 2.51953 17.1261 2.51953 13.8574C2.51953 7.60571 7.60571 2.51953 13.8574 2.51953C20.1091 2.51953 25.1953 7.60571 25.1953 13.8574C25.1953 16.8859 24.016 19.7331 21.8746 21.8745C19.23 24.5192 16.6942 28.7631 17.5087 32.7429Z" fill="#456DCD"/>
<path d="M15.5049 5.18999C9.96861 4.17605 5.03906 8.41138 5.03906 13.8574C5.03906 16.8899 5.61889 19.9715 6.23416 23.2413C6.43178 24.2911 6.63611 25.3766 6.81945 26.4581C7.19074 28.6462 9.04461 30.2344 11.2277 30.2344C13.35 30.2344 15.1924 28.724 15.6085 26.643C15.6116 26.2558 17.1285 22.1896 13.9766 18.3449C12.3878 16.4069 10.0813 15.2497 7.59454 15.1279C7.57111 14.7005 7.55859 14.2771 7.55859 13.8574C7.55859 10.0599 10.9819 6.92318 15.0511 7.66829C19.9946 8.57364 21.8825 14.7385 18.3116 18.3125L20.094 20.0933C25.053 15.1299 22.5071 6.47235 15.5049 5.18999ZM12.0282 19.9422C14.3397 22.7617 13.1462 25.7175 13.1378 26.1489C12.9564 27.0562 12.153 27.7149 11.2277 27.7149C10.2778 27.7149 9.46857 27.0091 9.30362 26.0368C9.11642 24.9329 8.9099 23.836 8.70893 22.768C8.3792 21.0158 8.05973 19.3178 7.84145 17.6736C9.47444 17.8502 10.9729 18.655 12.0282 19.9422Z" fill="#456DCD"/>
<path d="M43 20.1562H30.3184V22.6758H43V20.1562Z" fill="#456DCD"/>
<path d="M32.1399 30.3666L31.0132 32.62L41.0904 37.6586L42.2171 35.4052L32.1399 30.3666Z" fill="#456DCD"/>
<path d="M41.0927 5.17245L31.0155 10.2111L32.1422 12.4645L42.2194 7.42584L41.0927 5.17245Z" fill="#456DCD"/>
</svg>
