<svg width="46" height="46" viewBox="0 0 46 46" fill="none" xmlns="http://www.w3.org/2000/svg">
<g clip-path="url(#clip0)">
<path d="M45.8344 36.1031L43.1627 28.3278C44.4506 25.6952 45.1311 22.7673 45.1357 19.8214C45.1436 14.6992 43.1618 9.85595 39.5553 6.18403C35.9481 2.51139 31.1412 0.443994 26.0201 0.362865C20.7099 0.278951 15.7185 2.29882 11.966 6.05124C8.34766 9.66953 6.34073 14.4396 6.27721 19.537C2.71095 22.2221 0.605994 26.4083 0.612912 30.8798C0.616236 32.9723 1.0872 35.0522 1.97962 36.9331L0.139344 42.2885C-0.176996 43.2092 0.0540822 44.2088 0.742466 44.8971C1.2269 45.3817 1.86561 45.6396 2.52245 45.6396C2.79881 45.6396 3.07841 45.594 3.35108 45.5003L8.70659 43.66C10.5875 44.5524 12.6674 45.0234 14.7599 45.0267C14.7675 45.0267 14.7746 45.0267 14.7822 45.0267C19.3202 45.0265 23.5384 42.8673 26.2137 39.2136C28.9977 39.1403 31.7522 38.4664 34.2424 37.2482L42.0178 39.92C42.3418 40.0313 42.6741 40.0856 43.0024 40.0856C43.783 40.0856 44.542 39.779 45.1178 39.2031C45.9358 38.3851 46.2103 37.1973 45.8344 36.1031ZM14.782 42.2886C14.7762 42.2886 14.77 42.2886 14.7641 42.2886C12.9121 42.2858 11.0729 41.8293 9.44574 40.9684C9.11116 40.7915 8.71836 40.7608 8.3606 40.8837L2.86907 42.7707L4.75606 37.2793C4.87897 36.9214 4.84842 36.5286 4.67143 36.1941C3.81055 34.5669 3.35396 32.7278 3.35108 30.8757C3.3465 27.8965 4.5054 25.0728 6.53201 22.9584C7.19398 26.9939 9.11727 30.7125 12.0985 33.6407C15.0577 36.5472 18.7774 38.3978 22.7909 39.0028C20.6716 41.0916 17.815 42.2886 14.782 42.2886ZM43.1815 37.267C43.1036 37.3449 43.0112 37.3661 42.9074 37.3303L34.5835 34.47C34.439 34.4204 34.2886 34.3957 34.1387 34.3957C33.9178 34.3957 33.6977 34.4492 33.4985 34.5547C31.1218 35.812 28.4362 36.4788 25.7317 36.4829C25.7229 36.4829 25.7148 36.4829 25.7059 36.4829C16.6439 36.4829 9.15878 29.1216 9.01521 20.0619C8.94288 15.4991 10.6785 11.211 13.9022 7.98729C17.1259 4.7636 21.4147 3.02862 25.9768 3.1005C35.0453 3.24434 42.4116 10.7433 42.3976 19.8171C42.3934 22.5216 41.7267 25.2073 40.4695 27.5838C40.2925 27.9183 40.2619 28.3111 40.3848 28.6689L43.245 36.9928C43.2807 37.097 43.2593 37.1893 43.1815 37.267Z" fill="#456DCD"/>
<path d="M33.8615 12.5344H17.5494C16.7933 12.5344 16.1804 13.1474 16.1804 13.9034C16.1804 14.6595 16.7934 15.2724 17.5494 15.2724H33.8615C34.6176 15.2724 35.2305 14.6594 35.2305 13.9034C35.2305 13.1474 34.6176 12.5344 33.8615 12.5344Z" fill="#456DCD"/>
<path d="M33.8615 18.1649H17.5494C16.7933 18.1649 16.1804 18.7779 16.1804 19.534C16.1804 20.29 16.7934 20.903 17.5494 20.903H33.8615C34.6176 20.903 35.2305 20.29 35.2305 19.534C35.2305 18.7779 34.6176 18.1649 33.8615 18.1649Z" fill="#456DCD"/>
<path d="M27.5825 23.7953H17.5493C16.7932 23.7953 16.1803 24.4084 16.1803 25.1644C16.1803 25.9205 16.7933 26.5334 17.5493 26.5334H27.5824C28.3385 26.5334 28.9514 25.9204 28.9514 25.1644C28.9514 24.4084 28.3386 23.7953 27.5825 23.7953Z" fill="#456DCD"/>
</g>
<defs>
<clipPath id="clip0">
<rect width="46" height="46" fill="white"/>
</clipPath>
</defs>
</svg>
