<svg width="52" height="52" viewBox="0 0 52 52" fill="none" xmlns="http://www.w3.org/2000/svg">
<g clip-path="url(#clip0)">
<path d="M14.1504 11.9959L9.8415 7.68706C9.24665 7.09211 8.28201 7.09211 7.68706 7.68706C7.09211 8.28201 7.09211 9.24655 7.68706 9.8415L11.9959 14.1504C12.5908 14.7453 13.5555 14.7453 14.1504 14.1504C14.7453 13.5554 14.7453 12.5909 14.1504 11.9959Z" fill="#456DCD"/>
<path d="M7.71875 24.4766H1.52344C0.682094 24.4766 0 25.1587 0 26C0 26.8413 0.682094 27.5234 1.52344 27.5234H7.71875C8.56009 27.5234 9.24219 26.8413 9.24219 26C9.24219 25.1587 8.56009 24.4766 7.71875 24.4766Z" fill="#456DCD"/>
<path d="M50.4766 24.4766H44.2812C43.4399 24.4766 42.7578 25.1587 42.7578 26C42.7578 26.8413 43.4399 27.5234 44.2812 27.5234H50.4766C51.3179 27.5234 52 26.8413 52 26C52 25.1587 51.3179 24.4766 50.4766 24.4766Z" fill="#456DCD"/>
<path d="M44.3129 7.68706C43.718 7.09211 42.7534 7.09211 42.1584 7.68706L37.8496 11.9959C37.2546 12.5909 37.2546 13.5554 37.8496 14.1504C38.4444 14.7453 39.4092 14.7453 40.004 14.1504L44.3129 9.8415C44.9078 9.24655 44.9078 8.28201 44.3129 7.68706Z" fill="#456DCD"/>
<path d="M26 0C25.1587 0 24.4766 0.682094 24.4766 1.52344V7.71875C24.4766 8.56009 25.1587 9.24219 26 9.24219C26.8413 9.24219 27.5234 8.56009 27.5234 7.71875V1.52344C27.5234 0.682094 26.8413 0 26 0Z" fill="#456DCD"/>
<path d="M34.5178 15.2552C31.2162 12.6348 26.9164 11.693 22.7215 12.6709C17.8436 13.8082 13.917 17.6764 12.7181 22.5256C11.5153 27.3903 12.8919 32.3489 16.4005 35.7898C17.6603 37.0252 18.3828 38.8904 18.3828 40.907V41.2344C18.3828 42.5847 18.972 43.7998 19.9063 44.6372V47.4297C19.9063 49.9498 21.9565 52 24.4766 52H27.5235C30.0435 52 32.0938 49.9498 32.0938 47.4297V44.6372C33.028 43.7998 33.6172 42.5848 33.6172 41.2344V40.901C33.6172 38.916 34.3784 37.0147 35.7056 35.6847C38.2885 33.0962 39.711 29.6568 39.711 26C39.711 21.7909 37.8181 17.8746 34.5178 15.2552ZM29.0469 47.4297C29.0469 48.2697 28.3635 48.9531 27.5235 48.9531H24.4766C23.6366 48.9531 22.9531 48.2697 22.9531 47.4297V45.8047H29.0469V47.4297ZM33.5487 33.5325C31.6559 35.4294 30.5703 38.1152 30.5703 40.901V41.2344C30.5703 42.0744 29.8869 42.7578 29.0469 42.7578H27.5235V33.4244C30.1487 32.7462 32.0938 30.3577 32.0938 27.5234C32.0938 26.6821 31.4117 26 30.5703 26C29.729 26 29.0469 26.6821 29.0469 27.5234C29.0469 29.2035 27.6801 30.5703 26 30.5703C24.32 30.5703 22.9531 29.2035 22.9531 27.5234C22.9531 26.6821 22.271 26 21.4297 26C20.5884 26 19.9063 26.6821 19.9063 27.5234C19.9063 30.3576 21.8513 32.7462 24.4766 33.4244V42.7578H22.9531C22.1131 42.7578 21.4297 42.0744 21.4297 41.2344V40.907C21.4297 38.0772 20.3742 35.4191 18.5339 33.6143C15.8029 30.936 14.7345 27.0642 15.6759 23.2569C16.6026 19.5084 19.6398 16.5179 23.4133 15.6382C24.2679 15.4389 25.1271 15.341 25.9762 15.341C28.3908 15.341 30.7231 16.1333 32.6236 17.6417C35.1914 19.6798 36.6641 22.7262 36.6641 26C36.6641 28.8442 35.5577 31.5192 33.5487 33.5325Z" fill="#456DCD"/>
</g>
<defs>
<clipPath id="clip0">
<rect width="52" height="52" fill="white"/>
</clipPath>
</defs>
</svg>
