<svg width="512" height="377" viewBox="0 0 512 377" fill="none" xmlns="http://www.w3.org/2000/svg">
<path d="M334.173 318.577L235.069 376.7C234.393 377.1 233.545 377.1 232.859 376.7L159.689 334.129C158.251 333.291 158.241 331.215 159.67 330.358L172.431 322.786L260.335 272.444L334.154 314.777C335.611 315.634 335.62 317.729 334.173 318.577Z" fill="#DEF0FD"/>
<path d="M177.26 323.234L175.556 324.224C174.756 324.691 173.651 324.634 172.422 323.929L174.127 322.939C175.365 323.643 176.46 323.701 177.26 323.234Z" fill="#4A4ED3"/>
<path d="M169.318 313.443L171.022 312.453C170.222 312.92 169.737 313.901 169.727 315.301C169.717 318.11 171.689 321.529 174.137 322.939L172.432 323.929C169.994 322.52 168.013 319.091 168.022 316.291C168.022 314.891 168.518 313.91 169.318 313.443Z" fill="#A0C5EF"/>
<path d="M168.451 311.967L170.156 310.977C171.184 310.377 172.603 310.463 174.165 311.367C176.727 312.843 178.87 316.034 179.556 319.11L177.851 320.101C177.165 317.015 175.022 313.834 172.46 312.358C170.899 311.463 169.48 311.377 168.451 311.967Z" fill="#A0C5EF"/>
<path d="M172.422 323.929C174.041 324.862 175.451 324.662 176.222 323.624L177.594 324.415C176.717 326.196 174.727 326.643 172.413 325.31C169.308 323.52 166.784 319.158 166.794 315.586C166.803 312.005 169.337 310.567 172.451 312.367C175.013 313.843 177.156 317.034 177.841 320.11L176.556 319.367C175.908 317.101 174.327 314.834 172.441 313.748C170.003 312.339 168.013 313.482 168.003 316.282C168.013 319.091 169.984 322.52 172.422 323.929Z" fill="#A0C5EF"/>
<path d="M188.336 316.377L186.631 317.367C185.831 317.834 184.727 317.777 183.498 317.072L185.203 316.082C186.431 316.786 187.536 316.843 188.336 316.377Z" fill="#4A4ED3"/>
<path d="M180.383 306.586L182.088 305.596C181.288 306.063 180.802 307.044 180.793 308.444C180.783 311.253 182.755 314.672 185.202 316.082L183.498 317.072C181.06 315.663 179.079 312.234 179.088 309.434C179.088 308.034 179.583 307.053 180.383 306.586Z" fill="#A0C5EF"/>
<path d="M179.517 305.12L181.222 304.129C182.25 303.529 183.669 303.615 185.231 304.52C187.793 305.996 189.936 309.186 190.622 312.263L188.917 313.253C188.231 310.167 186.088 306.986 183.526 305.51C181.965 304.605 180.545 304.52 179.517 305.12Z" fill="#A0C5EF"/>
<path d="M183.498 317.072C185.117 318.005 186.526 317.805 187.298 316.767L188.669 317.558C187.793 319.339 185.803 319.786 183.488 318.453C180.384 316.663 177.86 312.301 177.869 308.729C177.879 305.148 180.412 303.71 183.527 305.51C186.088 306.986 188.231 310.177 188.917 313.253L187.631 312.51C186.984 310.244 185.403 307.977 183.517 306.891C181.079 305.482 179.088 306.625 179.079 309.424C179.079 312.234 181.05 315.663 183.498 317.072Z" fill="#A0C5EF"/>
<path d="M199.403 309.52L197.698 310.51C196.898 310.977 195.793 310.92 194.565 310.215L196.27 309.224C197.498 309.929 198.603 309.986 199.403 309.52Z" fill="#4A4ED3"/>
<path d="M191.45 299.729L193.155 298.739C192.355 299.206 191.869 300.186 191.86 301.586C191.85 304.396 193.822 307.815 196.269 309.224L194.565 310.215C192.127 308.805 190.146 305.377 190.155 302.577C190.165 301.177 190.66 300.196 191.45 299.729Z" fill="#A0C5EF"/>
<path d="M190.584 298.263L192.289 297.272C193.317 296.672 194.736 296.758 196.298 297.663C198.86 299.139 201.003 302.329 201.688 305.405L199.984 306.396C199.298 303.31 197.155 300.129 194.593 298.653C193.031 297.748 191.612 297.663 190.584 298.263Z" fill="#A0C5EF"/>
<path d="M194.565 310.215C196.184 311.148 197.593 310.948 198.365 309.91L199.736 310.701C198.86 312.482 196.87 312.929 194.555 311.596C191.451 309.805 188.927 305.444 188.936 301.872C188.946 298.291 191.479 296.853 194.593 298.653C197.155 300.129 199.298 303.32 199.984 306.396L198.698 305.653C198.05 303.386 196.47 301.12 194.584 300.034C192.146 298.625 190.155 299.767 190.146 302.567C190.146 305.377 192.127 308.805 194.565 310.215Z" fill="#A0C5EF"/>
<path d="M210.47 302.663L208.765 303.653C207.965 304.12 206.86 304.063 205.632 303.358L207.336 302.367C208.575 303.072 209.67 303.129 210.47 302.663Z" fill="#4A4ED3"/>
<path d="M202.517 292.872L204.222 291.882C203.422 292.348 202.936 293.329 202.927 294.729C202.917 297.539 204.889 300.958 207.336 302.367L205.631 303.358C203.193 301.948 201.212 298.52 201.222 295.72C201.231 294.32 201.727 293.339 202.517 292.872Z" fill="#A0C5EF"/>
<path d="M201.66 291.406L203.365 290.415C204.394 289.815 205.813 289.901 207.375 290.806C209.937 292.282 212.079 295.472 212.765 298.548L211.06 299.539C210.375 296.453 208.232 293.272 205.67 291.796C204.098 290.891 202.679 290.806 201.66 291.406Z" fill="#A0C5EF"/>
<path d="M205.632 303.358C207.251 304.291 208.66 304.091 209.432 303.053L210.803 303.844C209.927 305.625 207.936 306.072 205.622 304.739C202.517 302.948 199.994 298.586 200.003 295.015C200.013 291.434 202.546 289.996 205.66 291.796C208.222 293.272 210.365 296.463 211.051 299.539L209.765 298.796C209.117 296.529 207.536 294.263 205.651 293.177C203.213 291.768 201.222 292.91 201.213 295.71C201.222 298.52 203.193 301.948 205.632 303.358Z" fill="#A0C5EF"/>
<path d="M221.545 295.806L219.841 296.796C219.041 297.263 217.936 297.206 216.707 296.501L218.412 295.51C219.641 296.225 220.745 296.272 221.545 295.806Z" fill="#4A4ED3"/>
<path d="M213.593 286.015L215.298 285.025C214.498 285.491 214.012 286.472 214.002 287.872C213.993 290.682 215.964 294.101 218.412 295.51L216.707 296.501C214.269 295.091 212.288 291.663 212.298 288.863C212.298 287.463 212.793 286.482 213.593 286.015Z" fill="#A0C5EF"/>
<path d="M212.726 284.549L214.431 283.558C215.46 282.958 216.879 283.044 218.441 283.949C221.002 285.425 223.145 288.615 223.831 291.691L222.126 292.682C221.441 289.596 219.298 286.415 216.736 284.939C215.174 284.034 213.755 283.949 212.726 284.549Z" fill="#A0C5EF"/>
<path d="M216.707 296.501C218.326 297.434 219.736 297.234 220.507 296.196L221.879 296.987C221.002 298.767 219.012 299.215 216.698 297.882C213.593 296.091 211.069 291.729 211.079 288.158C211.088 284.577 213.622 283.139 216.736 284.939C219.298 286.415 221.441 289.606 222.126 292.682L220.841 291.939C220.193 289.672 218.612 287.406 216.726 286.32C214.288 284.91 212.298 286.053 212.288 288.853C212.288 291.663 214.26 295.091 216.707 296.501Z" fill="#A0C5EF"/>
<path d="M233.431 289.453L231.727 290.444C230.927 290.91 229.822 290.853 228.593 290.148L230.298 289.158C231.527 289.863 232.631 289.91 233.431 289.453Z" fill="#4A4ED3"/>
<path d="M225.479 279.653L227.183 278.663C226.383 279.13 225.898 280.11 225.888 281.51C225.879 284.32 227.85 287.739 230.298 289.148L228.593 290.139C226.155 288.729 224.174 285.301 224.183 282.501C224.193 281.101 224.688 280.12 225.479 279.653Z" fill="#A0C5EF"/>
<path d="M224.622 278.187L226.327 277.196C227.355 276.596 228.774 276.682 230.336 277.587C232.898 279.063 235.041 282.253 235.727 285.329L234.022 286.32C233.336 283.234 231.193 280.053 228.631 278.577C227.06 277.672 225.641 277.587 224.622 278.187Z" fill="#A0C5EF"/>
<path d="M228.593 290.139C230.212 291.072 231.622 290.872 232.393 289.834L233.765 290.625C232.888 292.406 230.898 292.853 228.584 291.52C225.479 289.729 222.955 285.368 222.965 281.796C222.974 278.215 225.507 276.777 228.622 278.577C231.184 280.053 233.326 283.244 234.012 286.32L232.726 285.577C232.079 283.31 230.498 281.044 228.612 279.958C226.174 278.549 224.184 279.691 224.174 282.491C224.184 285.31 226.155 288.729 228.593 290.139Z" fill="#A0C5EF"/>
<path d="M244.088 282.596L242.383 283.587C241.583 284.053 240.478 283.996 239.25 283.291L240.955 282.301C242.193 283.006 243.288 283.063 244.088 282.596Z" fill="#4A4ED3"/>
<path d="M236.135 272.806L237.84 271.815C237.04 272.282 236.554 273.263 236.545 274.663C236.535 277.472 238.507 280.891 240.954 282.301L239.25 283.291C236.811 281.882 234.831 278.453 234.84 275.653C234.85 274.253 235.345 273.263 236.135 272.806Z" fill="#A0C5EF"/>
<path d="M235.279 271.33L236.983 270.339C238.012 269.739 239.431 269.825 240.993 270.73C243.555 272.206 245.697 275.396 246.383 278.472L244.678 279.463C243.993 276.377 241.85 273.196 239.288 271.72C237.717 270.825 236.298 270.739 235.279 271.33Z" fill="#A0C5EF"/>
<path d="M239.25 283.291C240.869 284.225 242.278 284.025 243.05 282.987L244.421 283.777C243.545 285.558 241.554 286.006 239.24 284.672C236.135 282.882 233.612 278.52 233.621 274.949C233.631 271.368 236.164 269.93 239.278 271.73C241.84 273.206 243.983 276.396 244.669 279.472L243.383 278.73C242.735 276.463 241.154 274.196 239.269 273.111C236.831 271.701 234.84 272.844 234.831 275.644C234.84 278.453 236.812 281.882 239.25 283.291Z" fill="#A0C5EF"/>
<path d="M255.574 276.377L253.869 277.368C253.069 277.834 251.964 277.777 250.736 277.072L252.441 276.082C253.669 276.787 254.774 276.834 255.574 276.377Z" fill="#4A4ED3"/>
<path d="M247.621 266.577L249.326 265.587C248.526 266.053 248.04 267.034 248.031 268.434C248.021 271.244 249.993 274.663 252.44 276.072L250.735 277.063C248.297 275.653 246.316 272.225 246.326 269.425C246.326 268.025 246.821 267.044 247.621 266.577Z" fill="#A0C5EF"/>
<path d="M246.755 265.111L248.459 264.12C249.488 263.52 250.907 263.606 252.469 264.511C255.031 265.987 257.174 269.177 257.859 272.253L256.155 273.244C255.469 270.158 253.326 266.977 250.764 265.501C249.202 264.596 247.783 264.511 246.755 265.111Z" fill="#A0C5EF"/>
<path d="M250.736 277.063C252.355 277.996 253.764 277.796 254.536 276.758L255.907 277.549C255.031 279.33 253.04 279.777 250.726 278.444C247.621 276.653 245.098 272.292 245.107 268.72C245.117 265.139 247.65 263.701 250.764 265.501C253.326 266.977 255.469 270.168 256.155 273.244L254.869 272.501C254.221 270.234 252.64 267.968 250.755 266.882C248.317 265.473 246.326 266.615 246.317 269.415C246.307 272.215 248.288 275.653 250.736 277.063Z" fill="#A0C5EF"/>
<path d="M266.64 270.149L264.935 271.139C264.135 271.606 263.031 271.549 261.802 270.844L263.507 269.853C264.735 270.558 265.84 270.615 266.64 270.149Z" fill="#4A4ED3"/>
<path d="M258.688 260.358L260.392 259.368C259.592 259.834 259.107 260.815 259.097 262.215C259.088 265.025 261.059 268.444 263.507 269.853L261.802 270.844C259.364 269.434 257.383 266.006 257.392 263.206C257.402 261.806 257.897 260.825 258.688 260.358Z" fill="#A0C5EF"/>
<path d="M257.821 258.892L259.526 257.901C260.554 257.301 261.973 257.387 263.535 258.292C266.097 259.768 268.24 262.958 268.926 266.034L267.221 267.025C266.535 263.939 264.392 260.758 261.83 259.282C260.269 258.377 258.85 258.292 257.821 258.892Z" fill="#A0C5EF"/>
<path d="M261.802 270.844C263.421 271.777 264.831 271.577 265.602 270.539L266.973 271.33C266.097 273.111 264.107 273.558 261.792 272.225C258.688 270.434 256.164 266.073 256.173 262.501C256.183 258.92 258.716 257.482 261.831 259.282C264.392 260.758 266.535 263.949 267.221 267.025L265.935 266.282C265.288 264.015 263.707 261.749 261.821 260.663C259.383 259.254 257.393 260.396 257.383 263.196C257.383 266.006 259.364 269.434 261.802 270.844Z" fill="#A0C5EF"/>
<path d="M329.782 310.796L253.355 355.205C248.002 358.319 239.279 358.319 233.888 355.205L172.374 320.129L169.365 322.158L169.346 324.986L233.869 362.243C239.26 365.357 247.983 365.357 253.336 362.243L329.763 317.834C332.421 316.291 333.754 314.263 333.763 312.234L333.782 309.367C333.773 309.358 332.44 309.244 329.782 310.796Z" fill="url(#paint0_linear)"/>
<path d="M329.716 303.729C335.107 306.844 335.135 311.891 329.783 315.005L253.355 359.414C248.003 362.529 239.279 362.529 233.889 359.414L169.365 322.158L177.289 316.815L265.193 266.473L329.716 303.729Z" fill="#A0C5EF"/>
<path d="M329.782 307.415L253.355 351.824C248.002 354.938 239.279 354.938 233.888 351.824L172.374 316.748L169.365 318.777L169.346 321.605L233.869 358.862C239.26 361.976 247.983 361.976 253.336 358.862L329.763 314.453C332.421 312.91 333.754 310.882 333.763 308.853L333.782 305.986C333.773 305.986 332.44 305.872 329.782 307.415Z" fill="url(#paint1_linear)"/>
<path d="M329.716 300.348C335.107 303.463 335.135 308.51 329.783 311.624L253.355 356.034C248.003 359.148 239.279 359.148 233.889 356.034L169.365 318.777L177.289 313.434L265.193 263.092L329.716 300.348Z" fill="#A0C5EF"/>
<path d="M325.201 294.034C330.334 296.996 330.363 301.815 325.258 304.777L252.421 347.11C247.316 350.072 239.002 350.072 233.869 347.11L175.755 313.482L267.497 260.406L325.201 294.034Z" fill="white"/>
<path d="M325.268 304.777L252.431 347.11C247.326 350.072 239.012 350.072 233.878 347.11L175.755 313.482L175.736 320.186L233.85 353.815C238.983 356.776 247.297 356.776 252.402 353.815L325.239 311.482C327.773 310.005 329.039 308.082 329.049 306.148L329.068 299.444C329.068 301.377 327.801 303.31 325.268 304.777Z" fill="url(#paint2_linear)"/>
<path d="M147.565 264.187L142.918 264.453L134.366 264.939L55.3473 317.901C55.214 317.834 55.0997 317.748 54.9663 317.682C54.7092 317.548 54.3949 317.567 54.1473 317.729L53.6902 318.034C53.4426 318.196 53.3092 318.472 53.3187 318.767C53.3283 318.91 53.3759 319.053 53.4521 319.167C53.4711 319.196 53.4997 319.205 53.5187 319.224C47.7474 324.262 53.9854 333.386 60.6806 330.158C60.6901 330.177 60.6901 330.205 60.6996 330.224C60.7758 330.339 141.613 276.015 141.613 276.015L145.47 268.368L147.565 264.187Z" fill="#DEF0FD"/>
<path d="M135.47 258.272L142.718 269.329L148.67 257.529L135.47 258.272Z" fill="#F0C6AA"/>
<path d="M146.575 261.681L148.671 257.529L144.023 257.796C145.099 258.929 145.966 260.243 146.575 261.681Z" fill="#3E3E3C"/>
<path d="M148.671 257.529L144.023 257.786L148.671 257.529Z" fill="#3E3D3D"/>
<path d="M145.766 260.082C146.071 260.596 146.347 261.13 146.575 261.673L148.67 257.52L144.023 257.787C144.69 258.492 145.271 259.263 145.766 260.082Z" fill="#A0C5EF"/>
<path d="M62.4899 323.101L142.718 269.339C142.451 264.625 139.689 260.406 135.47 258.282L55.2424 312.043C59.4614 314.167 62.2233 318.386 62.4899 323.101Z" fill="url(#paint3_linear)"/>
<path d="M62.49 323.101C62.49 323.101 62.4138 323.148 62.2805 323.224C55.3663 327.196 48.6235 317.615 54.7187 312.463C54.8806 312.32 55.0615 312.186 55.2425 312.043C59.4615 314.167 62.2234 318.386 62.49 323.101Z" fill="url(#paint4_linear)"/>
<path d="M54.4236 312.091C54.4331 312.234 54.4807 312.377 54.5569 312.491C54.6331 312.605 54.7379 312.71 54.8712 312.777C56.814 313.758 58.4712 315.234 59.6616 317.053C60.8521 318.872 61.5473 320.977 61.6711 323.148C61.6806 323.291 61.7283 323.434 61.8045 323.548C61.8806 323.662 61.9854 323.767 62.1187 323.834C62.3759 323.967 62.6902 323.948 62.9378 323.786L63.3949 323.481C63.6425 323.32 63.7759 323.043 63.7663 322.748C63.6235 320.291 62.8425 317.901 61.4902 315.843C60.1378 313.786 58.2616 312.11 56.0712 311.005C55.814 310.872 55.4998 310.891 55.2521 311.053L54.795 311.358C54.5474 311.52 54.414 311.796 54.4236 312.091Z" fill="#A0C5EF"/>
<path d="M179.956 264.034L175.422 265.073L167.07 266.987L98.0421 332.434C97.8993 332.386 97.7754 332.319 97.6326 332.281C97.3564 332.196 97.0516 332.262 96.8326 332.462L96.4326 332.834C96.2231 333.034 96.1278 333.329 96.1945 333.615C96.2231 333.758 96.2993 333.881 96.3945 333.986C96.4135 334.005 96.4516 334.015 96.4707 334.034C91.6231 339.967 99.2992 347.91 105.366 343.615C105.385 343.634 105.385 343.662 105.394 343.681C105.49 343.786 176.079 276.682 176.079 276.682L178.603 268.492L179.956 264.034Z" fill="#DEF0FD"/>
<path d="M164.785 261.12L173.804 270.787L177.661 258.139L164.785 261.12Z" fill="#F0C6AA"/>
<path d="M176.299 262.587L177.651 258.139L173.118 259.187C174.375 260.13 175.451 261.273 176.299 262.587Z" fill="#3E3E3C"/>
<path d="M177.661 258.139L173.128 259.187L177.661 258.139Z" fill="#3E3D3D"/>
<path d="M175.233 261.158C175.623 261.606 175.976 262.092 176.309 262.587L177.661 258.139L173.128 259.187C173.899 259.768 174.604 260.425 175.233 261.158Z" fill="#A0C5EF"/>
<path d="M103.89 337.415L173.803 270.787C172.737 266.187 169.299 262.501 164.784 261.13L94.8708 327.758C99.3851 329.129 102.823 332.815 103.89 337.415Z" fill="url(#paint5_linear)"/>
<path d="M103.889 337.415C103.889 337.415 103.823 337.472 103.709 337.567C97.5752 342.653 89.2991 334.358 94.4229 328.253C94.5658 328.091 94.7086 327.92 94.8705 327.748C99.3848 329.129 102.823 332.815 103.889 337.415Z" fill="url(#paint6_linear)"/>
<path d="M94.0706 327.939C94.0991 328.081 94.1753 328.205 94.2706 328.31C94.3658 328.415 94.4896 328.491 94.6325 328.539C96.7086 329.177 98.5943 330.348 100.08 331.939C101.566 333.529 102.604 335.491 103.099 337.605C103.128 337.748 103.204 337.872 103.299 337.977C103.394 338.081 103.518 338.158 103.661 338.205C103.937 338.291 104.242 338.224 104.461 338.024L104.861 337.653C105.07 337.453 105.166 337.158 105.099 336.872C104.547 334.472 103.366 332.253 101.68 330.462C100.004 328.662 97.8705 327.339 95.5182 326.615C95.242 326.529 94.9372 326.596 94.7182 326.796L94.3182 327.167C94.0896 327.348 94.0039 327.653 94.0706 327.939Z" fill="#A0C5EF"/>
<path d="M424.429 262.958C424.429 262.958 397.744 276.644 384.306 284.691C383.496 278.891 375.239 274.33 365.144 274.33C360.43 274.33 356.116 275.33 352.763 276.987C350.983 274.92 348.887 273.177 346.535 271.768C347.868 270.225 348.64 268.492 348.64 266.644C348.64 260.406 340.03 255.349 329.402 255.349L376.401 225.435L370.23 222.263L317.888 255.273C311.478 259.006 310.164 262.701 310.164 266.644C310.164 272.882 318.773 277.939 329.402 277.939C334.507 277.939 339.135 276.768 342.573 274.863C342.659 274.92 342.706 275.006 342.811 275.053C345.097 276.234 347.144 277.758 348.849 279.634C346.992 281.368 345.906 283.415 345.906 285.625C345.906 291.863 354.516 296.92 365.144 296.92C371.344 296.92 377.43 295.996 380.944 293.32L431.448 265.987L424.429 262.958Z" fill="#DEF0FD"/>
<path d="M429.497 265.739C429.268 265.368 429.021 265.025 428.773 264.701C428.687 264.596 428.592 264.501 428.506 264.396C428.325 264.187 428.154 263.977 427.963 263.796C427.849 263.682 427.735 263.587 427.621 263.482C427.44 263.32 427.268 263.158 427.078 263.015C426.944 262.911 426.811 262.825 426.678 262.73C426.497 262.596 426.306 262.473 426.116 262.358C425.154 261.768 424.087 261.368 422.954 261.139C423.344 261.587 423.716 262.054 424.04 262.587C424.144 262.758 424.278 262.882 424.43 262.968L429.887 266.139L429.878 266.13C429.725 266.025 429.601 265.901 429.497 265.739Z" fill="#8DBFFE"/>
<path d="M386.992 276.834C386.945 276.777 386.906 276.711 386.868 276.644C386.84 276.606 386.811 276.568 386.792 276.52C386.754 276.444 386.735 276.349 386.706 276.253C386.697 276.206 386.678 276.168 386.659 276.12C386.63 275.977 386.611 275.815 386.611 275.634C386.611 274.234 387.592 272.539 388.811 271.844L411.754 258.596C412.487 258.168 413.22 257.806 413.944 257.463C414.135 257.368 414.325 257.282 414.516 257.196C415.154 256.911 415.782 256.654 416.411 256.435C416.497 256.406 416.592 256.368 416.678 256.33C417.373 256.092 418.059 255.901 418.744 255.739C418.916 255.701 419.087 255.663 419.259 255.625C419.82 255.511 420.382 255.416 420.925 255.358C421.049 255.339 421.182 255.32 421.306 255.311C421.954 255.254 422.582 255.235 423.201 255.254C423.344 255.263 423.487 255.273 423.63 255.282C424.135 255.311 424.63 255.368 425.116 255.454C425.249 255.482 425.392 255.492 425.525 255.52C426.106 255.644 426.668 255.796 427.211 255.996C427.316 256.035 427.42 256.082 427.525 256.13C427.973 256.311 428.411 256.511 428.83 256.749C428.906 256.787 428.992 256.815 429.068 256.863L423.611 253.692C419.097 251.063 412.906 251.597 406.297 255.416L383.354 268.663C382.135 269.368 381.154 271.063 381.154 272.453C381.154 273.149 381.402 273.625 381.792 273.853L387.249 277.025C387.192 276.996 387.145 276.949 387.097 276.901C387.068 276.891 387.03 276.872 386.992 276.834Z" fill="#8DBFFE"/>
<path d="M433.382 261.158C432.173 259.215 430.63 257.758 428.83 256.777C428.411 256.549 427.973 256.339 427.525 256.158C427.42 256.12 427.316 256.063 427.211 256.025C426.668 255.825 426.106 255.673 425.525 255.549C425.392 255.52 425.249 255.501 425.116 255.482C424.63 255.396 424.135 255.339 423.63 255.311C423.487 255.301 423.344 255.292 423.201 255.282C422.582 255.263 421.954 255.282 421.306 255.339C421.182 255.349 421.049 255.377 420.925 255.387C420.382 255.444 419.82 255.539 419.259 255.654C419.087 255.692 418.916 255.72 418.744 255.768C418.068 255.93 417.382 256.12 416.678 256.358C416.592 256.387 416.497 256.425 416.411 256.463C415.782 256.682 415.154 256.939 414.516 257.225C414.325 257.311 414.135 257.396 413.944 257.492C413.221 257.835 412.497 258.206 411.754 258.625L388.811 271.872C387.592 272.577 386.611 274.272 386.611 275.663C386.611 275.834 386.63 275.996 386.659 276.149C386.668 276.196 386.687 276.234 386.707 276.282C386.735 276.377 386.754 276.463 386.792 276.549C386.811 276.596 386.849 276.634 386.868 276.672C386.907 276.739 386.945 276.806 386.992 276.863C387.021 276.901 387.068 276.92 387.107 276.958C387.516 277.311 388.126 277.33 388.83 276.93L411.773 263.682C415.84 261.33 419.706 260.52 422.954 261.158C424.097 261.387 425.154 261.787 426.116 262.377C426.306 262.492 426.487 262.625 426.678 262.749C426.811 262.844 426.944 262.939 427.078 263.034C427.258 263.177 427.439 263.339 427.62 263.501C427.735 263.606 427.858 263.711 427.963 263.815C428.154 264.006 428.325 264.215 428.506 264.415C428.592 264.52 428.687 264.615 428.773 264.72C429.03 265.044 429.268 265.387 429.497 265.758C429.601 265.92 429.725 266.044 429.878 266.13C430.297 266.377 430.868 266.32 431.449 265.987C431.792 265.787 432.144 265.501 432.468 265.111C433.544 263.825 433.954 262.054 433.382 261.158Z" fill="#A0C5EF"/>
<path d="M374.402 225.663C374.173 225.292 373.926 224.949 373.678 224.625C373.592 224.521 373.497 224.425 373.411 224.321C373.23 224.111 373.059 223.902 372.869 223.721C372.754 223.606 372.64 223.511 372.526 223.406C372.345 223.244 372.173 223.082 371.983 222.94C371.849 222.835 371.716 222.749 371.583 222.654C371.402 222.521 371.211 222.397 371.021 222.282C370.059 221.692 368.992 221.292 367.859 221.063C368.25 221.511 368.621 221.978 368.945 222.511C369.05 222.682 369.183 222.806 369.335 222.892L374.792 226.063L374.783 226.054C374.63 225.949 374.497 225.835 374.402 225.663Z" fill="#8DBFFE"/>
<path d="M331.897 236.759C331.85 236.701 331.811 236.635 331.773 236.568C331.745 236.53 331.716 236.492 331.697 236.444C331.659 236.368 331.64 236.273 331.611 236.178C331.602 236.13 331.583 236.092 331.564 236.044C331.535 235.901 331.516 235.74 331.516 235.559C331.516 234.159 332.497 232.463 333.716 231.768L356.659 218.521C357.392 218.092 358.125 217.73 358.849 217.387C359.04 217.292 359.23 217.206 359.421 217.121C360.059 216.835 360.687 216.578 361.316 216.359C361.402 216.33 361.497 216.292 361.583 216.254C362.278 216.016 362.964 215.825 363.649 215.664C363.821 215.625 363.992 215.587 364.164 215.549C364.725 215.435 365.287 215.34 365.83 215.283C365.954 215.264 366.087 215.244 366.211 215.235C366.859 215.178 367.487 215.159 368.106 215.178C368.249 215.178 368.392 215.197 368.535 215.206C369.04 215.235 369.535 215.292 370.021 215.378C370.154 215.406 370.297 215.416 370.43 215.444C371.011 215.568 371.573 215.721 372.116 215.921C372.221 215.959 372.325 216.006 372.43 216.054C372.878 216.235 373.316 216.435 373.735 216.673C373.811 216.711 373.897 216.74 373.973 216.787L368.516 213.616C364.002 210.987 357.811 211.521 351.202 215.34L328.259 228.587C327.04 229.292 326.059 230.987 326.059 232.378C326.059 233.073 326.307 233.549 326.697 233.778L332.154 236.949C332.097 236.92 332.05 236.873 332.002 236.825C331.973 236.816 331.926 236.797 331.897 236.759Z" fill="#8DBFFE"/>
<path d="M378.287 221.082C377.078 219.14 375.535 217.683 373.735 216.702C373.316 216.473 372.878 216.263 372.43 216.083C372.326 216.044 372.221 215.987 372.116 215.949C371.573 215.749 371.011 215.597 370.43 215.473C370.297 215.444 370.154 215.425 370.021 215.406C369.535 215.321 369.04 215.264 368.535 215.235C368.392 215.225 368.249 215.216 368.107 215.206C367.487 215.187 366.859 215.206 366.211 215.264C366.088 215.273 365.954 215.302 365.83 215.311C365.288 215.368 364.726 215.463 364.164 215.578C363.992 215.616 363.821 215.644 363.649 215.692C362.973 215.854 362.288 216.044 361.583 216.283C361.497 216.311 361.402 216.349 361.316 216.387C360.697 216.606 360.059 216.864 359.421 217.149C359.23 217.235 359.04 217.321 358.849 217.416C358.126 217.759 357.402 218.13 356.659 218.549L333.716 231.797C332.497 232.501 331.516 234.197 331.516 235.587C331.516 235.759 331.535 235.92 331.564 236.073C331.574 236.12 331.593 236.159 331.612 236.206C331.64 236.301 331.659 236.387 331.697 236.473C331.716 236.52 331.755 236.559 331.774 236.597C331.812 236.663 331.85 236.73 331.897 236.787C331.926 236.825 331.974 236.844 332.012 236.882C332.421 237.235 333.031 237.254 333.735 236.854L356.678 223.606C360.745 221.254 364.611 220.444 367.859 221.082C369.002 221.311 370.059 221.711 371.021 222.302C371.211 222.416 371.392 222.549 371.583 222.673C371.716 222.768 371.849 222.863 371.983 222.959C372.164 223.102 372.345 223.263 372.526 223.425C372.64 223.53 372.764 223.635 372.868 223.74C373.059 223.93 373.23 224.14 373.411 224.34C373.497 224.444 373.592 224.54 373.678 224.644C373.935 224.968 374.173 225.311 374.402 225.682C374.506 225.844 374.63 225.968 374.783 226.054C375.202 226.301 375.773 226.244 376.354 225.911C376.697 225.711 377.049 225.425 377.373 225.035C378.44 223.749 378.849 221.978 378.287 221.082Z" fill="#A0C5EF"/>
<path d="M317.317 238.997C317.259 239.273 317.231 239.568 317.193 239.854C317.193 239.863 317.193 239.863 317.193 239.873C317.221 239.578 317.259 239.282 317.317 238.997Z" fill="#508CC9"/>
<path d="M318.488 236.006C318.393 236.159 318.307 236.33 318.212 236.492C318.212 236.492 318.212 236.501 318.202 236.501C318.298 236.339 318.383 236.159 318.488 236.006Z" fill="#508CC9"/>
<path d="M319.069 235.235C318.955 235.368 318.85 235.511 318.745 235.654L318.736 235.663C318.85 235.52 318.955 235.368 319.069 235.235Z" fill="#508CC9"/>
<path d="M317.602 237.892C317.536 238.092 317.488 238.32 317.431 238.53C317.431 238.539 317.431 238.539 317.431 238.549C317.488 238.32 317.536 238.101 317.602 237.892Z" fill="#508CC9"/>
<path d="M317.993 236.892C317.917 237.063 317.85 237.254 317.774 237.435C317.774 237.435 317.774 237.444 317.764 237.444C317.85 237.263 317.917 237.063 317.993 236.892Z" fill="#508CC9"/>
<path d="M319.736 234.597C319.603 234.701 319.488 234.825 319.374 234.949L319.364 234.959C319.488 234.835 319.612 234.701 319.736 234.597Z" fill="#508CC9"/>
<path d="M317.136 240.225C317.098 240.654 317.069 241.092 317.069 241.549C317.079 241.092 317.098 240.644 317.136 240.225Z" fill="#508CC9"/>
<path d="M322.212 233.435C322.069 233.463 321.936 233.511 321.802 233.549H321.793C321.936 233.511 322.069 233.463 322.212 233.435Z" fill="#508CC9"/>
<path d="M323.174 233.311C323.031 233.32 322.888 233.349 322.745 233.359H322.736C322.888 233.349 323.031 233.32 323.174 233.311Z" fill="#508CC9"/>
<path d="M321.316 233.692C321.183 233.74 321.059 233.816 320.935 233.873C320.935 233.873 320.926 233.873 320.926 233.882C321.05 233.816 321.183 233.74 321.316 233.692Z" fill="#508CC9"/>
<path d="M320.488 234.082C320.345 234.168 320.222 234.263 320.088 234.359L320.079 234.368C320.212 234.263 320.345 234.159 320.488 234.082Z" fill="#508CC9"/>
<path d="M344.269 261.358C344.231 261.511 344.192 261.644 344.154 261.796C344.078 262.092 343.992 262.396 343.897 262.673C343.84 262.834 343.773 262.987 343.716 263.149C343.621 263.396 343.526 263.634 343.421 263.873C343.345 264.034 343.269 264.177 343.183 264.33C343.069 264.539 342.954 264.749 342.831 264.949C342.745 265.092 342.65 265.234 342.554 265.368C342.421 265.558 342.288 265.73 342.145 265.901C342.04 266.025 341.935 266.149 341.831 266.273C341.678 266.434 341.526 266.587 341.364 266.739C341.25 266.844 341.135 266.949 341.021 267.044C340.85 267.187 340.669 267.311 340.488 267.434C340.364 267.52 340.25 267.606 340.126 267.682C340.088 267.701 340.05 267.739 340.012 267.758L345.469 264.587C346.516 263.977 347.411 263.101 348.145 262.006L344.545 259.93C344.459 260.425 344.373 260.892 344.269 261.358Z" fill="#A0C5EF"/>
<path d="M318.526 228.187C318.745 228.111 318.974 228.054 319.193 227.997C319.383 227.94 319.564 227.873 319.764 227.835C320.002 227.787 320.24 227.768 320.488 227.74C320.688 227.721 320.888 227.673 321.088 227.663C321.336 227.654 321.602 227.673 321.859 227.682C322.069 227.692 322.279 227.682 322.488 227.701C322.764 227.73 323.04 227.787 323.326 227.825C323.536 227.863 323.745 227.873 323.964 227.921C324.269 227.987 324.583 228.092 324.898 228.178C325.098 228.235 325.298 228.273 325.498 228.349C325.85 228.473 326.221 228.625 326.583 228.787C326.755 228.863 326.926 228.911 327.098 228.997C327.64 229.244 328.183 229.53 328.736 229.844C336.821 234.511 343.478 245.292 344.535 254.863L351.84 259.082C352.116 256.977 352.754 255.215 353.678 253.825L349.993 251.692C348.945 242.12 342.278 231.34 334.193 226.673C329.745 224.102 325.717 223.873 322.802 225.568L317.345 228.74C317.355 228.73 317.364 228.73 317.374 228.73C317.564 228.616 317.783 228.54 317.983 228.444C318.174 228.359 318.336 228.263 318.526 228.187Z" fill="#A0C5EF"/>
<path d="M356.126 262.73C356.088 263.158 356.059 263.596 356.059 264.054C356.059 263.596 356.078 263.158 356.126 262.73Z" fill="#508CC9"/>
<path d="M356.983 259.396C356.897 259.577 356.83 259.768 356.764 259.958C356.764 259.958 356.764 259.968 356.754 259.968C356.83 259.777 356.897 259.577 356.983 259.396Z" fill="#508CC9"/>
<path d="M362.164 255.825C362.021 255.835 361.888 255.863 361.745 255.873C361.735 255.873 361.735 255.873 361.726 255.873C361.869 255.863 362.012 255.835 362.164 255.825Z" fill="#508CC9"/>
<path d="M359.478 256.587C359.345 256.663 359.221 256.768 359.088 256.854L359.078 256.863C359.202 256.777 359.335 256.673 359.478 256.587Z" fill="#508CC9"/>
<path d="M360.307 256.196C360.174 256.244 360.05 256.311 359.926 256.377C359.926 256.377 359.916 256.377 359.916 256.387C360.05 256.32 360.174 256.254 360.307 256.196Z" fill="#508CC9"/>
<path d="M357.478 258.511C357.383 258.663 357.297 258.834 357.212 258.996C357.212 258.996 357.212 259.006 357.202 259.006C357.288 258.844 357.374 258.673 357.478 258.511Z" fill="#508CC9"/>
<path d="M358.726 257.111C358.602 257.215 358.488 257.33 358.373 257.444C358.364 257.454 358.364 257.454 358.354 257.463C358.478 257.339 358.593 257.215 358.726 257.111Z" fill="#508CC9"/>
<path d="M357.278 270.739C357.002 269.939 356.755 269.13 356.564 268.32C356.755 269.13 357.002 269.93 357.278 270.739Z" fill="#508CC9"/>
<path d="M364.192 281.52C363.468 280.844 362.773 280.101 362.116 279.301C362.773 280.101 363.468 280.844 364.192 281.52Z" fill="#508CC9"/>
<path d="M358.059 257.749C357.945 257.873 357.85 258.015 357.745 258.158C357.745 258.168 357.735 258.168 357.735 258.177C357.84 258.025 357.945 257.882 358.059 257.749Z" fill="#508CC9"/>
<path d="M356.297 261.511C356.25 261.768 356.212 262.044 356.183 262.32C356.183 262.339 356.173 262.349 356.173 262.368C356.212 262.073 356.25 261.777 356.297 261.511Z" fill="#508CC9"/>
<path d="M356.593 260.396C356.526 260.606 356.478 260.825 356.421 261.044C356.421 261.063 356.412 261.073 356.412 261.092C356.469 260.854 356.516 260.615 356.593 260.396Z" fill="#508CC9"/>
<path d="M359.04 274.711C358.497 273.711 358.021 272.682 357.621 271.634C358.021 272.682 358.497 273.711 359.04 274.711Z" fill="#508CC9"/>
<path d="M361.202 255.939C361.059 255.968 360.935 256.015 360.802 256.054H360.793C360.926 256.025 361.059 255.968 361.202 255.939Z" fill="#508CC9"/>
<path opacity="0.53" d="M379.297 277.472C379.316 270.101 374.126 261.101 367.716 257.396C367.316 257.168 366.916 256.958 366.526 256.777C366.412 256.72 366.297 256.692 366.183 256.644C366.193 256.644 366.202 256.654 366.212 256.654C365.926 256.53 365.65 256.415 365.373 256.32C365.221 256.263 365.069 256.235 364.916 256.187C364.935 256.196 364.945 256.196 364.964 256.196C364.726 256.13 364.488 256.054 364.259 255.996C364.097 255.958 363.945 255.949 363.793 255.92C363.802 255.92 363.812 255.92 363.831 255.93C363.621 255.892 363.402 255.854 363.193 255.835C363.04 255.825 362.888 255.825 362.735 255.825C362.745 255.825 362.754 255.825 362.764 255.825C362.564 255.815 362.364 255.806 362.183 255.815C362.031 255.825 361.888 255.854 361.745 255.873C361.754 255.873 361.754 255.873 361.764 255.873C361.583 255.892 361.393 255.901 361.221 255.939C361.078 255.968 360.945 256.015 360.802 256.054H360.812C360.65 256.101 360.478 256.139 360.316 256.196C360.183 256.244 360.059 256.32 359.926 256.377C359.926 256.377 359.935 256.377 359.935 256.368C359.783 256.435 359.631 256.501 359.488 256.587C359.345 256.673 359.221 256.768 359.088 256.863C358.974 256.939 358.85 257.015 358.745 257.101C358.612 257.206 358.497 257.33 358.374 257.454C358.269 257.549 358.164 257.634 358.069 257.749C357.955 257.882 357.85 258.025 357.745 258.168C357.659 258.282 357.564 258.387 357.488 258.511C357.383 258.663 357.307 258.834 357.212 259.006C357.145 259.139 357.059 259.254 356.993 259.396C356.907 259.577 356.84 259.777 356.764 259.977C356.707 260.12 356.65 260.254 356.602 260.396C356.535 260.615 356.478 260.854 356.421 261.092C356.383 261.234 356.345 261.368 356.316 261.511C356.259 261.777 356.231 262.073 356.193 262.358C356.174 262.482 356.155 262.596 356.135 262.73C356.097 263.158 356.069 263.596 356.069 264.054C356.069 264.977 356.145 265.92 356.297 266.873C356.374 267.349 356.469 267.834 356.583 268.32C356.774 269.12 357.012 269.93 357.297 270.739C357.402 271.044 357.507 271.339 357.631 271.644C358.04 272.692 358.516 273.72 359.05 274.72C359.678 275.891 360.383 277.034 361.174 278.091C361.478 278.51 361.802 278.92 362.126 279.31C362.783 280.101 363.478 280.844 364.202 281.53C365.288 282.549 366.45 283.434 367.65 284.12C374.059 287.825 379.278 284.834 379.297 277.472Z" fill="#DEF0FD"/>
<path d="M373.183 249.187C368.745 246.625 364.726 246.397 361.821 248.082L356.364 251.254C356.469 251.196 356.583 251.149 356.697 251.092C356.917 250.977 357.126 250.873 357.355 250.777C357.517 250.711 357.678 250.663 357.84 250.606C358.069 250.53 358.297 250.463 358.526 250.406C358.697 250.368 358.878 250.33 359.059 250.301C359.297 250.263 359.536 250.225 359.783 250.206C359.974 250.187 360.155 250.177 360.355 250.177C360.612 250.168 360.869 250.177 361.126 250.196C361.316 250.206 361.516 250.216 361.716 250.244C361.983 250.273 362.259 250.32 362.545 250.368C362.745 250.406 362.945 250.435 363.145 250.482C363.44 250.549 363.735 250.644 364.04 250.73C364.24 250.787 364.431 250.844 364.631 250.911C364.964 251.025 365.307 251.177 365.659 251.32C365.831 251.396 365.993 251.454 366.164 251.53C366.678 251.768 367.212 252.044 367.735 252.349C376.573 257.454 383.735 269.853 383.707 280.006C383.707 280.634 383.678 281.244 383.621 281.825C383.602 282.015 383.564 282.187 383.545 282.368C383.497 282.749 383.45 283.139 383.373 283.501C383.335 283.71 383.269 283.891 383.221 284.091C383.145 284.406 383.069 284.73 382.973 285.034C382.907 285.234 382.821 285.415 382.745 285.615C382.64 285.882 382.545 286.158 382.431 286.415C382.345 286.606 382.231 286.777 382.135 286.958C382.012 287.187 381.897 287.425 381.754 287.634C381.64 287.806 381.507 287.958 381.383 288.12C381.24 288.31 381.107 288.51 380.945 288.691C380.812 288.844 380.659 288.968 380.516 289.101C380.354 289.263 380.192 289.434 380.021 289.577C379.869 289.701 379.697 289.796 379.545 289.91C379.373 290.034 379.202 290.168 379.021 290.272L384.478 287.101C387.354 285.434 389.135 281.882 389.154 276.844C389.183 266.692 382.021 254.292 373.183 249.187Z" fill="#A0C5EF"/>
<path d="M380.526 289.101C380.668 288.968 380.821 288.844 380.954 288.691C381.107 288.52 381.249 288.31 381.392 288.12C381.516 287.958 381.649 287.806 381.764 287.634C381.897 287.425 382.021 287.187 382.145 286.958C382.24 286.777 382.354 286.606 382.44 286.415C382.554 286.168 382.649 285.882 382.754 285.615C382.83 285.425 382.916 285.244 382.983 285.034C383.078 284.739 383.154 284.415 383.23 284.091C383.278 283.891 383.345 283.71 383.383 283.501C383.459 283.139 383.497 282.749 383.554 282.368C383.573 282.187 383.611 282.015 383.63 281.825C383.687 281.244 383.716 280.634 383.716 280.006C383.745 269.853 376.583 257.454 367.745 252.349C367.211 252.044 366.688 251.777 366.173 251.53C366.002 251.454 365.84 251.387 365.669 251.32C365.326 251.177 364.983 251.025 364.64 250.911C364.44 250.844 364.25 250.787 364.05 250.73C363.745 250.635 363.45 250.549 363.154 250.482C362.954 250.435 362.754 250.406 362.554 250.368C362.278 250.32 362.002 250.273 361.726 250.244C361.526 250.225 361.335 250.216 361.135 250.197C360.878 250.187 360.621 250.177 360.364 250.177C360.173 250.177 359.983 250.197 359.792 250.206C359.545 250.225 359.307 250.254 359.069 250.301C358.888 250.33 358.707 250.358 358.535 250.406C358.297 250.463 358.069 250.53 357.85 250.606C357.688 250.663 357.526 250.711 357.364 250.777C357.135 250.873 356.926 250.977 356.707 251.092C355.516 251.711 354.488 252.616 353.688 253.825C352.764 255.215 352.126 256.977 351.85 259.082L344.545 254.863C343.497 245.292 336.831 234.511 328.745 229.844C328.193 229.521 327.64 229.244 327.107 228.997C326.936 228.921 326.764 228.863 326.593 228.787C326.231 228.635 325.869 228.473 325.507 228.349C325.307 228.282 325.107 228.235 324.907 228.178C324.593 228.082 324.278 227.987 323.974 227.921C323.755 227.873 323.545 227.854 323.336 227.825C323.059 227.778 322.774 227.721 322.498 227.701C322.279 227.682 322.079 227.692 321.869 227.682C321.612 227.673 321.345 227.654 321.098 227.663C320.888 227.673 320.698 227.711 320.498 227.74C320.259 227.768 320.012 227.787 319.774 227.835C319.574 227.873 319.393 227.94 319.202 227.997C318.983 228.063 318.745 228.111 318.536 228.187C318.355 228.254 318.183 228.349 318.002 228.435C317.802 228.53 317.583 228.616 317.393 228.721C314.498 230.387 312.698 233.94 312.688 238.997C312.66 249.139 319.821 261.539 328.65 266.644C333.145 269.244 337.212 269.434 340.126 267.673C340.25 267.596 340.364 267.511 340.488 267.425C340.669 267.301 340.85 267.177 341.021 267.034C341.145 266.939 341.25 266.834 341.364 266.73C341.526 266.587 341.678 266.425 341.831 266.263C341.935 266.149 342.04 266.025 342.145 265.892C342.288 265.72 342.421 265.539 342.554 265.358C342.65 265.225 342.745 265.082 342.831 264.939C342.954 264.739 343.069 264.53 343.183 264.32C343.259 264.168 343.345 264.015 343.421 263.863C343.526 263.634 343.621 263.387 343.716 263.139C343.774 262.977 343.84 262.825 343.897 262.663C343.993 262.377 344.069 262.082 344.154 261.787C344.193 261.644 344.24 261.501 344.269 261.349C344.374 260.892 344.459 260.415 344.526 259.92L348.126 261.996L351.821 264.13C352.869 273.701 359.535 284.482 367.621 289.148C372.345 291.882 376.592 291.948 379.535 289.891C379.697 289.777 379.859 289.682 380.011 289.558C380.202 289.425 380.354 289.253 380.526 289.101ZM328.659 261.606C327.859 261.139 327.078 260.596 326.317 259.987C324.05 258.139 322.021 255.673 320.45 252.949C319.926 252.044 319.45 251.101 319.04 250.149C318.621 249.197 318.269 248.235 317.974 247.263C317.831 246.778 317.698 246.292 317.583 245.816C317.25 244.368 317.069 242.93 317.069 241.549C317.069 241.092 317.088 240.644 317.136 240.225C317.145 240.101 317.174 239.987 317.193 239.863C317.231 239.568 317.26 239.282 317.317 239.006C317.345 238.844 317.402 238.692 317.44 238.539C317.498 238.32 317.545 238.101 317.612 237.901C317.659 237.739 317.726 237.597 317.793 237.444C317.859 237.263 317.926 237.073 318.012 236.901C318.079 236.759 318.155 236.635 318.231 236.501C318.317 236.339 318.402 236.168 318.507 236.016C318.583 235.892 318.679 235.787 318.764 235.673C318.869 235.53 318.974 235.378 319.088 235.254C319.183 235.149 319.288 235.054 319.393 234.959C319.517 234.844 319.631 234.711 319.755 234.606C319.859 234.52 319.983 234.444 320.098 234.368C320.231 234.273 320.364 234.168 320.498 234.092C320.64 234.006 320.793 233.949 320.945 233.882C321.069 233.825 321.193 233.749 321.326 233.701C321.479 233.644 321.65 233.606 321.812 233.559C321.945 233.52 322.078 233.473 322.221 233.444C322.393 233.406 322.574 233.397 322.755 233.378C322.898 233.359 323.031 233.33 323.183 233.33C323.374 233.32 323.574 233.34 323.764 233.34C323.907 233.34 324.05 233.34 324.202 233.349C324.402 233.368 324.612 233.406 324.812 233.444C324.917 233.463 325.021 233.473 325.136 233.492C326.269 233.72 327.478 234.178 328.736 234.911C331.936 236.759 334.84 239.939 336.936 243.568C339.031 247.206 340.326 251.301 340.316 254.987C340.297 262.32 335.059 265.311 328.659 261.606ZM367.64 284.12C366.44 283.425 365.278 282.549 364.192 281.53C363.469 280.853 362.773 280.111 362.116 279.311C361.792 278.911 361.469 278.511 361.164 278.091C360.383 277.025 359.678 275.891 359.04 274.72C358.497 273.72 358.021 272.692 357.621 271.644C357.507 271.349 357.392 271.044 357.288 270.739C357.011 269.939 356.764 269.13 356.573 268.32C356.459 267.834 356.364 267.358 356.288 266.873C356.135 265.911 356.059 264.968 356.059 264.054C356.059 263.596 356.078 263.149 356.126 262.73C356.135 262.587 356.164 262.454 356.183 262.311C356.221 262.034 356.25 261.758 356.297 261.511C356.326 261.349 356.383 261.206 356.421 261.044C356.478 260.825 356.526 260.606 356.592 260.396C356.64 260.244 356.707 260.111 356.764 259.958C356.84 259.768 356.907 259.568 356.983 259.396C357.05 259.254 357.135 259.13 357.202 258.996C357.288 258.835 357.373 258.663 357.469 258.511C357.554 258.387 357.65 258.273 357.745 258.149C357.85 258.015 357.945 257.863 358.059 257.739C358.154 257.625 358.269 257.53 358.373 257.435C358.488 257.32 358.602 257.196 358.726 257.101C358.84 257.006 358.964 256.939 359.088 256.854C359.221 256.768 359.345 256.663 359.478 256.587C359.621 256.501 359.773 256.444 359.926 256.368C360.05 256.311 360.173 256.244 360.307 256.187C360.469 256.13 360.64 256.092 360.802 256.044C360.935 256.006 361.069 255.958 361.202 255.93C361.373 255.892 361.564 255.882 361.745 255.863C361.888 255.844 362.021 255.815 362.164 255.815C362.354 255.806 362.554 255.825 362.745 255.825C362.888 255.825 363.03 255.825 363.183 255.835C363.392 255.854 363.611 255.901 363.821 255.93C363.964 255.958 364.107 255.968 364.25 255.996C364.478 256.044 364.716 256.12 364.954 256.196C365.088 256.235 365.221 256.263 365.364 256.311C365.64 256.406 365.926 256.53 366.202 256.644C366.307 256.692 366.411 256.72 366.516 256.768C366.907 256.949 367.307 257.149 367.707 257.387C374.116 261.092 379.307 270.092 379.287 277.463C379.278 284.834 374.059 287.825 367.64 284.12Z" fill="#BCD8FC"/>
<path opacity="0.53" d="M340.316 254.968C340.326 251.282 339.031 247.187 336.936 243.549C334.84 239.911 331.936 236.739 328.736 234.892C327.478 234.168 326.269 233.711 325.136 233.473C325.021 233.454 324.907 233.435 324.802 233.425H324.812C324.602 233.387 324.402 233.349 324.202 233.33C324.04 233.32 323.888 233.32 323.736 233.32C323.745 233.32 323.755 233.32 323.764 233.32C323.574 233.311 323.374 233.301 323.183 233.311C323.031 233.32 322.888 233.349 322.745 233.368H322.755C322.574 233.387 322.393 233.397 322.221 233.435C322.079 233.463 321.945 233.511 321.802 233.549C321.802 233.549 321.802 233.549 321.812 233.549C321.65 233.597 321.479 233.635 321.326 233.692C321.193 233.74 321.059 233.816 320.926 233.873C320.926 233.873 320.936 233.873 320.936 233.863C320.783 233.93 320.631 233.997 320.488 234.073C320.345 234.159 320.212 234.263 320.069 234.359C319.955 234.435 319.84 234.501 319.736 234.587C319.602 234.692 319.488 234.825 319.364 234.94C319.269 235.035 319.164 235.12 319.069 235.225C318.955 235.359 318.85 235.511 318.736 235.654C318.65 235.768 318.564 235.873 318.479 235.987C318.374 236.14 318.288 236.32 318.202 236.482C318.136 236.616 318.05 236.73 317.993 236.873C317.907 237.054 317.84 237.244 317.774 237.435C317.717 237.578 317.65 237.72 317.602 237.873C317.536 238.082 317.488 238.311 317.431 238.53C317.393 238.682 317.345 238.825 317.317 238.987C317.26 239.263 317.221 239.568 317.183 239.863C317.164 239.978 317.145 240.092 317.136 240.206C317.098 240.635 317.069 241.073 317.069 241.53C317.069 242.911 317.24 244.349 317.583 245.797C317.698 246.282 317.821 246.768 317.974 247.244C318.269 248.216 318.621 249.177 319.04 250.13C319.459 251.082 319.926 252.016 320.45 252.93C322.021 255.654 324.05 258.12 326.317 259.968C327.069 260.587 327.859 261.13 328.659 261.587C335.059 265.311 340.297 262.32 340.316 254.968Z" fill="#DEF0FD"/>
<path d="M339.84 185.616C354.821 194.264 354.897 208.283 340.04 216.921C325.154 225.568 288.097 232.511 273.117 223.863C258.155 215.225 270.945 194.273 285.821 185.626C300.688 176.978 324.888 176.978 339.84 185.616Z" fill="#DEF0FD"/>
<path d="M330.497 163.502C327.849 145.712 326.392 126.045 335.487 108.036C344.83 89.5219 362.001 78.303 377.563 68.3126C378.058 67.9888 378.477 68.0078 378.792 68.1983C379.144 68.3126 379.42 68.6173 379.506 69.1983C382.068 87.5124 384.734 107.846 376.773 126.998C369.03 145.626 353.163 157.331 337.935 166.912L330.497 163.502Z" fill="#BCDBFD"/>
<path d="M350.154 172.531L334.125 165.169C335.535 148.131 338.792 130.321 349.744 116.169C362.277 99.9789 380.62 93.2933 397.21 87.4076C397.744 87.2172 398.125 87.341 398.382 87.6267C398.687 87.8362 398.887 88.2171 398.839 88.8362C397.468 108.046 395.801 129.312 384.43 146.521C375.687 159.75 363.058 167.226 350.154 172.531Z" fill="#5D9DE1"/>
<path d="M364.859 141.598C357.049 153.436 350.459 162.445 344.63 169.988L342.668 169.083C350.468 155.807 359.04 141.598 368.221 127.902C379.259 111.446 387.744 100.76 395.335 91.2267C395.573 90.9219 395.639 90.9124 395.582 91.0552C395.582 91.1314 395.468 91.379 395.173 91.8743C386.106 107.427 376.011 124.683 364.859 141.598Z" fill="#BCDBFD"/>
<path d="M351.04 136.988C351.002 137.388 350.973 137.788 350.906 138.188C350.849 138.512 350.744 138.836 350.659 139.16C350.554 139.54 350.468 139.921 350.335 140.302C350.221 140.617 350.078 140.921 349.944 141.236C349.773 141.636 349.602 142.026 349.392 142.426C349.24 142.712 349.049 142.998 348.878 143.274C348.602 143.721 348.306 144.169 347.983 144.607C347.792 144.864 347.573 145.121 347.363 145.379C346.878 145.969 346.335 146.55 345.744 147.121C345.535 147.331 345.344 147.54 345.116 147.74C344.754 148.074 344.344 148.388 343.944 148.712C343.592 148.998 343.259 149.283 342.878 149.55C342.449 149.864 341.973 150.159 341.506 150.464C341.03 150.778 340.573 151.093 340.059 151.397C338.916 152.064 337.697 152.655 336.449 153.226C336.087 153.388 335.726 153.54 335.364 153.693C334.383 154.102 333.383 154.483 332.364 154.826C331.992 154.95 331.64 155.083 331.259 155.207C330.611 155.407 329.954 155.588 329.297 155.769C328.792 155.902 328.297 156.055 327.792 156.178C327.097 156.35 326.392 156.483 325.678 156.626C325.192 156.721 324.716 156.836 324.23 156.921C322.802 157.178 321.345 157.369 319.888 157.531C319.44 157.578 318.983 157.607 318.526 157.645C317.669 157.712 316.811 157.778 315.945 157.816C315.392 157.845 314.84 157.855 314.288 157.864C313.592 157.874 312.897 157.883 312.192 157.874C311.611 157.864 311.031 157.845 310.44 157.826C309.792 157.797 309.145 157.769 308.497 157.721C307.907 157.683 307.316 157.626 306.735 157.578C306.097 157.521 305.459 157.445 304.831 157.369C304.259 157.293 303.688 157.216 303.116 157.131C302.44 157.026 301.764 156.902 301.088 156.778C300.554 156.674 300.031 156.569 299.497 156.455C298.697 156.283 297.907 156.083 297.126 155.874C296.688 155.759 296.25 155.645 295.821 155.521C294.421 155.112 293.04 154.655 291.716 154.131C291.059 153.874 290.421 153.588 289.783 153.312C289.459 153.169 289.116 153.036 288.793 152.883C287.831 152.426 286.888 151.94 285.983 151.417C278.459 147.074 274.698 141.369 274.717 135.664L274.545 197.359C274.526 203.054 278.288 208.768 285.812 213.111C286.716 213.635 287.65 214.121 288.621 214.578C288.935 214.73 289.269 214.854 289.593 214.997C290.164 215.254 290.735 215.521 291.335 215.749C291.402 215.778 291.478 215.797 291.545 215.816C292.869 216.33 294.24 216.787 295.65 217.197C295.764 217.225 295.869 217.273 295.983 217.311C296.307 217.406 296.64 217.464 296.964 217.549C297.745 217.759 298.535 217.959 299.335 218.13C299.545 218.178 299.754 218.244 299.964 218.283C300.278 218.349 300.602 218.387 300.916 218.444C301.593 218.568 302.259 218.692 302.945 218.797C303.221 218.835 303.478 218.902 303.754 218.94C304.05 218.978 304.354 219.006 304.65 219.035C305.288 219.121 305.916 219.187 306.564 219.244C306.869 219.273 307.173 219.321 307.478 219.349C307.764 219.368 308.05 219.378 308.335 219.397C308.973 219.444 309.621 219.473 310.269 219.502C310.592 219.511 310.916 219.549 311.25 219.549C311.507 219.559 311.773 219.54 312.031 219.549C312.726 219.559 313.421 219.549 314.116 219.54C314.459 219.53 314.811 219.549 315.164 219.53C315.373 219.521 315.573 219.502 315.783 219.492C316.649 219.454 317.507 219.387 318.364 219.321C318.707 219.292 319.059 219.283 319.411 219.254C319.516 219.244 319.621 219.216 319.735 219.206C321.202 219.054 322.649 218.854 324.078 218.597C324.145 218.587 324.221 218.578 324.288 218.568C324.707 218.492 325.107 218.387 325.516 218.302C326.23 218.159 326.935 218.016 327.63 217.844C328.135 217.721 328.63 217.578 329.135 217.435C329.792 217.254 330.459 217.073 331.097 216.873C331.24 216.825 331.383 216.797 331.516 216.749C331.745 216.673 331.964 216.568 332.192 216.492C333.221 216.14 334.221 215.768 335.192 215.349C335.564 215.197 335.926 215.044 336.287 214.883C337.535 214.321 338.745 213.721 339.897 213.064C340.049 212.968 340.211 212.883 340.364 212.787C340.716 212.578 341.021 212.349 341.354 212.13C341.821 211.825 342.297 211.53 342.725 211.216C343.106 210.94 343.44 210.654 343.792 210.368C344.192 210.045 344.602 209.73 344.964 209.397C345.04 209.33 345.125 209.273 345.202 209.206C345.354 209.073 345.449 208.921 345.592 208.778C346.183 208.206 346.725 207.625 347.211 207.035C347.316 206.902 347.459 206.787 347.563 206.654C347.668 206.53 347.735 206.387 347.83 206.264C348.154 205.826 348.449 205.378 348.725 204.93C348.84 204.74 348.992 204.559 349.106 204.368C349.163 204.273 349.192 204.178 349.24 204.083C349.449 203.692 349.621 203.292 349.802 202.892C349.906 202.664 350.04 202.435 350.125 202.197C350.154 202.121 350.163 202.035 350.192 201.959C350.325 201.578 350.421 201.197 350.516 200.816C350.582 200.559 350.687 200.302 350.735 200.045C350.744 199.978 350.744 199.911 350.754 199.835C350.83 199.435 350.859 199.035 350.887 198.626C350.906 198.368 350.973 198.102 350.973 197.845C350.973 197.73 350.982 197.616 350.982 197.511L351.154 135.817C351.135 136.245 351.068 136.617 351.04 136.988Z" fill="#8DBFFE"/>
<path d="M339.84 120.103C354.82 128.75 354.897 142.769 340.04 151.407C325.154 160.055 300.964 160.055 285.983 151.407C271.021 142.769 270.945 128.75 285.831 120.103C300.688 111.465 324.887 111.465 339.84 120.103Z" fill="#BCD8FC"/>
<path d="M313.05 154.769C303.383 154.769 294.326 152.617 287.545 148.702C281.288 145.093 277.84 140.474 277.84 135.702C277.831 130.969 281.231 126.388 287.402 122.798C294.117 118.893 303.145 116.741 312.812 116.741C322.478 116.741 331.526 118.893 338.297 122.798C344.564 126.417 348.021 131.036 348.03 135.817C348.04 140.55 344.649 145.121 338.488 148.702C331.745 152.617 322.716 154.769 313.05 154.769Z" fill="#7AB5FF"/>
<path d="M287.536 148.702C294.317 152.617 303.374 154.769 313.04 154.769C322.707 154.769 331.735 152.617 338.468 148.702C342.078 146.607 344.735 144.159 346.316 141.54C344.706 138.874 341.992 136.379 338.287 134.236C331.516 130.331 322.469 128.179 312.802 128.179C303.135 128.179 294.116 130.331 287.393 134.236C283.774 136.341 281.117 138.788 279.526 141.407C281.136 144.074 283.84 146.559 287.536 148.702Z" fill="url(#paint7_linear)"/>
<path d="M287.536 148.702C294.317 152.617 303.374 154.769 313.04 154.769C322.707 154.769 331.735 152.617 338.468 148.702C341.602 146.883 344.002 144.807 345.621 142.579C343.973 140.302 341.507 138.179 338.287 136.312C331.516 132.407 322.469 130.255 312.802 130.255C303.135 130.255 294.116 132.407 287.393 136.312C284.25 138.14 281.84 140.217 280.221 142.445C281.869 144.721 284.326 146.845 287.536 148.702Z" fill="url(#paint8_linear)"/>
<path d="M349.411 199.521H347.516C344.173 199.521 344.487 196.807 344.487 193.464C344.487 190.121 344.173 187.407 347.516 187.407H349.411C356.439 187.407 362.154 181.692 362.154 174.664C362.154 167.635 356.439 161.921 349.411 161.921H349.03C345.687 161.921 345.563 159.207 345.563 155.864C345.563 152.521 345.687 149.807 349.03 149.807H349.411C363.116 149.807 374.258 160.959 374.258 174.654C374.258 188.378 363.116 199.521 349.411 199.521Z" fill="#BCD8FC"/>
<path d="M346.316 141.55C344.706 138.883 341.992 136.388 338.287 134.245C331.516 130.341 322.468 128.188 312.802 128.188C303.135 128.188 294.116 130.341 287.393 134.245C283.774 136.35 281.116 138.798 279.526 141.417C279.735 141.769 279.974 142.112 280.221 142.455C281.84 140.226 284.25 138.14 287.393 136.321C294.107 132.417 303.316 129.226 312.983 129.226C320.249 129.226 326.983 131.483 332.849 133.75C332.849 134.598 330.783 137.921 330.725 138.721C330.611 140.15 331.221 141.369 332.63 141.788C334.459 142.331 336.468 141.226 338.183 140.731C338.411 140.664 338.63 140.617 338.849 140.588C338.897 140.636 338.944 140.683 339.011 140.712C339.087 141.055 338.992 141.521 339.23 141.874C339.64 142.455 340.363 142.75 341.021 142.959C341.763 143.198 342.344 143.121 343.078 142.921C343.868 142.702 344.659 142.826 345.411 142.483C345.44 142.464 345.459 142.445 345.487 142.426C345.525 142.483 345.573 142.54 345.621 142.598C345.868 142.245 346.106 141.893 346.316 141.55ZM339.04 139.426C338.125 139.588 337.249 139.931 336.373 140.217C335.097 140.636 331.278 142.121 331.868 138.188C332.011 137.274 333.23 136.245 333.868 135.207C334.154 134.741 334.735 134.55 335.23 134.769C336.287 135.245 337.316 135.76 338.278 136.312C338.887 136.664 339.459 137.026 340.011 137.388C340.906 137.988 340.487 139.331 339.411 139.379C339.287 139.388 339.163 139.407 339.04 139.426ZM342.802 141.902C342.059 142.102 340.735 142.102 340.173 141.379C339.963 141.112 339.963 140.788 339.944 140.493C340.802 140.502 341.63 140.636 342.544 140.664C342.64 140.664 342.735 140.664 342.811 140.664C343.573 140.636 344.316 140.979 344.811 141.559L344.821 141.569C344.268 141.817 343.411 141.74 342.802 141.902Z" fill="white"/>
<path d="M39.8041 218.197C39.8233 218.235 39.8329 218.283 39.8521 218.322C39.8329 218.283 39.8233 218.235 39.8041 218.197Z" fill="#453A3C"/>
<path d="M37.0521 134.645C39.6806 130.56 43.0806 127.045 46.8043 124.893L195.698 38.9034L46.8139 124.893C43.0901 127.036 39.6901 130.56 37.0521 134.645Z" fill="#F9FAFB"/>
<path d="M32.3664 291.272C32.3474 291.148 32.3283 291.025 32.3093 290.901C32.3378 291.034 32.3474 291.158 32.3664 291.272Z" fill="#F9FAFB"/>
<path d="M32.1568 289.291C32.1663 289.568 32.1758 289.853 32.1949 290.12C32.1758 289.853 32.1758 289.558 32.1568 289.291Z" fill="#F9FAFB"/>
<path d="M252.479 23.5511C252.469 18.7607 250.764 15.3988 248.031 13.8274C247.86 13.7322 247.669 13.656 247.488 13.5703C247.307 13.4845 247.136 13.3893 246.945 13.3226C246.755 13.256 246.555 13.2084 246.355 13.1512C246.164 13.0941 245.974 13.0274 245.774 12.9893C245.574 12.9512 245.355 12.9322 245.145 12.9131C244.936 12.8845 244.736 12.8464 244.526 12.8369C244.307 12.8274 244.069 12.8465 243.841 12.8465C243.622 12.856 243.412 12.8464 243.193 12.8655C242.955 12.8845 242.698 12.9417 242.46 12.9798C242.241 13.0179 242.022 13.0369 241.802 13.0845C241.536 13.1417 241.269 13.2369 240.993 13.3131C240.774 13.3798 240.564 13.4179 240.345 13.4941C240.031 13.5988 239.707 13.7417 239.393 13.875C239.212 13.9512 239.031 14.0083 238.841 14.0941C238.326 14.3321 237.812 14.5988 237.288 14.9036L195.727 38.9033L46.8139 124.893C43.0901 127.045 39.6902 130.56 37.0616 134.645C33.7855 139.74 31.6998 145.712 31.7188 151.045L32.1283 288.387C32.1283 288.701 32.1569 288.987 32.1664 289.282C32.176 289.558 32.1855 289.844 32.2045 290.11C32.2331 290.387 32.2807 290.644 32.3188 290.901C32.3379 291.025 32.3569 291.148 32.376 291.272C32.4045 291.415 32.414 291.568 32.4426 291.701C32.4902 291.958 32.5664 292.196 32.6331 292.444C32.6902 292.682 32.7474 292.929 32.814 293.158C32.8902 293.396 32.9855 293.606 33.0807 293.825C33.1664 294.034 33.2331 294.263 33.3283 294.453C33.4236 294.663 33.5474 294.844 33.6521 295.044C33.7569 295.234 33.8521 295.434 33.9664 295.606C34.0807 295.786 34.2236 295.939 34.3474 296.11C34.4712 296.272 34.5855 296.453 34.7283 296.606C34.8616 296.758 35.014 296.891 35.1664 297.025C35.3093 297.167 35.4521 297.31 35.6045 297.444C35.7569 297.577 35.9283 297.672 36.0902 297.786C38.8711 299.71 42.8806 299.625 47.3377 297.053L237.803 187.064C246.164 182.235 252.926 170.521 252.898 160.902L252.479 23.5511Z" fill="url(#paint9_linear)"/>
<path d="M237.879 8.06556C235.126 6.46558 231.307 6.69415 227.098 9.12269L36.6235 119.112C28.2617 123.941 21.4998 135.655 21.5284 145.264L21.9284 282.606C21.9379 287.387 23.6332 290.749 26.3474 292.32L36.5283 298.091C36.3664 297.996 36.2235 297.872 36.0616 297.767C35.8997 297.653 35.7283 297.558 35.5759 297.425C35.4235 297.291 35.2807 297.148 35.1378 297.006C34.9949 296.863 34.8426 296.739 34.6997 296.587C34.5664 296.434 34.4521 296.263 34.3188 296.091C34.195 295.92 34.0521 295.767 33.9378 295.587C33.8235 295.415 33.7283 295.215 33.6235 295.025C33.5188 294.825 33.395 294.644 33.2997 294.434C33.2045 294.234 33.1378 294.015 33.0521 293.806C32.9664 293.587 32.8616 293.367 32.7854 293.139C32.7093 292.91 32.6616 292.663 32.6045 292.425C32.5378 292.177 32.4616 291.948 32.414 291.682C32.3854 291.548 32.3759 291.396 32.3474 291.253C32.3283 291.129 32.3093 291.006 32.2902 290.882C32.2521 290.615 32.2045 290.368 32.1759 290.091C32.1474 289.825 32.1474 289.539 32.1378 289.263C32.1188 288.968 32.0997 288.672 32.0997 288.368L31.6902 151.026C31.6712 145.693 33.7569 139.721 37.033 134.626C39.6616 130.541 43.0615 127.026 46.7853 124.874L195.679 38.8843L237.241 14.8845C237.764 14.5798 238.288 14.3131 238.793 14.075C238.983 13.9893 239.164 13.9322 239.345 13.856C239.669 13.7226 239.983 13.5798 240.298 13.475C240.517 13.3988 240.726 13.3512 240.945 13.2941C241.212 13.2179 241.488 13.1227 241.755 13.0655C241.983 13.0179 242.193 12.9988 242.412 12.9608C242.66 12.9227 242.907 12.8655 243.145 12.8465C243.364 12.8274 243.574 12.8369 243.793 12.8274C244.021 12.8179 244.26 12.7988 244.479 12.8179C244.688 12.8274 244.888 12.8655 245.098 12.8941C245.307 12.9227 245.526 12.9322 245.726 12.9703C245.926 13.0084 246.117 13.075 246.307 13.1322C246.507 13.1893 246.707 13.2274 246.898 13.3036C247.088 13.3703 247.26 13.4655 247.44 13.5512C247.621 13.6369 247.812 13.7131 247.983 13.8084C247.993 13.8179 248.002 13.8179 248.012 13.8274L237.879 8.06556Z" fill="#A0C5EF"/>
<path d="M41.347 290.482C41.3089 290.472 41.166 290.434 41.166 290.434C41.147 290.425 41.0327 290.368 41.0327 290.368L40.9184 290.291L40.7946 290.168L40.6232 289.939L40.4517 289.625L40.366 289.396L40.2613 289.139L40.1851 288.825C40.1565 288.71 40.1279 288.606 40.0993 288.501C40.0803 288.406 40.0422 288.053 40.0422 288.053C40.0232 287.939 40.0136 287.825 39.9946 287.71C39.9755 287.444 39.9565 287.149 39.9565 286.853L39.547 149.512C39.5374 145.626 41.4327 140.798 44.4898 136.902C44.7945 136.521 45.1088 136.14 45.4326 135.779L45.7469 135.417C46.9279 134.16 48.1659 133.15 49.404 132.426L239.888 22.4273C240.155 22.2749 240.412 22.1416 240.669 22.0178C240.812 21.9607 241.345 21.7416 241.431 21.7035C241.564 21.6654 241.659 21.6464 241.755 21.6178L242.097 21.5131L242.612 21.4369L242.993 21.4273L243.259 21.4559L243.44 21.5035L243.65 21.5988C244.154 21.9702 244.64 23.1607 244.64 25.0844L245.04 162.426C245.05 166.626 242.84 171.902 239.412 175.864L239.316 175.969C239.174 176.131 239.031 176.292 238.888 176.454L238.65 176.702C238.45 176.912 238.25 177.112 238.05 177.302L237.745 177.578C237.555 177.75 237.364 177.921 237.174 178.073L236.859 178.331C236.669 178.483 236.469 178.626 236.278 178.769L235.983 178.978C235.726 179.15 235.45 179.331 235.164 179.492L44.6898 289.491C44.4326 289.634 44.185 289.768 43.9374 289.891C43.8231 289.929 43.7184 289.977 43.6231 290.025C43.4898 290.082 43.3279 290.158 43.1755 290.215C43.0612 290.244 42.6898 290.358 42.6041 290.377C42.5374 290.396 42.4803 290.406 42.4231 290.415L41.9946 290.482C41.9184 290.482 41.5946 290.491 41.5946 290.491L41.347 290.482Z" fill="white"/>
<path d="M244.774 45.0842L244.631 25.094C244.621 23.1702 244.135 21.9797 243.64 21.6083L243.431 21.5131L243.25 21.4654L242.983 21.4369L242.602 21.4464L242.088 21.5226L241.745 21.6273C241.65 21.6559 241.555 21.6845 241.421 21.713C241.335 21.7511 240.793 21.9702 240.659 22.0273C240.402 22.1511 240.135 22.2845 239.878 22.4369L49.4231 132.426C48.1755 133.141 46.9469 134.15 45.766 135.417L45.4517 135.779C45.1279 136.14 44.8136 136.521 44.5088 136.902C41.4517 140.788 39.5565 145.626 39.566 149.512L39.6137 163.559L244.774 45.0842Z" fill="url(#paint10_linear)"/>
<path d="M222.098 87.9219L131.508 141.169L131.518 144.626L131.527 149.045L222.108 95.798L222.098 87.9219Z" fill="url(#paint11_linear)"/>
<path d="M216.774 107.522L216.793 111.941L131.527 161.969L131.508 157.559L216.774 107.522Z" fill="url(#paint12_linear)"/>
<path d="M220.622 105.303C221.669 104.693 222.546 105.169 222.546 106.398C222.546 107.598 221.679 109.112 220.631 109.712C219.565 110.331 218.707 109.817 218.707 108.617C218.698 107.388 219.546 105.922 220.622 105.303Z" fill="url(#paint13_linear)"/>
<path d="M216.774 120.445L216.793 124.864L131.527 174.893L131.508 170.483L216.774 120.445Z" fill="url(#paint14_linear)"/>
<path d="M220.622 118.226C221.669 117.617 222.546 118.093 222.546 119.322C222.546 120.522 221.679 122.036 220.631 122.636C219.565 123.255 218.707 122.741 218.707 121.541C218.698 120.312 219.546 118.845 220.622 118.226Z" fill="url(#paint15_linear)"/>
<path d="M216.783 133.369L216.793 137.788L131.527 187.826L131.517 183.407L216.783 133.369Z" fill="url(#paint16_linear)"/>
<path d="M220.622 131.15C221.669 130.541 222.546 131.017 222.546 132.245C222.546 133.445 221.679 134.96 220.631 135.56C219.565 136.179 218.707 135.664 218.707 134.464C218.698 133.236 219.555 131.769 220.622 131.15Z" fill="url(#paint17_linear)"/>
<path d="M216.783 146.293L216.793 150.712L131.527 200.749L131.517 196.33L216.783 146.293Z" fill="url(#paint18_linear)"/>
<path d="M220.622 144.074C221.669 143.464 222.545 143.94 222.545 145.169C222.545 146.369 221.679 147.883 220.631 148.483C219.565 149.102 218.707 148.588 218.707 147.388C218.707 146.159 219.555 144.693 220.622 144.074Z" fill="url(#paint19_linear)"/>
<path d="M74.2995 225.311C84.1089 229.892 105.013 211.749 111.461 203.045C117.804 194.464 120.728 165.654 111.461 160.359C102.09 155.007 79.6518 172.921 74.2995 182.292C68.9662 191.635 64.5567 220.759 74.2995 225.311Z" fill="url(#paint20_linear)"/>
<path d="M89.3944 187.035L89.442 203.206L103.366 190.397L89.3944 187.035Z" fill="white"/>
<path d="M65.3186 277.663C67.7662 262.292 69.0709 245.539 60.3567 231.873C51.3949 217.816 35.0141 211.159 20.1761 205.264C19.7 205.073 19.3095 205.149 19.0047 205.368C18.6714 205.521 18.4047 205.826 18.3285 206.33C15.9667 222.13 13.5095 239.635 21.1571 254.444C28.5951 268.844 43.7378 276.13 58.2615 281.73L65.3186 277.663Z" fill="#5D9DE1"/>
<path d="M46.6615 288.406L61.8804 279.644C60.4709 265.558 57.2995 251.12 46.8234 240.997C34.833 229.416 17.3665 226.74 1.55715 224.463C1.05239 224.387 0.690488 224.559 0.442871 224.835C0.15716 225.063 -0.0333139 225.416 0.00478096 225.921C1.38572 241.835 3.06189 259.435 13.9475 272.053C22.3188 281.777 34.3568 286.025 46.6615 288.406Z" fill="#BCDBFD"/>
<path d="M32.5475 264.787C40.0236 273.482 46.3283 279.987 51.8997 285.387L53.7663 284.31C46.2997 274.415 38.0808 263.854 29.2904 253.835C18.7286 241.787 10.6144 234.178 3.3478 227.387C3.11923 227.168 3.06208 227.168 3.1097 227.282C3.1097 227.349 3.22399 227.53 3.50017 227.901C12.1953 239.492 21.8714 252.368 32.5475 264.787Z" fill="#91C1F3"/>
<path d="M89.1181 40.7985C89.1562 38.8271 85.9086 36.5986 84.661 37.3224L57.9661 52.7318C57.8327 51.4175 54.4708 48.2556 52.8328 49.1985L44.5662 53.9698L36.3282 58.7222C34.6806 59.6746 33.3472 61.9793 33.3568 63.8555L33.3853 73.0839L33.4711 103.35C33.4425 105.855 35.0996 108.122 37.9282 106.807L53.4994 97.817L86.9562 78.5029C88.2038 77.7791 89.2229 76.0268 89.2134 74.6077L89.1181 40.7985Z" fill="#A0C5EF"/>
<path d="M89.2134 74.6268L89.1182 40.7985C89.1182 39.3605 88.0896 38.7795 86.842 39.5033L58.0042 56.1508L57.9947 53.0841C57.9852 51.208 56.6519 50.4365 55.0138 51.3889L46.7472 56.1603L38.5092 60.9126C36.8616 61.865 35.5282 64.1697 35.5378 66.0459L35.5473 68.6078V69.1126L35.5663 75.2744L35.6521 105.541C35.6521 106.96 36.6806 107.541 37.9282 106.817L53.4995 97.8266L86.9563 78.5125C88.2039 77.8077 89.2134 76.0458 89.2134 74.6268Z" fill="url(#paint21_linear)"/>
<path d="M71.4805 66.7602L73.7376 65.4554C73.7947 65.4268 73.8233 65.3697 73.8519 65.3221V65.084L68.871 61.9697L63.7663 58.7698C63.7282 58.7507 63.6805 58.7602 63.6329 58.7888C63.5853 58.8174 63.5377 58.865 63.4996 58.9317L58.4234 68.0078L53.4044 76.9791V77.1601C53.4235 77.1696 53.4521 77.1791 53.4806 77.1601L55.833 75.7982L55.8711 90.1695L60.5472 87.4742L60.7853 87.3314L60.7568 78.341L66.5758 74.9791L66.6043 83.9695L71.509 81.1314L71.4805 66.7602Z" fill="white"/>
<defs>
<linearGradient id="paint0_linear" x1="251.564" y1="309.362" x2="251.564" y2="364.579" gradientUnits="userSpaceOnUse">
<stop stop-color="#FA6153"/>
<stop offset="1" stop-color="#FA7853"/>
</linearGradient>
<linearGradient id="paint1_linear" x1="251.564" y1="305.985" x2="251.564" y2="361.198" gradientUnits="userSpaceOnUse">
<stop stop-color="#FA6153"/>
<stop offset="1" stop-color="#FA7853"/>
</linearGradient>
<linearGradient id="paint2_linear" x1="175.737" y1="327.743" x2="329.075" y2="327.743" gradientUnits="userSpaceOnUse">
<stop stop-color="#E6EBF0"/>
<stop offset="1" stop-color="#EDF7FF"/>
</linearGradient>
<linearGradient id="paint3_linear" x1="55.243" y1="290.687" x2="142.72" y2="290.687" gradientUnits="userSpaceOnUse">
<stop stop-color="#95BEE8"/>
<stop offset="1" stop-color="#C7E7FF"/>
</linearGradient>
<linearGradient id="paint4_linear" x1="52.344" y1="318.101" x2="62.4918" y2="318.101" gradientUnits="userSpaceOnUse">
<stop stop-color="#95BEE8"/>
<stop offset="1" stop-color="#C7E7FF"/>
</linearGradient>
<linearGradient id="paint5_linear" x1="134.337" y1="261.13" x2="134.337" y2="337.415" gradientUnits="userSpaceOnUse">
<stop stop-color="#FA6153"/>
<stop offset="1" stop-color="#FA7853"/>
</linearGradient>
<linearGradient id="paint6_linear" x1="98.3554" y1="327.748" x2="98.3554" y2="339.147" gradientUnits="userSpaceOnUse">
<stop stop-color="#FA6153"/>
<stop offset="1" stop-color="#FA7853"/>
</linearGradient>
<linearGradient id="paint7_linear" x1="279.529" y1="141.475" x2="346.314" y2="141.475" gradientUnits="userSpaceOnUse">
<stop stop-color="#95BEE8"/>
<stop offset="1" stop-color="#C7E7FF"/>
</linearGradient>
<linearGradient id="paint8_linear" x1="279.529" y1="142.514" x2="346.314" y2="142.514" gradientUnits="userSpaceOnUse">
<stop stop-color="#95BEE8"/>
<stop offset="1" stop-color="#C7E7FF"/>
</linearGradient>
<linearGradient id="paint9_linear" x1="31.7121" y1="155.983" x2="252.881" y2="155.96" gradientUnits="userSpaceOnUse">
<stop stop-color="#95BEE8"/>
<stop offset="1" stop-color="#C7E7FF"/>
</linearGradient>
<linearGradient id="paint10_linear" x1="142.17" y1="21.4369" x2="142.17" y2="163.559" gradientUnits="userSpaceOnUse">
<stop stop-color="#FA6153"/>
<stop offset="1" stop-color="#FA7853"/>
</linearGradient>
<linearGradient id="paint11_linear" x1="249.035" y1="101.465" x2="98.5152" y2="136.936" gradientUnits="userSpaceOnUse">
<stop stop-color="#95BEE8"/>
<stop offset="0.1842" stop-color="#C7E7FF"/>
<stop offset="1" stop-color="#C7E7FF"/>
</linearGradient>
<linearGradient id="paint12_linear" x1="246.57" y1="117.682" x2="105.936" y2="150.824" gradientUnits="userSpaceOnUse">
<stop stop-color="#95BEE8"/>
<stop offset="0.1842" stop-color="#C7E7FF"/>
<stop offset="1" stop-color="#C7E7FF"/>
</linearGradient>
<linearGradient id="paint13_linear" x1="220.626" y1="105.038" x2="220.626" y2="109.976" gradientUnits="userSpaceOnUse">
<stop stop-color="#FA6153"/>
<stop offset="1" stop-color="#FA7853"/>
</linearGradient>
<linearGradient id="paint14_linear" x1="251.509" y1="129.442" x2="110.875" y2="162.584" gradientUnits="userSpaceOnUse">
<stop stop-color="#95BEE8"/>
<stop offset="0.1842" stop-color="#C7E7FF"/>
<stop offset="1" stop-color="#C7E7FF"/>
</linearGradient>
<linearGradient id="paint15_linear" x1="220.626" y1="117.962" x2="220.626" y2="122.899" gradientUnits="userSpaceOnUse">
<stop stop-color="#FA6153"/>
<stop offset="1" stop-color="#FA7853"/>
</linearGradient>
<linearGradient id="paint16_linear" x1="256.448" y1="141.202" x2="115.814" y2="174.344" gradientUnits="userSpaceOnUse">
<stop stop-color="#95BEE8"/>
<stop offset="0.1842" stop-color="#C7E7FF"/>
<stop offset="1" stop-color="#C7E7FF"/>
</linearGradient>
<linearGradient id="paint17_linear" x1="220.626" y1="130.886" x2="220.626" y2="135.823" gradientUnits="userSpaceOnUse">
<stop stop-color="#FA6153"/>
<stop offset="1" stop-color="#FA7853"/>
</linearGradient>
<linearGradient id="paint18_linear" x1="261.387" y1="152.962" x2="120.753" y2="186.104" gradientUnits="userSpaceOnUse">
<stop stop-color="#95BEE8"/>
<stop offset="0.1842" stop-color="#C7E7FF"/>
<stop offset="1" stop-color="#C7E7FF"/>
</linearGradient>
<linearGradient id="paint19_linear" x1="220.626" y1="143.809" x2="220.626" y2="148.747" gradientUnits="userSpaceOnUse">
<stop stop-color="#FA6153"/>
<stop offset="1" stop-color="#FA7853"/>
</linearGradient>
<linearGradient id="paint20_linear" x1="117.363" y1="192.708" x2="68.5276" y2="192.713" gradientUnits="userSpaceOnUse">
<stop offset="0.1842" stop-color="#C7E7FF"/>
<stop offset="1" stop-color="#95BEE8"/>
</linearGradient>
<linearGradient id="paint21_linear" x1="35.539" y1="73.1687" x2="89.2119" y2="73.1687" gradientUnits="userSpaceOnUse">
<stop stop-color="#95BEE8"/>
<stop offset="1" stop-color="#C7E7FF"/>
</linearGradient>
</defs>
</svg>
