<svg width="48" height="48" viewBox="0 0 48 48" fill="none" xmlns="http://www.w3.org/2000/svg">
<path d="M24 48C37.2548 48 48 37.2548 48 24C48 10.7452 37.2548 0 24 0C10.7452 0 0 10.7452 0 24C0 37.2548 10.7452 48 24 48Z" fill="#7D3DAF"/>
<path d="M37.4837 16.7316L37.4757 16.6993C36.8221 14.0573 33.8758 11.2223 31.1701 10.6324L31.1395 10.6262C26.7631 9.79128 22.3257 9.79128 17.9502 10.6262L17.9188 10.6324C15.2139 11.2223 12.2676 14.0573 11.6131 16.6993L11.606 16.7316C10.798 20.4212 10.798 24.1629 11.606 27.8526L11.6131 27.8849C12.2397 30.4141 14.9666 33.1189 17.5713 33.8628V36.812C17.5713 37.8793 18.8721 38.4036 19.6119 37.6334L22.5999 34.5273C23.248 34.5636 23.8964 34.5838 24.5449 34.5838C26.7479 34.5838 28.9518 34.3755 31.1395 33.9581L31.1701 33.9518C33.8758 33.362 36.8221 30.527 37.4757 27.885L37.4837 27.8527C38.2917 24.1629 38.2917 20.4212 37.4837 16.7316ZM35.1191 27.3175C34.6828 29.0412 32.4457 31.184 30.6682 31.5799C28.3412 32.0224 25.9958 32.2116 23.6528 32.1467C23.6062 32.1454 23.5614 32.1634 23.5289 32.1968C23.1964 32.5382 21.3472 34.4365 21.3472 34.4365L19.0265 36.8181C18.8569 36.995 18.5588 36.8747 18.5588 36.6305V31.7449C18.5588 31.6642 18.5012 31.5956 18.4219 31.5801C18.4215 31.58 18.421 31.5799 18.4206 31.5798C16.6431 31.1839 14.4069 29.0411 13.9697 27.3174C13.2425 23.9824 13.2425 20.6016 13.9697 17.2665C14.4069 15.5429 16.6431 13.4 18.4206 13.0041C22.4846 12.2312 26.6051 12.2312 30.6682 13.0041C32.4466 13.4 34.6828 15.5429 35.1191 17.2665C35.8471 20.6017 35.8471 23.9825 35.1191 27.3175Z" fill="white"/>
<path d="M28.4117 29.5724C28.1385 29.4895 27.8781 29.4337 27.6362 29.3334C25.1301 28.2936 22.8237 26.9523 20.9967 24.896C19.9578 23.7267 19.1446 22.4066 18.4572 21.0096C18.1313 20.3471 17.8566 19.6586 17.5766 18.9746C17.3213 18.3509 17.6973 17.7065 18.0933 17.2366C18.4649 16.7955 18.943 16.458 19.4608 16.2092C19.865 16.015 20.2636 16.127 20.5588 16.4695C21.1969 17.2102 21.783 17.9887 22.2577 18.8472C22.5495 19.3752 22.4694 20.0207 21.9405 20.38C21.812 20.4674 21.6948 20.5699 21.575 20.6685C21.47 20.755 21.3712 20.8423 21.2992 20.9594C21.1676 21.1736 21.1613 21.4262 21.246 21.6591C21.8983 23.4517 22.9978 24.8456 24.802 25.5963C25.0907 25.7164 25.3807 25.8563 25.7133 25.8175C26.2703 25.7524 26.4507 25.1415 26.841 24.8222C27.2225 24.5103 27.7101 24.5061 28.1211 24.7662C28.5321 25.0264 28.9306 25.3056 29.3267 25.5879C29.7155 25.8649 30.1026 26.136 30.4613 26.4518C30.8061 26.7555 30.9248 27.1539 30.7307 27.566C30.3752 28.3208 29.8579 28.9488 29.1117 29.3496C28.901 29.4626 28.6494 29.4993 28.4117 29.5724C28.1385 29.4894 28.6494 29.4993 28.4117 29.5724Z" fill="white"/>
<path d="M24.5519 15.3466C27.83 15.4384 30.5223 17.6139 31.0993 20.8547C31.1976 21.4068 31.2326 21.9714 31.2763 22.5319C31.2947 22.7676 31.1612 22.9916 30.9068 22.9946C30.6441 22.9978 30.5258 22.7779 30.5088 22.5423C30.475 22.0758 30.4516 21.6073 30.3873 21.1447C30.048 18.7028 28.1008 16.6826 25.6702 16.2491C25.3045 16.1838 24.9301 16.1666 24.5596 16.1278C24.3254 16.1032 24.0187 16.089 23.9668 15.7979C23.9233 15.5538 24.1293 15.3594 24.3617 15.3469C24.4249 15.3434 24.4885 15.3463 24.5519 15.3466C27.83 15.4384 24.4885 15.3463 24.5519 15.3466Z" fill="white"/>
<path d="M29.533 21.8044C29.5277 21.8454 29.5248 21.9416 29.5008 22.0323C29.4138 22.3614 28.9149 22.4026 28.8 22.0704C28.7659 21.9719 28.7608 21.8597 28.7606 21.7536C28.7595 21.0593 28.6086 20.3657 28.2585 19.7617C27.8986 19.1408 27.3487 18.6189 26.7038 18.303C26.3138 18.1121 25.8921 17.9934 25.4647 17.9227C25.2778 17.8918 25.089 17.873 24.9013 17.8469C24.6738 17.8153 24.5524 17.6703 24.5632 17.4462C24.5732 17.2361 24.7267 17.085 24.9556 17.0979C25.7079 17.1407 26.4346 17.3032 27.1034 17.6574C28.4634 18.3776 29.2403 19.5145 29.4671 21.0326C29.4773 21.1013 29.4938 21.1695 29.499 21.2385C29.5119 21.409 29.5199 21.5796 29.533 21.8044C29.5277 21.8454 29.5199 21.5796 29.533 21.8044Z" fill="white"/>
<path d="M27.4942 21.7252C27.22 21.7301 27.0732 21.5783 27.0449 21.3268C27.0252 21.1515 27.0097 20.9739 26.9679 20.8033C26.8855 20.4674 26.7069 20.156 26.4243 19.9502C26.2909 19.853 26.1397 19.7821 25.9814 19.7364C25.7802 19.6783 25.5713 19.6943 25.3706 19.6451C25.1526 19.5917 25.032 19.4152 25.0663 19.2107C25.0975 19.0246 25.2785 18.8794 25.4819 18.8941C26.7528 18.9858 27.6611 19.6429 27.7907 21.139C27.7999 21.2446 27.8107 21.3562 27.7872 21.4572C27.7471 21.6301 27.6191 21.7167 27.4942 21.7252C27.22 21.7301 27.6191 21.7167 27.4942 21.7252Z" fill="white"/>
</svg>
