<svg width="433" height="386" viewBox="0 0 433 386" fill="none" xmlns="http://www.w3.org/2000/svg">
<mask id="mask0" mask-type="alpha" maskUnits="userSpaceOnUse" x="0" y="0" width="433" height="386">
<rect width="433" height="386" fill="#C4C4C4"/>
</mask>
<g mask="url(#mask0)">
<path d="M315.93 324.526C310.75 267.606 333.37 143.096 302.94 135.596C283.21 130.726 267.1 129.506 253.1 129.506C239.1 129.506 222.99 130.736 203.26 135.596C172.83 143.096 195.45 267.606 190.27 324.526C185.69 374.826 201.19 369.376 253.11 369.376C305.01 369.376 320.51 374.826 315.93 324.526Z" fill="#F4B298"/>
<path d="M271.52 109.296L253.1 111.786L234.67 109.296V130.806C247.09 135.046 253.04 135.476 253.09 135.486C253.14 135.486 259.09 135.046 271.51 130.806V109.296H271.52Z" fill="#F4B298"/>
<path d="M217.4 139.526C190.01 104.446 115.91 210.286 105.82 242.116C95.73 273.946 125.31 251.196 165.24 213.506C205.16 175.816 228.17 153.326 217.4 139.526Z" fill="#FFC8AF"/>
<path d="M281.6 140.946C309.74 106.476 381.53 213.886 390.93 245.936C400.33 277.976 371.25 254.596 332.15 216.046C293.04 177.486 270.53 154.506 281.6 140.946Z" fill="#FFC8AF"/>
<path d="M378.92 236.386C415.61 237.446 369.54 345.586 350.66 369.446C331.78 393.306 336.05 360.366 346.87 312.236C357.7 264.116 364.49 235.976 378.92 236.386Z" fill="#FFC8AF"/>
<path d="M116.48 253.536C90.03 278.986 45.08 170.376 41.27 140.186C37.46 109.996 57.98 136.116 84.77 177.546C111.55 218.966 126.89 243.516 116.48 253.536Z" fill="#FFC8AF"/>
<path d="M55.81 133.336L55.7 132.276L55.22 116.086C55.16 113.976 54.57 111.906 53.52 110.076L47.21 99.0661C47.21 99.0661 42.86 102.596 44.21 106.396C45.14 109.006 44.52 113.756 44.03 116.526L40.42 111.926L28.23 97.9861C25.77 95.1661 21.33 95.3561 19.11 98.3561L16.19 102.306C13.68 105.706 13.16 110.176 14.82 114.056L21.32 129.236L45.3 153.356L59.32 141.156L55.81 133.336Z" fill="#FFC8AF"/>
<path d="M234.67 129.156C238.46 134.836 244.14 137.996 253.96 137.996C263.78 137.996 270.26 132.176 271.52 129.486C271.52 129.486 302.7 131.636 313.52 135.476C324.34 139.316 376.57 209.646 376.57 209.646C376.57 209.646 367.27 227.826 344.11 236.696L320.87 214.626V360.106C320.87 360.106 294.22 367.746 252.37 367.746C210.52 367.746 180.22 361.406 180.22 361.406L184.11 209.306L153.82 234.966C153.82 234.966 136.89 226.136 123.06 205.026C123.06 205.026 156.76 161.456 174.27 143.226C190.01 126.836 234.67 129.156 234.67 129.156Z" fill="url(#paint0_linear)"/>
<path d="M314.45 361.666C318.63 360.756 320.87 360.116 320.87 360.116V214.626L344.11 236.696C345.59 236.126 347.01 235.526 348.38 234.886L316.52 198.486L314.45 361.666Z" fill="#3D5FA8"/>
<path d="M185.82 198.366L148.69 231.746C151.84 233.946 153.82 234.976 153.82 234.976L184.11 209.316L185.82 198.366Z" fill="#3D5FA8"/>
<path d="M185.82 198.366L148.69 231.746C151.84 233.946 153.82 234.976 153.82 234.976L184.11 209.316L185.82 198.366Z" fill="#3D5FA8"/>
<path d="M267.79 25.4661C237.16 20.7461 227.12 48.6761 223.92 70.7861C223.61 72.8261 223.43 74.6661 223.24 76.5161C223.24 76.5161 223.22 76.7561 223.2 77.1061C220.23 99.0361 230.31 123.606 252.16 126.976C274.51 130.426 293.5 109.016 295.99 86.7961C296.04 86.3561 296.07 85.9561 296.11 85.5361C296.37 84.4161 296.62 83.2661 296.87 82.0361C301.21 60.0961 300.66 30.5361 267.79 25.4661Z" fill="#FFC8AF"/>
<path d="M297.16 82.0861C299.19 81.7761 304.07 80.3361 301.83 89.3361C297.95 104.886 291.25 102.846 291.25 102.846C292 100.666 293.1 97.6061 294.17 94.0261C292.54 92.2361 295.22 90.6561 295.6 88.8261C295.75 88.5361 295.81 88.1261 295.87 87.7261C296.36 85.9161 296.74 84.0961 297.16 82.0861Z" fill="#FFC8AF"/>
<path d="M295.87 87.7161C295.87 87.7161 298.44 85.2461 299.89 86.6161C301.34 87.9861 299.41 92.8561 297.66 95.6661C295.92 98.4761 294.46 98.5161 294.34 97.6461C294.22 96.7761 297.34 95.4461 296.55 93.8761C295.76 92.3061 294.76 91.8961 294.99 91.0761C295.21 90.2561 295.87 87.7161 295.87 87.7161Z" fill="#F4B298"/>
<path d="M223.95 70.7961C222.11 69.8861 217.88 67.0461 217.31 76.3061C216.32 92.3061 223.33 92.3761 223.33 92.3761C223.27 90.0761 223.14 86.8261 223.2 83.0861C225.29 81.8661 223.21 79.5561 223.41 77.6961C223.36 77.3761 223.42 76.9661 223.48 76.5561C223.55 74.6861 223.73 72.8461 223.95 70.7961Z" fill="#FFC8AF"/>
<path d="M223.48 76.5561C223.48 76.5561 221.77 73.4261 219.98 74.2961C218.19 75.1661 218.56 80.3961 219.38 83.5961C220.2 86.7961 221.58 87.2761 221.95 86.4861C222.33 85.6961 219.75 83.4861 220.98 82.2161C222.21 80.9561 223.28 80.8661 223.31 80.0161C223.34 79.1761 223.48 76.5561 223.48 76.5561Z" fill="#F4B298"/>
<path d="M280.97 81.0761C280.63 83.2661 278.59 84.7661 276.4 84.4261C274.21 84.0861 272.71 82.0461 273.05 79.8561C273.39 77.6661 275.43 76.1761 277.62 76.5061C279.8 76.8461 281.3 78.8861 280.97 81.0761Z" fill="#18205B"/>
<path d="M247.41 75.9061C247.07 78.0961 245.03 79.5961 242.84 79.2561C240.65 78.9161 239.15 76.8761 239.49 74.6861C239.83 72.4961 241.87 70.9961 244.06 71.3361C246.24 71.6661 247.74 73.7161 247.41 75.9061Z" fill="#18205B"/>
<path d="M271.15 70.7261C271.15 70.7261 281.28 72.1661 286.55 74.1961C286.55 74.1961 286.37 72.1661 284.22 71.1661C282.07 70.1661 272.58 67.2461 271.66 67.3461C270.75 67.4361 271.15 70.7261 271.15 70.7261Z" fill="#18205B"/>
<path d="M251.97 67.7661C251.97 67.7661 241.88 66.0861 236.24 66.4361C236.24 66.4361 237.02 64.5561 239.37 64.2461C241.72 63.9361 251.65 64.0161 252.49 64.3861C253.34 64.7561 251.97 67.7661 251.97 67.7661Z" fill="#18205B"/>
<path d="M262.82 95.7561C262.72 96.4161 260.3 96.5961 257.41 96.1561C254.53 95.7161 252.27 94.8161 252.37 94.1461C252.47 93.4861 254.89 93.3061 257.78 93.7461C260.66 94.1961 262.92 95.0861 262.82 95.7561Z" fill="#F4B298"/>
<path d="M259.58 112.676C259.49 113.266 257.35 113.416 254.81 113.026C252.26 112.636 250.28 111.836 250.37 111.256C250.46 110.666 252.6 110.516 255.14 110.906C257.68 111.296 259.67 112.096 259.58 112.676Z" fill="#F4B298"/>
<path d="M270.64 101.696C268.92 99.8061 261.32 101.056 256.73 100.576C252.2 99.6561 245.34 96.1661 243.13 97.4561C242.68 97.7161 242.43 98.2061 242.42 98.8361C242.36 101.396 246.1 106.336 255.61 107.886C265.14 109.276 270.2 105.686 270.91 103.226C271.07 102.626 270.99 102.086 270.64 101.696Z" fill="#EC827D"/>
<path d="M270.64 101.696C268.92 99.8061 261.32 101.056 256.73 100.576C252.2 99.6561 245.34 96.1661 243.13 97.4561C242.68 97.7161 242.43 98.2061 242.42 98.8361C245.36 100.176 250.81 102.446 256.29 103.436C261.81 104.146 267.69 103.616 270.9 103.236C271.07 102.626 270.99 102.086 270.64 101.696Z" fill="#F9F8F7"/>
<path d="M299.78 31.0561C298.68 29.1961 295.42 28.8961 293.49 28.7461C291.94 19.4061 279.05 14.5361 270.07 13.3161C269.08 13.1861 268.15 13.0961 267.27 13.0461C258.87 12.5961 249.48 15.4961 242.1 19.3961C233.65 23.8561 230.28 30.2461 227.28 38.8561C225.62 43.6361 224.56 48.6161 223.91 53.6261C223.06 60.1761 222.81 66.8861 223.33 73.4661C223.35 73.6961 223.37 73.9161 223.39 74.1461L223.44 73.9761L223.27 90.8861L224.45 89.7761C224.45 89.7761 224.67 73.1561 225.95 66.2061L230.62 51.6961C234.13 51.2461 237.64 50.7961 241.16 50.3361C239.76 52.0561 237.93 53.4261 235.89 54.3061C241.4 54.0161 246.91 53.6961 252.41 53.2361C256.22 52.9161 260.03 52.5161 263.82 52.0061L261.74 55.9761C282.19 54.8361 292.52 46.6661 292.52 46.6661C296.89 54.8861 297.79 65.0161 296.86 76.1361L296.74 75.7761C296.43 81.8161 290.94 100.046 290.94 100.046L291.73 101.456L298.19 80.2761L298.06 79.8761C302.12 69.8661 309.35 47.2461 299.78 31.0561ZM231.18 49.9961L232.02 47.3861C232.5 47.3861 232.98 47.3961 233.46 47.4461C232.7 48.2861 231.94 49.1361 231.18 49.9961Z" fill="#1F2E50"/>
<path d="M255.76 87.9761C255.2 89.6161 254.27 90.7861 253.67 90.5861C253.08 90.3861 253.05 88.8861 253.6 87.2461C254.16 85.6061 255.09 84.4361 255.69 84.6361C256.29 84.8361 256.32 86.3361 255.76 87.9761Z" fill="#FCDACD"/>
<path d="M275.57 79.8061C276.166 79.8061 276.65 79.3225 276.65 78.7261C276.65 78.1296 276.166 77.6461 275.57 77.6461C274.974 77.6461 274.49 78.1296 274.49 78.7261C274.49 79.3225 274.974 79.8061 275.57 79.8061Z" fill="#394496"/>
<path d="M242.41 74.6061C243.006 74.6061 243.49 74.1225 243.49 73.5261C243.49 72.9296 243.006 72.4461 242.41 72.4461C241.814 72.4461 241.33 72.9296 241.33 73.5261C241.33 74.1225 241.814 74.6061 242.41 74.6061Z" fill="#394496"/>
<path d="M42 135.446C38.49 130.336 40.98 123.476 43.18 117.426L43.57 116.356L44.51 116.696L44.12 117.766C42 123.586 39.6 130.186 42.83 134.876L42 135.446Z" fill="#F4B298"/>
<path d="M33.29 112.666C33.22 112.556 25.92 101.656 20.64 97.6361L21.25 96.8361C26.66 100.946 33.83 111.646 34.13 112.106L33.29 112.666Z" fill="#F4B298"/>
<path d="M28.2 115.366C28.14 115.266 21.68 105.616 17.07 100.996L17.78 100.286C22.46 104.976 28.96 114.706 29.03 114.806L28.2 115.366Z" fill="#F4B298"/>
<path d="M15.7313 105.393L14.9083 105.961L24.7251 120.183L25.5481 119.615L15.7313 105.393Z" fill="#F4B298"/>
<path d="M429 340H3.00002L3 372H429V340Z" fill="#C3D3DD"/>
<path d="M156.33 357.546H98.03C95.66 357.546 93.73 355.626 93.73 353.246V352.046C93.73 349.676 95.65 347.746 98.03 347.746H156.34C158.71 347.746 160.64 349.666 160.64 352.046V353.246C160.63 355.616 158.71 357.546 156.33 357.546Z" fill="#A5B7C6"/>
<path d="M410.51 351.336H352.2C349.83 351.336 347.9 349.416 347.9 347.036V345.836C347.9 343.466 349.82 341.536 352.2 341.536H410.51C412.88 341.536 414.81 343.456 414.81 345.836V347.036C414.81 349.406 412.89 351.336 410.51 351.336Z" fill="#A5B7C6"/>
<path d="M325.49 356.226H218.33C216.23 356.226 214.53 354.526 214.53 352.426C214.53 350.326 216.23 348.626 218.33 348.626H325.49C327.59 348.626 329.29 350.326 329.29 352.426C329.29 354.526 327.59 356.226 325.49 356.226Z" fill="#A5B7C6"/>
<path d="M416.173 383H17.1521C10.076 383 3 377.621 3 371L429 371C428.989 377.621 423.249 383 416.173 383Z" fill="#A5B7C6"/>
<path d="M105.04 334.306C101.59 334.296 98.77 331.486 98.76 328.026L98.78 315.056H104.88V311.226H97.84C96.24 311.226 94.94 312.526 94.94 314.126V328.016C94.94 333.586 99.47 338.116 105.04 338.116H105.81V334.286L105.04 334.306Z" fill="#EEEEEE"/>
<path d="M150.25 307.976H104.11V341.356C104.11 343.526 104.98 345.616 106.52 347.156C107.89 348.526 109.1 349.736 110.53 351.166V352.646H143.84V351.166C145.27 349.736 146.48 348.526 147.85 347.156C149.39 345.616 150.26 343.526 150.26 341.356V307.976H150.25Z" fill="#EEEEEE"/>
<path d="M392.85 281.376C382.01 293.616 376 316.496 379.44 332.476C390.28 320.246 396.29 297.366 392.85 281.376Z" fill="url(#paint1_linear)"/>
<path d="M379.41 272.966C368.71 291.596 369.62 321.236 381.43 339.176C392.12 320.546 391.22 290.906 379.41 272.966Z" fill="url(#paint2_linear)"/>
<path d="M406.43 287.656C392.44 296.126 379.93 316.196 378.47 332.486C392.46 324.006 404.98 303.946 406.43 287.656Z" fill="url(#paint3_linear)"/>
<path d="M363.26 283.666C362.03 299.966 371.1 321.816 383.51 332.466C384.74 316.156 375.67 294.306 363.26 283.666Z" fill="url(#paint4_linear)"/>
<path d="M353.14 285.726C367.18 294.116 379.81 314.106 381.36 330.386C367.32 322.006 354.69 302.006 353.14 285.726Z" fill="url(#paint5_linear)"/>
<path d="M355.51 310.066C355.51 310.066 355.51 330.266 364.66 346.436H394.97C404.12 330.276 404.12 310.066 404.12 310.066H355.51Z" fill="#F9F8F7"/>
<path d="M403.53 318.146C403.69 316.806 403.8 315.586 403.89 314.526H355.73C355.81 315.586 355.93 316.796 356.09 318.146H403.53Z" fill="#E2E1E0"/>
</g>
<defs>
<linearGradient id="paint0_linear" x1="210" y1="136" x2="293" y2="348" gradientUnits="userSpaceOnUse">
<stop stop-color="#3961B7"/>
<stop offset="1" stop-color="#5883DB"/>
</linearGradient>
<linearGradient id="paint1_linear" x1="381.045" y1="273.046" x2="406.648" y2="285.588" gradientUnits="userSpaceOnUse">
<stop stop-color="#8ABFFF"/>
<stop offset="1" stop-color="#7E9EFF"/>
</linearGradient>
<linearGradient id="paint2_linear" x1="374.786" y1="262.173" x2="404.641" y2="274.638" gradientUnits="userSpaceOnUse">
<stop stop-color="#68ACFF"/>
<stop offset="0.2291" stop-color="#65A7FF"/>
<stop offset="0.4985" stop-color="#5B99FF"/>
<stop offset="0.787" stop-color="#4A81FF"/>
<stop offset="1" stop-color="#3B6BFF"/>
</linearGradient>
<linearGradient id="paint3_linear" x1="383.159" y1="280.349" x2="411.584" y2="309.261" gradientUnits="userSpaceOnUse">
<stop stop-color="#68ACFF"/>
<stop offset="0.2291" stop-color="#65A7FF"/>
<stop offset="0.4985" stop-color="#5B99FF"/>
<stop offset="0.787" stop-color="#4A81FF"/>
<stop offset="1" stop-color="#3B6BFF"/>
</linearGradient>
<linearGradient id="paint4_linear" x1="366.582" y1="275.711" x2="395.426" y2="295.447" gradientUnits="userSpaceOnUse">
<stop stop-color="#8ABFFF"/>
<stop offset="1" stop-color="#7E9EFF"/>
</linearGradient>
<linearGradient id="paint5_linear" x1="357.873" y1="278.446" x2="386.181" y2="307.618" gradientUnits="userSpaceOnUse">
<stop stop-color="#68ACFF"/>
<stop offset="0.2291" stop-color="#65A7FF"/>
<stop offset="0.4985" stop-color="#5B99FF"/>
<stop offset="0.787" stop-color="#4A81FF"/>
<stop offset="1" stop-color="#3B6BFF"/>
</linearGradient>
</defs>
</svg>
