<svg width="265" height="488" viewBox="0 0 265 488" fill="none" xmlns="http://www.w3.org/2000/svg">
<mask id="mask0" mask-type="alpha" maskUnits="userSpaceOnUse" x="0" y="0" width="265" height="488">
<rect width="265" height="488" rx="7" fill="#2B65E3"/>
</mask>
<g mask="url(#mask0)">
<rect width="265" height="488" rx="7" fill="url(#paint0_linear)"/>
<ellipse cx="331.5" cy="640.331" rx="240.5" ry="216.14" fill="#426CC6"/>
<path d="M303.423 54.4067C279.611 74.8285 247.247 89.175 210.07 92C205.194 80.8686 201.505 69.5751 199 58.3188C231.226 58.0712 259.281 47.1502 279.633 31C286.517 39.405 294.47 47.273 303.423 54.4067Z" fill="#A6C2FF"/>
<path d="M300.282 54.3476C277.327 73.382 246.64 86.7839 211.506 89.7668C207.265 80.0425 203.938 70.191 201.52 60.3505C232.517 59.5637 259.584 49.0395 279.598 33.5643C285.686 40.9523 292.594 47.9239 300.282 54.3476Z" fill="#A6C2FF"/>
<path d="M273.382 46.5606C270.982 48.0684 268.046 48.4366 265.47 47.7901C253.212 54.514 239.267 59.5855 224.059 62.3514C222.878 64.6175 220.369 66.373 216.965 66.8114C213.546 67.2541 210.074 67.5828 206.552 67.791C208.034 72.5929 209.732 77.3838 211.652 82.1507C215.396 81.8197 219.089 81.3661 222.725 80.7918C226.238 80.2417 229.889 80.7918 232.957 82.1068C249.715 78.4139 265.089 72.251 278.625 64.2822C279.14 61.9591 280.729 59.728 283.218 58.0974C286.519 55.9364 289.695 53.6637 292.741 51.2879C289.039 47.8032 285.546 44.1848 282.267 40.4547C279.431 42.5893 276.466 44.6275 273.382 46.5606Z" fill="#D3E1FF"/>
<path d="M262.921 60.7713C266.926 66.3359 265.606 73.2966 258.948 76.0076C252.312 78.7275 243.493 75.5496 240.277 69.3429C237.036 63.1339 239.949 56.7453 245.794 54.6567C251.667 52.5812 258.891 55.1892 262.921 60.7713Z" fill="#92B2F8"/>
<path d="M232.53 72.3344C233.738 74.7693 232.162 77.3795 228.841 78.0436C225.525 78.7098 221.848 77.0902 220.794 74.5545C219.735 72.0166 221.574 69.6014 224.734 69.0359C227.901 68.4705 231.318 69.8951 232.53 72.3344Z" fill="#92B2F8"/>
<path d="M-44 377.16C-19.4218 398.238 13.9833 413.046 52.3561 415.962C57.3894 404.473 61.1966 392.816 63.7822 381.198C30.5196 380.942 1.56188 369.67 -19.4444 353C-26.5498 361.675 -34.7591 369.796 -44 377.16Z" fill="#A6C2FF"/>
<path d="M-40.7584 377.099C-17.0646 396.745 14.6099 410.578 50.8744 413.657C55.2516 403.62 58.6856 393.452 61.1807 383.295C29.1872 382.483 1.24969 371.62 -19.4082 355.647C-25.6925 363.272 -32.8228 370.468 -40.7584 377.099Z" fill="#A6C2FF"/>
<path d="M-12.9928 369.061C-10.5157 370.618 -7.48445 370.998 -4.82642 370.33C7.82576 377.27 22.2198 382.505 37.9168 385.36C39.1361 387.699 41.7263 389.511 45.2394 389.963C48.7683 390.42 52.3516 390.76 55.9868 390.975C54.4576 395.931 52.7045 400.876 50.7228 405.796C46.8591 405.455 43.0474 404.986 39.2945 404.394C35.6683 403.826 31.8995 404.394 28.7325 405.751C11.4361 401.939 -4.4328 395.578 -18.4038 387.353C-18.9354 384.955 -20.5755 382.652 -23.1453 380.969C-26.5521 378.739 -29.8299 376.393 -32.9743 373.941C-29.1535 370.344 -25.5477 366.609 -22.1635 362.759C-19.2363 364.962 -16.1756 367.066 -12.9928 369.061Z" fill="#D3E1FF"/>
<path d="M-2.19556 383.729C-6.3285 389.473 -4.96668 396.657 1.90571 399.455C8.75549 402.263 17.8584 398.983 21.1769 392.576C24.5226 386.168 21.5163 379.573 15.4831 377.418C9.42056 375.275 1.96453 377.967 -2.19556 383.729Z" fill="#92B2F8"/>
<path d="M29.1736 395.664C27.9272 398.177 29.5537 400.871 32.9808 401.557C36.4035 402.245 40.1993 400.573 41.2874 397.956C42.38 395.336 40.4821 392.843 37.2201 392.26C33.9513 391.676 30.4246 393.146 29.1736 395.664Z" fill="#92B2F8"/>
</g>
<defs>
<linearGradient id="paint0_linear" x1="132.5" y1="0" x2="132.5" y2="488" gradientUnits="userSpaceOnUse">
<stop stop-color="#2550AD"/>
<stop offset="1" stop-color="#3961B7"/>
</linearGradient>
</defs>
</svg>
