<svg width="809" height="809" viewBox="0 0 809 809" fill="none" xmlns="http://www.w3.org/2000/svg">
<circle cx="404.5" cy="404.5" r="403" stroke="url(#paint0_linear)" stroke-width="3"/>
<mask id="mask0" mask-type="alpha" maskUnits="userSpaceOnUse" x="188" y="122" width="433" height="386">
<rect x="188" y="122" width="433" height="386" fill="#C4C4C4"/>
</mask>
<g mask="url(#mask0)">
<path d="M503.93 446.526C498.75 389.606 521.37 265.096 490.94 257.596C471.21 252.726 455.1 251.506 441.1 251.506C427.1 251.506 410.99 252.736 391.26 257.596C360.83 265.096 383.45 389.606 378.27 446.526C373.69 496.826 389.19 491.376 441.11 491.376C493.01 491.376 508.51 496.826 503.93 446.526Z" fill="#F4B298"/>
<path d="M459.52 231.296L441.1 233.786L422.67 231.296V252.806C435.09 257.046 441.04 257.476 441.09 257.486C441.14 257.486 447.09 257.046 459.51 252.806V231.296H459.52Z" fill="#F4B298"/>
<path d="M405.4 261.526C378.01 226.446 303.91 332.286 293.82 364.116C283.73 395.946 313.31 373.196 353.24 335.506C393.16 297.816 416.17 275.326 405.4 261.526Z" fill="#FFC8AF"/>
<path d="M469.6 262.946C497.74 228.476 569.53 335.886 578.93 367.936C588.33 399.976 559.25 376.596 520.15 338.046C481.04 299.486 458.53 276.506 469.6 262.946Z" fill="#FFC8AF"/>
<path d="M566.92 358.386C603.61 359.446 557.54 467.586 538.66 491.446C519.78 515.306 524.05 482.366 534.87 434.236C545.7 386.116 552.49 357.976 566.92 358.386Z" fill="#FFC8AF"/>
<path d="M304.48 375.536C278.03 400.986 233.08 292.376 229.27 262.186C225.46 231.996 245.98 258.116 272.77 299.546C299.55 340.966 314.89 365.516 304.48 375.536Z" fill="#FFC8AF"/>
<path d="M243.81 255.336L243.7 254.276L243.22 238.086C243.16 235.976 242.57 233.906 241.52 232.076L235.21 221.066C235.21 221.066 230.86 224.596 232.21 228.396C233.14 231.006 232.52 235.756 232.03 238.526L228.42 233.926L216.23 219.986C213.77 217.166 209.33 217.356 207.11 220.356L204.19 224.306C201.68 227.706 201.16 232.176 202.82 236.056L209.32 251.236L233.3 275.356L247.32 263.156L243.81 255.336Z" fill="#FFC8AF"/>
<path d="M422.67 251.156C426.46 256.836 432.14 259.996 441.96 259.996C451.78 259.996 458.26 254.176 459.52 251.486C459.52 251.486 490.7 253.636 501.52 257.476C512.34 261.316 564.57 331.646 564.57 331.646C564.57 331.646 555.27 349.826 532.11 358.696L508.87 336.626V482.106C508.87 482.106 482.22 489.746 440.37 489.746C398.52 489.746 368.22 483.406 368.22 483.406L372.11 331.306L341.82 356.966C341.82 356.966 324.89 348.136 311.06 327.026C311.06 327.026 344.76 283.456 362.27 265.226C378.01 248.836 422.67 251.156 422.67 251.156Z" fill="url(#paint1_linear)"/>
<path d="M502.45 483.666C506.63 482.756 508.87 482.116 508.87 482.116V336.626L532.11 358.696C533.59 358.126 535.01 357.526 536.38 356.886L504.52 320.486L502.45 483.666Z" fill="#3D5FA8"/>
<path d="M373.82 320.366L336.69 353.746C339.84 355.946 341.82 356.976 341.82 356.976L372.11 331.316L373.82 320.366Z" fill="#3D5FA8"/>
<path d="M373.82 320.366L336.69 353.746C339.84 355.946 341.82 356.976 341.82 356.976L372.11 331.316L373.82 320.366Z" fill="#3D5FA8"/>
<path d="M455.79 147.466C425.16 142.746 415.12 170.676 411.92 192.786C411.61 194.826 411.43 196.666 411.24 198.516C411.24 198.516 411.22 198.756 411.2 199.106C408.23 221.036 418.31 245.606 440.16 248.976C462.51 252.426 481.5 231.016 483.99 208.796C484.04 208.356 484.07 207.956 484.11 207.536C484.37 206.416 484.62 205.266 484.87 204.036C489.21 182.096 488.66 152.536 455.79 147.466Z" fill="#FFC8AF"/>
<path d="M485.16 204.086C487.19 203.776 492.07 202.336 489.83 211.336C485.95 226.886 479.25 224.846 479.25 224.846C480 222.666 481.1 219.606 482.17 216.026C480.54 214.236 483.22 212.656 483.6 210.826C483.75 210.536 483.81 210.126 483.87 209.726C484.36 207.916 484.74 206.096 485.16 204.086Z" fill="#FFC8AF"/>
<path d="M483.87 209.716C483.87 209.716 486.44 207.246 487.89 208.616C489.34 209.986 487.41 214.856 485.66 217.666C483.92 220.476 482.46 220.516 482.34 219.646C482.22 218.776 485.34 217.446 484.55 215.876C483.76 214.306 482.76 213.896 482.99 213.076C483.21 212.256 483.87 209.716 483.87 209.716Z" fill="#F4B298"/>
<path d="M411.95 192.796C410.11 191.886 405.88 189.046 405.31 198.306C404.32 214.306 411.33 214.376 411.33 214.376C411.27 212.076 411.14 208.826 411.2 205.086C413.29 203.866 411.21 201.556 411.41 199.696C411.36 199.376 411.42 198.966 411.48 198.556C411.55 196.686 411.73 194.846 411.95 192.796Z" fill="#FFC8AF"/>
<path d="M411.48 198.556C411.48 198.556 409.77 195.426 407.98 196.296C406.19 197.166 406.56 202.396 407.38 205.596C408.2 208.796 409.58 209.276 409.95 208.486C410.33 207.696 407.75 205.486 408.98 204.216C410.21 202.956 411.28 202.866 411.31 202.016C411.34 201.176 411.48 198.556 411.48 198.556Z" fill="#F4B298"/>
<path d="M468.97 203.076C468.63 205.266 466.59 206.766 464.4 206.426C462.21 206.086 460.71 204.046 461.05 201.856C461.39 199.666 463.43 198.176 465.62 198.506C467.8 198.846 469.3 200.886 468.97 203.076Z" fill="#18205B"/>
<path d="M435.41 197.906C435.07 200.096 433.03 201.596 430.84 201.256C428.65 200.916 427.15 198.876 427.49 196.686C427.83 194.496 429.87 192.996 432.06 193.336C434.24 193.666 435.74 195.716 435.41 197.906Z" fill="#18205B"/>
<path d="M459.15 192.726C459.15 192.726 469.28 194.166 474.55 196.196C474.55 196.196 474.37 194.166 472.22 193.166C470.07 192.166 460.58 189.246 459.66 189.346C458.75 189.436 459.15 192.726 459.15 192.726Z" fill="#18205B"/>
<path d="M439.97 189.766C439.97 189.766 429.88 188.086 424.24 188.436C424.24 188.436 425.02 186.556 427.37 186.246C429.72 185.936 439.65 186.016 440.49 186.386C441.34 186.756 439.97 189.766 439.97 189.766Z" fill="#18205B"/>
<path d="M450.82 217.756C450.72 218.416 448.3 218.596 445.41 218.156C442.53 217.716 440.27 216.816 440.37 216.146C440.47 215.486 442.89 215.306 445.78 215.746C448.66 216.196 450.92 217.086 450.82 217.756Z" fill="#F4B298"/>
<path d="M447.58 234.676C447.49 235.266 445.35 235.416 442.81 235.026C440.26 234.636 438.28 233.836 438.37 233.256C438.46 232.666 440.6 232.516 443.14 232.906C445.68 233.296 447.67 234.096 447.58 234.676Z" fill="#F4B298"/>
<path d="M458.64 223.696C456.92 221.806 449.32 223.056 444.73 222.576C440.2 221.656 433.34 218.166 431.13 219.456C430.68 219.716 430.43 220.206 430.42 220.836C430.36 223.396 434.1 228.336 443.61 229.886C453.14 231.276 458.2 227.686 458.91 225.226C459.07 224.626 458.99 224.086 458.64 223.696Z" fill="#EC827D"/>
<path d="M458.64 223.696C456.92 221.806 449.32 223.056 444.73 222.576C440.2 221.656 433.34 218.166 431.13 219.456C430.68 219.716 430.43 220.206 430.42 220.836C433.36 222.176 438.81 224.446 444.29 225.436C449.81 226.146 455.69 225.616 458.9 225.236C459.07 224.626 458.99 224.086 458.64 223.696Z" fill="#F9F8F7"/>
<path d="M487.78 153.056C486.68 151.196 483.42 150.896 481.49 150.746C479.94 141.406 467.05 136.536 458.07 135.316C457.08 135.186 456.15 135.096 455.27 135.046C446.87 134.596 437.48 137.496 430.1 141.396C421.65 145.856 418.28 152.246 415.28 160.856C413.62 165.636 412.56 170.616 411.91 175.626C411.06 182.176 410.81 188.886 411.33 195.466C411.35 195.696 411.37 195.916 411.39 196.146L411.44 195.976L411.27 212.886L412.45 211.776C412.45 211.776 412.67 195.156 413.95 188.206L418.62 173.696C422.13 173.246 425.64 172.796 429.16 172.336C427.76 174.056 425.93 175.426 423.89 176.306C429.4 176.016 434.91 175.696 440.41 175.236C444.22 174.916 448.03 174.516 451.82 174.006L449.74 177.976C470.19 176.836 480.52 168.666 480.52 168.666C484.89 176.886 485.79 187.016 484.86 198.136L484.74 197.776C484.43 203.816 478.94 222.046 478.94 222.046L479.73 223.456L486.19 202.276L486.06 201.876C490.12 191.866 497.35 169.246 487.78 153.056ZM419.18 171.996L420.02 169.386C420.5 169.386 420.98 169.396 421.46 169.446C420.7 170.286 419.94 171.136 419.18 171.996Z" fill="#1F2E50"/>
<path d="M443.76 209.976C443.2 211.616 442.27 212.786 441.67 212.586C441.08 212.386 441.05 210.886 441.6 209.246C442.16 207.606 443.09 206.436 443.69 206.636C444.29 206.836 444.32 208.336 443.76 209.976Z" fill="#FCDACD"/>
<path d="M463.57 201.806C464.166 201.806 464.65 201.323 464.65 200.726C464.65 200.13 464.166 199.646 463.57 199.646C462.974 199.646 462.49 200.13 462.49 200.726C462.49 201.323 462.974 201.806 463.57 201.806Z" fill="#394496"/>
<path d="M430.41 196.606C431.006 196.606 431.49 196.123 431.49 195.526C431.49 194.93 431.006 194.446 430.41 194.446C429.814 194.446 429.33 194.93 429.33 195.526C429.33 196.123 429.814 196.606 430.41 196.606Z" fill="#394496"/>
<path d="M230 257.446C226.49 252.336 228.98 245.476 231.18 239.426L231.57 238.356L232.51 238.696L232.12 239.766C230 245.586 227.6 252.186 230.83 256.876L230 257.446Z" fill="#F4B298"/>
<path d="M221.29 234.666C221.22 234.556 213.92 223.656 208.64 219.636L209.25 218.836C214.66 222.946 221.83 233.646 222.13 234.106L221.29 234.666Z" fill="#F4B298"/>
<path d="M216.2 237.366C216.14 237.266 209.68 227.616 205.07 222.996L205.78 222.286C210.46 226.976 216.96 236.706 217.03 236.806L216.2 237.366Z" fill="#F4B298"/>
<path d="M203.731 227.393L202.908 227.961L212.725 242.183L213.548 241.615L203.731 227.393Z" fill="#F4B298"/>
<path d="M617 462H191L191 494H617V462Z" fill="#C3D3DD"/>
<path d="M344.33 479.546H286.03C283.66 479.546 281.73 477.626 281.73 475.246V474.046C281.73 471.676 283.65 469.746 286.03 469.746H344.34C346.71 469.746 348.64 471.666 348.64 474.046V475.246C348.63 477.616 346.71 479.546 344.33 479.546Z" fill="#A5B7C6"/>
<path d="M598.51 473.336H540.2C537.83 473.336 535.9 471.416 535.9 469.036V467.836C535.9 465.466 537.82 463.536 540.2 463.536H598.51C600.88 463.536 602.81 465.456 602.81 467.836V469.036C602.81 471.406 600.89 473.336 598.51 473.336Z" fill="#A5B7C6"/>
<path d="M513.49 478.226H406.33C404.23 478.226 402.53 476.526 402.53 474.426C402.53 472.326 404.23 470.626 406.33 470.626H513.49C515.59 470.626 517.29 472.326 517.29 474.426C517.29 476.526 515.59 478.226 513.49 478.226Z" fill="#A5B7C6"/>
<path d="M604.173 505H205.152C198.076 505 191 499.621 191 493L617 493C616.989 499.621 611.249 505 604.173 505Z" fill="#A5B7C6"/>
<path d="M293.04 456.306C289.59 456.296 286.77 453.486 286.76 450.026L286.78 437.056H292.88V433.226H285.84C284.24 433.226 282.94 434.526 282.94 436.126V450.016C282.94 455.586 287.47 460.116 293.04 460.116H293.81V456.286L293.04 456.306Z" fill="#EEEEEE"/>
<path d="M338.25 429.976H292.11V463.356C292.11 465.526 292.98 467.616 294.52 469.156C295.89 470.526 297.1 471.736 298.53 473.166V474.646H331.84V473.166C333.27 471.736 334.48 470.526 335.85 469.156C337.39 467.616 338.26 465.526 338.26 463.356V429.976H338.25Z" fill="#EEEEEE"/>
<path d="M580.85 403.376C570.01 415.616 564 438.496 567.44 454.476C578.28 442.246 584.29 419.366 580.85 403.376Z" fill="url(#paint2_linear)"/>
<path d="M567.41 394.966C556.71 413.596 557.62 443.236 569.43 461.176C580.12 442.546 579.22 412.906 567.41 394.966Z" fill="url(#paint3_linear)"/>
<path d="M594.43 409.656C580.44 418.126 567.93 438.196 566.47 454.486C580.46 446.006 592.98 425.946 594.43 409.656Z" fill="url(#paint4_linear)"/>
<path d="M551.26 405.666C550.03 421.966 559.1 443.816 571.51 454.466C572.74 438.156 563.67 416.306 551.26 405.666Z" fill="url(#paint5_linear)"/>
<path d="M541.14 407.726C555.18 416.116 567.81 436.106 569.36 452.386C555.32 444.006 542.69 424.006 541.14 407.726Z" fill="url(#paint6_linear)"/>
<path d="M543.51 432.066C543.51 432.066 543.51 452.266 552.66 468.436H582.97C592.12 452.276 592.12 432.066 592.12 432.066H543.51Z" fill="#F9F8F7"/>
<path d="M591.53 440.146C591.69 438.806 591.8 437.586 591.89 436.526H543.73C543.81 437.586 543.93 438.796 544.09 440.146H591.53Z" fill="#E2E1E0"/>
</g>
<defs>
<linearGradient id="paint0_linear" x1="405" y1="-48.5" x2="404.5" y2="809" gradientUnits="userSpaceOnUse">
<stop stop-color="#A2BCF5"/>
<stop offset="1" stop-color="white"/>
</linearGradient>
<linearGradient id="paint1_linear" x1="398" y1="258" x2="481" y2="470" gradientUnits="userSpaceOnUse">
<stop stop-color="#3961B7"/>
<stop offset="1" stop-color="#5883DB"/>
</linearGradient>
<linearGradient id="paint2_linear" x1="569.045" y1="395.046" x2="594.648" y2="407.588" gradientUnits="userSpaceOnUse">
<stop stop-color="#8ABFFF"/>
<stop offset="1" stop-color="#7E9EFF"/>
</linearGradient>
<linearGradient id="paint3_linear" x1="562.786" y1="384.173" x2="592.641" y2="396.638" gradientUnits="userSpaceOnUse">
<stop stop-color="#68ACFF"/>
<stop offset="0.2291" stop-color="#65A7FF"/>
<stop offset="0.4985" stop-color="#5B99FF"/>
<stop offset="0.787" stop-color="#4A81FF"/>
<stop offset="1" stop-color="#3B6BFF"/>
</linearGradient>
<linearGradient id="paint4_linear" x1="571.159" y1="402.349" x2="599.584" y2="431.261" gradientUnits="userSpaceOnUse">
<stop stop-color="#68ACFF"/>
<stop offset="0.2291" stop-color="#65A7FF"/>
<stop offset="0.4985" stop-color="#5B99FF"/>
<stop offset="0.787" stop-color="#4A81FF"/>
<stop offset="1" stop-color="#3B6BFF"/>
</linearGradient>
<linearGradient id="paint5_linear" x1="554.582" y1="397.711" x2="583.426" y2="417.447" gradientUnits="userSpaceOnUse">
<stop stop-color="#8ABFFF"/>
<stop offset="1" stop-color="#7E9EFF"/>
</linearGradient>
<linearGradient id="paint6_linear" x1="545.873" y1="400.446" x2="574.181" y2="429.618" gradientUnits="userSpaceOnUse">
<stop stop-color="#68ACFF"/>
<stop offset="0.2291" stop-color="#65A7FF"/>
<stop offset="0.4985" stop-color="#5B99FF"/>
<stop offset="0.787" stop-color="#4A81FF"/>
<stop offset="1" stop-color="#3B6BFF"/>
</linearGradient>
</defs>
</svg>
