<svg width="63" height="54" viewBox="0 0 63 54" fill="none" xmlns="http://www.w3.org/2000/svg">
<path d="M54.971 23.9798C35.0011 30.093 19.7071 40.391 10.3393 52.69C1.85849 40.3212 -4.69629 26.1965 -8.79202 10.7138C10.4093 2.55385 34.222 -1.2481 60.8723 1.04981C57.8464 8.44507 55.929 16.1147 54.971 23.9798Z" fill="#D3E1FF"/>
<path d="M53.8722 22.899C34.4589 28.5229 19.2738 38.065 9.44074 49.6299C2.40358 38.6352 -3.13696 26.3413 -6.82787 13.0135C11.2276 5.01634 33.5707 0.930715 58.6687 2.31427C56.2349 9.01089 54.671 15.8927 53.8722 22.899Z" fill="#A6C2FF"/>
<path d="M45.4665 7.98247C43.0975 8.21695 41.1013 7.51071 39.7662 6.05346C28.0462 7.25102 17.2158 9.73201 7.47683 13.2798C6.73969 16.1493 5.40832 18.4716 3.50499 19.3789C1.58235 20.2848 -0.284914 21.2368 -2.09868 22.2297C0.049218 28.4399 2.61711 34.3952 5.56045 40.0633C6.92804 38.8686 8.35769 37.7058 9.84939 36.5749C11.2999 35.4835 13.2393 35.9246 15.0135 37.3491C21.981 32.1385 30.2742 27.6652 39.7343 24.1851C40.7961 22.2596 42.5434 20.8075 44.5336 20.2539C47.1609 19.5142 49.8618 18.8481 52.6327 18.2557C53.1345 14.5943 53.8507 10.9595 54.799 7.35975C51.6301 7.48103 48.5175 7.68865 45.4665 7.98247Z" fill="#D3E1FF"/>
<path d="M32.4429 16.9497C32.7894 23.2325 30.7151 29.6317 27.3758 31.6581C24.0606 33.6612 19.3362 29.8035 17.4176 22.3544C15.4954 14.8985 18.4946 7.56515 23.3752 6.74074C28.259 5.90224 32.0674 10.6991 32.4429 16.9497Z" fill="#92B2F8"/>
<path d="M13.0919 25.6123C13.965 28.5538 13.5292 31.653 12.0417 32.6594C10.5576 33.6623 8.32745 32.0712 7.14213 28.9616C5.9551 25.8538 6.52604 22.5343 8.32067 21.7013C10.117 20.8649 12.2154 22.6745 13.0919 25.6123Z" fill="#92B2F8"/>
<path d="M45.0432 14.7804C44.8687 16.8872 43.1266 19.0278 41.1164 19.6274C39.1079 20.2251 37.3738 18.8698 37.2939 16.5166C37.2122 14.1651 39.0286 11.9018 41.2915 11.5506C43.5545 11.1977 45.2143 12.6773 45.0432 14.7804Z" fill="#92B2F8"/>
</svg>
