<svg width="116" height="197" viewBox="0 0 116 197" fill="none" xmlns="http://www.w3.org/2000/svg">
<path d="M-57.9674 46.6418C-4.83868 48.8054 51.8839 68.383 101.272 107.814C94.4662 127.256 85.9996 145.528 76.1077 162.386C35.8392 125.476 -11.5814 106.624 -55.4835 103.158C-54.3175 84.7796 -55.0985 65.8323 -57.9674 46.6418Z" fill="#A6C2FF"/>
<path d="M-54.1391 50.3421C-3.67574 53.2373 49.8758 72.0506 96.9115 108.926C90.9425 125.889 83.6927 141.954 75.3272 156.955C35.9614 122.133 -9.7747 103.931 -52.4784 100.017C-51.4998 83.819 -52.019 67.1912 -54.1391 50.3421Z" fill="#A6C2FF"/>
<path d="M-29.7574 91.0706C-25.0385 91.9714 -20.9696 94.9063 -18.5213 98.6825C4.45251 104.497 27.6116 114.31 49.6741 128.442C53.7569 126.995 58.8978 127.715 63.6269 131.102C68.3801 134.501 73.0669 138.103 77.677 141.912C81.3846 134.243 84.8103 126.337 87.9335 118.206C82.907 114.293 77.8013 110.591 72.627 107.105C67.6329 103.73 63.7381 98.8304 61.4499 93.6553C36.3943 78.884 10.2019 68.7744 -15.7949 63.029C-19.1169 65.3165 -23.665 66.2495 -28.6371 65.3972C-35.2278 64.2664 -41.7927 63.4186 -48.3161 62.8479C-47.7479 71.4464 -47.5925 79.9704 -47.8326 88.385C-41.8487 89.0118 -35.8157 89.9076 -29.7574 91.0706Z" fill="#D3E1FF"/>
<path d="M-0.367008 85.5207C1.09163 73.9924 10.7674 66.8801 22.1593 71.206C33.534 75.4958 40.8058 89.6239 37.6266 101.038C34.4776 112.485 23.4855 117.047 13.8214 112.888C4.13703 108.68 -1.81327 97.1011 -0.367008 85.5207Z" fill="#92B2F8"/>
<path d="M50.694 106.273C52.0078 101.858 56.9775 100.439 61.864 103.45C66.7475 106.453 69.4398 112.71 67.8192 117.073C66.2015 121.444 61.1308 122.317 56.5567 119.369C51.9745 116.413 49.3806 110.7 50.694 106.273Z" fill="#92B2F8"/>
</svg>
