<svg width="132" height="136" viewBox="0 0 132 136" fill="none" xmlns="http://www.w3.org/2000/svg">
<path d="M231.46 51.8825C178.679 97.1485 106.942 128.948 24.5373 135.21C13.7285 110.537 5.55259 85.5041 0 60.5538C71.4307 60.0049 133.617 35.7979 178.727 0C193.986 18.6301 211.615 36.07 231.46 51.8825Z" fill="#A6C2FF"/>
<path d="M224.499 51.7514C173.617 93.9424 105.596 123.648 27.7192 130.26C18.3192 108.706 10.9449 86.8692 5.58661 65.0572C74.292 63.3132 134.287 39.9855 178.65 5.68384C192.145 22.0599 207.457 37.5129 224.499 51.7514Z" fill="#A6C2FF"/>
<path d="M164.873 34.4912C159.553 37.8334 153.044 38.6495 147.336 37.2165C120.165 52.1205 89.2544 63.3617 55.5453 69.4924C52.9269 74.5155 47.3646 78.4067 39.8203 79.3783C32.2419 80.3596 24.547 81.0882 16.7404 81.5497C20.0243 92.1934 23.7892 102.813 28.0447 113.379C36.342 112.645 44.5276 111.64 52.5869 110.367C60.3741 109.148 68.4674 110.367 75.2685 113.282C112.412 105.096 146.49 91.4356 176.493 73.7722C177.634 68.6228 181.156 63.6775 186.675 60.0632C193.991 55.2733 201.03 50.2357 207.783 44.9697C199.578 37.2456 191.834 29.2252 184.567 20.957C178.28 25.6886 171.708 30.2065 164.873 34.4912Z" fill="#D3E1FF"/>
<path d="M141.686 65.9899C150.561 78.3241 147.637 93.7529 132.878 99.7621C118.169 105.791 98.6205 98.7468 91.4939 84.9892C84.3091 71.2267 90.7652 57.0659 103.721 52.4363C116.74 47.8359 132.752 53.6168 141.686 65.9899Z" fill="#92B2F8"/>
<path d="M74.3212 91.6202C76.9979 97.0173 73.505 102.803 66.1453 104.275C58.7953 105.752 50.6437 102.162 48.3071 96.5413C45.9607 90.9158 50.0365 85.5624 57.0416 84.309C64.0613 83.0557 71.6347 86.2134 74.3212 91.6202Z" fill="#92B2F8"/>
</svg>
