<svg width="36" height="37" viewBox="0 0 36 37" fill="none" xmlns="http://www.w3.org/2000/svg">
<path d="M3.18757 3.38152C0.43715 6.23839 1.00007 9.27319 1.00007 18.4928C1.00007 26.149 -0.335767 33.8242 6.65548 35.6311C8.83861 36.1926 28.1819 36.1926 30.3622 35.6282C33.273 34.8772 35.6413 32.5161 35.9651 28.3992C36.0103 27.8246 36.0103 9.1711 35.9636 8.58485C35.6194 4.19964 32.9201 1.67235 29.3632 1.16047C28.548 1.04235 28.3847 1.00735 24.2022 1.00006C9.36653 1.00735 6.11444 0.346724 3.18757 3.38152Z" fill="white"/>
<path d="M18.497 5.57766C13.2018 5.57766 8.17343 5.10662 6.25281 10.0358C5.45948 12.0716 5.57468 14.7156 5.57468 18.5014C5.57468 21.8235 5.46823 24.9458 6.25281 26.9656C8.16906 31.8977 13.2382 31.4252 18.4941 31.4252C23.5647 31.4252 28.7928 31.9531 30.7368 26.9656C31.5316 24.9093 31.4149 22.3047 31.4149 18.5014C31.4149 13.4527 31.6934 10.1933 29.2449 7.7462C26.7657 5.26703 23.413 5.57766 18.4911 5.57766H18.497ZM17.3391 7.90662C28.3845 7.88912 29.7903 6.6612 29.0145 23.7193C28.7388 29.7525 24.1451 29.0904 18.4984 29.0904C8.2026 29.0904 7.90656 28.7958 7.90656 18.4956C7.90656 8.07578 8.72323 7.91245 17.3391 7.9037V7.90662ZM25.3949 10.0518C24.5388 10.0518 23.8447 10.746 23.8447 11.602C23.8447 12.4581 24.5388 13.1522 25.3949 13.1522C26.2509 13.1522 26.9451 12.4581 26.9451 11.602C26.9451 10.746 26.2509 10.0518 25.3949 10.0518ZM18.497 11.8645C14.8322 11.8645 11.8616 14.8366 11.8616 18.5014C11.8616 22.1662 14.8322 25.1368 18.497 25.1368C22.1618 25.1368 25.1309 22.1662 25.1309 18.5014C25.1309 14.8366 22.1618 11.8645 18.497 11.8645ZM18.497 14.1935C24.1918 14.1935 24.1991 22.8093 18.497 22.8093C12.8036 22.8093 12.7949 14.1935 18.497 14.1935Z" fill="#4878C0"/>
</svg>
