<svg width="207" height="337" viewBox="0 0 207 337" fill="none" xmlns="http://www.w3.org/2000/svg">
<path d="M184.408 312.658C184.408 312.658 185.311 308.207 175.065 294.512C172.856 291.559 166.116 280.434 166.116 280.434C163.454 279.786 155.156 284.197 152.967 285.54C152.527 285.811 152.273 285.977 152.273 285.977C152.273 285.977 148.724 301.365 156.264 299.622C156.499 299.566 156.737 299.523 156.972 299.483C164.264 298.345 171.305 305.585 174.506 310.178C176.593 313.164 183.022 312.781 184.408 312.658Z" fill="url(#paint0_linear)"/>
<path d="M130.343 282.75C130.343 282.75 131.246 278.298 121 264.603C118.791 261.65 112.051 250.525 112.051 250.525C109.389 249.877 101.092 254.288 98.9023 255.631C98.4624 255.902 98.2078 256.068 98.2078 256.068C98.2078 256.068 94.6592 271.456 102.199 269.713C102.434 269.657 102.672 269.614 102.907 269.574C110.199 268.436 117.24 275.676 120.442 280.269C122.528 283.256 128.957 282.872 130.343 282.75Z" fill="url(#paint1_linear)"/>
<path d="M14.9443 206.57C17.041 197.568 40.3397 169.497 52.2751 175.999C64.2072 182.5 58.0196 217.811 45.5782 259.451C45.3897 260.086 45.1946 260.717 44.9995 261.346C70.0741 257.228 99.9176 255.978 99.9176 255.978L103.059 270.477C80.465 276.72 36.5696 298.419 18.1621 307.761C11.1246 310.953 2.85677 310.952 1.17345 304.758C-4.4652 284.029 14.9443 206.57 14.9443 206.57Z" fill="url(#paint2_linear)"/>
<path d="M59.4351 336.285C59.4351 336.285 112.769 312.219 145.288 302.496C149.319 301.292 153.02 300.316 156.264 299.622L152.845 285.676C152.845 285.676 149.66 285.619 144.488 285.626C124.241 285.682 73.5366 286.817 64.4784 296.754C53.1118 309.232 59.4351 336.285 59.4351 336.285Z" fill="url(#paint3_linear)"/>
<path d="M19.1344 6.39583C17.3849 10.4272 15.9827 15.7186 17.17 18.5065C18.5127 21.6681 18.1456 23.9567 18.1456 23.9567L21.0129 24.6578L24.439 25.4912C24.439 25.4912 24.6209 25.1968 24.8954 24.6975C25.1699 24.2014 25.5337 23.4904 25.9008 22.6636C25.9008 22.6636 26.0595 21.1489 27.518 20.4577C28.9764 19.7665 30.5076 18.0071 30.7887 16.304C31.0665 14.6041 32.8127 11.426 32.3166 11.092C31.1195 10.2817 29.3171 15.2225 28.2588 15.4441C27.303 15.6426 26.9955 14.9646 26.9459 14.8323C26.9426 14.8224 26.9392 14.8158 26.9392 14.8059C25.2758 10.7679 28.348 0.571988 25.914 0.00646928C25.0012 -0.20188 19.8785 4.67943 19.1344 6.39583Z" fill="#FFC8AF"/>
<path d="M203.692 87.7943C200.712 91.0253 196.439 94.4416 193.407 94.4846C189.971 94.5342 188.029 95.7942 188.029 95.7942L186.23 93.4561L184.081 90.6616C184.081 90.6616 184.276 90.3771 184.623 89.9208C184.967 89.4677 187.398 87.4239 187.441 85.81C187.484 84.1961 188.472 82.0829 189.918 81.137C191.36 80.1945 193.562 77.314 194.068 77.6315C195.295 78.3987 191.502 82.0432 191.727 83.1015C191.932 84.0572 192.676 84.0638 192.815 84.0539C192.825 84.0506 192.831 84.0539 192.841 84.0506C197.21 83.9415 205.293 77.0097 206.794 79.0073C207.356 79.7613 204.962 86.4185 203.692 87.7943Z" fill="#FFC8AF"/>
<path d="M74.6577 213.29C87.8135 216.703 84.513 232.521 82.5453 275.934C82.3237 280.845 81.864 285.59 81.2191 290.114C100.5 286.242 130.141 285.66 144.491 285.62C144.491 285.62 146.872 290.921 146.773 295.158C146.555 304.176 141.948 310.142 141.948 310.142C109.426 319.865 59.4384 336.282 59.4384 336.282C59.4384 336.282 59.4351 336.265 59.4285 336.242C56.0949 337.109 52.9597 335.442 50.4662 330.663C40.5216 311.621 23.5032 184.882 23.5032 184.882C23.351 175.645 61.5053 209.88 74.6577 213.29Z" fill="url(#paint4_linear)"/>
<path d="M96.1342 115.996C96.1342 115.996 91.5108 104.269 100.503 87.5453L87.7143 90.3861L79.0298 92.3142C79.0298 92.3142 77.5945 95.2773 75.7127 100.78C75.2199 102.229 73.3845 108.04 72.8454 109.835C69.7896 109.964 74.1947 114.591 80.4617 115.5C87.4365 116.516 96.1342 115.996 96.1342 115.996Z" fill="#FFC8AF"/>
<path d="M79.0264 92.3138C79.0264 92.3138 77.5911 95.277 75.7094 100.78C83.1736 103.006 96.4814 95.7532 96.4814 95.7532C93.4785 93.0083 90.5022 91.3084 87.711 90.3857L79.0264 92.3138Z" fill="#FEB492"/>
<path d="M73.2853 87.9421C73.2853 87.9421 88.0979 104.326 98.1582 94.9433C108.218 85.561 116.906 81.3576 107.875 70.5003C98.8428 59.6431 93.1347 61.2206 89.014 63.5355C84.8966 65.8472 69.6905 83.4378 73.2853 87.9421Z" fill="#FFC8AF"/>
<path d="M98.9883 93.9285C98.9883 93.9285 97.4703 92.2452 99.6662 90.0592C101.862 87.8698 104.362 84.7148 101.935 83.7459C99.5075 82.7769 98.1615 84.2684 98.0854 82.7107C98.0061 81.1531 101.062 77.2804 95.4397 72.3793C89.8176 67.4781 85.8358 67.6269 84.0698 64.2801C82.3038 60.9333 85.4224 56.7134 85.4224 56.7134C85.4224 56.7134 85.0289 58.7936 85.8259 60.1859C85.8259 60.1859 86.2161 50.4001 94.8279 50.3141C103.44 50.2282 106.578 57.2525 109.465 59.8453C115.828 65.5567 119.826 69.383 118.52 75.5078C117.214 81.6293 106.631 93.105 98.9883 93.9285Z" fill="#424B96"/>
<path d="M82.5419 84.5288L77.0455 79.3564C77.0455 79.3564 74.8098 82.7859 76.3774 84.2741C77.9483 85.7623 82.5419 84.5288 82.5419 84.5288Z" fill="white"/>
<path d="M8.76657 53.5421C11.1179 39.0006 18.1919 23.0173 18.1919 23.0173L25.8975 22.6667C25.8975 22.6667 25.0409 42.364 25.2294 56.1415C25.3221 62.759 28.2158 68.7416 28.9996 69.8032C31.3939 73.0045 66.6247 106.912 67.8054 107.994L67.8318 108.024L67.8285 108.027C71.5788 108.665 71.1621 114.823 75.0149 115.858C81.4374 117.581 92.1028 114.443 97.8109 116.556C97.8109 116.556 143.558 116.609 150.52 113.275C157.481 109.942 184.626 89.927 184.626 89.927L189.656 95.784C189.656 95.784 171.024 131.656 156.251 138.109C148.212 141.621 130.548 145.851 116.122 148.972C110.418 150.206 105.847 154.436 104.118 160.012C90.5452 203.775 97.3777 240.679 97.3777 240.679C97.3777 240.679 84.3741 242.134 68.1824 237.64C47.1292 231.793 31.7511 222.318 31.7511 222.318C25.8181 215.125 29.327 188.751 29.327 188.751C29.327 188.751 25.2294 193.175 23.857 200.564C22.8681 205.888 22.3357 208.831 22.0083 210.703C21.6974 212.463 19.647 213.283 18.2117 212.221C15.1692 209.969 10.8269 206.46 9.47099 203.887C4.73189 194.892 15.2717 158.259 29.8297 132.698C32.4324 128.128 32.3398 122.512 29.5585 118.048C20.6028 103.681 6.83522 80.8986 6.66656 76.3248C6.56734 73.8412 7.41066 61.9025 8.76657 53.5421Z" fill="url(#paint5_linear)"/>
<path d="M76.017 119.155C76.017 119.155 63.7343 136.581 72.7429 153.424C81.7482 170.267 117.128 167.939 123.679 188.979L119.697 202.078L104.908 194.065C104.908 194.065 103.671 182.688 89.1198 177.751C60.6984 168.101 53.8559 151.436 59.822 136.524C64.862 123.921 72.1609 117.849 72.1609 117.849L76.017 119.155Z" fill="url(#paint6_linear)"/>
<path d="M94.99 109.568L80.7462 114.275L80.0451 116.976L97.8109 116.556C97.8076 116.553 96.8651 112.469 94.99 109.568Z" fill="url(#paint7_linear)"/>
<path d="M74.1519 105.653L73.6789 113.018C73.6789 113.018 71.8137 114.545 71.8369 114.344C71.8633 114.142 67.8286 108.024 67.8286 108.024C67.8286 108.024 71.1754 106.417 74.1519 105.653Z" fill="url(#paint8_linear)"/>
<path d="M80.7461 114.275L73.4837 111.824C72.819 111.599 72.1145 112.042 72.0286 112.74L71.4299 117.622C71.3671 118.144 71.678 118.637 72.174 118.806L75.3687 119.887C75.716 120.006 76.0996 119.943 76.3906 119.722L81.0537 116.209C81.7714 115.674 81.5928 114.559 80.7461 114.275Z" fill="url(#paint9_linear)"/>
<path d="M26.2513 21.6382L26.8929 27.7531C26.8929 27.7531 19.1741 27.8688 19.1741 27.7531C19.1741 27.6373 18.9393 24.7204 18.9393 24.7204L17.6528 28.1036L14.7855 27.1677L18.0662 21.6382C18.0695 21.6382 21.3435 23.1826 26.2513 21.6382Z" fill="url(#paint10_linear)"/>
<path d="M184.626 89.9237L189.653 95.7806L188.178 101.495L186.131 100.093L187.14 95.7972L183.618 98.6876L179.057 92.6653L184.626 89.9237Z" fill="url(#paint11_linear)"/>
<path d="M185.721 95.2977C185.721 95.0398 185.513 94.8281 185.255 94.8281C184.997 94.8281 184.785 95.0365 184.785 95.2977C184.785 95.5557 184.993 95.764 185.255 95.764C185.513 95.764 185.721 95.5557 185.721 95.2977Z" fill="#EBF3FA"/>
<path d="M20.6028 25.4918C20.6028 25.2864 20.4372 25.1208 20.2319 25.1208C20.0266 25.1208 19.861 25.2864 19.861 25.4918C19.861 25.6971 20.0266 25.8627 20.2319 25.8627C20.4372 25.8627 20.6028 25.6971 20.6028 25.4918Z" fill="#EBF3FA"/>
<path d="M32.74 167.869C32.74 167.32 32.2935 166.874 31.7445 166.874C31.1956 166.874 30.7491 167.32 30.7491 167.869C30.7491 168.418 31.1923 168.865 31.7445 168.865C32.2968 168.865 32.74 168.418 32.74 167.869Z" fill="#EBF3FA"/>
<path d="M40.6374 151.423C40.6374 150.874 40.1909 150.428 39.6419 150.428C39.0929 150.428 38.6465 150.874 38.6465 151.423C38.6465 151.972 39.0929 152.419 39.6419 152.419C40.1909 152.419 40.6374 151.972 40.6374 151.423Z" fill="#EBF3FA"/>
<path d="M51.5146 138.975C51.5146 138.426 51.0681 137.979 50.5191 137.979C49.9701 137.979 49.5237 138.426 49.5237 138.975C49.5237 139.524 49.9701 139.97 50.5191 139.97C51.0681 139.97 51.5146 139.524 51.5146 138.975Z" fill="#EBF3FA"/>
<defs>
<linearGradient id="paint0_linear" x1="167.933" y1="280.369" x2="167.933" y2="312.743" gradientUnits="userSpaceOnUse">
<stop stop-color="#6394FF"/>
<stop offset="1" stop-color="#8EB2FD"/>
</linearGradient>
<linearGradient id="paint1_linear" x1="113.868" y1="250.46" x2="113.868" y2="282.834" gradientUnits="userSpaceOnUse">
<stop stop-color="#6394FF"/>
<stop offset="1" stop-color="#8EB2FD"/>
</linearGradient>
<linearGradient id="paint2_linear" x1="90.3138" y1="289.655" x2="3.01246" y2="217.221" gradientUnits="userSpaceOnUse">
<stop stop-color="#BED3FF"/>
<stop offset="1" stop-color="#5689F7"/>
</linearGradient>
<linearGradient id="paint3_linear" x1="144.055" y1="328.69" x2="118.267" y2="274.135" gradientUnits="userSpaceOnUse">
<stop stop-color="#83AAFF"/>
<stop offset="1" stop-color="#5689F7"/>
</linearGradient>
<linearGradient id="paint4_linear" x1="131.509" y1="313.5" x2="31.5088" y2="226" gradientUnits="userSpaceOnUse">
<stop stop-color="#83AAFF"/>
<stop offset="1" stop-color="#5689F7"/>
</linearGradient>
<linearGradient id="paint5_linear" x1="75.5089" y1="241" x2="69.5875" y2="91.2599" gradientUnits="userSpaceOnUse">
<stop stop-color="white"/>
<stop offset="1" stop-color="#E7E7E7"/>
</linearGradient>
<linearGradient id="paint6_linear" x1="115.525" y1="189.45" x2="60.7651" y2="142.916" gradientUnits="userSpaceOnUse">
<stop stop-color="#BED3FF"/>
<stop offset="1" stop-color="#5689F7"/>
</linearGradient>
<linearGradient id="paint7_linear" x1="95.6107" y1="115.866" x2="92.3472" y2="107.357" gradientUnits="userSpaceOnUse">
<stop stop-color="#BED3FF"/>
<stop offset="1" stop-color="#5689F7"/>
</linearGradient>
<linearGradient id="paint8_linear" x1="73.3687" y1="113.056" x2="67.7883" y2="108.652" gradientUnits="userSpaceOnUse">
<stop stop-color="#BED3FF"/>
<stop offset="1" stop-color="#5689F7"/>
</linearGradient>
<linearGradient id="paint9_linear" x1="80.2524" y1="118.72" x2="75.0851" y2="111.799" gradientUnits="userSpaceOnUse">
<stop stop-color="#BED3FF"/>
<stop offset="1" stop-color="#5689F7"/>
</linearGradient>
<linearGradient id="paint10_linear" x1="19.3408" y1="28.1065" x2="19.2621" y2="23.6648" gradientUnits="userSpaceOnUse">
<stop stop-color="white"/>
<stop offset="1" stop-color="#E7E7E7"/>
</linearGradient>
<linearGradient id="paint11_linear" x1="183.044" y1="101.5" x2="182.756" y2="93.5587" gradientUnits="userSpaceOnUse">
<stop stop-color="white"/>
<stop offset="1" stop-color="#E7E7E7"/>
</linearGradient>
</defs>
</svg>
