<svg width="21" height="21" viewBox="0 0 21 21" fill="none" xmlns="http://www.w3.org/2000/svg">
<path d="M3.08834 14.4998L6.11845 17.5299C9.43483 20.8463 14.5393 21.5465 18.6091 19.3673C18.7277 19.3107 19.2672 19.0042 19.7517 18.6575C20.8012 17.9065 20.9153 16.37 19.9959 15.4506L17.1033 12.558C16.281 11.7357 14.9427 11.7356 14.1202 12.558L13.1258 13.5524C12.3015 14.3767 10.9672 14.3768 10.1427 13.5524L7.0658 10.4755C6.24154 9.65125 6.24126 8.31723 7.06556 7.49264C7.06561 7.4926 7.06566 7.4926 7.06566 7.49255L7.06589 7.49231L8.06016 6.49804C8.88264 5.67557 8.88264 4.33737 8.06016 3.5149L5.16768 0.622368C4.24859 -0.296715 2.71193 -0.183371 1.96075 0.866495C-0.993891 4.9956 -0.602342 10.8092 3.08834 14.4998ZM16.109 13.5524L19.0015 16.4449C19.3045 16.748 19.2793 17.2664 18.9334 17.5139C18.7659 17.6337 18.5951 17.7471 18.4216 17.854L14.6173 14.0497L15.1146 13.5524C15.3888 13.2782 15.8348 13.2783 16.109 13.5524ZM9.14837 14.5468C10.3618 15.7602 12.2218 15.8916 13.5732 14.9944L17.1017 18.5229C13.7518 19.8871 9.74617 19.169 7.11272 16.5355L4.08261 13.5054C1.4492 10.872 0.731025 6.86634 2.09528 3.51649L5.62373 7.04494C4.72747 8.3949 4.85661 10.255 6.07143 11.4698L9.14837 14.5468ZM4.17331 1.61678L7.06584 4.50931C7.34063 4.78414 7.34067 5.22889 7.06584 5.50368L6.56854 6.00098L2.76424 2.19667C2.87116 2.02309 2.98451 1.85238 3.10437 1.68484C3.35149 1.33956 3.86989 1.31336 4.17331 1.61678Z" fill="white"/>
</svg>
