<svg width="56" height="144" viewBox="0 0 56 144" fill="none" xmlns="http://www.w3.org/2000/svg">
<path d="M33.1371 2.15476C33.1371 2.15476 35.8596 0.26935 36.4604 0.161612C37.0613 0.0538743 42.3031 0.97379 44.346 5.19214C43.8736 8.15493 42.9993 10.5003 42.9993 10.5003L33.1413 2.34123" fill="url(#paint0_linear)"/>
<path d="M46.8654 12.8043C46.4137 16.8071 40.8694 18.6594 34.4797 16.9439C28.09 15.2284 23.2749 10.5915 23.7225 6.58862C24.1741 2.58574 29.7185 0.733482 36.1082 2.449C42.4979 4.16866 47.3129 8.80554 46.8654 12.8043Z" fill="url(#paint1_linear)"/>
<path d="M17.2955 25.679C17.2955 25.679 17.4074 25.7163 17.1463 25.4552C16.8853 25.1942 16.0441 25.2646 15.6214 25.9939C15.1987 26.7232 14.2167 30.6308 13.6573 31.3684C13.0979 32.106 13.3092 33.3491 14.1172 33.3988C14.9294 33.4486 16.7485 32.7814 17.5897 31.9361C18.4309 31.0907 17.2955 25.679 17.2955 25.679Z" fill="#0968B5"/>
<path d="M37.227 62.6454C37.3472 67.0378 34.6372 70.6802 31.173 70.7755C27.7088 70.8708 24.7999 67.3859 24.6797 62.9935C24.5595 58.6011 27.2695 54.9587 30.7337 54.8634C34.1979 54.764 37.1027 58.2489 37.227 62.6454Z" fill="#FDCEAE"/>
<path d="M33.2117 128.419L32.7434 131.556L37.6538 131.424L37.5792 128.734L33.2117 128.419Z" fill="#FDCEAE"/>
<path d="M22.3219 128.722C22.3219 128.722 22.3799 130.877 22.413 131.987C21.0788 133.276 17.424 133.562 16.5289 132.149C17.0096 130.719 17.1215 129.256 17.1215 129.256L22.3219 128.722Z" fill="#FDCEAE"/>
<path d="M22.5871 131.589C22.5871 131.589 22.5664 133.193 22.9103 134.034C23.2542 134.875 24.0457 136.628 19.8895 137.038C15.841 137.436 14.2415 137.967 11.4818 138.812C8.72205 139.661 4.78962 139.442 3.96915 136.794C3.31444 135.269 5.65152 134.382 7.25102 134.27C10.9845 134.014 15.3106 131.643 16.1435 130.86C17.0552 130.205 17.7306 131.212 17.6519 132.103C17.569 132.998 21.4351 132.878 22.5871 131.589Z" fill="#4E88E8"/>
<path d="M19.8522 135.77C15.8038 136.168 14.2001 136.699 11.4445 137.544C8.75935 138.373 4.96366 138.178 4.01059 135.721C3.83655 136.031 3.79512 136.392 3.96501 136.794C4.78962 139.442 8.72205 139.661 11.4777 138.812C14.2374 137.962 15.8369 137.436 19.8854 137.038C23.4904 136.682 23.3744 135.319 23.0553 134.415C22.786 135.016 21.949 135.563 19.8522 135.77Z" fill="#6DA3FD"/>
<path d="M34.4756 66.8307C34.4756 66.8307 34.9645 77.2854 31.1523 79.4112C30.5183 80.4595 24.2612 93.8936 24.8952 98.2943C26.3123 108.857 22.7943 125.792 22.989 129.406C20.3868 130.976 16.7651 129.779 16.7651 129.779C16.7651 129.779 15.7416 100.905 15.8908 97.6479C16.0938 93.2638 16.7527 86.3105 17.2872 83.6005C18.9779 75.0602 19.645 66.5282 20.2624 64.6925C23.6438 64.1497 25.7239 64.0005 25.7239 64.0005L34.4756 66.8307Z" fill="url(#paint2_linear)"/>
<path d="M29.329 66.2588C29.329 66.2588 28.235 75.9635 32.2462 77.8323C31.5335 74.451 32.2338 68.4965 32.5653 67.0006C31.6081 65.8527 29.329 66.2588 29.329 66.2588Z" fill="#84A9FA"/>
<path d="M18.2486 97.2293C18.4516 92.8452 19.4213 86.8865 19.9558 84.1723C21.5926 75.9138 25.0154 66.2133 25.7239 63.9963C24.92 64.0999 21.3771 64.5102 20.2625 64.6883C19.6409 66.524 18.9779 75.056 17.2872 83.5963C16.7485 86.3105 16.0938 93.2596 15.8908 97.6437C15.7375 100.901 16.7651 129.774 16.7651 129.774C16.7651 129.774 17.9295 130.156 19.4088 130.205C19.2182 127.885 18.1036 100.345 18.2486 97.2293Z" fill="#9DBAFD"/>
<path d="M44.462 62.9811C44.462 62.9811 46.6872 71.7741 44.5283 80.7578C42.3694 89.7415 41.5282 95.2196 41.3832 97.7017C41.2382 100.184 41.321 110.034 40.0655 114.086C38.8099 118.143 38.1386 129.547 38.1386 129.547C38.1386 129.547 33.8291 129.004 32.5321 129.227C32.8346 122.419 31.8608 113.726 32.8885 106.835C33.9161 99.9435 32.7103 82.8504 32.1426 79.8462C31.5749 76.8378 32.6606 65.1938 32.6606 65.1938L44.462 62.9811Z" fill="url(#paint3_linear)"/>
<path d="M35.5571 105.877C36.5847 98.9862 32.7103 82.8546 32.1426 79.8462C32.7103 82.8546 33.9161 99.9476 32.8885 106.835C31.8608 113.726 32.8346 122.419 32.5321 129.227C32.9465 129.157 33.6758 129.161 34.4714 129.207C34.7449 122.411 34.5501 112.623 35.5571 105.877Z" fill="#A5C1FF"/>
<path d="M32.2545 133.761C32.2545 133.761 32.1385 129.551 34.1938 129.153C35.6234 128.875 36.5972 128.933 37.3845 130.185C38.1759 131.436 39.3776 133.906 39.9702 134.834C40.5627 135.762 41.1553 138.485 40.3763 139.214C39.5931 139.943 38.5489 140.519 36.6345 140.503C34.8775 140.49 32.8056 139.541 32.7103 138.555C32.5363 136.835 32.3457 135.41 32.2545 133.761Z" fill="#4E88E8"/>
<path d="M40.4923 137.656C39.7091 138.385 38.6649 138.961 36.7505 138.945C34.9935 138.932 32.9216 137.983 32.8263 136.997C32.6606 135.277 32.47 133.852 32.3747 132.203C32.3747 132.203 32.3747 132.149 32.3747 132.058C32.2338 132.978 32.2545 133.761 32.2545 133.761C32.3457 135.41 32.5404 136.84 32.7062 138.555C32.8015 139.541 34.8775 140.49 36.6303 140.503C38.5489 140.519 39.589 139.943 40.3721 139.214C40.7285 138.878 40.7989 138.128 40.7119 137.32C40.6539 137.453 40.5835 137.569 40.4923 137.656Z" fill="#6DA3FD"/>
<path d="M26.5651 63.9714C26.5651 63.9714 34.4672 65.3803 37.9107 64.4355C40.1483 65.9314 39.3237 66.9301 39.3237 66.9301C39.3237 66.9301 32.8512 68.542 26.6355 66.5199C24.9697 65.1483 26.5651 63.9714 26.5651 63.9714Z" fill="#9FBDFE"/>
<path d="M35.0764 68.2022H35.0474L30.858 68.1939C30.6135 68.1939 30.3815 68.0986 30.2075 67.9246C30.0334 67.7505 29.9381 67.5185 29.9381 67.274L29.9423 65.0405C29.9423 64.5391 30.3359 64.133 30.8373 64.1206L35.0515 64.1289C35.296 64.1289 35.5281 64.2242 35.7021 64.3982C35.8761 64.5723 35.9714 64.8043 35.9714 65.053L35.9673 67.2864C35.9714 67.7837 35.5778 68.1856 35.0764 68.2022ZM30.8663 64.8582C30.7627 64.8623 30.6881 64.9411 30.6881 65.0364L30.684 67.2699C30.684 67.3362 30.7171 67.3776 30.7379 67.3983C30.7586 67.419 30.8 67.4522 30.8663 67.4522L35.0557 67.4605L35.0722 67.8293L35.0639 67.4605C35.1634 67.4563 35.238 67.3776 35.238 67.2823L35.2421 65.0488C35.2421 64.9825 35.209 64.9411 35.1883 64.9203C35.1675 64.8996 35.1261 64.8665 35.0598 64.8665L30.8663 64.8582Z" fill="#528BEB"/>
<path d="M39.2201 15.6718C39.2201 15.6718 38.4411 23.3419 39.7215 25.6209C38.093 27.3199 35.47 28.0533 35.47 28.0533C35.47 28.0533 32.0017 26.0726 31.6081 25.2811C31.2144 24.4855 39.2201 15.6718 39.2201 15.6718Z" fill="#FDCEAE"/>
<path d="M18.9447 26.5698C18.9447 26.5698 15.8203 26.2301 14.2167 24.5767C12.6131 22.9192 7.96374 13.5294 7.70683 11.9921C7.44992 10.4547 7.27174 6.56375 6.96096 5.51123C5.26616 5.77229 1.89313 9.24062 1.89313 9.24062C1.89313 9.24062 3.93186 11.2131 4.15977 12.6012C4.38767 13.9894 7.37533 24.7673 8.78421 27.9373C10.1931 31.1073 17.3577 32.3753 17.3577 32.3753L18.9447 26.5698Z" fill="#FDC29A"/>
<path d="M18.9447 26.5698C18.9447 26.5698 15.8203 26.2301 14.2167 24.5767C12.6131 22.9192 7.96374 13.5294 7.70683 11.9921C7.44992 10.4547 7.27174 6.56375 6.96096 5.51123C5.26616 5.77229 1.89313 9.24062 1.89313 9.24062C1.89313 9.24062 4.88493 11.3995 5.11283 12.7835C5.34074 14.1717 8.1585 23.9758 9.56738 27.15C10.9763 30.32 17.3618 32.3753 17.3618 32.3753L18.9447 26.5698Z" fill="#FDCEAE"/>
<path d="M3.89456 1.09812C3.89456 1.09812 11.6061 0.136763 12.5716 0.0165943C13.5371 -0.103575 13.5993 0.43926 13.7153 1.30945C13.8354 2.17964 14.1462 4.95596 14.1587 5.40349C14.1711 5.85102 14.2788 6.29854 12.1572 6.47258C10.0356 6.65076 3.42217 7.28062 3.42217 7.28062L2.15003 7.4588C2.15003 7.46294 -0.858344 1.57465 3.89456 1.09812Z" fill="url(#paint4_linear)"/>
<path d="M2.49811 2.14233C2.49811 2.14233 5.17084 1.40888 5.4982 1.35087C5.82555 1.29286 6.08661 0.389517 5.09211 0.277635C4.0976 0.161609 2.44838 0.352223 1.66521 1.0318C0.882041 1.71552 0.434517 4.2888 0.0657216 6.41869C-0.29893 8.54859 0.861326 9.31933 3.36002 10.9603C2.24949 9.43121 3.302 8.18808 5.0631 7.8773C6.8242 7.57066 7.81456 7.51679 8.01346 7.06512C8.21236 6.60931 7.47063 6.15349 6.33939 6.26123C5.20399 6.36897 2.96221 7.04026 2.49811 7.40491C2.47739 6.60102 3.79511 5.59823 4.18877 5.3496C4.58243 5.10098 6.74547 4.69074 7.49963 4.69074C8.2538 4.69489 8.17093 3.39789 7.36704 3.25286C6.559 3.10783 3.77854 3.23214 2.32408 4.47941C2.50226 4.07332 3.98987 3.25286 5.14184 3.07882C6.2938 2.90478 6.95681 3.00423 7.44577 2.78047C7.93473 2.55256 7.53279 1.64508 6.65431 1.54977C5.78826 1.45861 3.15283 1.76939 2.49811 2.14233Z" fill="#FFB39C"/>
<path d="M54.6432 43.5303C54.6432 43.5303 51.5147 33.7468 50.4746 32.0065C49.4345 30.2661 43.9523 28.3061 42.4026 27.5312C40.8569 26.7563 40.3141 25.8405 40.3141 25.8405C40.3141 25.8405 37.3472 28.6251 34.7449 28.074C32.1426 27.5188 30.0127 24.4441 30.0127 24.4441C30.0127 24.4441 28.1024 26.5118 26.8303 26.545C25.5582 26.5781 25.6535 25.3433 24.3565 25.8115C23.4324 26.143 21.6962 26.8723 21.1202 26.5574C20.5442 26.2425 18.7541 25.9649 17.1463 25.451C17.6187 29.7937 17.2043 31.3476 16.0068 32.5369C15.062 33.4734 14.1172 33.3988 14.1172 33.3988C14.1172 33.3988 18.6298 35.5784 19.2223 36.5522C19.8149 37.526 21.1948 41.2429 19.8895 45.2458C18.5842 49.2487 15.7954 66.3251 15.7954 66.3251C15.7954 66.3251 27.2405 68.2768 29.5818 66.9343C30.7171 62.9355 33.0004 59.4755 33.0004 59.4755L36.5723 68.0199C36.5723 68.0199 45.1209 64.8541 46.5836 63.0225C45.0629 59.289 43.7451 56.0196 44.4537 54.2999C45.1623 52.5803 44.7396 50.9849 44.5117 49.576C44.2838 48.1671 46.2355 43.58 46.2355 43.58L47.3709 47.1353C47.3751 47.1312 53.2136 44.0068 54.6432 43.5303Z" fill="url(#paint5_linear)"/>
<path d="M54.6432 43.5303C54.6432 43.5303 51.5147 33.7468 50.4746 32.0065C49.4345 30.2661 43.9523 28.3061 42.4026 27.5312C40.8569 26.7563 40.3141 25.8405 40.3141 25.8405C40.3141 25.8405 37.3472 28.6251 34.7449 28.074C32.1426 27.5188 30.0127 24.4441 30.0127 24.4441C30.0127 24.4441 28.1024 26.5118 26.8303 26.545C25.5582 26.5781 25.6535 25.3433 24.3565 25.8115C23.4324 26.143 21.6962 26.8723 21.1202 26.5574C20.5442 26.2425 18.7541 25.9649 17.1463 25.451C17.6187 29.7937 17.2043 31.3476 16.0068 32.5369C15.062 33.4734 14.1172 33.3988 14.1172 33.3988C14.1172 33.3988 18.6298 35.5784 19.2223 36.5522C19.8149 37.526 21.1948 41.2429 19.8895 45.2458C18.5842 49.2487 15.7954 66.3251 15.7954 66.3251C15.7954 66.3251 27.2405 68.2768 29.5818 66.9343C30.7171 62.9355 33.0004 59.4755 33.0004 59.4755L36.5723 68.0199C36.5723 68.0199 45.1209 64.8541 46.5836 63.0225C45.0629 59.289 43.7451 56.0196 44.4537 54.2999C45.1623 52.5803 44.8101 50.7611 45.1706 49.3771C46.538 44.1311 47.0063 38.6282 47.0063 38.6282L49.3102 46.5428C49.3144 46.5345 53.2136 44.0068 54.6432 43.5303Z" fill="url(#paint6_linear)"/>
<path d="M15.7954 66.3252C15.7954 66.3252 17.54 66.6235 19.7983 66.9053C20.1298 63.7892 21.808 48.3537 22.9807 44.761C24.286 40.7581 20.5649 37.5964 19.9724 36.6185C19.3798 35.6447 14.1131 33.3988 14.1131 33.3988C14.1131 33.3988 18.6256 35.5784 19.2182 36.5522C19.8107 37.526 21.1906 41.2429 19.8853 45.2458C18.58 49.2487 15.7954 66.3252 15.7954 66.3252Z" fill="url(#paint7_linear)"/>
<path d="M53.023 44.2347C53.023 44.2347 55.3311 51.42 55.6005 53.467C55.8698 55.5141 54.0963 58.0418 52.2772 61.4189C50.4581 64.8002 46.6582 68.3017 45.9952 69.8805C45.3364 71.6706 45.3529 72.2342 45.3529 72.2342C45.3529 72.2342 42.5683 70.6803 41.2879 68.6622C43.4468 67.3984 45.3364 65.4964 46.0822 63.4991C46.8281 61.4977 48.9166 55.0665 49.8075 54.0513C50.6984 53.0361 48.5809 46.4724 48.5809 46.4724C48.5809 46.4724 50.4498 45.4281 51.0921 45.1174C51.5727 44.8812 53.023 44.2347 53.023 44.2347Z" fill="#FDC29A"/>
<path d="M53.023 44.2347C53.023 44.2347 55.3311 51.42 55.6005 53.467C55.8698 55.5141 54.0963 58.0418 52.2772 61.4189C50.4581 64.8002 46.6582 68.3017 45.9952 69.8805C45.3364 71.6706 45.3529 72.2342 45.3529 72.2342C45.3529 72.2342 42.5683 70.6803 41.2879 68.6622C43.4468 67.3984 45.701 66.6152 46.4469 64.6138C47.1928 62.6123 50.2177 56.1439 51.1086 55.1246C51.9995 54.1093 49.7039 45.9005 49.7039 45.9005C49.7039 45.9005 50.4498 45.4281 51.0921 45.1132C51.5727 44.8812 53.023 44.2347 53.023 44.2347Z" fill="#FDCEAE"/>
<path d="M37.5916 31.3932L35.1966 28.3433L32.2048 31.2605C32.2048 31.2605 28.898 26.0643 30.166 24.1374C32.1094 25.8281 35.47 28.0533 35.47 28.0533C35.47 28.0533 39.5019 26.0974 39.2326 23.8888C41.0185 25.4924 40.9481 26.4372 40.9481 26.4372C40.9481 26.4372 40.0158 30.2412 37.5916 31.3932Z" fill="url(#paint8_linear)"/>
<path d="M30.9078 13.0155L26.7557 11.9712L26.8179 11.6978L31.4837 12.7793L30.9078 13.0155Z" fill="#424B96"/>
<path d="M35.93 5.56082C35.93 5.56082 31.5252 5.04699 30.1495 6.5719C28.7737 8.09681 27.9781 9.98222 28.2723 12.0541C27.8455 13.6702 28.3345 13.753 28.3428 16.0197C28.3511 18.2863 28.4257 21.0212 28.7323 21.9121C29.0389 22.7989 32.5943 23.2215 34.0736 22.1442C35.5529 21.0626 38.1552 19.4341 38.3707 17.0681C39.6925 18.825 41.2672 15.9948 41.4702 14.7144C41.6691 13.434 40.0199 11.8262 38.9715 13.0818C39.5682 10.7488 39.8169 5.44894 35.93 5.56082Z" fill="#FDC29A"/>
<path d="M35.8347 5.55259C35.18 5.48629 31.405 5.17965 30.1536 6.57196C28.7778 8.09686 27.9822 9.98228 28.2765 12.0542C27.8496 13.6702 28.3386 13.7531 28.3469 16.0197C28.3552 18.2864 28.4298 21.0213 28.7364 21.9122C28.9519 22.5296 30.7213 22.9191 32.2835 22.7409C34.0943 19.9439 35.3499 16.6579 36.1952 13.7904C37.1275 10.9809 36.8872 8.17974 35.8347 5.55259Z" fill="#FDCEAE"/>
<path d="M29.5445 16.8236C29.5445 16.8236 31.8235 16.9604 32.4368 16.8236C33.0501 16.6869 33.2573 16.8858 33.2573 16.8858C33.2573 16.8858 32.1509 17.9424 30.6509 17.7891C29.1467 17.6358 29.4782 16.7781 29.4782 16.7781" fill="#FFFAF0"/>
<path d="M32.1177 10.0237C32.1177 10.0237 32.4078 9.14519 33.0584 9.27779C33.7131 9.41039 35.18 9.65902 35.7394 10.6079C35.0847 10.3345 34.2684 10.0693 33.6426 10.0071C33.0211 9.93665 32.1177 10.0237 32.1177 10.0237Z" fill="#424B96"/>
<path d="M30.2075 9.91179C30.2075 9.91179 29.9837 9.04575 29.5735 9.20735C29.1632 9.36896 28.235 9.68389 27.9201 10.6577C28.3262 10.3552 28.8359 10.0527 29.2337 9.96152C29.6273 9.87036 30.2075 9.91179 30.2075 9.91179Z" fill="#424B96"/>
<path d="M37.7243 8.86346C37.7243 8.86346 38.0682 7.20181 37.4508 6.72113C36.8375 6.24045 34.633 6.05398 33.4023 6.26532C32.1675 6.47665 30.3732 6.83716 30.1785 6.29847C31.0114 4.38405 33.8954 3.70447 35.959 4.06912C38.0226 4.43792 43.5587 6.09128 41.4785 14.1178C41.1263 13.4175 40.8694 12.9243 40.339 12.7296C39.8086 12.5348 38.8472 12.8663 38.6483 14.1965C37.9024 14.1799 37.4964 13.9976 37.4964 13.9976C37.4964 13.9976 38.0102 12.4644 38.0392 11.7807C38.0682 11.0969 37.1814 10.6287 37.7243 8.86346Z" fill="#424B96"/>
<path d="M37.7408 13.2144C37.7408 13.2144 36.9742 15.0956 36.8458 16.144C36.7173 17.1924 34.7822 17.1219 34.3429 17.8761C33.9037 18.6303 33.6178 19.8278 32.9133 19.9687C32.2089 20.1137 30.9865 18.3899 30.8373 18.0584C30.021 19.7035 29.1011 19.8071 28.8856 19.0156C28.6701 18.2242 28.3676 17.9507 28.3676 17.9507C28.3676 17.9507 27.9118 21.2906 27.5844 22.2229C27.2571 23.1511 26.4739 25.6539 30.713 25.6291C34.9521 25.6084 38.1676 22.9191 39.013 21.8127C39.8583 20.7021 39.0875 17.3954 38.8596 16.8112C38.6317 16.2269 38.5489 14.615 38.7478 13.7738C38.9467 12.9409 37.7408 13.2144 37.7408 13.2144Z" fill="#424B96"/>
<path d="M30.8663 15.7959C30.8663 15.7959 30.3981 15.4727 30.0832 15.713C29.7724 15.9534 29.1715 16.6951 28.9726 17.1053C28.7696 17.5197 28.7903 19.43 28.7903 19.43L29.0845 19.7781C29.0845 19.7781 29.242 17.5156 29.3911 17.1716C29.5403 16.8318 30.6881 16.9893 30.8912 16.6081C31.4713 17.0722 32.4658 16.9935 33.0004 17.0846C33.5349 17.1758 33.6592 18.7297 33.4645 19.9562C33.9617 19.977 34.1026 19.4134 34.1026 19.4134C34.1026 19.4134 33.8333 17.4327 33.7504 16.9935C33.6675 16.5542 32.2835 15.7959 31.8567 15.684C31.4257 15.568 30.9533 15.7213 30.8663 15.7959Z" fill="#424B96"/>
<path d="M28.6411 14.0142C27.5679 14.0432 26.6687 13.1937 26.6397 12.1204C26.6107 11.0472 27.4602 10.1522 28.5334 10.119C29.6066 10.09 30.5017 10.9395 30.5348 12.0127C30.5638 13.0859 29.7144 13.9851 28.6411 14.0142ZM28.5417 10.4049C27.6259 10.4298 26.9008 11.1964 26.9256 12.1122C26.9505 13.0279 27.7171 13.7531 28.637 13.7282C29.5528 13.7034 30.2779 12.9368 30.2531 12.0169C30.2241 11.1052 29.4575 10.3801 28.5417 10.4049Z" fill="#424B96"/>
<path d="M33.4603 13.8816C32.3871 13.9106 31.492 13.0611 31.4589 11.9879C31.4299 10.9146 32.2793 10.0196 33.3526 9.98644C34.4258 9.95743 35.325 10.8069 35.354 11.8801C35.383 12.9534 34.5336 13.8526 33.4603 13.8816ZM33.3609 10.2724C32.4451 10.2972 31.7199 11.0638 31.7448 11.9796C31.7697 12.8954 32.5363 13.6205 33.452 13.5957C34.3678 13.5708 35.093 12.8042 35.0681 11.8843C35.0432 10.9727 34.2766 10.2475 33.3609 10.2724Z" fill="#424B96"/>
<path d="M31.6371 11.5652C30.9824 11.3829 30.3442 11.5984 30.3359 11.6025L30.2406 11.3332C30.2696 11.3249 30.9699 11.0846 31.7117 11.2917L31.6371 11.5652Z" fill="#424B96"/>
<path d="M39.3279 12.9244L35.1758 11.8802L35.238 11.6067L39.9039 12.6882L39.3279 12.9244Z" fill="#424B96"/>
<path d="M35.3457 33.2206C35.354 33.5273 35.1137 33.7842 34.807 33.7925C34.5004 33.8007 34.2435 33.5604 34.2352 33.2496C34.2269 32.943 34.4672 32.6861 34.778 32.6778C35.0847 32.6736 35.3374 32.914 35.3457 33.2206Z" fill="url(#paint9_linear)"/>
<path d="M34.3927 38.9681C34.4009 39.2747 34.1606 39.5316 33.854 39.5399C33.5473 39.5482 33.2904 39.3078 33.2821 38.9971C33.2738 38.6904 33.5142 38.4335 33.825 38.4252C34.1275 38.4211 34.3844 38.6614 34.3927 38.9681Z" fill="url(#paint10_linear)"/>
<path d="M33.9079 46.2113C33.9161 46.5179 33.6758 46.7748 33.3692 46.7831C33.0625 46.7914 32.8056 46.5511 32.7973 46.2444C32.789 45.9378 33.0294 45.6809 33.3402 45.6726C33.6427 45.6643 33.8996 45.9046 33.9079 46.2113Z" fill="url(#paint11_linear)"/>
<path d="M33.5142 52.1328C33.5225 52.4394 33.2821 52.6963 32.9714 52.7046C32.6647 52.7129 32.4078 52.4726 32.3995 52.1659C32.3912 51.8593 32.6316 51.6024 32.9424 51.5941C33.249 51.5858 33.5059 51.8261 33.5142 52.1328Z" fill="url(#paint12_linear)"/>
<path d="M33.2904 58.1164C33.2987 58.423 33.0584 58.6799 32.7476 58.6882C32.4409 58.6965 32.184 58.4562 32.1757 58.1454C32.1675 57.8387 32.4078 57.5818 32.7186 57.5735C33.0294 57.5694 33.2821 57.8097 33.2904 58.1164Z" fill="url(#paint13_linear)"/>
<path d="M29.474 11.6895C29.4823 11.9506 29.3041 12.1702 29.0804 12.1743C28.8566 12.1826 28.6701 11.9713 28.6618 11.7102C28.6536 11.4492 28.8317 11.2295 29.0555 11.2254C29.2793 11.2213 29.4699 11.4284 29.474 11.6895Z" fill="#424B96"/>
<path d="M29.0638 11.474C29.0638 11.5237 29.0307 11.5693 28.9892 11.5693C28.9436 11.5693 28.9105 11.532 28.9063 11.4782C28.9063 11.4284 28.9395 11.3829 28.9851 11.3829C29.0265 11.3787 29.0638 11.4201 29.0638 11.474Z" fill="#F9F9F9"/>
<path d="M33.6924 11.6481C33.7007 11.9092 33.5225 12.1288 33.2987 12.1329C33.075 12.1412 32.8885 11.934 32.8802 11.6688C32.8719 11.4078 33.0501 11.1882 33.2739 11.184C33.4976 11.1799 33.6841 11.3871 33.6924 11.6481Z" fill="#424B96"/>
<path d="M33.278 11.4326C33.278 11.4823 33.2449 11.5279 33.2034 11.5279C33.1578 11.5279 33.1247 11.4906 33.1205 11.4367C33.1205 11.387 33.1537 11.3414 33.1951 11.3414C33.2407 11.3414 33.278 11.3787 33.278 11.4326Z" fill="#F9F9F9"/>
<defs>
<linearGradient id="paint0_linear" x1="37.9101" y1="2.37315" x2="40.3703" y2="10.7281" gradientUnits="userSpaceOnUse">
<stop stop-color="#457CD9"/>
<stop offset="1" stop-color="#548DED"/>
</linearGradient>
<linearGradient id="paint1_linear" x1="33.5729" y1="5.19322" x2="36.4403" y2="18.4136" gradientUnits="userSpaceOnUse">
<stop stop-color="#6197F2"/>
<stop offset="1" stop-color="#548DED"/>
</linearGradient>
<linearGradient id="paint2_linear" x1="32.6505" y1="81.6599" x2="12.6785" y2="83.8126" gradientUnits="userSpaceOnUse">
<stop stop-color="#7BA3F9"/>
<stop offset="1" stop-color="#B1CAFF"/>
</linearGradient>
<linearGradient id="paint3_linear" x1="44.1337" y1="80.734" x2="29.5811" y2="81.8646" gradientUnits="userSpaceOnUse">
<stop stop-color="#91B3FD"/>
<stop offset="1" stop-color="#B1CAFF"/>
</linearGradient>
<linearGradient id="paint4_linear" x1="6.72634" y1="1.60013" x2="7.88944" y2="7.93156" gradientUnits="userSpaceOnUse">
<stop stop-color="#6197F2"/>
<stop offset="1" stop-color="#548DED"/>
</linearGradient>
<linearGradient id="paint5_linear" x1="31.3739" y1="33.7924" x2="43.1091" y2="68.0049" gradientUnits="userSpaceOnUse">
<stop stop-color="#6197F2"/>
<stop offset="1" stop-color="#548DED"/>
</linearGradient>
<linearGradient id="paint6_linear" x1="31.3739" y1="33.7924" x2="43.1091" y2="68.0049" gradientUnits="userSpaceOnUse">
<stop stop-color="#407ADB"/>
<stop offset="1" stop-color="#548DED"/>
</linearGradient>
<linearGradient id="paint7_linear" x1="18.0065" y1="40.5869" x2="32.53" y2="53.0108" gradientUnits="userSpaceOnUse">
<stop stop-color="#6197F2"/>
<stop offset="1" stop-color="#548DED"/>
</linearGradient>
<linearGradient id="paint8_linear" x1="34.5911" y1="25.4987" x2="35.9513" y2="31.7897" gradientUnits="userSpaceOnUse">
<stop stop-color="#6197F2"/>
<stop offset="1" stop-color="#548DED"/>
</linearGradient>
<linearGradient id="paint9_linear" x1="34.708" y1="32.9169" x2="34.9921" y2="33.8043" gradientUnits="userSpaceOnUse">
<stop stop-color="#6197F2"/>
<stop offset="1" stop-color="#548DED"/>
</linearGradient>
<linearGradient id="paint10_linear" x1="33.755" y1="38.6644" x2="34.0391" y2="39.5518" gradientUnits="userSpaceOnUse">
<stop stop-color="#6197F2"/>
<stop offset="1" stop-color="#548DED"/>
</linearGradient>
<linearGradient id="paint11_linear" x1="33.2702" y1="45.9107" x2="33.5524" y2="46.7955" gradientUnits="userSpaceOnUse">
<stop stop-color="#6197F2"/>
<stop offset="1" stop-color="#548DED"/>
</linearGradient>
<linearGradient id="paint12_linear" x1="32.8741" y1="51.8322" x2="33.1555" y2="52.7176" gradientUnits="userSpaceOnUse">
<stop stop-color="#6197F2"/>
<stop offset="1" stop-color="#548DED"/>
</linearGradient>
<linearGradient id="paint13_linear" x1="32.6504" y1="57.8127" x2="32.9336" y2="58.7007" gradientUnits="userSpaceOnUse">
<stop stop-color="#6197F2"/>
<stop offset="1" stop-color="#548DED"/>
</linearGradient>
</defs>
</svg>
