<svg width="139" height="125" viewBox="0 0 139 125" fill="none" xmlns="http://www.w3.org/2000/svg">
<path d="M57.8329 116.635L70.7199 109.64C72.0498 108.919 72.7129 107.978 72.7129 107.034C72.7129 106.09 72.7202 105.351 72.7202 105.351L60.5911 98.8899C59.8842 98.5068 59.3085 97.573 59.3085 96.8034V81.887L36.7955 94.0979V109.014C36.7955 109.784 37.3712 110.718 38.078 111.101L48.2105 116.638C50.8666 118.075 55.1768 118.075 57.8329 116.635Z" fill="#8BAFFF"/>
<path d="M42.2024 111.651V113.327L38.078 111.094C37.3748 110.711 36.7955 109.78 36.7955 109.007V94.0908L41.0839 91.7683C41.1713 92.791 41.2697 93.8479 41.3572 94.8775L38.3513 96.5124V108.166C38.3513 108.939 38.9233 109.869 39.6338 110.252L42.2024 111.651Z" fill="#263239"/>
<path d="M38.3513 108.173C38.3513 108.942 38.9269 109.876 39.6338 110.259L48.2105 114.952C50.8666 116.392 55.1768 116.392 57.8329 114.952L70.7272 107.957C73.3833 106.517 73.3833 104.184 70.7272 102.744L62.1431 98.0482C61.4363 97.6651 60.8606 96.7313 60.8606 95.9617V84.3049L38.3476 96.5159V108.173H38.3513Z" fill="url(#paint0_linear)"/>
<path opacity="0.15" d="M64.7592 99.4643L62.1468 98.0448C61.4363 97.6617 60.8643 96.7279 60.8643 95.9583V84.3015L38.3513 96.5124V108.169C38.3513 108.939 38.927 109.873 39.6338 110.256L42.2025 111.648L64.7592 99.4643Z" fill="black"/>
<path d="M72.7165 105.347C72.7165 105.347 72.7165 106.083 72.7165 107.03C72.7165 107.974 72.0498 108.915 70.7235 109.637L57.8329 116.628C56.5577 117.322 54.9072 117.671 53.2422 117.699V116.023C54.9072 116.002 56.5614 115.639 57.8329 114.952L70.7235 107.954C72.0498 107.239 72.7165 106.295 72.7165 105.347Z" fill="#7FA7FF"/>
<path d="M2.2044 124.266C3.03511 124.717 4.42692 124.694 5.31228 124.211C16.3812 118.212 81.3078 83.0225 92.3731 77.0265C93.2584 76.5476 93.9762 75.3778 93.9762 74.4201V2.87848C93.9762 1.91734 93.3022 0.77492 92.4714 0.323424C91.6407 -0.128072 90.2489 -0.104129 89.3636 0.378151L2.30277 47.5663C1.41741 48.0452 0.699646 49.215 0.699646 50.1727V121.711C0.699646 122.672 1.37369 123.814 2.2044 124.266Z" fill="url(#paint1_linear)"/>
<path d="M5.31228 124.208L92.3731 77.023C93.2584 76.5442 93.9762 75.3744 93.9762 74.4167V2.87848C93.9762 1.91734 93.2584 1.53083 92.3731 2.00969L5.31228 49.1945C4.42692 49.6733 3.70915 50.8431 3.70915 51.8008V123.339C3.70915 124.3 4.42692 124.69 5.31228 124.208Z" fill="url(#paint2_linear)"/>
<path d="M6.71866 113.888V52.7381C6.71866 52.1635 7.14859 51.4623 7.68053 51.175L90.0048 6.5555C90.5367 6.26819 90.9667 6.50078 90.9667 7.07541L90.9703 68.2258C90.9703 68.8004 90.5404 69.5016 90.0084 69.7889L7.68053 114.412C7.14859 114.699 6.71866 114.467 6.71866 113.888Z" fill="#5DBDB0"/>
<path d="M6.71866 113.888V52.7381C6.71866 52.1635 7.14859 51.4623 7.68053 51.175L90.0048 6.5555C90.5367 6.26819 90.9667 6.50078 90.9667 7.07541L90.9703 68.2258C90.9703 68.8004 90.5404 69.5016 90.0084 69.7889L7.68053 114.412C7.14859 114.699 6.71866 114.467 6.71866 113.888Z" fill="url(#paint3_linear)"/>
<path d="M48.6769 97.72C48.502 97.72 48.338 97.6824 48.1959 97.6037C47.8535 97.419 47.664 97.0394 47.664 96.54C47.664 95.5686 48.3635 94.4296 49.2598 93.9439C49.7226 93.6942 50.1634 93.66 50.5059 93.8447C50.8484 94.0294 51.0379 94.409 51.0379 94.9084C51.0379 95.8798 50.3383 97.0188 49.442 97.5045C49.176 97.6482 48.9174 97.72 48.6769 97.72ZM50.0213 94.0704C49.8464 94.0704 49.6497 94.1286 49.442 94.2415C48.6623 94.6622 48.0283 95.6951 48.0283 96.54C48.0283 96.9128 48.1522 97.183 48.3781 97.3061C48.604 97.4293 48.9174 97.3916 49.2598 97.2069C50.0395 96.7828 50.6735 95.7533 50.6735 94.9084C50.6735 94.5356 50.5496 94.2654 50.3237 94.1423C50.2363 94.0944 50.1343 94.0704 50.0213 94.0704Z" fill="#5DBDB0"/>
<path d="M105.267 18.0616L20.48 63.9638V122.627C20.48 123.407 21.38 123.9 22.1014 123.51L23.6134 122.692L103.686 79.3488C104.557 78.8768 105.267 77.7275 105.267 76.7801V18.0616Z" fill="url(#paint4_linear)"/>
<path d="M104.903 18.6534V76.7767C104.903 77.5976 104.262 78.6374 103.504 79.0513L23.4312 122.395L21.9192 123.212C21.8062 123.274 21.6897 123.305 21.5658 123.305C21.3836 123.305 21.1978 123.236 21.063 123.113C20.9209 122.987 20.8444 122.816 20.8444 122.627V64.1587L104.903 18.6534ZM105.267 18.0616L20.48 63.9638V122.627C20.48 123.219 20.9974 123.647 21.5658 123.647C21.7443 123.647 21.9301 123.602 22.1014 123.51L23.6134 122.692L103.686 79.3488C104.557 78.8768 105.267 77.7275 105.267 76.7801V18.0616Z" fill="#E0E0E0"/>
<path opacity="0.8" d="M103.256 16.9741L18.4615 62.8694L20.48 63.9639L105.267 18.0618L103.256 16.9741Z" fill="#455A64"/>
<path d="M21.0484 123.524C21.0484 123.524 20.48 123.264 20.48 122.627V65.6534C20.48 65.1848 20.48 63.9637 20.48 63.9637L18.4652 62.8726L18.4615 121.211C18.4615 121.283 18.4652 121.355 18.4761 121.427C18.549 121.909 18.8514 122.337 19.2995 122.576L20.9646 123.479L21.0484 123.524Z" fill="#EBEBEB"/>
<path d="M18.4616 62.8967V58.9392C18.4616 58.4672 18.815 57.8926 19.2486 57.6531L102.469 12.613C102.903 12.3736 103.61 12.3736 104.043 12.6096L104.477 12.8456C104.914 13.0816 105.267 13.6562 105.267 14.1282V18.0925L20.48 63.9878L18.4616 62.8967Z" fill="#5DBDB0"/>
<path d="M18.4616 62.8967V58.9392C18.4616 58.4672 18.815 57.8926 19.2486 57.6531L102.469 12.613C102.903 12.3736 103.61 12.3736 104.043 12.6096L104.477 12.8456C104.914 13.0816 105.267 13.6562 105.267 14.1282V18.0925L20.48 63.9878L18.4616 62.8967Z" fill="#B3CAFE"/>
<path d="M20.48 60.0304C20.48 59.5584 20.8334 58.9838 21.267 58.7444L104.48 13.7042C104.914 13.4648 105.267 13.6563 105.267 14.1283V18.0926L20.48 63.9879V60.0304Z" fill="#5DBDB0"/>
<path d="M20.48 60.0304C20.48 59.5584 20.8334 58.9838 21.267 58.7444L104.48 13.7042C104.914 13.4648 105.267 13.6563 105.267 14.1283V18.0926L20.48 63.9879V60.0304Z" fill="url(#paint5_linear)"/>
<path d="M20.7095 59.2984C20.5674 59.531 20.48 59.7944 20.48 60.0304V63.9878L18.4652 62.8967V58.9358C18.4652 58.6998 18.5526 58.4399 18.6947 58.2073L20.7095 59.2984Z" fill="#5DBDB0"/>
<path d="M20.7095 59.2984C20.5674 59.531 20.48 59.7944 20.48 60.0304V63.9878L18.4652 62.8967V58.9358C18.4652 58.6998 18.5526 58.4399 18.6947 58.2073L20.7095 59.2984Z" fill="#B3CAFE"/>
<path d="M101.566 17.9148C101.566 18.3595 101.897 18.5373 102.305 18.315C102.713 18.0927 103.045 17.5557 103.045 17.111C103.045 16.6664 102.713 16.4885 102.305 16.7108C101.897 16.9332 101.566 17.4702 101.566 17.9148Z" fill="#FBFBFB"/>
<path d="M98.607 19.5188C98.607 19.9635 98.9386 20.1413 99.3466 19.919C99.7547 19.6967 100.086 19.1597 100.086 18.715C100.086 18.2704 99.7547 18.0925 99.3466 18.3148C98.9386 18.5372 98.607 19.0742 98.607 19.5188Z" fill="#FBFBFB"/>
<path d="M95.6449 21.1229C95.6449 21.5676 95.9764 21.7455 96.3845 21.5231C96.7926 21.3008 97.1241 20.7638 97.1241 20.3191C97.1241 19.8745 96.7926 19.6966 96.3845 19.919C95.9764 20.1413 95.6449 20.6783 95.6449 21.1229Z" fill="#FBFBFB"/>
<path d="M20.48 63.9913V122.631C20.48 123.411 21.38 123.903 22.1014 123.514L23.6134 122.696L42.1405 112.667V52.2627L20.48 63.9913Z" fill="url(#paint6_linear)"/>
<path d="M43.6197 53.2546V110.208L103.489 77.7586V20.8051L43.6197 53.2546Z" fill="url(#paint7_linear)"/>
<path d="M37.1817 59.1449L23.362 66.6424C23.107 66.7827 22.8993 67.1179 22.8993 67.3949V68.746C22.8993 69.0231 23.107 69.1359 23.362 68.9957L37.1817 61.4981C37.4368 61.3579 37.6444 61.0227 37.6444 60.7456V59.3946C37.6444 59.1209 37.4368 59.0081 37.1817 59.1449Z" fill="url(#paint8_linear)"/>
<path d="M37.1817 59.1449L23.362 66.6424C23.107 66.7827 22.8993 67.1179 22.8993 67.3949V68.746C22.8993 69.0231 23.107 69.1359 23.362 68.9957L37.1817 61.4981C37.4368 61.3579 37.6444 61.0227 37.6444 60.7456V59.3946C37.6444 59.1209 37.4368 59.0081 37.1817 59.1449Z" fill="url(#paint9_linear)"/>
<path d="M40.2568 59.6818L39.8487 59.3124C39.9289 59.1209 39.9799 58.9088 39.9799 58.7001C39.9799 58.3889 39.8706 58.1494 39.6738 58.0434C39.5281 57.9647 39.3496 57.9716 39.1783 58.0639C38.8213 58.2589 38.5371 58.8028 38.5371 59.3056C38.5371 59.6168 38.6464 59.8562 38.8431 59.9623C38.9123 59.9999 38.9852 60.017 39.0617 60.017C39.1528 60.017 39.2475 59.9931 39.3386 59.9418C39.4734 59.8699 39.5973 59.7468 39.6993 59.5929L40.0345 59.8939C40.0637 59.9212 40.1038 59.9349 40.1438 59.9349C40.1876 59.9349 40.2276 59.9178 40.2604 59.8904C40.326 59.8357 40.3224 59.7399 40.2568 59.6818ZM39.182 59.6852C39.1127 59.7228 39.0508 59.7297 39.0071 59.7057C38.9415 59.6681 38.8613 59.545 38.8613 59.309C38.8613 58.919 39.0799 58.4675 39.3423 58.3273C39.386 58.3034 39.4224 58.2931 39.4589 58.2931C39.4807 58.2931 39.4989 58.2965 39.5172 58.3068C39.5827 58.3444 39.6629 58.4676 39.6629 58.7036C39.6592 59.0935 39.4406 59.5416 39.182 59.6852Z" fill="url(#paint10_linear)"/>
<path d="M23.2381 72.9598L22.9284 73.1274C22.9102 73.1376 22.8956 73.1274 22.8956 73.1034V72.3167C22.8956 72.2928 22.9102 72.2689 22.9284 72.2586L23.2381 72.091C23.2563 72.0807 23.2709 72.091 23.2709 72.1149V72.9016C23.2709 72.9222 23.2563 72.9495 23.2381 72.9598Z" fill="url(#paint11_linear)"/>
<path d="M23.7008 72.7067L23.3911 72.8743C23.3729 72.8846 23.3583 72.8743 23.3583 72.8504V72.0637C23.3583 72.0398 23.3729 72.0158 23.3911 72.0055L23.7008 71.8379C23.719 71.8277 23.7336 71.8379 23.7336 71.8619V72.6486C23.7336 72.6691 23.719 72.6965 23.7008 72.7067Z" fill="url(#paint12_linear)"/>
<path d="M24.1672 72.457L23.8575 72.6246C23.8393 72.6348 23.8247 72.6246 23.8247 72.6006V71.8139C23.8247 71.79 23.8393 71.7661 23.8575 71.7558L24.1672 71.5882C24.1854 71.5779 24.2 71.5882 24.2 71.6121V72.3988C24.2 72.4194 24.1854 72.4467 24.1672 72.457Z" fill="url(#paint13_linear)"/>
<path d="M23.2381 73.9757L22.9284 74.1433C22.9102 74.1535 22.8956 74.1433 22.8956 74.1193V73.3326C22.8956 73.3087 22.9102 73.2847 22.9284 73.2745L23.2381 73.1069C23.2563 73.0966 23.2709 73.1069 23.2709 73.1308V73.9175C23.2709 73.938 23.2563 73.9654 23.2381 73.9757Z" fill="url(#paint14_linear)"/>
<path d="M23.7008 73.7225L23.3911 73.8901C23.3729 73.9003 23.3583 73.8901 23.3583 73.8661V73.0794C23.3583 73.0555 23.3729 73.0316 23.3911 73.0213L23.7008 72.8537C23.719 72.8434 23.7336 72.8537 23.7336 72.8776V73.6643C23.7336 73.6849 23.719 73.7122 23.7008 73.7225Z" fill="url(#paint15_linear)"/>
<path d="M24.1672 73.4694L23.8575 73.637C23.8393 73.6473 23.8247 73.637 23.8247 73.6131V72.8264C23.8247 72.8024 23.8393 72.7785 23.8575 72.7682L24.1672 72.6006C24.1854 72.5904 24.2 72.6006 24.2 72.6246V73.4113C24.2 73.4352 24.1854 73.4626 24.1672 73.4694Z" fill="url(#paint16_linear)"/>
<path d="M23.2855 76.6574L22.9029 76.4385C22.8884 76.4316 22.8884 76.3974 22.9029 76.3735L23.2855 75.7407C23.3037 75.7099 23.3292 75.7133 23.3292 75.7475V76.5992C23.3329 76.6369 23.3037 76.6676 23.2855 76.6574Z" fill="url(#paint17_linear)"/>
<path d="M23.1252 76.175L23.628 75.9014V76.1271L23.1252 76.4008C23.0815 76.4247 23.0487 76.3939 23.0487 76.3323C23.0487 76.2673 23.0851 76.1989 23.1252 76.175Z" fill="url(#paint18_linear)"/>
<path d="M23.7227 75.8537L23.8939 75.7614V75.9837L23.7227 76.076V75.8537Z" fill="url(#paint19_linear)"/>
<path d="M24.3567 75.6212V76.4455C24.3567 76.5071 24.3203 76.5755 24.2802 76.5995C24.2365 76.6234 24.2037 76.5926 24.2037 76.531V75.8196L23.9923 75.9359V75.7101L24.2838 75.5528C24.3203 75.5289 24.3567 75.5596 24.3567 75.6212Z" fill="url(#paint20_linear)"/>
<path d="M23.4349 78.5075C23.0778 78.7367 22.8374 79.3729 22.9066 79.8415C22.9685 80.2725 23.2418 80.2554 23.2709 80.4538C23.2746 80.4743 23.2892 80.4845 23.3074 80.4743L23.6462 80.293C23.6644 80.2827 23.679 80.2588 23.6826 80.2349C23.7191 79.9715 24.0652 79.6534 24.0688 79.0172C24.0652 78.5246 23.7774 78.2852 23.4349 78.5075Z" fill="url(#paint21_linear)"/>
<path d="M23.6389 80.8061L23.311 80.9839C23.2891 80.9976 23.2709 80.9839 23.2709 80.9566V80.6727C23.2709 80.6453 23.2891 80.6111 23.311 80.6008L23.6389 80.423C23.6608 80.4093 23.679 80.423 23.679 80.4503V80.7342C23.679 80.7616 23.6608 80.7924 23.6389 80.8061Z" fill="url(#paint22_linear)"/>
<path d="M23.515 71.851C23.2126 72.0836 22.9685 72.5693 22.9211 73.0311C22.892 73.3013 22.9284 73.5202 23.0086 73.6776L22.8993 74.2146C22.892 74.259 22.9175 74.283 22.943 74.2556L23.2745 73.917C23.413 73.958 23.577 73.9204 23.7555 73.7836C24.0579 73.5476 24.302 73.0653 24.3494 72.6001C24.4222 71.851 24.0069 71.4714 23.515 71.851ZM23.6316 73.616C23.3292 73.7802 23.0814 73.5578 23.0814 73.1166C23.0814 72.6788 23.3292 72.1862 23.6316 72.0221C23.934 71.8579 24.1818 72.0802 24.1818 72.5214C24.1854 72.9593 23.9377 73.4518 23.6316 73.616Z" fill="url(#paint23_linear)"/>
<path d="M23.515 82.2325C23.2126 82.4651 22.9685 82.9508 22.9211 83.4126C22.892 83.6828 22.9284 83.9017 23.0086 84.059L22.8993 84.596C22.892 84.6405 22.9175 84.6644 22.943 84.6371L23.2746 84.2985C23.413 84.3395 23.577 84.3019 23.7555 84.1651C24.0579 83.9291 24.302 83.4468 24.3494 82.9816C24.4223 82.2325 24.0069 81.8528 23.515 82.2325ZM23.6316 83.9975C23.3292 84.1616 23.0815 83.9393 23.0815 83.4981C23.0815 83.0603 23.3292 82.5677 23.6316 82.4035C23.934 82.2394 24.1818 82.4617 24.1818 82.9029C24.1854 83.3407 23.9377 83.8333 23.6316 83.9975Z" fill="url(#paint24_linear)"/>
<path d="M23.9814 86.0357C23.9814 86.2683 23.8502 86.5282 23.6899 86.6137C23.5296 86.6992 23.3984 86.5829 23.3984 86.3504C23.3984 86.1178 23.5296 85.8578 23.6899 85.7723C23.8502 85.6868 23.9814 85.8031 23.9814 86.0357Z" fill="url(#paint25_linear)"/>
<path d="M24.4805 86.1179C24.4805 86.2719 24.3931 86.4463 24.2874 86.5044C24.1818 86.5626 24.0943 86.4839 24.0943 86.33C24.0943 86.1761 24.1818 86.0016 24.2874 85.9435C24.3931 85.8853 24.4805 85.964 24.4805 86.1179Z" fill="url(#paint26_linear)"/>
<path d="M24.0324 87.6945L23.3438 88.0673V87.2498C23.3438 87.0788 23.4567 86.877 23.5915 86.8052L23.781 86.7026C23.9195 86.6273 24.0288 86.706 24.0288 86.8804V87.6945H24.0324Z" fill="url(#paint27_linear)"/>
<path d="M24.3166 86.6L24.1271 86.7026V87.6432L24.4842 87.4482V86.7162C24.4842 86.5999 24.4077 86.5486 24.3166 86.6Z" fill="url(#paint28_linear)"/>
<path d="M22.8993 86.9762C22.8993 87.1302 22.9867 87.2088 23.0924 87.1507C23.198 87.0925 23.2855 86.9215 23.2855 86.7642C23.2855 86.6103 23.198 86.5316 23.0924 86.5897C22.9867 86.6479 22.8993 86.8223 22.8993 86.9762Z" fill="url(#paint29_linear)"/>
<path d="M23.0632 87.2774L23.2527 87.1748V88.1154L22.8956 88.3104V87.5784C22.8956 87.4621 22.9685 87.3287 23.0632 87.2774Z" fill="url(#paint30_linear)"/>
<path d="M26.2549 71.1128L34.3471 66.7278C34.5657 66.6081 34.7406 66.6936 34.7406 66.9159C34.7406 67.1382 34.5657 67.4119 34.3471 67.5316L26.2549 71.9166C26.0363 72.0363 25.8614 71.9508 25.8614 71.7285C25.8614 71.5061 26.0363 71.2325 26.2549 71.1128Z" fill="url(#paint31_linear)"/>
<path d="M26.2549 74.687L34.3471 70.302C34.5657 70.1823 34.7406 70.2678 34.7406 70.4901C34.7406 70.7125 34.5657 70.9861 34.3471 71.1058L26.2549 75.4908C26.0363 75.6105 25.8614 75.525 25.8614 75.3027C25.8614 75.0803 26.0363 74.8067 26.2549 74.687Z" fill="url(#paint32_linear)"/>
<path d="M26.2549 78.2648L34.3471 73.8798C34.5657 73.7601 34.7406 73.8456 34.7406 74.0679C34.7406 74.2902 34.5657 74.5639 34.3471 74.6836L26.2549 79.0686C26.0363 79.1883 25.8614 79.1028 25.8614 78.8804C25.8614 78.6581 26.0363 78.3811 26.2549 78.2648Z" fill="url(#paint33_linear)"/>
<path d="M26.2549 81.8391L34.3471 77.4541C34.5657 77.3344 34.7406 77.4199 34.7406 77.6422C34.7406 77.8646 34.5657 78.1382 34.3471 78.2579L26.2549 82.6429C26.0363 82.7626 25.8614 82.6771 25.8614 82.4548C25.8614 82.2324 26.0363 81.9554 26.2549 81.8391Z" fill="url(#paint34_linear)"/>
<path d="M26.2549 85.4136L34.3471 81.0286C34.5657 80.9089 34.7406 80.9944 34.7406 81.2167C34.7406 81.439 34.5657 81.7127 34.3471 81.8324L26.2549 86.2174C26.0363 86.3371 25.8614 86.2516 25.8614 86.0292C25.8614 85.8069 26.0363 85.5333 26.2549 85.4136Z" fill="url(#paint35_linear)"/>
<path d="M27.7342 88.3344L35.8263 83.9495C36.0449 83.8298 36.2198 83.9153 36.2198 84.1376C36.2198 84.3599 36.0449 84.6336 35.8263 84.7533L27.7342 89.1383C27.5156 89.258 27.3407 89.1725 27.3407 88.9501C27.3407 88.7278 27.5156 88.4507 27.7342 88.3344Z" fill="url(#paint36_linear)"/>
<path d="M27.7342 90.7494L35.8263 86.3644C36.0449 86.2447 36.2198 86.3302 36.2198 86.5525C36.2198 86.7748 36.0449 87.0485 35.8263 87.1682L27.7342 91.5532C27.5156 91.6729 27.3407 91.5874 27.3407 91.3651C27.3407 91.1427 27.5156 90.8657 27.7342 90.7494Z" fill="url(#paint37_linear)"/>
<path d="M27.7342 93.1642L35.8263 88.7792C36.0449 88.6595 36.2198 88.745 36.2198 88.9673C36.2198 89.1896 36.0449 89.4633 35.8263 89.583L27.7342 93.968C27.5156 94.0877 27.3407 94.0022 27.3407 93.7799C27.3407 93.5575 27.5156 93.2805 27.7342 93.1642Z" fill="url(#paint38_linear)"/>
<path d="M29.3082 94.6999L37.4003 90.315C37.6189 90.1952 37.7938 90.2807 37.7938 90.5031C37.7938 90.7254 37.6189 90.999 37.4003 91.1188L29.3082 95.5038C29.0896 95.6235 28.9147 95.5379 28.9147 95.3156C28.9147 95.0933 29.0932 94.8162 29.3082 94.6999Z" fill="url(#paint39_linear)"/>
<path d="M27.4172 96.7763L28.073 95.6886C28.0985 95.6475 28.0985 95.5928 28.073 95.5791L27.4172 95.2029C27.3844 95.1858 27.3407 95.2439 27.3407 95.2986V96.7626C27.3407 96.8207 27.388 96.831 27.4172 96.7763Z" fill="url(#paint40_linear)"/>
<path d="M29.3082 97.1045L37.4003 92.7195C37.6189 92.5998 37.7938 92.6853 37.7938 92.9076C37.7938 93.1299 37.6189 93.4036 37.4003 93.5233L29.3082 97.9083C29.0896 98.028 28.9147 97.9425 28.9147 97.7202C28.9147 97.4978 29.0932 97.2242 29.3082 97.1045Z" fill="url(#paint41_linear)"/>
<path d="M27.4172 99.1841L28.073 98.0964C28.0985 98.0554 28.0985 98.0006 28.073 97.987L27.4172 97.6107C27.3844 97.5936 27.3407 97.6518 27.3407 97.7065V99.1704C27.3407 99.2286 27.388 99.2354 27.4172 99.1841Z" fill="url(#paint42_linear)"/>
<path d="M29.3082 99.5124L37.4003 95.1275C37.6189 95.0077 37.7938 95.0932 37.7938 95.3156C37.7938 95.5379 37.6189 95.8115 37.4003 95.9313L29.3082 100.316C29.0896 100.436 28.9147 100.35 28.9147 100.128C28.9147 99.9058 29.0932 99.6322 29.3082 99.5124Z" fill="url(#paint43_linear)"/>
<path d="M27.4172 101.592L28.073 100.504C28.0985 100.463 28.0985 100.409 28.073 100.395L27.4172 100.019C27.3844 100.002 27.3407 100.06 27.3407 100.114V101.578C27.3407 101.637 27.388 101.643 27.4172 101.592Z" fill="url(#paint44_linear)"/>
<path d="M29.3082 101.921L37.4003 97.5355C37.6189 97.4158 37.7938 97.5013 37.7938 97.7237C37.7938 97.946 37.6189 98.2196 37.4003 98.3393L29.3082 102.724C29.0896 102.844 28.9147 102.759 28.9147 102.536C28.9147 102.314 29.0932 102.037 29.3082 101.921Z" fill="url(#paint45_linear)"/>
<path d="M27.4172 103.997L28.073 102.909C28.0985 102.868 28.0985 102.813 28.073 102.8L27.4172 102.423C27.3844 102.406 27.3407 102.464 27.3407 102.519V103.983C27.3407 104.041 27.388 104.052 27.4172 103.997Z" fill="url(#paint46_linear)"/>
<path d="M29.3082 104.325L37.4003 99.9401C37.6189 99.8204 37.7938 99.9059 37.7938 100.128C37.7938 100.351 37.6189 100.624 37.4003 100.744L29.3082 105.129C29.0896 105.249 28.9147 105.163 28.9147 104.941C28.9147 104.718 29.0932 104.445 29.3082 104.325Z" fill="url(#paint47_linear)"/>
<path d="M27.4172 106.405L28.073 105.317C28.0985 105.276 28.0985 105.221 28.073 105.208L27.4172 104.831C27.3844 104.814 27.3407 104.872 27.3407 104.927V106.391C27.3407 106.449 27.388 106.456 27.4172 106.405Z" fill="url(#paint48_linear)"/>
<path d="M29.3082 106.733L37.4003 102.348C37.6189 102.228 37.7938 102.314 37.7938 102.536C37.7938 102.758 37.6189 103.032 37.4003 103.152L29.3082 107.537C29.0896 107.656 28.9147 107.571 28.9147 107.349C28.9147 107.126 29.0932 106.853 29.3082 106.733Z" fill="url(#paint49_linear)"/>
<path d="M27.4172 108.813L28.073 107.725C28.0985 107.684 28.0985 107.629 28.073 107.615L27.4172 107.239C27.3844 107.222 27.3407 107.28 27.3407 107.335V108.799C27.3407 108.857 27.388 108.864 27.4172 108.813Z" fill="url(#paint50_linear)"/>
<path d="M29.3082 109.141L37.4003 104.756C37.6189 104.636 37.7938 104.722 37.7938 104.944C37.7938 105.166 37.6189 105.44 37.4003 105.56L29.3082 109.945C29.0896 110.064 28.9147 109.979 28.9147 109.757C28.9147 109.534 29.0932 109.257 29.3082 109.141Z" fill="url(#paint51_linear)"/>
<path d="M27.4172 111.217L28.073 110.13C28.0985 110.089 28.0985 110.034 28.073 110.02L27.4172 109.644C27.3844 109.627 27.3407 109.685 27.3407 109.74V111.204C27.3407 111.262 27.388 111.272 27.4172 111.217Z" fill="url(#paint52_linear)"/>
<path d="M29.3082 111.546L37.4003 107.161C37.6189 107.041 37.7938 107.126 37.7938 107.349C37.7938 107.571 37.6189 107.845 37.4003 107.964L29.3082 112.349C29.0896 112.469 28.9147 112.384 28.9147 112.161C28.9147 111.939 29.0932 111.665 29.3082 111.546Z" fill="url(#paint53_linear)"/>
<path d="M27.4172 113.625L28.073 112.538C28.0985 112.497 28.0985 112.442 28.073 112.428L27.4172 112.052C27.3844 112.035 27.3407 112.093 27.3407 112.148V113.612C27.3407 113.67 27.388 113.677 27.4172 113.625Z" fill="url(#paint54_linear)"/>
<path d="M47.8134 56.5724C47.8134 56.5689 47.8134 56.5655 47.817 56.5587L47.9919 55.8746L47.7514 56.0046C47.7441 56.008 47.7405 56.008 47.7368 56.0046C47.7332 56.0011 47.7296 55.9943 47.7296 55.984V55.8609C47.7296 55.8506 47.7332 55.8438 47.7368 55.8335C47.7405 55.8233 47.7478 55.8199 47.7514 55.8164L48.1376 55.6078C48.1449 55.6044 48.1486 55.6044 48.1522 55.6078C48.1558 55.6112 48.1595 55.6181 48.1595 55.6283V55.7378C48.1595 55.7514 48.1558 55.772 48.1449 55.8028L47.97 56.4868C47.9664 56.4937 47.9664 56.5039 47.9627 56.5108C47.9591 56.5176 47.9554 56.5245 47.9482 56.5279L47.8352 56.5895C47.8316 56.5929 47.8243 56.5929 47.8206 56.5895C47.817 56.586 47.8134 56.5792 47.8134 56.5724Z" fill="url(#paint55_linear)"/>
<path d="M48.4582 55.4232C48.4983 55.4027 48.5347 55.3925 48.5639 55.3925C48.593 55.3925 48.6185 55.4027 48.6368 55.4232C48.655 55.4403 48.6695 55.4677 48.6805 55.5019C48.6914 55.5361 48.6951 55.5737 48.6951 55.6148C48.6951 55.649 48.6951 55.6832 48.6951 55.7208C48.6951 55.7584 48.6951 55.7926 48.6951 55.8234C48.6951 55.8679 48.6878 55.9089 48.6805 55.9534C48.6695 55.9979 48.655 56.0389 48.6368 56.0765C48.6185 56.1142 48.593 56.1518 48.5639 56.186C48.5347 56.2202 48.4983 56.2476 48.4582 56.2681C48.4181 56.2886 48.3817 56.2989 48.3526 56.2989C48.3234 56.2989 48.2979 56.2886 48.2797 56.2681C48.2615 56.251 48.2469 56.2236 48.236 56.1894C48.225 56.1552 48.2214 56.1176 48.2178 56.0765C48.2178 56.0458 48.2178 56.0116 48.2178 55.9739C48.2178 55.9363 48.2178 55.9021 48.2178 55.8679C48.2178 55.8234 48.225 55.7824 48.236 55.7379C48.2469 55.6935 48.2578 55.6524 48.2797 55.6148C48.2979 55.5737 48.3234 55.5395 48.3526 55.5053C48.3854 55.4711 48.4181 55.4438 48.4582 55.4232ZM48.5457 55.8953C48.5493 55.8269 48.5493 55.7619 48.5457 55.7003C48.5457 55.6798 48.542 55.6661 48.5384 55.649C48.5347 55.6353 48.5311 55.6216 48.5238 55.6148C48.5165 55.6079 48.5092 55.6011 48.4983 55.6011C48.4874 55.6011 48.4728 55.6045 48.4582 55.6114C48.4437 55.6216 48.4291 55.6319 48.4181 55.6422C48.4072 55.6558 48.3999 55.6695 48.3926 55.6866C48.3854 55.7037 48.3817 55.7174 48.3781 55.7379C48.3744 55.755 48.3744 55.7755 48.3744 55.7961C48.3708 55.8611 48.3708 55.926 48.3744 55.991C48.3744 56.0116 48.3781 56.0287 48.3781 56.0423C48.3817 56.056 48.3854 56.0697 48.3926 56.0765C48.3999 56.0834 48.4072 56.0902 48.4181 56.0902C48.4291 56.0902 48.4437 56.0868 48.4582 56.08C48.4728 56.0697 48.4874 56.0594 48.4983 56.0492C48.5092 56.0355 48.5165 56.0218 48.5238 56.0047C48.5311 55.9876 48.5347 55.9705 48.5384 55.9534C48.542 55.9329 48.5457 55.9124 48.5457 55.8953Z" fill="url(#paint56_linear)"/>
<path d="M49.0193 55.2898C49.0193 55.3206 49.0193 55.3514 49.0193 55.3787C49.0193 55.4027 49.0157 55.4266 49.0084 55.4471C49.0048 55.4711 48.9938 55.4916 48.9866 55.5121C48.9756 55.5326 48.961 55.5532 48.9465 55.5703C48.9319 55.5874 48.9137 55.601 48.8918 55.6113C48.87 55.6216 48.8517 55.6284 48.8372 55.6284C48.8226 55.6284 48.808 55.6216 48.7971 55.6147C48.7862 55.6045 48.7789 55.5908 48.7752 55.5737C48.7679 55.5566 48.7679 55.5361 48.7643 55.5155C48.7643 55.5018 48.7643 55.4847 48.7643 55.4711C48.7643 55.4574 48.7643 55.4437 48.7643 55.4266C48.7643 55.4027 48.7679 55.3787 48.7752 55.3548C48.7789 55.3308 48.7898 55.3103 48.7971 55.2898C48.808 55.2693 48.819 55.2487 48.8372 55.2316C48.8517 55.2145 48.87 55.2009 48.8918 55.1906C48.9137 55.1803 48.9319 55.1735 48.9465 55.1735C48.961 55.1735 48.9756 55.1769 48.9866 55.1872C48.9975 55.1974 49.0048 55.2111 49.0121 55.2282C49.0157 55.2487 49.0157 55.2658 49.0193 55.2898ZM49.2197 55.0435C49.2234 55.0333 49.227 55.0264 49.2307 55.0196C49.2343 55.0127 49.2416 55.0093 49.2489 55.0059L49.3145 54.9683C49.3218 54.9648 49.3254 54.9648 49.329 54.9683C49.3327 54.9717 49.3327 54.9751 49.3327 54.9819C49.3327 54.9819 49.3327 54.9854 49.3327 54.9888C49.3327 54.9922 49.3327 54.9956 49.329 54.9956L48.9283 55.9704C48.9246 55.9807 48.921 55.9876 48.9173 55.9944C48.9137 56.0012 48.9064 56.0047 48.8991 56.0081L48.8335 56.0423C48.8262 56.0457 48.8226 56.0457 48.819 56.0423C48.8153 56.0389 48.8153 56.0354 48.8153 56.0286C48.8153 56.0286 48.8153 56.0252 48.8153 56.0218C48.8153 56.0183 48.8153 56.0149 48.819 56.0149L49.2197 55.0435ZM48.859 55.4608C48.859 55.4813 48.8627 55.495 48.8663 55.5018C48.87 55.5087 48.8809 55.5087 48.8918 55.5053C48.9028 55.4984 48.91 55.4882 48.9173 55.4779C48.921 55.4642 48.9246 55.4471 48.9246 55.4266C48.9246 55.3992 48.9246 55.3753 48.9246 55.3479C48.9246 55.3274 48.921 55.3137 48.9173 55.3069C48.9137 55.3 48.9064 55.3 48.8918 55.3069C48.8809 55.3137 48.8736 55.324 48.8663 55.3342C48.8627 55.3479 48.859 55.365 48.859 55.3856C48.8554 55.4095 48.8554 55.4369 48.859 55.4608ZM49.3946 55.495C49.3946 55.5258 49.3946 55.5566 49.3946 55.5839C49.3946 55.6079 49.391 55.6318 49.3837 55.6523C49.3801 55.6763 49.3691 55.6968 49.3618 55.7173C49.3509 55.7379 49.34 55.7584 49.3218 55.7755C49.3072 55.7926 49.289 55.8063 49.2671 55.8165C49.2452 55.8268 49.227 55.8336 49.2125 55.8336C49.1979 55.8336 49.1833 55.8302 49.1724 55.8199C49.1614 55.8097 49.1542 55.796 49.1505 55.7789C49.1469 55.7618 49.1432 55.7413 49.1396 55.7208C49.1396 55.7071 49.1396 55.69 49.1396 55.6763C49.1396 55.6626 49.1396 55.6455 49.1396 55.6318C49.1396 55.6079 49.1432 55.5839 49.1505 55.5634C49.1578 55.5395 49.1651 55.519 49.1724 55.4984C49.1833 55.4779 49.1942 55.4574 49.2125 55.4437C49.227 55.4266 49.2452 55.4129 49.2671 55.3992C49.289 55.389 49.3072 55.3821 49.3218 55.3821C49.3363 55.3821 49.3509 55.3856 49.3618 55.3958C49.3728 55.4061 49.3801 55.4198 49.3837 55.4369C49.3873 55.454 49.391 55.4745 49.3946 55.495ZM49.2343 55.666C49.2343 55.6866 49.238 55.7002 49.2416 55.7071C49.2452 55.7139 49.2525 55.7139 49.2671 55.7071C49.278 55.7002 49.2853 55.69 49.2926 55.6797C49.2963 55.666 49.2999 55.6489 49.2999 55.6284C49.2999 55.601 49.2999 55.5771 49.2999 55.5497C49.2999 55.5292 49.2963 55.5155 49.2926 55.5087C49.289 55.5019 49.278 55.5018 49.2671 55.5053C49.2562 55.5121 49.2452 55.5224 49.2416 55.5326C49.238 55.5463 49.2343 55.5634 49.2343 55.5839C49.2307 55.6147 49.2307 55.6421 49.2343 55.666Z" fill="url(#paint57_linear)"/>
<path d="M47.8097 54.6127L47.5438 54.2262C47.2523 54.6948 47.0264 55.2523 46.9134 55.8235L47.3434 55.7928C47.4272 55.3686 47.5948 54.9582 47.8097 54.6127Z" fill="url(#paint58_linear)"/>
<path d="M48.5639 53.8467V53.1899C48.1813 53.3952 47.8316 53.7646 47.5437 54.2229L47.8097 54.6094C48.021 54.2742 48.2797 54.0006 48.5639 53.8467Z" fill="url(#paint59_linear)"/>
<path d="M47.2814 56.3981C47.2814 56.1998 47.3033 55.9945 47.3434 55.7927L46.9134 55.8235C46.8588 56.0971 46.8296 56.3742 46.8296 56.6444C46.8296 56.9146 46.8588 57.1609 46.9134 57.373L47.3434 56.9351C47.3033 56.7778 47.2814 56.5965 47.2814 56.3981Z" fill="url(#paint60_linear)"/>
<path d="M50.2139 54.0312C50.101 53.5831 49.8751 53.2684 49.5836 53.1179C49.2957 52.9708 48.946 52.9845 48.5634 53.1898V53.8465C48.844 53.6926 49.1063 53.6857 49.3176 53.7952C49.5326 53.9046 49.7002 54.1372 49.784 54.469C49.824 54.6263 49.8459 54.8076 49.8459 55.006C49.8459 55.2078 49.824 55.4096 49.784 55.6114C49.7002 56.0321 49.5326 56.446 49.3176 56.7915C49.1063 57.1301 48.8476 57.4037 48.5634 57.5542C48.2829 57.7081 48.0205 57.715 47.8092 57.6055C47.5942 57.4961 47.4266 57.2635 47.3428 56.9317L46.9129 57.3695C47.0259 57.8176 47.2518 58.1323 47.5432 58.2828C47.8311 58.4299 48.1808 58.4162 48.5634 58.2109C48.946 58.0057 49.2957 57.6363 49.5836 57.178C49.8751 56.7094 50.101 56.1518 50.2139 55.5806C50.2686 55.307 50.2977 55.0299 50.2977 54.7597C50.2977 54.4895 50.2686 54.2467 50.2139 54.0312Z" fill="url(#paint61_linear)"/>
<path d="M52.896 52.2388L60.9882 47.8538C61.2068 47.7341 61.3816 47.8196 61.3816 48.0419C61.3816 48.2642 61.2068 48.5379 60.9882 48.6576L52.896 53.0426C52.6774 53.1623 52.5025 53.0768 52.5025 52.8544C52.4989 52.6321 52.6774 52.3551 52.896 52.2388Z" fill="url(#paint62_linear)"/>
<path d="M52.896 53.8568L66.9088 46.2634C67.1274 46.1437 67.3023 46.2292 67.3023 46.4516C67.3023 46.6739 67.1274 46.9475 66.9088 47.0672L52.896 54.6606C52.6774 54.7803 52.5025 54.6948 52.5025 54.4725C52.4989 54.2501 52.6774 53.9731 52.896 53.8568Z" fill="url(#paint63_linear)"/>
<path d="M135.413 114.21C135.625 114.292 135.672 114.675 135.687 115.438C135.698 116.016 135.803 117.025 135.082 117.213C134.357 117.398 133.304 117.275 132.856 116.721C132.295 116.03 131.919 115.424 131.118 114.579C130.422 113.847 129.668 113.16 129.402 112.144C129.165 111.227 129.391 110.837 130.057 110.588C130.976 110.242 132.378 111.463 133.085 111.665C133.697 111.836 135.202 114.128 135.413 114.21Z" fill="#447EDF"/>
<path d="M135.432 113.506L135.41 114.443C135.41 114.443 134.353 115.168 132.888 114.453C132.848 114.361 132.659 113.109 132.659 113.109L135.432 113.506Z" fill="#FDCEAE"/>
<path d="M127.208 119.436C127.208 119.436 127.474 120.257 127.613 120.972C127.722 121.54 127.875 122.491 127.653 122.912C127.431 123.332 126.6 123.589 125.325 123.555C124.498 123.531 123.197 124.03 122.304 124.475C121.382 124.933 119.48 125.084 118.519 124.957C117.385 124.806 116.223 124.163 116.052 123.719C115.877 123.274 116.132 122.819 118.836 121.807C118.861 121.797 122.585 120.746 123.915 119.433L127.208 119.436Z" fill="#447EDF"/>
<path d="M127.234 118.424C127.234 118.424 127.212 119.118 127.208 119.515C127.201 119.912 126.687 120.493 125.397 120.422C124.49 120.37 123.86 120.131 123.915 119.426L123.94 118.414L127.234 118.424Z" fill="#FDCEAE"/>
<path d="M136.379 101.093C135.996 98.0245 135.319 96.1912 135.319 96.1912C135.319 96.1912 135.774 91.9909 136.044 88.0061C136.332 83.6998 136.598 81.4834 135.698 75.265C135.698 75.265 121.637 74.0781 121.255 79.0548C120.872 84.0316 121.415 96.7282 121.539 98.9207C121.663 101.113 122.016 103.056 122.413 106.613C122.803 110.123 123.94 118.417 123.94 118.417C125.612 119.31 127.237 118.424 127.237 118.424C127.237 118.424 128.52 108.488 128.469 105.96C128.411 102.875 127.58 100.426 127.58 100.426C127.58 100.426 127.959 96.3246 128.294 92.7571C128.629 89.1896 128.932 87.4794 129.026 85.9265L129.347 85.7863C129.347 85.7863 129.526 91.9567 129.646 94.1492C129.77 96.3417 130.09 98.4487 130.666 102.526C131.165 106.063 132.728 113.56 132.728 113.56C134.401 114.456 135.432 113.505 135.432 113.505C135.432 113.505 136.761 104.161 136.379 101.093Z" fill="url(#paint64_linear)"/>
<path d="M129.023 85.9266C129.023 85.9266 132.655 84.3396 134.492 82.879C134.492 82.879 132.768 85.051 130.553 85.9848C130.553 85.9848 129.591 93.626 129.598 93.4721L129.329 85.9198L129.023 85.9266Z" fill="url(#paint65_linear)"/>
<path d="M126.505 57.5302L127.052 62.0863L131.635 61.8708L131.129 56.552L126.505 57.5302Z" fill="#FDCEAE"/>
<path d="M133.366 59.2746C135.071 59.1993 135.938 59.4422 136.707 60.824C137.472 62.2059 137.774 66.3343 138.04 68.4652C138.306 70.5927 138.376 72.0977 137.439 72.3166C136.506 72.5356 132.87 72.6313 132.87 72.6313L133.366 59.2746Z" fill="url(#paint66_linear)"/>
<path d="M136.244 61.6348C135.996 60.359 134.211 59.0182 132.539 59.2747C132.149 59.3329 131.774 59.3945 131.402 59.456C131.202 60.2222 128.964 60.7011 126.826 60.229C126.181 60.3864 124.06 60.7592 123.525 60.9268C121.987 61.4057 121.353 62.8251 121.116 67.5316C121.116 67.5316 121.24 78.1863 121.178 80.3069C124.971 81.8085 128.954 81.8496 131.165 81.4459C135.767 80.6045 136.364 78.8293 136.364 78.8293L135.679 73.9552C135.679 73.9586 136.805 64.5217 136.244 61.6348Z" fill="url(#paint67_linear)"/>
<path d="M126.684 59.0317L126.716 59.319C126.716 59.319 128.043 59.6303 129.533 59.319C131.023 59.0078 131.322 58.6144 131.322 58.6144L131.289 58.2895C131.289 58.2895 131.661 58.1595 131.854 58.6965C132.047 59.2335 132.069 59.3498 132.069 59.3498C132.069 59.3498 132.24 60.328 130.487 60.8274C127.966 61.5457 126.126 60.3793 126.126 60.3793L125.441 60.5162C125.441 60.5162 126.035 59.2301 126.214 58.9701C126.392 58.7102 126.644 58.7478 126.644 58.7478L126.684 59.0317Z" fill="#253293"/>
<path d="M112.689 54.144L103.599 58.6009L108.116 70.1927L116.598 65.7324L112.689 54.144Z" fill="url(#paint68_linear)"/>
<path d="M112.274 55.2795L104.644 59.0181L108.645 68.9852L115.761 65.2432L112.274 55.2795Z" fill="url(#paint69_linear)"/>
<path opacity="0.15" d="M110.663 56.3571C110.663 56.3571 110.598 56.1998 110.514 56.0014C110.434 55.8064 109.796 55.9227 109.097 56.2613L107.752 56.9112C107.049 57.2498 106.55 57.6842 106.63 57.8826L106.779 58.2383L110.663 56.3571Z" fill="black"/>
<path d="M110.514 54.9375C110.463 54.8143 110.186 54.8348 109.898 54.9819L109.374 55.2487C109.374 55.2487 109.049 54.4825 107.84 55.0127C106.63 55.5429 106.907 56.4322 106.907 56.4322C106.907 56.4322 106.655 56.5622 106.349 56.7195C106.04 56.8803 105.821 57.1094 105.858 57.2326L105.927 57.4583L110.609 55.1632C110.609 55.1666 110.565 55.0606 110.514 54.9375Z" fill="url(#paint70_linear)"/>
<path d="M110.011 55.4504C109.574 55.6523 109.403 55.748 109.53 56.049C109.672 56.3945 109.807 56.6408 109.807 56.6408L107.738 57.6566C107.738 57.6566 107.566 57.2188 107.49 57.0478C107.413 56.8802 107.264 56.7981 106.932 56.9588L106.809 56.8357L110.077 55.2726L110.011 55.4504Z" fill="url(#paint71_linear)"/>
<path d="M110.011 55.4504C109.574 55.6523 109.403 55.748 109.53 56.049C109.672 56.3945 109.807 56.6408 109.807 56.6408L107.738 57.6566C107.738 57.6566 107.566 57.2188 107.49 57.0478C107.413 56.8802 107.264 56.7981 106.932 56.9588L106.809 56.8357L110.077 55.2726L110.011 55.4504Z" fill="url(#paint72_linear)"/>
<path d="M110.751 56.374C110.751 56.374 110.685 56.2166 110.601 56.0182C110.521 55.8233 109.884 55.9396 109.184 56.2782L107.84 56.9281C107.136 57.2667 106.637 57.7011 106.717 57.8995L106.867 58.2552L110.751 56.374Z" fill="url(#paint73_linear)"/>
<path d="M123.525 60.9299C121.426 61.101 120.533 61.4601 118.956 64.128C117.247 67.0217 113.961 72.2618 113.542 72.9219C112.962 73.842 112.853 75.241 113.352 76.0858C113.819 76.876 115.301 77.2351 116.985 75.4531C118.985 73.3324 122.705 68.1539 122.705 68.1539C122.705 68.1539 125.867 64.2409 123.525 60.9299Z" fill="#F4A6A7"/>
<path d="M114.227 76.6914C112.616 76.5067 108.86 71.7215 107.792 70.1584C106.623 68.4482 105.533 67.6239 104.539 66.933C102.837 65.7529 103.085 63.9367 103.828 62.2743C104.087 61.6997 104.958 62.0725 104.958 62.0725L105.264 62.8627L105.796 64.2308C106.156 64.5455 106.36 64.6481 106.386 64.5523C106.43 64.3745 106.12 63.6425 106.127 62.8763C106.138 61.9562 106.823 62.5617 107.031 62.8832C107.235 63.2047 107.475 63.7314 107.756 64.4053C108.098 65.2296 107.956 66.0642 108.375 66.6285C108.794 67.1895 114.398 72.2312 114.398 72.2312L114.227 76.6914Z" fill="#FDCEAE"/>
<path d="M123.929 60.8241C122.658 60.7933 121.131 60.9848 119.947 62.4283C118.763 63.8717 114.026 71.7216 114.026 71.7216L111.366 69.4846C111.366 69.4846 109.694 70.391 109.322 72.197C109.322 72.197 110.605 74.1056 111.731 75.2651C112.853 76.4212 114.106 77.225 115.134 76.8693C116.161 76.5136 117.211 75.7508 119.422 72.8571C121.634 69.9669 124.049 66.5533 124.049 66.5533C124.049 66.5533 125.576 63.2218 123.929 60.8241Z" fill="url(#paint74_linear)"/>
<path d="M123.273 51.9514C123.273 51.9514 122.129 53.583 122.26 53.7437C122.392 53.9045 123.233 54.0481 123.233 54.0481L123.273 51.9514Z" fill="#FDCEAE"/>
<path d="M123.809 52.9979C123.058 52.9979 122.446 52.4233 122.446 51.7187C122.446 51.0141 123.058 50.4395 123.809 50.4395C124.56 50.4395 125.172 51.0141 125.172 51.7187C125.175 52.4233 124.563 52.9979 123.809 52.9979ZM123.809 50.7199C123.222 50.7199 122.749 51.168 122.749 51.7153C122.749 52.266 123.226 52.7106 123.809 52.7106C124.396 52.7106 124.869 52.2625 124.869 51.7153C124.869 51.168 124.396 50.7199 123.809 50.7199Z" fill="#424B96"/>
<path d="M126.454 47.44C124.137 47.8983 123.47 48.856 123.252 52.3073C123.022 55.9158 123.415 57.0514 123.922 57.5371C124.264 57.8654 126.159 57.9236 127.114 57.6773C128.309 57.3661 131.012 56.4665 132.28 54.6537C133.77 52.5193 134.16 49.6222 132.568 48.4353C130.32 46.7627 127.394 47.2519 126.454 47.44Z" fill="#FDCEAE"/>
<path d="M126.534 57.7799L126.429 57.1163C126.429 57.1163 125.314 57.7183 124.053 57.6226C124.494 57.8244 125.645 57.8825 126.534 57.7799Z" fill="#FDCEAE"/>
<path d="M122.574 51.4489L126.691 51.9517L126.527 52.2219L122.574 51.7396V51.4489Z" fill="#424B96"/>
<path d="M122.854 48.8355C123.029 48.8595 123.208 48.8492 123.379 48.8047C123.226 49.1126 123.372 49.5059 123.66 49.7111C123.951 49.9164 124.352 49.9437 124.698 49.8411C124.574 50.0429 124.53 50.2858 124.585 50.5149C124.694 50.987 125.263 51.3974 125.784 51.329C125.809 51.8352 125.816 52.3278 126.389 52.5604C126.389 52.5604 126.756 51.2264 127.952 51.394C129.158 51.5616 129.321 53.005 128.56 53.8806C127.806 54.7529 127.103 54.4245 127.092 54.4211C127.161 54.4553 127.186 54.8794 127.212 54.9615C127.288 55.2112 127.39 55.4609 127.522 55.6901C127.78 56.1587 128.152 56.5691 128.604 56.8838C129.23 57.3182 129.996 57.6294 130.779 57.4516C131.457 57.2977 132.076 56.8598 132.364 56.2544C132.437 56.1039 132.495 55.9363 132.622 55.8235C132.779 55.6832 133.009 55.649 133.213 55.584C133.686 55.4335 134.08 55.0812 134.266 54.6468C134.452 54.2124 134.422 53.7028 134.193 53.2855C134.761 53.1487 135.228 52.6972 135.355 52.1602C135.479 51.6232 135.257 51.028 134.801 50.6791C135.479 50.2892 135.832 49.458 135.621 48.7363C135.443 48.1172 134.892 47.676 134.251 47.505C133.785 47.3784 133.963 47.31 133.818 46.879C133.719 46.5849 133.533 46.3181 133.278 46.1231C132.841 45.7879 132.218 45.6785 131.682 45.8461C131.58 45.2851 131.103 44.8302 130.527 44.6797C130.265 44.6113 129.977 44.5839 129.711 44.6489C129.518 44.6968 129.125 44.8644 129.052 45.0354C128.808 44.8097 128.728 44.5121 128.432 44.3103C128.13 44.1017 127.758 43.9819 127.38 43.9819C126.756 43.9854 126.148 44.3206 125.846 44.8302C125.43 44.4232 124.829 44.1666 124.228 44.1906C123.627 44.2145 123.033 44.536 122.752 45.0354C122.472 45.5348 122.537 46.2018 122.949 46.6157C122.577 46.7627 122.235 47.0056 122.053 47.3442C121.856 47.7102 121.882 48.1685 122.18 48.4798C122.322 48.6303 122.417 48.7295 122.632 48.7945C122.705 48.8082 122.781 48.8253 122.854 48.8355Z" fill="#424B96"/>
<path d="M126.367 53.3163L126.41 51.8079C125.966 51.7976 125.598 52.126 125.583 52.5432C125.572 52.9571 125.922 53.306 126.367 53.3163Z" fill="#424B96"/>
<defs>
<linearGradient id="paint0_linear" x1="55.5334" y1="84.3049" x2="55.5334" y2="116.032" gradientUnits="userSpaceOnUse">
<stop stop-color="#86ACFF"/>
<stop offset="1" stop-color="#477DF4"/>
</linearGradient>
<linearGradient id="paint1_linear" x1="47.3379" y1="0" x2="47.3379" y2="124.589" gradientUnits="userSpaceOnUse">
<stop stop-color="#DAE5FC"/>
<stop offset="1" stop-color="#6A99FF"/>
</linearGradient>
<linearGradient id="paint2_linear" x1="48.8427" y1="1.80432" x2="48.8427" y2="124.415" gradientUnits="userSpaceOnUse">
<stop stop-color="#86ACFF"/>
<stop offset="1" stop-color="#477DF4"/>
</linearGradient>
<linearGradient id="paint3_linear" x1="82.6203" y1="35.2632" x2="-1.30911" y2="60.3353" gradientUnits="userSpaceOnUse">
<stop stop-color="#91B3FD"/>
<stop offset="1" stop-color="#B1CAFF"/>
</linearGradient>
<linearGradient id="paint4_linear" x1="96.8642" y1="46.221" x2="12.8256" y2="72.0877" gradientUnits="userSpaceOnUse">
<stop stop-color="#91B3FD"/>
<stop offset="1" stop-color="#B1CAFF"/>
</linearGradient>
<linearGradient id="paint5_linear" x1="62.8737" y1="13.601" x2="62.8737" y2="63.9879" gradientUnits="userSpaceOnUse">
<stop stop-color="#86ACFF"/>
<stop offset="1" stop-color="#477DF4"/>
</linearGradient>
<linearGradient id="paint6_linear" x1="39.9937" y1="71.3016" x2="16.8042" y2="73.9985" gradientUnits="userSpaceOnUse">
<stop stop-color="#91B3FD"/>
<stop offset="1" stop-color="#B1CAFF"/>
</linearGradient>
<linearGradient id="paint7_linear" x1="97.5557" y1="44.6487" x2="36.6083" y2="60.2925" gradientUnits="userSpaceOnUse">
<stop stop-color="#6F9CFF"/>
<stop offset="1" stop-color="#B1CAFF"/>
</linearGradient>
<linearGradient id="paint8_linear" x1="36.1831" y1="61.7455" x2="24.0749" y2="68.6097" gradientUnits="userSpaceOnUse">
<stop stop-color="white"/>
<stop offset="1" stop-color="white"/>
</linearGradient>
<linearGradient id="paint9_linear" x1="36.1831" y1="61.7455" x2="24.0749" y2="68.6097" gradientUnits="userSpaceOnUse">
<stop stop-color="white"/>
<stop offset="1" stop-color="white"/>
</linearGradient>
<linearGradient id="paint10_linear" x1="40.1323" y1="58.53" x2="38.4045" y2="59.1083" gradientUnits="userSpaceOnUse">
<stop stop-color="white"/>
<stop offset="1" stop-color="white"/>
</linearGradient>
<linearGradient id="paint11_linear" x1="23.2337" y1="72.3656" x2="22.8341" y2="72.4206" gradientUnits="userSpaceOnUse">
<stop stop-color="#91B3FD"/>
<stop offset="0.0001" stop-color="white"/>
<stop offset="1" stop-color="white"/>
</linearGradient>
<linearGradient id="paint12_linear" x1="23.6964" y1="72.1125" x2="23.2968" y2="72.1675" gradientUnits="userSpaceOnUse">
<stop stop-color="#91B3FD"/>
<stop offset="0.0001" stop-color="white"/>
<stop offset="1" stop-color="white"/>
</linearGradient>
<linearGradient id="paint13_linear" x1="24.1628" y1="71.8627" x2="23.7632" y2="71.9178" gradientUnits="userSpaceOnUse">
<stop stop-color="#91B3FD"/>
<stop offset="0.0001" stop-color="white"/>
<stop offset="1" stop-color="white"/>
</linearGradient>
<linearGradient id="paint14_linear" x1="23.2337" y1="73.3814" x2="22.8341" y2="73.4365" gradientUnits="userSpaceOnUse">
<stop stop-color="#91B3FD"/>
<stop offset="0.0001" stop-color="white"/>
<stop offset="1" stop-color="white"/>
</linearGradient>
<linearGradient id="paint15_linear" x1="23.6964" y1="73.1282" x2="23.2968" y2="73.1833" gradientUnits="userSpaceOnUse">
<stop stop-color="#91B3FD"/>
<stop offset="0.0001" stop-color="white"/>
<stop offset="1" stop-color="white"/>
</linearGradient>
<linearGradient id="paint16_linear" x1="24.1628" y1="72.8752" x2="23.7632" y2="72.9302" gradientUnits="userSpaceOnUse">
<stop stop-color="#91B3FD"/>
<stop offset="0.0001" stop-color="white"/>
<stop offset="1" stop-color="white"/>
</linearGradient>
<linearGradient id="paint17_linear" x1="23.2862" y1="75.9702" x2="22.8261" y2="76.0523" gradientUnits="userSpaceOnUse">
<stop stop-color="#91B3FD"/>
<stop offset="0.0001" stop-color="white"/>
<stop offset="1" stop-color="white"/>
</linearGradient>
<linearGradient id="paint18_linear" x1="23.5706" y1="76.0367" x2="23.043" y2="76.2676" gradientUnits="userSpaceOnUse">
<stop stop-color="#91B3FD"/>
<stop offset="0.0001" stop-color="white"/>
<stop offset="1" stop-color="white"/>
</linearGradient>
<linearGradient id="paint19_linear" x1="23.877" y1="75.8453" x2="23.6989" y2="75.8824" gradientUnits="userSpaceOnUse">
<stop stop-color="#91B3FD"/>
<stop offset="0.0001" stop-color="white"/>
<stop offset="1" stop-color="white"/>
</linearGradient>
<linearGradient id="paint20_linear" x1="24.3206" y1="75.8282" x2="23.9319" y2="75.8792" gradientUnits="userSpaceOnUse">
<stop stop-color="#91B3FD"/>
<stop offset="0.0001" stop-color="white"/>
<stop offset="1" stop-color="white"/>
</linearGradient>
<linearGradient id="paint21_linear" x1="23.9525" y1="78.9719" x2="22.7368" y2="79.2383" gradientUnits="userSpaceOnUse">
<stop stop-color="#91B3FD"/>
<stop offset="0.0001" stop-color="white"/>
<stop offset="1" stop-color="white"/>
</linearGradient>
<linearGradient id="paint22_linear" x1="23.6385" y1="80.5701" x2="23.2266" y2="80.6828" gradientUnits="userSpaceOnUse">
<stop stop-color="#91B3FD"/>
<stop offset="0.0001" stop-color="white"/>
<stop offset="1" stop-color="white"/>
</linearGradient>
<linearGradient id="paint23_linear" x1="24.213" y1="72.3861" x2="22.7011" y2="72.7158" gradientUnits="userSpaceOnUse">
<stop stop-color="#91B3FD"/>
<stop offset="0.0001" stop-color="white"/>
<stop offset="1" stop-color="white"/>
</linearGradient>
<linearGradient id="paint24_linear" x1="24.2131" y1="82.7675" x2="22.7011" y2="83.0973" gradientUnits="userSpaceOnUse">
<stop stop-color="#91B3FD"/>
<stop offset="0.0001" stop-color="white"/>
<stop offset="1" stop-color="white"/>
</linearGradient>
<linearGradient id="paint25_linear" x1="23.9236" y1="85.9836" x2="23.328" y2="86.1319" gradientUnits="userSpaceOnUse">
<stop stop-color="#91B3FD"/>
<stop offset="0.0001" stop-color="white"/>
<stop offset="1" stop-color="white"/>
</linearGradient>
<linearGradient id="paint26_linear" x1="24.4423" y1="86.0841" x2="24.0473" y2="86.1817" gradientUnits="userSpaceOnUse">
<stop stop-color="#91B3FD"/>
<stop offset="0.0001" stop-color="white"/>
<stop offset="1" stop-color="white"/>
</linearGradient>
<linearGradient id="paint27_linear" x1="23.9642" y1="87.0456" x2="23.2428" y2="87.1823" gradientUnits="userSpaceOnUse">
<stop stop-color="#91B3FD"/>
<stop offset="0.0001" stop-color="white"/>
<stop offset="1" stop-color="white"/>
</linearGradient>
<linearGradient id="paint28_linear" x1="24.4488" y1="86.8636" x2="24.0677" y2="86.9127" gradientUnits="userSpaceOnUse">
<stop stop-color="#91B3FD"/>
<stop offset="0.0001" stop-color="white"/>
<stop offset="1" stop-color="white"/>
</linearGradient>
<linearGradient id="paint29_linear" x1="23.2472" y1="86.7304" x2="22.8522" y2="86.8279" gradientUnits="userSpaceOnUse">
<stop stop-color="#91B3FD"/>
<stop offset="0.0001" stop-color="white"/>
<stop offset="1" stop-color="white"/>
</linearGradient>
<linearGradient id="paint30_linear" x1="23.2173" y1="87.4777" x2="22.8354" y2="87.5237" gradientUnits="userSpaceOnUse">
<stop stop-color="#91B3FD"/>
<stop offset="0.0001" stop-color="white"/>
<stop offset="1" stop-color="white"/>
</linearGradient>
<linearGradient id="paint31_linear" x1="33.8606" y1="68.0863" x2="27.041" y2="72.4678" gradientUnits="userSpaceOnUse">
<stop stop-color="#91B3FD"/>
<stop offset="0.0001" stop-color="white"/>
<stop offset="1" stop-color="white"/>
</linearGradient>
<linearGradient id="paint32_linear" x1="33.8606" y1="71.6606" x2="27.041" y2="76.042" gradientUnits="userSpaceOnUse">
<stop stop-color="#91B3FD"/>
<stop offset="0.0001" stop-color="white"/>
<stop offset="1" stop-color="white"/>
</linearGradient>
<linearGradient id="paint33_linear" x1="33.8606" y1="75.2383" x2="27.041" y2="79.6197" gradientUnits="userSpaceOnUse">
<stop stop-color="#91B3FD"/>
<stop offset="0.0001" stop-color="white"/>
<stop offset="1" stop-color="white"/>
</linearGradient>
<linearGradient id="paint34_linear" x1="33.8606" y1="78.8127" x2="27.041" y2="83.1941" gradientUnits="userSpaceOnUse">
<stop stop-color="#91B3FD"/>
<stop offset="0.0001" stop-color="white"/>
<stop offset="1" stop-color="white"/>
</linearGradient>
<linearGradient id="paint35_linear" x1="33.8606" y1="82.3871" x2="27.041" y2="86.7685" gradientUnits="userSpaceOnUse">
<stop stop-color="#91B3FD"/>
<stop offset="0.0001" stop-color="white"/>
<stop offset="1" stop-color="white"/>
</linearGradient>
<linearGradient id="paint36_linear" x1="35.3398" y1="85.308" x2="28.5203" y2="89.6894" gradientUnits="userSpaceOnUse">
<stop stop-color="#91B3FD"/>
<stop offset="0.0001" stop-color="white"/>
<stop offset="1" stop-color="white"/>
</linearGradient>
<linearGradient id="paint37_linear" x1="35.3398" y1="87.7229" x2="28.5203" y2="92.1044" gradientUnits="userSpaceOnUse">
<stop stop-color="#91B3FD"/>
<stop offset="0.0001" stop-color="white"/>
<stop offset="1" stop-color="white"/>
</linearGradient>
<linearGradient id="paint38_linear" x1="35.3398" y1="90.1377" x2="28.5203" y2="94.5191" gradientUnits="userSpaceOnUse">
<stop stop-color="#91B3FD"/>
<stop offset="0.0001" stop-color="white"/>
<stop offset="1" stop-color="white"/>
</linearGradient>
<linearGradient id="paint39_linear" x1="36.9138" y1="91.6735" x2="30.0943" y2="96.0549" gradientUnits="userSpaceOnUse">
<stop stop-color="#91B3FD"/>
<stop offset="0.0001" stop-color="white"/>
<stop offset="1" stop-color="white"/>
</linearGradient>
<linearGradient id="paint40_linear" x1="28.0177" y1="95.6299" x2="27.2275" y2="95.771" gradientUnits="userSpaceOnUse">
<stop stop-color="#91B3FD"/>
<stop offset="0.0001" stop-color="white"/>
<stop offset="1" stop-color="white"/>
</linearGradient>
<linearGradient id="paint41_linear" x1="36.9138" y1="94.078" x2="30.0943" y2="98.4595" gradientUnits="userSpaceOnUse">
<stop stop-color="#91B3FD"/>
<stop offset="0.0001" stop-color="white"/>
<stop offset="1" stop-color="white"/>
</linearGradient>
<linearGradient id="paint42_linear" x1="28.0177" y1="98.0373" x2="27.2275" y2="98.1786" gradientUnits="userSpaceOnUse">
<stop stop-color="#91B3FD"/>
<stop offset="0.0001" stop-color="white"/>
<stop offset="1" stop-color="white"/>
</linearGradient>
<linearGradient id="paint43_linear" x1="36.9138" y1="96.486" x2="30.0943" y2="100.867" gradientUnits="userSpaceOnUse">
<stop stop-color="#91B3FD"/>
<stop offset="0.0001" stop-color="white"/>
<stop offset="1" stop-color="white"/>
</linearGradient>
<linearGradient id="paint44_linear" x1="28.0177" y1="100.445" x2="27.2275" y2="100.587" gradientUnits="userSpaceOnUse">
<stop stop-color="#91B3FD"/>
<stop offset="0.0001" stop-color="white"/>
<stop offset="1" stop-color="white"/>
</linearGradient>
<linearGradient id="paint45_linear" x1="36.9138" y1="98.8941" x2="30.0943" y2="103.275" gradientUnits="userSpaceOnUse">
<stop stop-color="#91B3FD"/>
<stop offset="0.0001" stop-color="white"/>
<stop offset="1" stop-color="white"/>
</linearGradient>
<linearGradient id="paint46_linear" x1="28.0177" y1="102.85" x2="27.2275" y2="102.992" gradientUnits="userSpaceOnUse">
<stop stop-color="#91B3FD"/>
<stop offset="0.0001" stop-color="white"/>
<stop offset="1" stop-color="white"/>
</linearGradient>
<linearGradient id="paint47_linear" x1="36.9138" y1="101.299" x2="30.0943" y2="105.68" gradientUnits="userSpaceOnUse">
<stop stop-color="#91B3FD"/>
<stop offset="0.0001" stop-color="white"/>
<stop offset="1" stop-color="white"/>
</linearGradient>
<linearGradient id="paint48_linear" x1="28.0177" y1="105.258" x2="27.2275" y2="105.399" gradientUnits="userSpaceOnUse">
<stop stop-color="#91B3FD"/>
<stop offset="0.0001" stop-color="white"/>
<stop offset="1" stop-color="white"/>
</linearGradient>
<linearGradient id="paint49_linear" x1="36.9138" y1="103.706" x2="30.0943" y2="108.088" gradientUnits="userSpaceOnUse">
<stop stop-color="#91B3FD"/>
<stop offset="0.0001" stop-color="white"/>
<stop offset="1" stop-color="white"/>
</linearGradient>
<linearGradient id="paint50_linear" x1="28.0177" y1="107.666" x2="27.2275" y2="107.807" gradientUnits="userSpaceOnUse">
<stop stop-color="#91B3FD"/>
<stop offset="0.0001" stop-color="white"/>
<stop offset="1" stop-color="white"/>
</linearGradient>
<linearGradient id="paint51_linear" x1="36.9138" y1="106.115" x2="30.0943" y2="110.496" gradientUnits="userSpaceOnUse">
<stop stop-color="#91B3FD"/>
<stop offset="0.0001" stop-color="white"/>
<stop offset="1" stop-color="white"/>
</linearGradient>
<linearGradient id="paint52_linear" x1="28.0177" y1="110.071" x2="27.2275" y2="110.212" gradientUnits="userSpaceOnUse">
<stop stop-color="#91B3FD"/>
<stop offset="0.0001" stop-color="white"/>
<stop offset="1" stop-color="white"/>
</linearGradient>
<linearGradient id="paint53_linear" x1="36.9138" y1="108.519" x2="30.0943" y2="112.901" gradientUnits="userSpaceOnUse">
<stop stop-color="#91B3FD"/>
<stop offset="0.0001" stop-color="white"/>
<stop offset="1" stop-color="white"/>
</linearGradient>
<linearGradient id="paint54_linear" x1="28.0177" y1="112.478" x2="27.2275" y2="112.62" gradientUnits="userSpaceOnUse">
<stop stop-color="#91B3FD"/>
<stop offset="0.0001" stop-color="white"/>
<stop offset="1" stop-color="white"/>
</linearGradient>
<linearGradient id="paint55_linear" x1="48.1169" y1="55.8684" x2="47.663" y2="55.9442" gradientUnits="userSpaceOnUse">
<stop stop-color="white"/>
<stop offset="1" stop-color="white"/>
</linearGradient>
<linearGradient id="paint56_linear" x1="48.6477" y1="55.6342" x2="48.1501" y2="55.7346" gradientUnits="userSpaceOnUse">
<stop stop-color="white"/>
<stop offset="1" stop-color="white"/>
</linearGradient>
<linearGradient id="paint57_linear" x1="49.3322" y1="55.2535" x2="48.6808" y2="55.3993" gradientUnits="userSpaceOnUse">
<stop stop-color="white"/>
<stop offset="1" stop-color="white"/>
</linearGradient>
<linearGradient id="paint58_linear" x1="47.7209" y1="54.6522" x2="46.7914" y2="54.8521" gradientUnits="userSpaceOnUse">
<stop stop-color="white"/>
<stop offset="1" stop-color="white"/>
</linearGradient>
<linearGradient id="paint59_linear" x1="48.4628" y1="53.5685" x2="47.4339" y2="53.8519" gradientUnits="userSpaceOnUse">
<stop stop-color="white"/>
<stop offset="1" stop-color="white"/>
</linearGradient>
<linearGradient id="paint60_linear" x1="47.2924" y1="56.2142" x2="46.7435" y2="56.2826" gradientUnits="userSpaceOnUse">
<stop stop-color="white"/>
<stop offset="1" stop-color="white"/>
</linearGradient>
<linearGradient id="paint61_linear" x1="49.9622" y1="54.4496" x2="46.4927" y2="55.2892" gradientUnits="userSpaceOnUse">
<stop stop-color="white"/>
<stop offset="1" stop-color="white"/>
</linearGradient>
<linearGradient id="paint62_linear" x1="60.5016" y1="49.2123" x2="53.6821" y2="53.5938" gradientUnits="userSpaceOnUse">
<stop stop-color="white"/>
<stop offset="1" stop-color="white"/>
</linearGradient>
<linearGradient id="paint63_linear" x1="65.8355" y1="48.4777" x2="54.7206" y2="55.8906" gradientUnits="userSpaceOnUse">
<stop stop-color="white"/>
<stop offset="1" stop-color="white"/>
</linearGradient>
<linearGradient id="paint64_linear" x1="134.929" y1="86.7891" x2="118.593" y2="88.9866" gradientUnits="userSpaceOnUse">
<stop stop-color="#91B3FD"/>
<stop offset="1" stop-color="#B1CAFF"/>
</linearGradient>
<linearGradient id="paint65_linear" x1="131.757" y1="82.879" x2="131.757" y2="93.4744" gradientUnits="userSpaceOnUse">
<stop stop-color="#86ACFF"/>
<stop offset="1" stop-color="#477DF4"/>
</linearGradient>
<linearGradient id="paint66_linear" x1="136.203" y1="72.6372" x2="136.96" y2="63.5127" gradientUnits="userSpaceOnUse">
<stop stop-color="white"/>
<stop offset="1" stop-color="#F8F8F8"/>
</linearGradient>
<linearGradient id="paint67_linear" x1="128.759" y1="59.2429" x2="128.759" y2="81.6637" gradientUnits="userSpaceOnUse">
<stop stop-color="#407ADB"/>
<stop offset="1" stop-color="#4882E2"/>
</linearGradient>
<linearGradient id="paint68_linear" x1="110.099" y1="54.144" x2="110.099" y2="70.1927" gradientUnits="userSpaceOnUse">
<stop stop-color="#407ADB"/>
<stop offset="1" stop-color="#4882E2"/>
</linearGradient>
<linearGradient id="paint69_linear" x1="114.659" y1="58.9348" x2="103.66" y2="62.3541" gradientUnits="userSpaceOnUse">
<stop stop-color="white"/>
<stop offset="1" stop-color="#B1CAFF"/>
<stop offset="1" stop-color="#97B7FD"/>
</linearGradient>
<linearGradient id="paint70_linear" x1="108.231" y1="54.8258" x2="108.231" y2="57.4583" gradientUnits="userSpaceOnUse">
<stop stop-color="#265BB5"/>
<stop offset="1" stop-color="#1856BE"/>
</linearGradient>
<linearGradient id="paint71_linear" x1="108.443" y1="55.2726" x2="108.443" y2="57.6566" gradientUnits="userSpaceOnUse">
<stop stop-color="#265BB5"/>
<stop offset="1" stop-color="#1856BE"/>
</linearGradient>
<linearGradient id="paint72_linear" x1="108.443" y1="55.2726" x2="108.443" y2="57.6566" gradientUnits="userSpaceOnUse">
<stop stop-color="#265BB5"/>
<stop offset="1" stop-color="#1856BE"/>
</linearGradient>
<linearGradient id="paint73_linear" x1="108.73" y1="55.9237" x2="108.73" y2="58.2552" gradientUnits="userSpaceOnUse">
<stop stop-color="#265BB5"/>
<stop offset="1" stop-color="#1856BE"/>
</linearGradient>
<linearGradient id="paint74_linear" x1="117.008" y1="60.8212" x2="117.008" y2="76.9543" gradientUnits="userSpaceOnUse">
<stop stop-color="#73A6FF"/>
<stop offset="1" stop-color="#709EFF"/>
</linearGradient>
</defs>
</svg>
