<svg width="138" height="104" viewBox="0 0 138 104" fill="none" xmlns="http://www.w3.org/2000/svg">
<path fill-rule="evenodd" clip-rule="evenodd" d="M20.6611 21.6504C22.0958 20.9357 24.1417 22.3807 25.2501 24.8773C26.0685 25.0534 26.6279 26.2706 26.5191 27.7312C26.431 28.938 25.9183 29.9636 25.2657 30.3624C25.0947 30.5696 24.8927 30.7353 24.6545 30.8544C23.2042 31.5744 21.1376 30.0982 20.0343 27.5603C18.9363 25.0171 19.216 22.3704 20.6611 21.6504Z" fill="#FDCEAE"/>
<path fill-rule="evenodd" clip-rule="evenodd" d="M108.355 39.9082C106.921 39.1935 104.875 40.6386 103.766 43.1351C102.948 43.3112 102.389 44.5284 102.497 45.989C102.585 47.1958 103.098 48.2214 103.751 48.6202C103.922 48.8274 104.124 48.9931 104.362 49.1122C105.812 49.8322 107.879 48.356 108.982 45.8181C110.085 43.2697 109.806 40.6282 108.355 39.9082Z" fill="#FDCEAE"/>
<path fill-rule="evenodd" clip-rule="evenodd" d="M63.651 47.4702L53.2661 48.9464C40.0842 50.8162 30.787 42.5393 26.431 29.0415C25.1983 30.1862 23.7377 30.673 22.0388 30.4607C24.1313 47.579 33.9828 57.4252 51.2305 61.1131C51.6604 74.5228 53.5924 83.8184 53.2661 97.0002C59.5 104.5 71 106 81.5825 98.5002C80.4637 85.1112 80.3446 77.8066 81.5825 64.8371C86.0265 69.2967 94.205 74.6523 97.0796 74.124C102.166 73.1917 104.89 60.4138 106.491 48.8842C104.595 48.7133 103.285 47.7188 102.497 45.9889C100.519 52.4322 98.2191 57.7982 95.7122 63.8375C86.503 57.8033 83.0638 52.3286 72.596 46.9833L63.651 47.4702Z" fill="url(#paint0_linear)"/>
<path fill-rule="evenodd" clip-rule="evenodd" d="M63.506 42.3425H72.5909V46.9782C75.1185 49.4488 73.7925 51.3445 70.1876 51.1581C67.1161 50.9975 63.506 49.9305 63.506 46.2945V42.3425Z" fill="#FDCEAE"/>
<path fill-rule="evenodd" clip-rule="evenodd" d="M63.506 42.3425H72.5909V44.6578L64.9096 49.4747C64.055 48.7392 63.506 47.7085 63.506 46.2893V42.3425Z" fill="#F3B898"/>
<path fill-rule="evenodd" clip-rule="evenodd" d="M76.2062 24.582L63.506 42.3425L63.6199 44.3004C60.1031 39.3902 56.4515 38.3957 54.8666 33.1489C52.7792 26.2342 54.5403 20.3037 60.6728 18.0921C62.4856 17.4394 64.6351 18.7291 66.3547 17.802C70.7832 15.4246 72.71 16.3466 73.0985 18.0092C73.7459 20.7699 78.335 16.8231 79.6868 19.4387C81.0231 22.0285 79.4123 24.121 76.2062 24.582Z" fill="#424B96"/>
<path fill-rule="evenodd" clip-rule="evenodd" d="M67.5667 25.7371C70.5916 26.1515 73.4714 25.7786 76.2062 24.5873C80.6709 32.0976 80.8315 42.6483 72.9016 44.6734C68.5146 45.7922 62.6151 44.114 61.9055 38.7895C58.7823 38.4736 57.4045 33.408 59.0775 32.0924C60.8334 30.7095 62.0402 33.2992 62.3199 34.7961L63.0865 34.5682L62.6773 30.5334C64.8993 29.5285 66.5101 27.9125 67.5667 25.7371Z" fill="#FDCEAE"/>
<path fill-rule="evenodd" clip-rule="evenodd" d="M67.5667 25.7371C70.5916 26.1515 73.4714 25.7786 76.2062 24.5873C73.9945 26.8145 71.296 28.2855 67.862 28.6118C64.1586 34.8065 65.9766 42.1562 74.2172 44.228C73.808 44.4041 73.3678 44.5543 72.9016 44.6734C68.5146 45.7922 62.6151 44.114 61.9055 38.7895C58.7823 38.4736 57.4045 33.408 59.0775 32.0924C60.8334 30.7095 62.0402 33.2992 62.3199 34.7961L63.0865 34.5682L62.6773 30.5334C64.8993 29.5285 66.5101 27.9125 67.5667 25.7371Z" fill="#F3B898"/>
<path fill-rule="evenodd" clip-rule="evenodd" d="M103.735 40.9181L107.118 40.1464L108.381 45.6574C108.48 46.0924 108.205 46.5327 107.77 46.6311L105.973 47.0403C105.538 47.1387 105.098 46.8642 104.999 46.4291L103.735 40.9181Z" fill="#3B70CC"/>
<path fill-rule="evenodd" clip-rule="evenodd" d="M100.384 29.4818C108.096 28.275 114.607 26.1929 118.285 21.3707L125.862 38.5253L120.781 44.6941C113.566 40.1827 108.324 40.4676 101.679 41.0995C98.5092 41.3999 95.6501 39.2608 95.2979 36.0961C95.1736 34.9825 95.3807 33.9 95.8314 32.9366C95.8469 32.9003 95.8676 32.8641 95.8832 32.8278L95.8883 32.8123C95.9971 32.5896 96.1214 32.3772 96.2561 32.17C96.2768 32.1389 96.2975 32.1079 96.3182 32.0768L96.3286 32.0612C96.3493 32.0302 96.37 32.0043 96.3907 31.9732L96.4011 31.9576C96.4218 31.9266 96.4425 31.8955 96.4684 31.8696L96.4736 31.8644C96.4995 31.8333 96.5202 31.8023 96.5461 31.7712L96.5565 31.7556C96.6549 31.6313 96.7533 31.5122 96.8621 31.3983L96.8724 31.3879L96.9346 31.3206L96.9657 31.2895L97.0227 31.2325L97.0589 31.1963L97.1159 31.1393L97.1521 31.103L97.2091 31.0461L97.2454 31.0098C97.2661 30.9891 97.2868 30.9735 97.3075 30.9528L97.3386 30.9269C97.3593 30.9062 97.3852 30.8855 97.4059 30.8648C97.437 30.8389 97.4681 30.813 97.5043 30.7819L97.5665 30.7301L97.6079 30.6939L97.6649 30.6472L97.7115 30.611L97.7737 30.5644L97.8203 30.5333L97.8824 30.4867L97.9342 30.4504L97.986 30.4142L98.0534 30.3675L98.1 30.3416C98.1259 30.3261 98.1466 30.3106 98.1725 30.295L98.2191 30.2691C98.245 30.2536 98.2709 30.2381 98.2968 30.2225L98.3331 30.2018L98.3641 30.1863C98.3952 30.1707 98.4211 30.1552 98.4522 30.1396L98.4884 30.1189L98.5661 30.0775L98.6179 30.0516L98.6904 30.0153L98.7422 29.9894L98.8148 29.9584L98.8717 29.9325C98.8976 29.9221 98.9235 29.9117 98.9442 29.9014L98.996 29.8807C99.0219 29.8703 99.053 29.8548 99.0789 29.8444L99.1203 29.8289C99.1514 29.8185 99.1825 29.803 99.2136 29.7926L99.255 29.7771C99.2965 29.7615 99.3379 29.746 99.3741 29.7356L99.4259 29.7201C99.4518 29.7097 99.4777 29.7046 99.5088 29.6942L99.5606 29.6787C99.5865 29.6683 99.6124 29.6631 99.6435 29.6528L99.7004 29.6372L99.7781 29.6165L99.8351 29.601L99.9232 29.5803L99.9698 29.5699C100.001 29.5647 100.032 29.5544 100.068 29.5492L100.11 29.5388C100.141 29.5336 100.172 29.5285 100.203 29.5181L100.249 29.5077C100.291 29.4974 100.338 29.487 100.384 29.4818Z" fill="#AABEEB"/>
<path fill-rule="evenodd" clip-rule="evenodd" d="M100.384 29.4818C108.096 28.275 114.607 26.1929 118.285 21.3707C116.285 27.3479 115.653 33.325 116.586 39.3022C111.701 38.2767 106.817 38.287 101.933 38.8878L98.3434 30.2018L98.3693 30.1863C98.4004 30.1707 98.4263 30.1552 98.4574 30.1396L98.4936 30.1189L98.5713 30.0775L98.6231 30.0516L98.6956 30.0153L98.7474 29.9894L98.8199 29.9584L98.8769 29.9325C98.9028 29.9221 98.9287 29.9117 98.9494 29.9014L99.0012 29.8807C99.0271 29.8703 99.0582 29.8548 99.0841 29.8444L99.1255 29.8289C99.1566 29.8185 99.1877 29.803 99.2188 29.7926L99.2602 29.7771C99.3016 29.7615 99.3431 29.746 99.3793 29.7356L99.4311 29.7201C99.457 29.7097 99.4829 29.7046 99.514 29.6942L99.5658 29.6787C99.5917 29.6683 99.6176 29.6631 99.6487 29.6528L99.7056 29.6372L99.7833 29.6165L99.8403 29.601L99.9284 29.5803L99.975 29.5699C100.006 29.5647 100.037 29.5544 100.073 29.5492L100.115 29.5388C100.146 29.5336 100.177 29.5285 100.208 29.5181L100.255 29.5077C100.291 29.4974 100.338 29.487 100.384 29.4818Z" fill="#B7CDFE"/>
<path fill-rule="evenodd" clip-rule="evenodd" d="M100.384 29.4818C100.804 29.4145 101.218 29.3472 101.632 29.2747C101.311 31.3257 101.259 33.7601 101.544 36.3447C101.731 38.0177 102.042 39.5974 102.44 41.027C102.187 41.0477 101.928 41.0736 101.674 41.0995C98.504 41.3999 95.6449 39.2608 95.2927 36.0961C94.9405 32.9314 97.2402 29.9739 100.384 29.4818Z" fill="#407ADB"/>
<path fill-rule="evenodd" clip-rule="evenodd" d="M125.458 12.1823C130.98 11.5711 136.454 20.0655 137.687 31.1548C138.92 42.2442 135.439 51.733 129.918 52.3442C124.396 52.9554 118.922 44.4662 117.689 33.3717C116.461 22.2771 119.937 12.7934 125.458 12.1823Z" fill="#B7CDFE"/>
<path fill-rule="evenodd" clip-rule="evenodd" d="M125.598 13.4202C130.436 12.8815 135.294 20.8839 136.449 31.2895C137.604 41.6952 134.621 50.5625 129.783 51.1012C124.945 51.6398 120.087 43.6375 118.932 33.2318C117.777 22.8262 120.76 13.9589 125.598 13.4202Z" fill="#AABEEB"/>
<path d="M129.631 49.7514C134.016 49.2649 136.7 41.0387 135.628 31.3778C134.556 21.7169 130.133 14.2796 125.749 14.7661C121.365 15.2527 118.68 23.4788 119.752 33.1397C120.824 42.8006 125.247 50.2379 129.631 49.7514Z" fill="#6FA0FD"/>
<path fill-rule="evenodd" clip-rule="evenodd" d="M124.267 46.5018C122.081 43.4977 120.362 38.6859 119.745 33.1386C119.377 29.8393 119.45 26.7108 119.88 23.9968C122.387 23.9346 124.956 28.9847 125.671 35.4539C126.199 40.1879 125.593 44.3937 124.267 46.5018Z" fill="#5E94EA"/>
<path fill-rule="evenodd" clip-rule="evenodd" d="M125.173 31.16L119.522 29.7512C119.548 30.8545 119.621 31.9888 119.75 33.1438C119.921 34.7028 120.185 36.1997 120.517 37.6189L125.707 35.718L125.173 31.16Z" fill="#505BB5"/>
<path fill-rule="evenodd" clip-rule="evenodd" d="M119.901 34.3299L125.437 33.4338L125.702 35.7128L120.512 37.6137C120.268 36.5623 120.061 35.4642 119.901 34.3299Z" fill="#424B96"/>
<path fill-rule="evenodd" clip-rule="evenodd" d="M125.173 31.16C125.816 31.0875 126.447 32.0508 126.587 33.3095C126.727 34.5681 126.323 35.6454 125.681 35.7179C125.039 35.7905 124.407 34.8271 124.267 33.5684C124.127 32.3098 124.531 31.2273 125.173 31.16Z" fill="#AABEEB"/>
<path fill-rule="evenodd" clip-rule="evenodd" d="M102.223 29.171C101.897 31.2325 101.84 33.6824 102.13 36.2825C102.316 37.9607 102.627 39.5404 103.031 40.9751C102.834 40.9907 102.637 41.0114 102.44 41.0269C102.036 39.5974 101.726 38.0176 101.544 36.3446C101.259 33.7601 101.311 31.3257 101.632 29.2746C101.829 29.2435 102.026 29.2073 102.223 29.171Z" fill="#424B96"/>
<path fill-rule="evenodd" clip-rule="evenodd" d="M21.7177 4.64575L26.8351 11.721C30.4763 16.7503 29.3419 23.8151 24.3126 27.4563C19.2833 31.0975 12.2185 29.9632 8.57727 24.9339L3.45991 17.8587L7.79516 14.7199L12.9125 21.7951C14.8186 24.4315 18.5375 25.0271 21.1738 23.1211C23.8102 21.215 24.4059 17.4961 22.4998 14.8598L17.3824 7.78454L21.7177 4.64575Z" fill="#B7CDFE"/>
<path d="M4.43518 10.0698L0.100262 13.2062L3.56764 17.9985L7.90256 14.8621L4.43518 10.0698Z" fill="#424B96"/>
<path d="M3.54797 18.0969L3.50653 18.04L0 13.1919L0.056975 13.1505L4.4492 9.97546L4.49064 10.0324L7.99717 14.8805L7.94019 14.9219L3.54797 18.0969ZM0.191643 13.223L3.57905 17.9053L7.80553 14.8494L4.41812 10.1671L0.191643 13.223Z" fill="#3F79DC"/>
<path d="M18.3487 -2.74282e-05L14.0138 3.13586L17.4806 7.9282L21.8155 4.79231L18.3487 -2.74282e-05Z" fill="#424B96"/>
<defs>
<linearGradient id="paint0_linear" x1="58" y1="45.0002" x2="75" y2="105.5" gradientUnits="userSpaceOnUse">
<stop stop-color="#407ADB"/>
<stop offset="1" stop-color="#548DED"/>
</linearGradient>
</defs>
</svg>
