<svg width="96" height="112" viewBox="0 0 96 112" fill="none" xmlns="http://www.w3.org/2000/svg">
<path d="M65.5267 16.7812L61.0477 25.2806L58.7496 24.4449L59.4956 26.7124L55.0044 40.2421C55.0044 40.2431 52.5198 23.0518 65.5267 16.7812Z" fill="url(#paint0_linear)"/>
<path d="M58.0536 24.2961C58.0536 24.2961 53.0997 42.5585 52.6228 59.9852C52.6228 59.9852 56.7318 61.417 63.1858 60.2838C69.6744 59.1434 58.0536 24.2961 58.0536 24.2961Z" fill="url(#paint1_linear)"/>
<path d="M34.3339 49.6189C35.6628 49.5934 37.5349 49.7585 38.1535 49.0818C38.8546 48.3144 39.6811 48.4276 39.6811 48.4276L39.514 47.5511L39.3132 46.5045C39.3132 46.5045 39.2378 46.4087 38.9647 46.4128C38.9647 46.4128 38.0017 46.4546 37.542 46.2895C36.422 45.889 31.9685 48.558 32.1183 49.2989C32.1754 49.5761 33.7683 49.6301 34.3339 49.6189Z" fill="#FAB98D"/>
<path d="M58.6131 23.9374C58.6131 23.9374 51.088 39.4798 48.7593 41.148C46.4307 42.8163 38.1291 46.4239 38.1291 46.4239C38.1291 46.4239 37.912 46.9406 38.1127 47.6978C38.3227 48.4856 38.7364 48.7088 38.7364 48.7088C38.7364 48.7088 50.343 47.6723 53.0416 45.9929C55.7402 44.3134 61.6897 37.6189 61.6897 37.6189L58.6131 23.9374Z" fill="url(#paint2_linear)"/>
<path d="M80.638 111.083H85.0915C85.652 110.778 86.1513 110.081 86.3093 109.043C86.5264 107.608 88.1345 106.825 88.483 105.652C88.8306 104.479 87.0481 102.827 87.0481 102.827L86.7506 102.443L86.4408 102.045L83.4853 102.741C83.4853 102.741 83.412 103.445 83.3681 104.342C83.3355 104.989 83.3192 105.736 83.3549 106.392C83.4415 107.957 82.9177 109.642 81.5266 109.947C80.4984 110.171 80.5442 110.78 80.638 111.083Z" fill="#447EDF"/>
<path d="M54.7914 111.083H64.9763C65.4665 110.485 65.2862 108.28 65.2118 107.559C65.1965 107.414 65.1863 107.33 65.1863 107.33C65.1863 107.33 61.7081 104.548 61.2301 106.678C61.2158 106.745 61.1975 106.81 61.1781 106.874C60.5758 108.867 57.8762 109.773 56.318 110.024C55.304 110.189 54.93 110.716 54.7914 111.083Z" fill="#447EDF"/>
<path d="M56.7318 54.2323C56.7318 54.2323 57.2597 60.8209 57.8803 68.7413C58.7241 79.5 59.7381 92.7158 59.839 95.2197C60.0123 99.5672 60.7083 106.522 60.7083 106.522C60.7083 106.522 62.3593 108.174 65.6632 107.478C65.6632 107.478 68.6074 97.5504 69.4492 87.0465C69.4624 86.8743 69.4757 86.701 69.4879 86.5278C70.2706 75.8353 71.4874 53.3192 71.4874 53.3192L56.7318 54.2323Z" fill="url(#paint3_linear)"/>
<path d="M56.7318 54.2323C56.7318 54.2323 57.2597 60.8209 57.8803 68.7413L69.4492 87.0465C69.4624 86.8743 69.4757 86.701 69.4879 86.5278C70.2706 75.8353 71.4874 53.3192 71.4874 53.3192L56.7318 54.2323Z" fill="url(#paint4_linear)"/>
<path d="M59.144 55.014C59.144 55.014 68.6635 78.8764 74.9218 90.0906C81.1811 101.305 83.1368 104.435 83.1368 104.435C83.1368 104.435 86.723 103.001 87.0492 102.022C87.0492 102.022 84.6553 80.3724 80.4637 75.0955C78.0953 72.1136 75.3131 63.1638 75.1827 60.0341C75.0522 56.9044 74.3348 50.7103 74.3348 50.7103L59.144 55.014Z" fill="url(#paint5_linear)"/>
<path d="M61.5134 20.2278C65.2332 21.4018 71.6698 18.2334 71.6698 18.2334C71.6698 18.2334 68.2405 15.6592 68.4199 10.3079L65.544 12.6253L63.5904 14.1998C63.5904 14.1998 63.5985 15.1282 63.8115 16.7547C63.8502 17.0513 63.8961 17.3713 63.9501 17.7137C63.9929 17.9868 63.8727 18.262 63.6372 18.4077C62.2818 19.2454 61.5134 20.2278 61.5134 20.2278Z" fill="#FAB98D"/>
<path d="M56.3211 54.7805C56.4332 54.8733 56.5637 54.9293 56.7125 54.9293C58.1096 54.91 62.183 55.6865 65.6296 55.3319C68.5351 55.0527 71.1073 54.1925 73.8691 52.9543C74.236 52.7902 75.0798 52.3398 75.0614 51.9291C75.0492 51.4797 75.0044 50.8295 74.9483 50.0091C74.7526 47.1587 74.4123 42.2558 74.7445 36.5987C74.8046 35.546 74.8352 34.5004 74.8393 33.4721C74.8678 25.8053 73.3473 19.0619 70.293 16.7802C70.293 16.7802 68.1631 17.9756 66.6885 18.4464C65.2444 18.908 64.4994 18.8153 63.7504 18.318C63.7504 18.318 62.291 19.0426 61.6684 19.7223C60.2253 21.2958 59.0982 23.385 58.3532 26.3832C57.7193 28.935 57.1262 32.6558 56.9214 37.4242C56.8276 39.5857 56.2284 54.7062 56.3211 54.7805Z" fill="url(#paint6_linear)"/>
<path d="M74.3868 29.4487L70.292 16.7812C70.292 16.7812 60.4617 20.4888 60.0062 34.37C59.8268 37.5333 59.0686 50.4963 60.4413 61.2387C60.4413 61.2387 68.0999 64.2226 77.4899 58.3343L74.3868 29.4487Z" fill="url(#paint7_linear)"/>
<path d="M63.5894 14.1998C63.5894 14.1998 63.5975 15.1282 63.8105 16.7547C65.9751 16.3838 68.4311 12.8842 68.4311 12.8842C67.3285 12.5662 66.3634 12.5091 65.543 12.6253L63.5894 14.1998Z" fill="#EEA676"/>
<path d="M61.9781 14.1C61.9781 14.1 68.6777 15.2128 69.3075 11.0304C69.9363 6.84699 71.2245 4.17387 66.9738 3.28623C62.7231 2.39859 61.65 3.86916 61.0997 5.21438C60.5504 6.5596 60.2518 13.7025 61.9781 14.1Z" fill="#FAB98D"/>
<path d="M91.3773 68.2144L77.6978 70.164C75.9174 70.4177 74.2533 69.1683 73.9995 67.3879L73.1547 61.4598C72.9009 59.6794 74.1503 58.0152 75.9307 57.7614L89.6102 55.8119C91.3905 55.5582 93.0547 56.8076 93.3085 58.588L94.1533 64.5161C94.4071 66.2965 93.1576 67.9607 91.3773 68.2144Z" fill="#407EE3"/>
<path d="M74.9575 61.1989L75.8125 67.1953C75.9786 68.3561 76.7409 69.2927 77.7447 69.736C78.077 69.8837 78.4367 69.9765 78.8107 70.005C78.8117 70.005 78.8117 70.005 78.8127 70.005H78.8138C79.0461 70.0234 79.2856 70.0172 79.5261 69.9826L93.1811 68.0361C94.9676 67.7813 96.2211 66.111 95.9673 64.3245L95.1133 58.3271C94.8575 56.5406 93.1882 55.2871 91.4007 55.5409L86.6986 56.2114L86.5162 54.9324C86.4326 54.3414 85.8823 53.9296 85.2912 54.0132L84.7755 54.0866L81.9159 54.4942L81.2056 54.5961C80.9203 54.6359 80.6665 54.7867 80.4922 55.0181C80.318 55.2504 80.2446 55.5358 80.2864 55.8201L80.4688 57.0991L77.7447 57.4863C77.6367 57.5016 77.5317 57.523 77.4288 57.5475C77.4278 57.5485 77.4268 57.5485 77.4268 57.5485H77.4257C76.374 57.8063 75.5435 58.5656 75.1593 59.5276V59.5286C74.9524 60.0422 74.8749 60.614 74.9575 61.1989ZM86.0249 56.3062L81.1383 57.0033L80.9559 55.7243C80.9243 55.5042 81.0782 55.2993 81.2994 55.2677L82.5264 55.0924L84.7776 54.7714L85.385 54.6848C85.4268 54.6797 85.4675 54.6797 85.5062 54.6868C85.6764 54.7144 85.816 54.8499 85.8425 55.0282L86.0249 56.3062Z" fill="#5E96F1"/>
<path d="M80.9753 50.5625C80.9753 50.5625 81.6938 51.5194 81.7223 51.9016C81.9149 54.4932 80.7317 54.8519 83.7972 56.2909C83.7972 56.2909 85.1057 56.7902 85.1281 55.7742C85.1506 54.7581 84.2201 54.7418 84.3903 53.3192C84.587 51.6784 84.5666 51.6631 83.4894 50.8061L82.776 49.627L80.9753 50.5625Z" fill="#FFB27D"/>
<path d="M82.8015 51.2963C81.6469 51.5215 80.3944 51.4298 80.3944 51.4298C80.3944 51.4298 76.9651 40.8372 76.5238 39.8701C76.0826 38.902 66.3389 27.4492 66.3389 27.4492L70.291 16.7812C70.291 16.7812 72.6095 18.1377 75.0594 22.3659C78.0872 27.5889 81.4145 36.0016 82.0066 37.3682C83.7748 41.4558 84.3883 50.6206 84.3883 50.6206C84.3883 50.6206 83.7085 51.119 82.8015 51.2963Z" fill="url(#paint8_linear)"/>
<path d="M69.3126 10.6279C69.3126 10.6279 68.6247 10.5127 68.7358 9.56597C68.8469 8.61922 68.8449 7.381 68.0754 7.61234C67.305 7.84265 67.2673 8.45922 66.9503 8.09947C66.6344 7.73973 66.6283 6.2233 64.3374 6.11731C62.0464 6.01132 61.1149 6.80928 60.05 6.34049C58.985 5.87171 58.9279 4.25948 58.9279 4.25948C58.9279 4.25948 59.2306 4.83528 59.6882 5.01872C59.6882 5.01872 57.9109 2.58815 59.9685 0.920893C62.026 -0.746363 64.1244 0.345098 65.3157 0.417455C67.9399 0.576435 69.6347 0.733379 70.4917 2.45771C71.3498 4.18101 70.9962 8.96775 69.3126 10.6279Z" fill="#424B96"/>
<path d="M82.1085 51.7019C82.1085 51.7019 81.4166 52.4234 81.3727 52.723C81.2321 53.6861 80.9111 54.1019 81.0721 54.2069C81.4074 54.425 81.8507 53.7116 82.0627 53.0716C82.2747 52.4316 82.1085 51.7019 82.1085 51.7019Z" fill="#FFB27D"/>
<path d="M70.292 16.7812L65.813 25.2806L63.515 24.4449L64.2609 26.7124L59.7698 40.2421C59.7698 40.2431 57.2852 23.0518 70.292 16.7812Z" fill="url(#paint9_linear)"/>
<path d="M61.5134 11.7264C61.5134 11.7264 61.7743 12.4164 62.4265 12.4347C63.0788 12.4531 63.5822 11.8192 63.5822 11.8192C63.5822 11.8192 62.1657 11.492 61.5134 11.7264Z" fill="white"/>
<path d="M26.554 75.8526L40.158 72.7005C41.9282 72.2898 43.0411 70.5064 42.6314 68.7352L41.2658 62.8397C40.8561 61.0695 39.0717 59.9566 37.3005 60.3663L23.6964 63.5184C21.9263 63.9291 20.8134 65.7125 21.2231 67.4837L22.5887 73.3792C22.9994 75.1504 24.7838 76.2633 26.554 75.8526Z" fill="#5E96F1"/>
<path d="M38.6732 61.7512C37.9599 60.9839 36.901 60.5711 35.8146 60.7118H35.8136C35.8126 60.7118 35.8126 60.7128 35.8116 60.7118C35.7056 60.726 35.5986 60.7444 35.4916 60.7688L32.7828 61.3976L32.4883 60.1258C32.4231 59.8414 32.2498 59.5999 32.0012 59.445C31.7525 59.2911 31.459 59.2412 31.1757 59.3074L30.4694 59.4705L27.6251 60.1299L27.1125 60.2491C26.5255 60.3856 26.1566 60.9747 26.2931 61.5617L26.5877 62.8335L21.912 63.9168C20.1347 64.3286 19.0178 66.1191 19.4295 67.8964L20.8114 73.8603C21.2231 75.6376 23.0137 76.7545 24.791 76.3428L38.3706 73.1968C38.6101 73.1418 38.8373 73.0613 39.0503 72.9583H39.0513C39.0523 72.9583 39.0523 72.9583 39.0523 72.9573C39.3948 72.7943 39.6985 72.5752 39.9583 72.3153C40.743 71.5316 41.1201 70.3708 40.8531 69.2162L39.4722 63.2534C39.3357 62.6715 39.0544 62.1609 38.6732 61.7512ZM26.9607 61.4068C26.9199 61.2284 27.0024 61.0501 27.1522 60.9625C27.1869 60.9421 27.2246 60.9268 27.2664 60.9166L27.8707 60.776L30.1097 60.2582L31.3296 59.976C31.5487 59.925 31.7688 60.0626 31.8198 60.2817L32.1143 61.5535L27.2552 62.6786L26.9607 61.4068Z" fill="#407EE3"/>
<path d="M29.752 54.0785C29.752 54.0785 29.3412 55.5358 29.4819 55.9995C30.4378 59.1455 32.0898 61.2041 27.6475 60.6731C27.6475 60.6731 27.8309 60.4907 26.981 58.8907C26.0006 57.0441 26.0169 57.0176 26.8964 55.5144L27.2001 53.7982L29.752 54.0785Z" fill="#FDCEAE"/>
<path d="M35.3407 50.3322C33.9996 50.2507 32.365 49.9001 31.7698 49.1908C31.0941 48.3867 30.4205 48.1707 30.4205 48.1707L30.6264 47.2922L30.873 46.2436C30.873 46.2436 30.9535 46.1508 31.2286 46.1651C31.2286 46.1651 32.2804 46.4026 32.6707 46.1009C33.061 45.7992 33.7754 45.9827 34.2146 46.2752C34.7741 46.6461 35.5293 46.587 35.5099 46.7684C35.5099 46.7684 34.4011 47.3136 34.5051 47.4053C35.5201 48.3062 38.1942 48.665 38.02 49.3692C37.9507 49.6474 35.9125 50.3669 35.3407 50.3322Z" fill="#FDCEAE"/>
<path d="M16.6514 16.071L16.6473 16.7996C16.6473 16.7996 16.846 19.0794 14.0384 19.4126C11.2308 19.7469 8.92859 19.702 9.00502 17.9431C9.25776 16.5805 9.71126 14.4669 9.72961 13.3398C9.73674 12.9209 9.70821 12.4766 9.62974 11.9742L15.0697 11.8651L16.6718 12.127L16.6514 16.071Z" fill="#FDCEAE"/>
<path d="M16.6728 12.1271L16.6524 16.07C16.0746 16.339 15.4223 16.5031 14.6916 16.5031C12.1918 16.5031 10.5755 14.6697 9.73064 13.3388C9.73777 12.9199 9.70924 12.4756 9.63077 11.9732L15.0708 11.8641L16.6728 12.1271Z" fill="#F5C19D"/>
<path d="M9.21291 11.0987C9.84373 14.4953 14.2269 14.3843 16.1214 14.1703C16.6544 14.1111 16.9897 14.0429 16.9897 14.0429C17.591 13.8818 17.9262 12.9361 18.0822 11.6959C18.391 9.24186 18.0006 5.63932 17.5859 4.71805C16.9622 3.33207 15.7861 1.83194 11.3724 2.91423C6.95864 3.99652 8.40374 6.74607 9.21291 11.0987Z" fill="#FDCEAE"/>
<path d="M5.62668 111.67H11.8381C11.7912 111.344 11.6333 110.353 11.3428 109.44C11.2419 109.122 11.1248 108.814 10.9913 108.546C10.3869 107.34 6.54999 108.106 6.54999 108.106C6.54999 108.106 6.1933 108.412 5.91508 109.578C5.79177 110.093 5.68375 110.774 5.62668 111.67Z" fill="#447EDF"/>
<path d="M24.3956 109.71C24.4129 110.555 24.5189 111.355 24.8256 111.67H37.1109C36.955 111.226 36.5127 110.557 35.2511 110.352C33.8182 110.12 31.5843 109.43 30.2799 108.051C29.8152 107.561 29.4687 106.983 29.3168 106.309C28.739 103.735 24.5382 107.097 24.5382 107.097C24.5382 107.097 24.368 108.452 24.3956 109.71Z" fill="#447EDF"/>
<path d="M16.2244 81.8929C16.3956 82.8356 16.5036 83.6081 16.5332 84.1625C16.9235 91.7803 22.9454 109.199 24.0226 109.604C25.6888 110.233 28.314 108.896 29.6867 108.459C30.2554 108.278 30.6396 107.703 30.5132 107.121C27.5313 93.4108 26.4348 73.6697 26.0363 61.9816C25.8345 56.0943 24.8246 52.028 24.8246 52.028C24.8246 52.028 10.1372 48.1096 10.0496 53.0665C9.97215 57.4537 14.9148 74.6573 16.2244 81.8929Z" fill="url(#paint10_linear)"/>
<path d="M16.2244 81.8929L26.0363 61.9816C25.8345 56.0943 24.8246 52.028 24.8246 52.028C24.8246 52.028 10.1372 48.1096 10.0496 53.0665C9.97215 57.4537 14.9148 74.6573 16.2244 81.8929Z" fill="url(#paint11_linear)"/>
<path d="M19.4926 53.0838L11.7281 109.358C11.7281 109.358 8.31814 110.18 5.66642 109.522C5.66642 109.522 3.3928 79.5927 3.58236 72.3571C3.77191 65.1214 1.95077 52.9961 3.99815 51.6591C6.04451 50.322 19.4926 53.0838 19.4926 53.0838Z" fill="url(#paint12_linear)"/>
<path d="M17.7561 5.24908C16.5434 5.63125 13.9783 5.24093 12.9062 6.10819C11.8341 6.97647 12.8552 8.40627 11.6302 8.91583L11.6251 8.91786C11.3775 9.02079 11.0891 8.95149 10.9209 8.74156C10.5816 8.31761 10.1118 7.8957 9.68274 8.06997C9.33013 8.21468 9.3128 8.6692 9.46771 9.11149C9.59815 9.48347 9.56146 9.90028 9.33624 10.2244C9.2384 10.364 9.17521 10.5179 9.20273 10.6728C9.30464 11.2333 9.58287 11.963 9.68478 12.3359L9.7133 12.7273C9.7133 12.7273 7.66082 10.5056 6.7956 8.63557C6.20248 7.35252 6.2137 2.55661 9.11611 1.15534C9.10388 1.14616 9.09471 1.13597 9.08859 1.12374C9.02541 1.01164 8.85114 1.03712 8.85114 1.03712C9.10082 0.925021 9.48808 0.996356 9.48808 0.996356C9.47993 0.990241 9.49522 0.971898 9.52987 0.945401C9.58083 0.606039 9.92222 0.363489 9.92222 0.363489C9.80605 0.531642 9.75712 0.698775 9.73674 0.822087C10.499 0.420559 12.845 -0.470137 14.7049 0.340052C15.9625 0.887312 17.1161 1.17878 17.8998 1.32961C18.5449 1.45394 19.0025 2.02973 18.979 2.68705C18.9464 3.60731 18.6254 4.93214 17.7561 5.24908Z" fill="#424B96"/>
<path d="M8.34262 18.9203L10.1301 57.2764C10.1301 57.2764 25.0498 57.5199 24.6238 54.1436C24.1979 50.7673 19.246 20.0943 19.246 20.0943" fill="#E9F3FE"/>
<path d="M13.2618 42.9468C13.2618 42.9468 12.5046 53.1908 11.0494 59.6234C11.0494 59.6234 2.34314 60.0851 0.276398 56.7241C0.276398 56.7241 1.91207 42.8846 1.91207 40.078C1.91207 39.0915 1.83563 37.7504 1.71537 36.2502C1.53397 33.9787 1.25372 31.3483 0.986711 29.0564C0.616776 25.8645 0.276398 23.328 0.276398 23.328L7.45498 17.4946L13.2618 42.9468Z" fill="url(#paint13_linear)"/>
<path d="M30.5377 55.068C30.5377 55.068 28.9133 56.0851 26.3553 55.7437C25.4238 58.0275 23.2277 58.803 23.2277 58.5961C23.2277 58.5707 22.7344 54.2833 22.1525 49.2316C22.0954 48.7261 22.0363 48.2145 21.9772 47.6988C21.9721 47.655 21.966 47.6102 21.9619 47.5664C21.8641 46.7205 21.7663 45.8645 21.6674 45.0125C20.9663 38.9274 20.2937 33.0941 20.2937 33.0941C18.7671 23.7478 17.4748 17.571 17.4748 17.571C20.7319 17.9104 22.9301 19.0701 23.8065 20.5896C26.4063 25.0951 28.2886 36.3654 29.3912 44.8015C29.3933 44.8229 29.3963 44.8443 29.3994 44.8657C29.5889 46.322 29.7561 47.6938 29.8987 48.9289C29.9079 49.0064 29.9171 49.0828 29.9252 49.1582C30.3298 52.6935 30.5377 55.068 30.5377 55.068Z" fill="url(#paint14_linear)"/>
<path d="M15.4325 11.6572C15.4325 11.6572 15.5742 12.0954 16.6799 11.9354C16.6799 11.9354 17.6083 11.8009 17.54 11.3127C17.54 11.3127 16.6065 11.0376 15.4325 11.6572Z" fill="white"/>
<path d="M7.92071 17.4487C7.90236 17.0829 9.63586 16.5774 9.63586 16.5774C9.63586 16.5774 11.6201 19.329 14.8894 19.3769C14.8894 19.3769 13.9579 21.1899 12.8593 21.6597C12.8603 21.6587 8.02771 19.6225 7.92071 17.4487Z" fill="#D9E9F9"/>
<path d="M14.8893 19.3117C14.8893 19.3117 16.6218 18.2844 16.6269 17.1715C16.6269 17.1715 17.7459 17.0319 18.234 17.5741C18.234 17.5741 18.6447 19.4818 18.0995 20.5896C18.1016 20.5896 15.6068 20.2095 14.8893 19.3117Z" fill="#D9E9F9"/>
<path d="M13.7143 19.1467L16.0634 18.5841C16.0634 18.5841 16.3701 18.6106 16.3619 18.9938C16.3538 19.376 15.7005 20.4939 15.4111 20.5836C15.1207 20.6712 13.1589 19.9202 13.7143 19.1467Z" fill="url(#paint15_linear)"/>
<path d="M8.19382 17.2593C8.17547 16.8934 9.34948 16.1393 9.34948 16.1393C9.34948 16.1393 11.6211 18.794 14.8904 18.8419C14.8904 18.8419 13.9589 20.6549 12.8603 21.1247C12.8603 21.1247 8.30184 19.433 8.19382 17.2593Z" fill="#E9F3FE"/>
<path d="M14.8893 18.8409C14.8893 18.8409 16.6412 17.9125 16.6473 16.7986C16.6473 16.7986 17.7051 17.2643 18.1933 17.8065C18.1933 17.8065 18.6458 19.0111 18.1005 20.1188C18.1016 20.1199 15.6068 19.7397 14.8893 18.8409Z" fill="#E9F3FE"/>
<path d="M19.1838 51.0038C19.0931 52.1034 18.6723 53.1317 18.0027 53.8879L16.95 55.0761C16.686 55.3747 16.2753 55.3391 16.0593 54.9987L14.7895 53.0064C14.4491 52.4723 14.2932 51.7926 14.3523 51.1098C14.4878 49.5893 14.7405 46.6594 14.9474 43.8334C15.1156 41.5424 15.2552 39.3177 15.2766 37.9654C15.3469 33.6464 14.7803 19.8813 14.7803 19.8813L15.6241 19.9252C15.6241 19.9252 17.6705 25.2469 18.6987 32.507C18.9525 34.2946 19.1431 36.1982 19.2277 38.1712C19.2277 38.1712 19.5915 46.0326 19.1838 51.0038Z" fill="url(#paint16_linear)"/>
<path d="M19.1838 51.0039C19.0931 52.1035 18.6723 53.1318 18.0027 53.888L16.95 55.0763C16.686 55.3749 16.2753 55.3392 16.0593 54.9988L14.7895 53.0065C14.4491 52.4725 14.2932 51.7927 14.3523 51.1099C14.4878 49.5894 14.7405 46.6595 14.9474 43.8335C17.3128 40.5917 18.3013 36.1372 18.6987 32.5082C18.9525 34.2957 19.1431 36.1994 19.2277 38.1724C19.2277 38.1713 19.5915 46.0327 19.1838 51.0039Z" fill="url(#paint17_linear)"/>
<path d="M9.3495 16.1393C9.3495 16.1393 13.9997 35.6154 13.2598 42.9519C13.2598 42.9519 11.5497 35.112 7.43562 28.6906C7.43562 28.6906 8.93676 27.3698 8.85523 26.8837C8.85523 26.8837 7.74033 26.5535 6.65906 26.7757C6.65906 26.7757 6.7783 18.3803 7.45294 17.4937C8.12759 16.606 9.3495 16.1393 9.3495 16.1393Z" fill="url(#paint18_linear)"/>
<path d="M16.6473 16.7996C15.9502 16.8556 21.2557 35.8314 21.6491 41.9134C21.6491 41.9134 21.1833 31.0599 21.2292 27.9312C21.2292 27.9312 19.298 26.9091 19.298 26.5504C19.298 26.1916 21.3586 25.2214 21.3586 25.2214C21.3586 25.2214 20.0542 18.5371 19.3418 17.8013C18.6295 17.0645 16.6473 16.7996 16.6473 16.7996Z" fill="url(#paint19_linear)"/>
<path d="M26.3584 56.5151C26.3584 56.5151 26.0363 56.9513 26.2412 58.0458C26.446 59.1404 26.3329 59.7447 26.6162 59.5562C26.8995 59.3676 27.4845 58.053 27.4845 58.053L26.3584 56.5151Z" fill="#FDCEAE"/>
<path d="M12.6932 45.948C7.27967 45.1399 3.65981 40.0811 1.71536 36.2502C1.53396 33.9787 1.2537 31.3483 0.986694 29.0564L2.25345 25.4426L12.6932 45.948Z" fill="url(#paint20_linear)"/>
<path d="M29.9242 49.1583C28.846 49.4079 25.5757 50.0184 22.1525 49.2306C22.0954 48.7251 22.0363 48.2135 21.9772 47.6979C21.9721 47.654 21.966 47.6092 21.9619 47.5654C22.074 47.1262 22.1872 46.6869 22.2993 46.2477C24.2366 46.9417 28.5657 48.4602 29.8977 48.929C29.9069 49.0074 29.9161 49.0839 29.9242 49.1583Z" fill="#508AEA"/>
<path d="M7.45294 17.4926C7.45497 17.4936 2.69575 18.0938 0.525059 21.1246C-1.64665 24.1555 3.01676 40.6619 12.6932 45.948C17.3484 48.4907 30.7803 49.0634 30.7803 49.0634C30.7803 49.0634 31.5191 49.1378 31.8116 47.6509C31.9135 47.1332 31.8116 46.2486 31.8116 46.2486C31.8116 46.2486 16.5219 40.5162 15.1777 39.4125C13.8335 38.3078 7.45294 17.4926 7.45294 17.4926Z" fill="url(#paint21_linear)"/>
<defs>
<linearGradient id="paint0_linear" x1="59.376" y1="21.8143" x2="69.0412" y2="35.6485" gradientUnits="userSpaceOnUse">
<stop stop-color="#407ADB"/>
<stop offset="1" stop-color="#548DED"/>
</linearGradient>
<linearGradient id="paint1_linear" x1="57.9594" y1="32.1102" x2="73.8948" y2="49.2983" gradientUnits="userSpaceOnUse">
<stop stop-color="#407ADB"/>
<stop offset="1" stop-color="#548DED"/>
</linearGradient>
<linearGradient id="paint2_linear" x1="48.1034" y1="29.2516" x2="54.6341" y2="48.8075" gradientUnits="userSpaceOnUse">
<stop stop-color="#538BEA"/>
<stop offset="1" stop-color="#548DED"/>
</linearGradient>
<linearGradient id="paint3_linear" x1="70.025" y1="67.8088" x2="54.1857" y2="69.4577" gradientUnits="userSpaceOnUse">
<stop stop-color="#6E9AFD"/>
<stop offset="1" stop-color="#B1CAFF"/>
</linearGradient>
<linearGradient id="paint4_linear" x1="70.025" y1="62.3142" x2="54.452" y2="64.9257" gradientUnits="userSpaceOnUse">
<stop stop-color="#6E9AFD"/>
<stop offset="1" stop-color="#B1CAFF"/>
</linearGradient>
<linearGradient id="paint5_linear" x1="84.2835" y1="65.0385" x2="55.1588" y2="70.8369" gradientUnits="userSpaceOnUse">
<stop stop-color="#91B3FD"/>
<stop offset="1" stop-color="#B1CAFF"/>
</linearGradient>
<linearGradient id="paint6_linear" x1="64.2956" y1="25.0705" x2="79.862" y2="48.7469" gradientUnits="userSpaceOnUse">
<stop stop-color="#73A7FE"/>
<stop offset="1" stop-color="#9DC1FC"/>
</linearGradient>
<linearGradient id="paint7_linear" x1="67.2384" y1="26.4809" x2="86.6325" y2="50.4886" gradientUnits="userSpaceOnUse">
<stop stop-color="#407ADB"/>
<stop offset="1" stop-color="#548DED"/>
</linearGradient>
<linearGradient id="paint8_linear" x1="74.0247" y1="24.2183" x2="87.576" y2="46.3358" gradientUnits="userSpaceOnUse">
<stop stop-color="#538BEA"/>
<stop offset="1" stop-color="#548DED"/>
</linearGradient>
<linearGradient id="paint9_linear" x1="64.1413" y1="21.8143" x2="73.8066" y2="35.6485" gradientUnits="userSpaceOnUse">
<stop stop-color="#407ADB"/>
<stop offset="1" stop-color="#548DED"/>
</linearGradient>
<linearGradient id="paint10_linear" x1="28.5068" y1="66.3495" x2="6.6594" y2="69.2471" gradientUnits="userSpaceOnUse">
<stop stop-color="#6293FF"/>
<stop offset="1" stop-color="#9ABAFF"/>
</linearGradient>
<linearGradient id="paint11_linear" x1="24.4518" y1="58.9148" x2="7.74312" y2="62.1824" gradientUnits="userSpaceOnUse">
<stop stop-color="#6293FF"/>
<stop offset="1" stop-color="#9ABAFF"/>
</linearGradient>
<linearGradient id="paint12_linear" x1="17.8597" y1="66.8911" x2="0.187987" y2="68.7993" gradientUnits="userSpaceOnUse">
<stop stop-color="#91B3FD"/>
<stop offset="1" stop-color="#B1CAFF"/>
</linearGradient>
<linearGradient id="paint13_linear" x1="5.80584" y1="26.5371" x2="24.288" y2="44.3863" gradientUnits="userSpaceOnUse">
<stop stop-color="#407ADB"/>
<stop offset="1" stop-color="#548DED"/>
</linearGradient>
<linearGradient id="paint14_linear" x1="23.0372" y1="26.379" x2="41.051" y2="44.3455" gradientUnits="userSpaceOnUse">
<stop stop-color="#407ADB"/>
<stop offset="1" stop-color="#548DED"/>
</linearGradient>
<linearGradient id="paint15_linear" x1="14.7852" y1="19.0146" x2="15.1744" y2="20.6845" gradientUnits="userSpaceOnUse">
<stop stop-color="#538BEA"/>
<stop offset="1" stop-color="#548DED"/>
</linearGradient>
<linearGradient id="paint16_linear" x1="16.4849" y1="27.4752" x2="28.0413" y2="32.6303" gradientUnits="userSpaceOnUse">
<stop stop-color="#538BEA"/>
<stop offset="1" stop-color="#548DED"/>
</linearGradient>
<linearGradient id="paint17_linear" x1="16.4849" y1="37.3932" x2="25.8416" y2="43.8815" gradientUnits="userSpaceOnUse">
<stop stop-color="#538BEA"/>
<stop offset="1" stop-color="#548DED"/>
</linearGradient>
<linearGradient id="paint18_linear" x1="9.50375" y1="21.8914" x2="20.9175" y2="30.8061" gradientUnits="userSpaceOnUse">
<stop stop-color="#6299F3"/>
<stop offset="1" stop-color="#548DED"/>
</linearGradient>
<linearGradient id="paint19_linear" x1="18.7409" y1="22.1872" x2="28.6947" y2="28.4801" gradientUnits="userSpaceOnUse">
<stop stop-color="#6299F3"/>
<stop offset="1" stop-color="#548DED"/>
</linearGradient>
<linearGradient id="paint20_linear" x1="5.97152" y1="29.8416" x2="13.6335" y2="43.5538" gradientUnits="userSpaceOnUse">
<stop stop-color="#538BEA"/>
<stop offset="1" stop-color="#548DED"/>
</linearGradient>
<linearGradient id="paint21_linear" x1="13.5652" y1="24.2656" x2="21.5278" y2="49.4522" gradientUnits="userSpaceOnUse">
<stop stop-color="#538BEA"/>
<stop offset="1" stop-color="#548DED"/>
</linearGradient>
</defs>
</svg>
