<svg width="84" height="118" viewBox="0 0 84 118" fill="none" xmlns="http://www.w3.org/2000/svg">
<path d="M37.4803 68.4566V84.1877C37.4803 86.952 38.2617 89.1875 39.2255 89.1875H70.0297C70.9954 89.1875 71.7749 86.952 71.7749 84.1877V68.4566C71.7749 65.6923 69.0529 63.1325 61.0676 63.2209L39.2236 63.4568C38.2617 63.4568 37.4803 65.6923 37.4803 68.4566Z" fill="#70A1F2"/>
<path d="M33.4001 68.4566V84.1877C33.4001 86.952 34.1815 89.1875 35.1453 89.1875H65.9495C66.9152 89.1875 67.6947 86.952 67.6947 84.1877V68.4566C67.6947 65.6923 64.794 63.044 60.3582 63.1325L35.1435 63.4568C34.1797 63.4568 33.4001 65.6923 33.4001 68.4566Z" fill="#4882E3"/>
<path d="M40.9947 49.5908C40.5745 48.6638 41.2048 9.94248 31.7636 10.4051C22.3224 10.8695 4.69868 11.332 4.69868 11.332C4.69868 11.332 -3.27375 12.0268 1.55098 31.0401C6.37571 50.0533 5.3271 80.1959 5.3271 80.1959H40.1543L40.9947 49.5908Z" fill="#70A1F2"/>
<path d="M8.26838 31.0438C8.85073 33.3142 9.33359 35.7432 9.7593 38.255C11.4621 48.4334 11.9874 60.0308 12.1164 68.4492C12.2159 75.4044 12.0463 80.1885 12.0463 80.1885H46.868L47.7066 49.5834C47.2956 48.6601 47.9185 9.9351 38.4792 10.4032C33.6526 10.6446 26.6827 10.8713 21.0323 11.0556C20.3228 11.0703 19.6262 11.098 18.9591 11.1127C14.5859 11.2399 11.4068 11.3265 11.4068 11.3265C11.4068 11.3265 3.4418 12.0213 8.26838 31.0438Z" fill="url(#paint0_linear)"/>
<path d="M30.1418 108.717V88.2918C30.1418 87.4257 30.8661 86.7014 31.7323 86.7014H31.747C32.0308 86.7014 32.2999 86.7862 32.5284 86.9281C33.0113 87.1972 33.3374 87.7095 33.3374 88.2918V108.744C33.3982 108.754 33.4609 108.765 33.5217 108.776C38.0921 109.485 41.813 112.836 43.0606 117.222H20.2491C21.5318 112.727 25.3982 109.323 30.1418 108.717Z" fill="#70A1F2"/>
<path d="M9.78879 37.645C10.6402 24.5844 17.4682 13.4127 18.9591 11.1146L33.9216 9.6347C33.9216 9.6347 45.4546 17.2643 42.6165 46.6311C41.1532 61.7742 34.9076 51.8557 29.202 38.6955L30.3722 67.2145C30.3722 67.2145 16.4454 68.1654 12.1164 68.4492C11.9892 60.0308 11.464 48.4334 9.75932 38.255C9.75932 38.056 9.77405 37.8441 9.78879 37.645Z" fill="url(#paint1_linear)"/>
<path d="M32.5266 86.9299C33.0094 87.1989 33.3356 87.7113 33.3356 88.2936V113.32C33.3356 113.917 33.0094 114.428 32.5266 114.682C32.0585 114.413 31.7323 113.901 31.7323 113.32V88.2936C31.7304 87.7113 32.0585 87.1989 32.5266 86.9299Z" fill="#4781E2"/>
<path d="M33.5199 108.776C38.0903 109.485 41.8111 112.836 43.0588 117.222H23.9792C25.2305 112.836 28.9347 109.487 33.5199 108.776Z" fill="#4781E2"/>
<path d="M4.83136 81.9467L5.61829 86.4673C5.61829 87.433 5.61091 89.1874 6.57659 89.1874H60.8041C61.7698 89.1874 62.5493 88.406 62.5493 87.4422V81.9485C62.5493 80.9828 61.768 80.2014 60.8041 80.2014H6.57659C5.61091 80.2014 4.83136 80.981 4.83136 81.9467Z" fill="#326CCC"/>
<path d="M70.0592 113.932C69.9597 114.415 69.8602 114.913 69.8896 115.423C69.9615 115.707 70.1458 115.921 70.4148 116.09L70.671 116.573C70.9401 116.7 71.5943 116.8 72.431 116.886L72.4457 116.488C72.56 116.488 72.6724 116.488 72.7867 116.503V116.488C73.78 116.503 75.0148 116.588 76.5204 117.183C76.5352 117.183 76.5499 117.198 76.5628 117.198C76.8319 117.213 77.1028 117.225 77.3442 117.24H81.006C82.766 116.986 83.4626 116.275 83.5898 115.921C83.5898 115.821 82.2703 115.169 81.1774 114.855C81.1627 114.855 81.1351 114.841 81.0927 114.841C80.936 114.784 80.6393 114.671 80.5674 114.656C80.3684 114.586 80.1417 114.529 79.9427 114.472C78.1109 113.932 76.8761 112.712 75.4276 111.363C73.7671 109.815 71.5095 102.917 71.8081 102.79L68.0744 103.273C68.0744 103.273 71.0691 109.264 70.8277 111.124C70.7281 111.947 70.4296 112.642 70.2324 113.352C70.2177 113.379 70.2177 113.424 70.2048 113.451C70.1624 113.551 70.1347 113.65 70.1052 113.75C70.0868 113.82 70.0739 113.875 70.0592 113.932Z" fill="#FDCEAE"/>
<path d="M23.0761 62.1244L39.1334 61.4683C39.1334 61.4683 63.5537 63.0458 65.6251 66.5953L74.8341 109.67C74.8341 109.67 74.3237 110.357 72.595 110.654C71.6809 110.81 69.6888 110.357 69.6888 110.357C69.6888 110.357 57.7633 95.1069 56.23 85.533C54.9492 77.5311 54.4424 76.6944 50.0563 76.8621C45.6702 77.028 32.2096 78.0876 25.8128 76.8492C19.4161 75.6089 23.0761 62.1244 23.0761 62.1244Z" fill="url(#paint2_linear)"/>
<path d="M69.8178 115.025C69.8178 115.167 69.8325 115.309 69.8878 115.423C69.9597 115.707 70.144 115.921 70.413 116.09C70.4407 116.118 70.4702 116.133 70.4978 116.147C70.4978 116.147 70.4978 116.147 70.5125 116.147C70.5273 116.162 70.5402 116.162 70.5549 116.177C71.023 116.461 71.6478 116.461 72.4439 116.488H72.7849C73.7782 116.503 75.0129 116.588 76.5186 117.183C76.5333 117.183 76.5481 117.198 76.561 117.198C76.6034 117.213 76.631 117.225 76.6752 117.24H82.8785C83.7299 116.899 83.9013 116.361 83.986 116.162C84.0561 116.005 83.8589 115.836 83.4756 115.652C83.4479 115.637 83.4055 115.624 83.376 115.594C82.8361 115.353 82.027 115.097 81.1609 114.813C81.1461 114.828 81.1185 114.828 81.089 114.841C80.5066 115.04 78.4776 115.677 76.0929 115.224C74.1062 114.841 72.1325 113.903 70.6139 113.449C70.4867 113.422 70.3577 113.377 70.2306 113.35C70.2029 113.335 70.1734 113.335 70.1458 113.322C70.1182 113.379 70.1034 113.449 70.0887 113.506C69.9468 113.989 69.8178 114.5 69.8178 115.025Z" fill="#457FDF"/>
<path d="M70.3301 115.934L70.4149 116.09L70.6692 116.573L71.0249 117.24H72.7701V116.884L72.7849 116.501V116.332L70.4278 115.948L70.3301 115.934Z" fill="#457FDF"/>
<path d="M64.6171 113.932C64.5176 114.415 64.4181 114.913 64.4476 115.423C64.5176 115.707 64.7037 115.921 64.9728 116.09L65.2289 116.573C65.498 116.7 66.1522 116.8 66.9889 116.886L67.0036 116.488C67.1179 116.488 67.2303 116.488 67.3446 116.503V116.488C68.3379 116.503 69.5727 116.588 71.0783 117.183C71.0931 117.183 71.106 117.198 71.1207 117.198C71.3898 117.213 71.6607 117.225 71.9021 117.24H75.564C77.324 116.986 78.0206 116.275 78.1477 115.921C78.1477 115.821 76.8282 115.169 75.7354 114.855C75.7206 114.855 75.693 114.841 75.6506 114.841C75.4939 114.784 75.1972 114.671 75.1253 114.656C74.9263 114.586 74.6997 114.529 74.5006 114.472C72.6688 113.932 71.434 112.712 69.9855 111.363C68.325 109.815 66.0675 102.917 66.366 102.79L62.6323 103.273C62.6323 103.273 65.627 109.264 65.3856 111.124C65.2861 111.947 64.9875 112.642 64.7885 113.352C64.7737 113.379 64.7737 113.424 64.7608 113.451C64.7185 113.551 64.689 113.65 64.6613 113.75C64.6466 113.82 64.6318 113.875 64.6171 113.932Z" fill="#FFB27D"/>
<path d="M32.8177 22.2844L34.0672 27.2437L40.6298 53.1734C40.8805 53.5641 42.9703 54.3897 45.2813 55.1656C48.0328 56.0852 51.1086 56.9532 51.6891 56.9016C52.7543 56.815 53.3422 54.5924 53.0399 53.9658C52.8427 53.5512 49.3338 51.6898 46.5898 50.0202C45.0583 49.0895 43.7664 48.2196 43.4107 47.7018C42.7657 46.7416 41.1624 37.9141 39.8558 31.4529C39.1887 28.1393 38.5934 25.445 38.2506 24.7392C37.3771 22.8963 33.9732 22.3987 33.0518 22.3028C32.9043 22.2844 32.8177 22.2844 32.8177 22.2844Z" fill="url(#paint3_linear)"/>
<path d="M18.8301 62.1392L34.8873 61.4831C34.8873 61.4831 59.3077 63.0606 61.3791 66.61L69.8897 110.534C69.8897 110.534 68.4043 111.041 67.4718 111.111C65.9864 111.221 64.9654 110.733 64.9654 110.733C64.9654 110.733 53.5173 95.1198 51.984 85.5459C50.7031 77.544 50.1964 76.7092 45.8102 76.8751C41.4241 77.0409 27.9636 78.1006 21.5668 76.8621C15.1701 75.6237 18.8301 62.1392 18.8301 62.1392Z" fill="url(#paint4_linear)"/>
<path d="M64.3757 115.025C64.3757 115.167 64.3904 115.309 64.4457 115.423C64.5157 115.707 64.7019 115.921 64.971 116.09C64.9986 116.118 65.0281 116.133 65.0557 116.147C65.0557 116.147 65.0557 116.147 65.0704 116.147C65.0852 116.162 65.0981 116.162 65.1128 116.177C65.5809 116.461 66.2057 116.461 67.0018 116.488H67.3427C68.3361 116.503 69.5708 116.588 71.0765 117.183C71.0912 117.183 71.1041 117.198 71.1189 117.198C71.1612 117.213 71.1889 117.225 71.2331 117.24H77.4364C78.2878 116.899 78.4592 116.361 78.5439 116.162C78.614 116.005 78.4168 115.836 78.0335 115.652C78.0058 115.637 77.9634 115.624 77.9339 115.594C77.394 115.353 76.5849 115.097 75.7187 114.813C75.704 114.828 75.6764 114.828 75.6487 114.841C75.0664 115.04 73.0373 115.677 70.6526 115.224C68.6659 114.841 66.6922 113.903 65.1736 113.449C65.0465 113.422 64.9175 113.377 64.7903 113.35C64.7627 113.335 64.7332 113.335 64.7055 113.322C64.6779 113.379 64.6632 113.449 64.6484 113.506C64.5047 113.989 64.3757 114.5 64.3757 115.025Z" fill="#457FDF"/>
<path d="M64.888 115.934L64.9728 116.09L65.229 116.573L65.5828 117.24H67.3299V116.884L67.3428 116.501V116.332L64.9876 115.948L64.888 115.934Z" fill="#457FDF"/>
<path d="M24.7864 15.3127C17.0849 14.7267 15.5792 -1.07626 24.7422 0.847732C24.7422 0.847732 26.0266 0.00921453 26.6606 0C26.6606 0 26.1704 0.178753 25.9548 0.486519C26.9444 0.26537 28.4795 -0.0939954 29.6885 0.591566C42.0765 7.62041 27.77 15.5394 24.7864 15.3127Z" fill="#163560"/>
<path d="M33.4756 23.7275C33.507 23.7367 30.9435 25.6422 28.7431 25.4082C26.6753 25.1889 24.9651 22.8318 24.9909 22.8207C25.8018 22.5185 25.8571 21.3261 25.037 16.3761L25.4277 16.389L32.0087 16.6175C32.0087 16.6175 32.1893 18.6466 32.4915 20.5392C32.744 22.1278 33.0849 23.6169 33.4756 23.7275Z" fill="#FDCEAE"/>
<path d="M34.0672 27.2437L40.6298 53.1734C40.8805 53.5641 42.9703 54.3897 45.2813 55.1656C45.4767 54.6883 45.661 54.141 45.836 53.5365C46.1862 52.3294 46.4423 51.1518 46.5898 50.0202C45.0583 49.0895 43.7664 48.2197 43.4107 47.7018C42.7657 46.7417 41.1624 37.9142 39.8558 31.4529C36.9145 28.5651 34.1391 27.1461 34.1391 27.1461L34.0672 27.2437Z" fill="url(#paint5_linear)"/>
<path d="M32.0087 16.6193C32.0087 16.6193 32.1893 18.6484 32.4915 20.541C28.9071 21.0183 26.4948 18.0697 25.4296 16.3908L32.0087 16.6193Z" fill="#F5BC95"/>
<path d="M24.6574 15.8029C24.6574 15.8029 22.3095 13.1528 21.4507 10.6981C20.8388 8.94733 20.673 2.11383 27.547 1.98667C27.547 1.98667 29.53 1.86319 31.5646 2.80308C33.1826 3.5513 35.6318 5.33708 34.2239 11.5514L33.9327 13.6209L24.6574 15.8029Z" fill="#163560"/>
<path d="M33.4904 18.2153C33.4904 18.2153 25.072 19.7228 24.2132 14.4668C23.3544 9.209 21.6903 5.86412 27.0292 4.67913C32.3681 3.49414 33.7429 5.32969 34.4561 7.0141C35.1693 8.69852 35.6577 17.6882 33.4904 18.2153Z" fill="#FDCEAE"/>
<path d="M30.8532 3.92542C30.8532 3.92542 29.5429 10.4696 26.1427 11.9568C22.7444 13.444 21.0508 12.7437 21.0508 12.7437C21.0508 12.7437 23.4208 10.1415 23.3747 6.27697C23.3747 6.27697 28.6344 1.27347 30.8532 3.92542Z" fill="#163560"/>
<path d="M30.3612 4.51883C30.3612 4.51883 32.311 5.61721 32.9486 6.88697C33.5863 8.15673 34.222 10.8842 35.0108 10.6594C35.0108 10.6594 36.0723 6.18482 33.73 4.12998C31.2476 1.95166 30.3612 4.51883 30.3612 4.51883Z" fill="#163560"/>
<path d="M18.1666 70.1171C18.8356 71.3168 20.2897 71.4126 22.116 70.8856C22.9969 70.6423 23.9534 70.2424 24.9559 69.778C25.048 69.7208 25.155 69.6748 25.2489 69.6305C28.2068 68.1875 31.5074 66.0129 34.0875 64.358C39.4946 60.8933 39.8521 62.8339 41.4536 60.921C41.4536 60.921 39.8061 59.1886 41.9199 38.9572C42.5188 33.1649 32.8177 22.2844 32.8177 22.2844C32.8177 22.2844 32.7532 25.8763 24.9946 22.8189C24.72 22.7194 22.5988 27.2916 20.7467 32.8111C20.4445 33.6939 20.157 34.5895 19.8879 35.4962C18.5979 39.7755 17.6396 44.2445 17.8994 47.3516C17.9621 48.0888 18.0837 48.7596 18.2901 49.3162C18.3141 49.3696 18.3362 49.4231 18.3601 49.4784C21.0213 55.8769 16.2555 66.6598 18.1666 70.1171Z" fill="url(#paint6_linear)"/>
<path d="M44.8575 44.836L59.1566 43.8151L53.0326 60.486L39.6439 61.8737L44.8575 44.836Z" fill="#3469C1"/>
<path d="M44.9846 45.0167L59.2819 43.9957L53.1598 60.6667L39.771 62.0544L44.9846 45.0167Z" fill="#3469C1"/>
<path d="M46.2709 44.7365C46.2709 44.7365 45.9263 42.5767 47.1445 42.5324C48.3626 42.4882 49.074 44.5983 49.074 44.5983L46.2709 44.7365Z" fill="#B2CBFD"/>
<path d="M48.5599 46.6919C48.2208 48.2289 46.2526 50.7444 46.3705 52.016L55.5095 51.8981C55.5095 51.8981 55.4505 51.3065 57.4022 47.1065C58.2038 45.3797 57.2547 42.2597 56.4309 42.1878L47.1464 42.5287C47.1482 42.5287 49.2215 43.6971 48.5599 46.6919Z" fill="url(#paint7_linear)"/>
<path d="M59.1566 43.8151L59.2819 43.9957L58.9668 44.0159L58.9944 43.9035L59.1566 43.8151Z" fill="#3469C1"/>
<path d="M39.771 62.0544L39.6439 61.8738L39.8853 61.6876L39.771 62.0544Z" fill="#B64C41"/>
<path d="M18.1666 70.117C18.8356 71.3168 20.2897 71.4126 22.116 70.8855C22.9969 70.6423 23.9534 70.2424 24.9559 69.778C28.509 67.4762 32.3128 63.7959 34.4487 57.8986C39.2477 44.6518 20.7946 35.0613 20.7946 35.0613L19.8879 35.4962C18.5979 39.7754 17.6396 44.2445 17.8994 47.3516C17.9621 48.0888 18.0837 48.7596 18.2901 49.3162C18.3141 49.3696 18.3362 49.423 18.3601 49.4783C21.0213 55.8769 16.2555 66.6597 18.1666 70.117Z" fill="url(#paint8_linear)"/>
<path d="M33.8672 48.6272L34.4458 48.2164L39.9924 56.029L39.4138 56.4398L33.8672 48.6272Z" fill="#3469C1"/>
<path d="M39.9756 56.0189L40.0198 56.7155L39.3969 56.4298L39.9756 56.0189Z" fill="#3469C1"/>
<path d="M32.5763 52.6519C32.5763 52.6519 35.079 51.6125 36.3488 51.9036C37.6185 52.1948 40.2004 53.0444 40.088 53.7429C39.9756 54.4395 37.2094 55.2504 35.9101 54.7823C34.6109 54.3142 33.8664 55.2946 32.3312 55.0458C30.7961 54.797 32.5763 52.6519 32.5763 52.6519Z" fill="#FFB27D"/>
<path d="M24.9909 22.8207C24.9909 22.8207 17.1106 24.1586 16.1284 26.2356C15.1461 28.3125 15.7985 50.0773 16.4121 52.3754C17.024 54.6735 29.753 55.7553 33.5659 55.6171C33.5659 55.6171 34.1649 53.0333 33.4517 51.5903C32.7385 50.1473 23.3175 48.59 22.5453 47.5156C21.7713 46.4431 24.0915 33.2128 23.7912 30.6254C23.4926 28.038 24.9909 22.8207 24.9909 22.8207Z" fill="url(#paint9_linear)"/>
<path d="M55.8706 53.483C55.8706 53.483 53.2685 53.2305 53.6205 54.2976C53.9724 55.3646 54.9547 55.8788 54.9547 55.8788C54.9547 55.8788 56.9672 54.4284 55.8706 53.483Z" fill="#FFB27D"/>
<path d="M8.91154 68.4566V84.1877C8.91154 86.952 9.69293 89.1875 10.6568 89.1875H41.461C42.4267 89.1875 43.2062 86.952 43.2062 84.1877V68.4566C43.2062 65.6923 40.7496 62.9555 32.322 63.4568H10.6568C9.69293 63.4568 8.91154 65.6923 8.91154 68.4566Z" fill="#70A1F2"/>
<path d="M4.83138 68.4566V84.1876C4.83138 86.952 5.61277 89.1875 6.57845 89.1875H37.3826C38.3483 89.1875 39.1278 86.952 39.1278 84.1876V68.4566C39.1278 65.6922 36.4943 63.2209 30.2837 63.4568L8.28129 63.3112C4.82031 63.3112 4.83138 65.6922 4.83138 68.4566Z" fill="url(#paint10_linear)"/>
<defs>
<linearGradient id="paint0_linear" x1="27.211" y1="10.399" x2="27.211" y2="80.1885" gradientUnits="userSpaceOnUse">
<stop stop-color="#407ADB"/>
<stop offset="1" stop-color="#4882E2"/>
</linearGradient>
<linearGradient id="paint1_linear" x1="26.4126" y1="9.6347" x2="26.4126" y2="68.4492" gradientUnits="userSpaceOnUse">
<stop stop-color="#407ADB"/>
<stop offset="1" stop-color="#4882E2"/>
</linearGradient>
<linearGradient id="paint2_linear" x1="27.2667" y1="74.5948" x2="76.273" y2="94.7457" gradientUnits="userSpaceOnUse">
<stop stop-color="#4074E8"/>
<stop offset="1" stop-color="#96B7FF"/>
</linearGradient>
<linearGradient id="paint3_linear" x1="34.8297" y1="31.5174" x2="55.7988" y2="36.2306" gradientUnits="userSpaceOnUse">
<stop stop-color="#82A8FC"/>
<stop offset="1" stop-color="#6B9AFF"/>
</linearGradient>
<linearGradient id="paint4_linear" x1="22.9515" y1="74.7231" x2="71.6115" y2="94.2977" gradientUnits="userSpaceOnUse">
<stop stop-color="#709AF7"/>
<stop offset="1" stop-color="#96B7FF"/>
</linearGradient>
<linearGradient id="paint5_linear" x1="35.3083" y1="34.6188" x2="48.5088" y2="36.8801" gradientUnits="userSpaceOnUse">
<stop stop-color="#82A8FC"/>
<stop offset="1" stop-color="#6B9AFF"/>
</linearGradient>
<linearGradient id="paint6_linear" x1="20.104" y1="35.3276" x2="45.4952" y2="40.1524" gradientUnits="userSpaceOnUse">
<stop stop-color="#91B3FD"/>
<stop offset="1" stop-color="#B1CAFF"/>
</linearGradient>
<linearGradient id="paint7_linear" x1="47.4893" y1="44.809" x2="57.7812" y2="49.3607" gradientUnits="userSpaceOnUse">
<stop stop-color="#91B3FD"/>
<stop offset="1" stop-color="#B1CAFF"/>
</linearGradient>
<linearGradient id="paint8_linear" x1="19.4399" y1="44.6969" x2="37.8391" y2="48.1215" gradientUnits="userSpaceOnUse">
<stop stop-color="#84A8F7"/>
<stop offset="1" stop-color="#B1CAFF"/>
</linearGradient>
<linearGradient id="paint9_linear" x1="17.4261" y1="31.5706" x2="36.298" y2="35.5781" gradientUnits="userSpaceOnUse">
<stop stop-color="#82A8FC"/>
<stop offset="1" stop-color="#6B9AFF"/>
</linearGradient>
<linearGradient id="paint10_linear" x1="21.9796" y1="63.3112" x2="21.9796" y2="89.1875" gradientUnits="userSpaceOnUse">
<stop stop-color="#407ADB"/>
<stop offset="1" stop-color="#4882E2"/>
</linearGradient>
</defs>
</svg>
