<svg width="88" height="113" viewBox="0 0 88 113" fill="none" xmlns="http://www.w3.org/2000/svg">
<path d="M49.5991 59.7124C45.718 68.0415 40.6036 68.93 40.6036 68.93L34.4897 61.7698C34.4897 61.7698 38.8735 59.1279 39.8963 55.9131C40.9192 52.6984 39.0196 31.8025 44.4672 27.4246C44.4672 27.4246 45.0926 29.0845 45.9401 31.6797V31.6856C47.6001 36.759 50.1134 45.398 50.5109 52.2483C50.6921 55.2176 50.4641 57.8537 49.5991 59.7124Z" fill="url(#paint0_linear)"/>
<path opacity="0.1" d="M50.5109 52.2482C45.1685 42.7208 44.6133 35.8354 45.9401 31.6854C47.6001 36.7589 50.1134 45.3978 50.5109 52.2482Z" fill="url(#paint1_linear)"/>
<path d="M50.2537 73.3079C50.2537 73.3079 11.1097 62.3836 6.194 76.1194C1.27835 89.8551 36.816 100.809 56.4845 101.481C76.1529 102.153 84.1781 88.3588 78.3799 75.2485L50.2537 73.3079Z" fill="url(#paint2_linear)"/>
<path d="M50.2537 73.3079C50.2537 73.3079 11.1097 62.3836 6.194 76.1194C1.27835 89.8551 36.816 100.809 56.4845 101.481C76.1529 102.153 84.1781 88.3588 78.3799 75.2485L50.2537 73.3079Z" fill="url(#paint3_linear)"/>
<path d="M82.0389 83.1803L45.6596 76.9554C52.0306 64.6808 50.0082 46.0119 44.4672 27.4247C48.319 24.2041 63.7148 22.0298 75.4691 25.4433C75.4691 25.4433 76.1647 28.0268 77.1057 32.4748C78.2338 37.7938 79.7126 45.7781 80.7647 55.2002C81.7174 63.658 82.3253 73.2847 82.0389 83.1803Z" fill="url(#paint4_linear)"/>
<path d="M82.0389 83.1798L45.6596 76.9549C51.0662 66.5391 50.4291 51.5233 46.7233 35.8586C49.8037 29.9552 53.7666 29.2012 53.7666 29.2012C57.7704 34.8299 66.0177 29.2012 66.0177 29.2012C73.6805 33.8304 78.2397 43.4689 79.7009 46.9876C81.1972 57.1345 82.4247 69.9117 82.0389 83.1798Z" fill="url(#paint5_linear)"/>
<path d="M80.7647 55.2006C78.0701 52.9912 75.5626 50.016 74.341 46.135C71.3834 36.7537 75.9893 33.1824 77.1057 32.4752C78.2338 37.7941 79.7125 45.7784 80.7647 55.2006Z" fill="url(#paint6_linear)"/>
<path d="M10.6405 94.7409C10.3084 94.5348 10.0626 94.2474 9.94304 93.9165C9.89654 93.6942 9.99619 93.4718 10.2088 93.3254C10.3217 93.2278 10.4944 93.1844 10.6538 93.2169C11.4044 93.4013 12.1417 95.1585 12.2148 95.3592C12.2347 95.3971 12.2214 95.4459 12.1749 95.4731C12.1284 95.5056 12.062 95.5056 12.0089 95.4785C11.524 95.2724 11.0656 95.0229 10.6405 94.7409ZM10.7601 93.5315C10.7069 93.4935 10.6538 93.4664 10.5874 93.4501C10.5209 93.4339 10.4545 93.4501 10.4147 93.4935C10.2619 93.5857 10.1888 93.743 10.222 93.8948C10.5542 94.4535 11.1188 94.8982 11.8162 95.1477C11.5904 94.5619 11.2317 94.0142 10.7601 93.5315Z" fill="url(#paint7_linear)"/>
<path d="M11.7037 95.4716L11.6816 95.4202C11.388 94.9112 11.3146 93.5592 11.9092 93.2661C12.1148 93.1736 12.3864 93.189 12.5699 93.3073C12.7755 93.4049 12.9149 93.554 12.9663 93.7237C13.1572 94.4023 12.012 95.4099 11.9386 95.4613C11.9019 95.4921 11.8431 95.5076 11.7844 95.4921C11.755 95.4921 11.7257 95.4819 11.7037 95.4716ZM12.4304 93.518L12.3717 93.4872C12.1955 93.3998 12.1221 93.4409 12.0854 93.4512C11.733 93.6209 11.6743 94.5668 11.8652 95.1426C12.1735 94.8341 12.7461 94.1864 12.6286 93.7597C12.6066 93.662 12.5332 93.5797 12.4304 93.518Z" fill="url(#paint8_linear)"/>
<path d="M51.9424 103.995C51.9708 104.388 51.9282 104.781 51.8182 105.131C51.733 105.344 51.591 105.456 51.4455 105.425C51.3567 105.425 51.2751 105.344 51.2289 105.212C51.0337 104.563 51.5804 102.652 51.6478 102.439C51.6585 102.396 51.6869 102.364 51.7153 102.377C51.7472 102.383 51.7721 102.427 51.7792 102.483C51.8608 102.97 51.9176 103.476 51.9424 103.995ZM51.3319 104.881C51.3319 104.944 51.3425 105.006 51.3567 105.063C51.3709 105.119 51.4064 105.15 51.4419 105.144C51.5413 105.175 51.6443 105.094 51.7011 104.95C51.8395 104.276 51.836 103.539 51.6904 102.87C51.5023 103.501 51.3816 104.182 51.3319 104.881Z" fill="url(#paint9_linear)"/>
<path d="M42.4944 89.3863L49.3994 94.5328L52.715 97.0025L50.5473 100.846L47.1852 98.9746L38.9633 94.4025L42.4944 89.3863Z" fill="#FFBE92"/>
<path d="M48.9416 100.424L51.1247 95.7948C51.2467 95.5367 51.5638 95.4252 51.8321 95.5484L54.1799 96.6574C54.1799 96.6574 57.4545 97.9306 57.8631 98.9515C59.0644 101.944 54.5152 112.3 53.0944 112.306C52.5761 112.306 52.2651 111.531 52.1919 111.038C51.9601 109.472 51.9236 105.523 51.7162 104.22C51.4723 102.695 49.8685 101.516 49.1245 101.052C48.9111 100.911 48.8379 100.647 48.9416 100.424Z" fill="#263238"/>
<path d="M51.951 102.481L51.9213 102.526C51.6661 103.022 50.5916 103.987 50.0098 103.896C49.8139 103.861 49.6774 103.714 49.6714 103.542C49.6358 103.375 49.6774 103.204 49.7902 103.062C50.2473 102.501 51.7195 102.37 51.8026 102.375C51.8501 102.37 51.8976 102.39 51.9154 102.43C51.9391 102.44 51.9451 102.461 51.951 102.481ZM49.9267 103.466L49.9326 103.517C49.9623 103.664 50.0336 103.674 50.0692 103.679C50.4075 103.734 51.2208 103.113 51.5889 102.622C51.1615 102.683 50.3007 102.845 50.0157 103.199C49.9504 103.279 49.9208 103.375 49.9267 103.466Z" fill="url(#paint10_linear)"/>
<path opacity="0.2" d="M42.3238 89.3863L48.8951 94.3071L46.7878 98.5541L38.9633 94.1826L42.3238 89.3863Z" fill="#FFDDD3"/>
<path d="M45.4258 99.0201L43.1462 98.5116L46.9338 91.2871L49.0438 93.4439L45.4258 99.0201Z" fill="url(#paint11_linear)"/>
<path opacity="0.6" d="M45.4258 99.0201L43.1462 98.5116L46.9338 91.2871L49.0438 93.4439L45.4258 99.0201Z" fill="url(#paint12_linear)"/>
<path d="M28.2675 97.9308L19.7765 99.3812L15.7036 100.082L14.5157 95.7004L18.2024 94.5303L27.2024 91.6782L28.2675 97.9308Z" fill="#FFBE92"/>
<path d="M14.9753 95.0539L16.7755 99.8409C16.873 100.108 16.7411 100.41 16.4832 100.504L14.1612 101.352C14.1612 101.352 11.1169 102.726 10.1365 102.288C7.25843 101.008 3.0216 90.5335 3.95037 89.5441C4.29437 89.1827 5.03395 89.5145 5.42954 89.8166C6.67365 90.7645 9.45425 93.5254 10.5034 94.3015C11.7303 95.2139 13.6051 94.9295 14.4192 94.7458C14.6543 94.6866 14.8893 94.8228 14.9753 95.0539Z" fill="#263238"/>
<path opacity="0.2" d="M28.2675 97.8796L19.2444 99.3181L17.5717 94.5069L27.1357 91.6782L28.2675 97.8796Z" fill="#FFBE92"/>
<path d="M19.0996 93.8118C19.0996 93.8118 54.3902 72.7978 66.3332 73.3534C78.2762 73.915 79.3183 85.9146 74.3948 92.5705C69.4653 99.2264 60.3675 100.846 60.3675 100.846C60.3675 100.846 66.5615 92.0089 65.6658 89.5203C64.7701 87.0318 61.3569 95.396 61.3569 95.396C61.3569 95.396 39.4906 98.2866 20.4462 99.918L19.0996 93.8118Z" fill="url(#paint13_linear)"/>
<path d="M18.8192 93.3447L20.7773 92.0354L23.2907 99.7508H20.2746L18.8192 93.3447Z" fill="url(#paint14_linear)"/>
<path opacity="0.6" d="M18.8192 93.3447L20.7773 92.0354L23.2907 99.7508H20.2746L18.8192 93.3447Z" fill="url(#paint15_linear)"/>
<path d="M59.0701 30.5594C64.4754 30.5594 67.9947 25.0185 67.9947 25.0185C60.9067 22.5913 60.8821 15.2797 60.8821 15.2797L58.1517 17.8876L54.2626 21.6096C57.4984 23.8501 55.9698 25.7894 54.9405 26.6507C54.5707 26.9699 54.2626 27.1445 54.2626 27.1445C54.2626 27.1445 53.6647 30.5594 59.0701 30.5594Z" fill="#FDCEAE"/>
<path d="M55.6104 26.6997C61.5136 27.4409 61.1131 17.573 61.1131 17.573C60.175 17.5607 59.2917 17.6342 58.4687 17.7874L55.0069 21.5728C57.8872 23.8514 56.5266 25.8238 55.6104 26.6997Z" fill="#F3B898"/>
<path d="M68.309 13.4723C69.0688 14.2088 65.9242 16.237 60.9092 14.5128C55.8941 12.7885 55.0349 7.71503 55.0349 7.71503C55.0349 7.71503 63.329 8.63268 68.309 13.4723Z" fill="url(#paint16_linear)"/>
<path opacity="0.4" d="M68.309 13.4723C69.0688 14.2088 65.9242 16.237 60.9092 14.5128C55.8941 12.7885 55.0349 7.71503 55.0349 7.71503C55.0349 7.71503 63.329 8.63268 68.309 13.4723Z" fill="url(#paint17_linear)"/>
<path d="M50.3648 8.551C52.7495 9.53881 52.2936 12.1398 48.3424 16.8743C45.9109 14.7818 44.5899 10.0123 45.87 8.48087C47.1442 6.94947 48.2898 7.69763 50.3648 8.551Z" fill="#424B96"/>
<path d="M46.852 19.0895C46.852 19.0895 46.852 19.0953 46.8578 19.107C47.0858 19.7733 47.3429 20.3988 47.6176 20.9657C49.9673 25.7528 56.7242 26.6821 59.7168 21.9477C59.7285 21.9301 59.7402 21.9185 59.7519 21.9009C61.7275 18.7154 60.9852 15.7403 60.161 10.585C59.9974 9.49196 59.5824 8.45741 58.9453 7.55144C56.6891 4.33084 52.2527 3.54759 49.0321 5.80377C45.1101 8.52754 45.3439 14.6882 46.852 19.0895Z" fill="#FDCEAE"/>
<path d="M52.8781 13.6829C52.9716 14.0979 52.8255 14.4837 52.5566 14.5421C52.2877 14.6006 51.9955 14.32 51.902 13.905C51.8085 13.49 51.9487 13.1101 52.2176 13.0458C52.4865 12.9815 52.7612 13.2854 52.8781 13.6829Z" fill="#263238"/>
<path d="M48.1787 14.7466C48.2722 15.1616 48.1261 15.5474 47.8572 15.6058C47.5883 15.6642 47.2903 15.3837 47.1967 14.9628C47.1032 14.542 47.2493 14.1621 47.5182 14.1036C47.7871 14.0452 48.0852 14.3316 48.1787 14.7466Z" fill="#263238"/>
<path d="M49.7569 14.5946C49.5465 15.9682 49.149 17.3125 48.5703 18.575C49.4705 19.0894 50.6336 18.4991 50.6336 18.4991L49.7569 14.5946Z" fill="#F3B898"/>
<path d="M53.8308 11.912C53.8834 11.9062 53.9361 11.8828 53.977 11.8419C54.0646 11.7367 54.053 11.5789 53.9536 11.4912C53.3516 10.9534 52.5333 10.7489 51.75 10.9301C51.6214 10.9651 51.5454 11.0937 51.5747 11.2223C51.5747 11.2282 51.5805 11.234 51.5805 11.2399C51.6214 11.3684 51.7559 11.4386 51.8903 11.4093C52.5099 11.2749 53.1528 11.4444 53.6263 11.8711C53.6847 11.912 53.7607 11.9296 53.8308 11.912Z" fill="#263238"/>
<path d="M45.677 13.6421C45.7706 13.6187 45.8465 13.5485 45.8699 13.455C45.9985 12.8354 46.4135 12.3094 46.9922 12.0464C47.1208 11.9996 47.1851 11.8535 47.1441 11.7249C47.0974 11.5963 46.9571 11.532 46.8285 11.5729C46.092 11.8944 45.5543 12.5491 45.3906 13.3381C45.3614 13.4726 45.4374 13.6011 45.5718 13.6362C45.5718 13.6362 45.5718 13.6362 45.5777 13.6362C45.6069 13.6479 45.642 13.6479 45.677 13.6421Z" fill="#263238"/>
<path d="M57.1216 6.53481C54.9297 7.88501 55.7948 10.3808 60.4474 14.4256C62.5166 11.9707 63.0602 7.04918 61.5522 5.74574C60.0441 4.44815 59.0388 5.36581 57.1216 6.53481Z" fill="#424B96"/>
<path d="M63.4927 14.1097C63.4167 15.419 62.8205 16.6464 61.8385 17.5232C60.5292 18.6688 59.1264 17.6751 58.8634 16.0502C58.6296 14.5831 59.0271 12.2217 60.6403 11.7074C62.2594 11.193 63.5803 12.5023 63.4927 14.1097Z" fill="#FDCEAE"/>
<path d="M54.6375 18.5578C54.6375 18.5578 54.0997 20.4165 51.6098 20.8432" stroke="#263238" stroke-width="0.5572" stroke-miterlimit="10" stroke-linecap="round" stroke-linejoin="round"/>
<path d="M55.1753 7.598C55.1753 7.598 53.7608 8.10067 53.1237 9.02418C53.1237 9.02418 52.8899 8.67933 53.1237 7.98377C53.1237 7.98377 51.6215 8.77869 50.9318 9.7665C50.9318 9.7665 50.5051 8.90729 50.5752 8.09483C50.5752 8.09483 49.8388 9.31059 49.605 10.2341C49.605 10.2341 47.8515 9.59699 47.6878 8.21172C47.6878 8.21172 47.5651 8.96573 47.6878 10.0061C47.6878 10.0061 46.5246 9.6613 46.2733 8.44553C46.2733 8.44553 45.8934 9.45087 45.9635 10.6257C45.9635 10.6257 44.6601 10.0061 45.04 8.21757C45.4199 6.42315 50.4876 3.65261 53.4276 4.51767C56.3618 5.38274 55.1753 7.598 55.1753 7.598Z" fill="#424B96"/>
<path d="M65.9431 64L48.8451 69.5807C48.8451 69.5807 42.7412 68.2317 41.6459 68.2317C40.5506 68.2317 36.334 71.653 38.72 72.8481C41.106 74.0433 47.6212 74.1972 48.3309 73.8125C49.0405 73.4278 68 69.0011 68 69.0011L65.9431 64Z" fill="#FDCEAE"/>
<path d="M44.8763 8.94857C44.8763 8.94857 44.9348 3.75821 47.0331 1.81182C49.1315 -0.134562 56.6482 -0.759984 60.3656 1.17471C64.083 3.10941 62.7387 10.1234 62.7387 10.1234C62.7387 10.1234 55.1226 6.24818 44.8763 8.94857Z" fill="url(#paint18_linear)"/>
<path d="M47.4832 7.28263C47.4832 7.28263 49.4939 6.59292 52.1709 6.89686C52.1709 6.89686 53.486 4.58224 50.207 4.44781C47.8222 4.34844 47.3487 5.61096 47.4832 7.28263Z" fill="#424B96"/>
<path d="M58.764 8.76697L62.9081 8.79619C62.9081 8.79619 66.1872 10.6783 68.309 13.4722C68.309 13.4722 65.1176 10.6958 58.764 8.76697Z" fill="url(#paint19_linear)"/>
<path opacity="0.2" d="M58.764 8.76697L62.9081 8.79619C62.9081 8.79619 66.1872 10.6783 68.309 13.4722C68.309 13.4722 65.1176 10.6958 58.764 8.76697Z" fill="url(#paint20_linear)"/>
<path d="M75.4691 25.4433C71.0737 24.59 78.7014 51.3835 76.831 55.3289C74.9606 59.2743 67.6602 61.7701 67.6602 61.7701L71.021 69.1874C71.021 69.1874 80.9576 67.3112 86.3642 60.4433C91.7708 53.5754 82.6409 26.8403 75.4691 25.4433Z" fill="url(#paint21_linear)"/>
<path d="M67.6602 61.1738L71.7517 69.1874L68.2447 69.9414L65.0299 62.5649L67.6602 61.1738Z" fill="url(#paint22_linear)"/>
<path opacity="0.2" d="M67.6602 61.1738L71.7517 69.1874L68.2447 69.9414L65.0299 62.5649L67.6602 61.1738Z" fill="url(#paint23_linear)"/>
<path d="M59.6233 72.2794V73.5536C59.6233 74.4128 58.9102 75.2019 58.0451 75.2019H11.0571C10.192 75.2019 9.35617 74.4128 9.35617 73.5536V72.2794H59.6233Z" fill="url(#paint24_linear)"/>
<path d="M59.6233 72.2794V73.5536C59.6233 74.4128 58.9102 75.2019 58.0451 75.2019H11.0571C10.192 75.2019 9.35617 74.4128 9.35617 73.5536V72.2794H59.6233Z" fill="url(#paint25_linear)"/>
<path opacity="0.2" d="M42.0882 72.2794V73.5536C42.0882 74.4128 41.3635 75.2019 40.5042 75.2019H11.0571C10.192 75.2019 9.35617 74.4128 9.35617 73.5536V72.2794H42.0882Z" fill="url(#paint26_linear)"/>
<path d="M40.4984 74.0329H9.45553C8.50279 74.0329 7.49161 73.2847 7.19936 72.367L0.080135 50.0333C-0.212116 49.1156 0.319777 48.3148 1.27251 48.3148H32.3154C33.2681 48.3148 34.2793 49.1214 34.5716 50.0333L41.6908 72.3378C41.983 73.2555 41.4511 74.0329 40.4984 74.0329Z" fill="url(#paint27_linear)"/>
<path opacity="0.2" d="M40.4984 74.0329H9.45553C8.50279 74.0329 7.49161 73.2847 7.19936 72.367L0.080135 50.0333C-0.212116 49.1156 0.319777 48.3148 1.27251 48.3148H32.3154C33.2681 48.3148 34.2793 49.1214 34.5716 50.0333L41.6908 72.3378C41.983 73.2555 41.4511 74.0329 40.4984 74.0329Z" fill="url(#paint28_linear)"/>
<path opacity="0.2" d="M39.3294 74.0329H9.45553C8.50279 74.0329 7.49161 73.2847 7.19936 72.367L0.080135 50.0333C-0.212116 49.1156 0.319777 48.3148 1.27251 48.3148H31.1464C32.0991 48.3148 33.1103 49.1214 33.4026 50.0333L40.5218 72.3378C40.814 73.2555 40.2821 74.0329 39.3294 74.0329Z" fill="url(#paint29_linear)"/>
<path d="M21.1689 62.1968C21.5547 63.6872 20.8124 64.8913 19.5148 64.8913C18.2172 64.8913 16.8553 63.6872 16.4754 62.1968C16.0896 60.7063 16.8319 59.5022 18.1295 59.5022C19.4213 59.5022 20.7832 60.7121 21.1689 62.1968Z" fill="white"/>
<path d="M48.9416 100.424L51.1247 95.7948C51.2467 95.5367 51.5638 95.4252 51.8321 95.5484L54.1799 96.6574C54.1799 96.6574 57.4545 97.9306 57.8631 98.9515C59.0644 101.944 54.5152 112.3 53.0944 112.306C52.5761 112.306 52.2651 111.531 52.1919 111.038C51.9601 109.472 51.9236 105.523 51.7162 104.22C51.4723 102.695 49.8685 101.516 49.1245 101.052C48.9111 100.911 48.8379 100.647 48.9416 100.424Z" fill="url(#paint30_linear)"/>
<path d="M14.9753 95.0539L16.7755 99.8409C16.873 100.108 16.7411 100.41 16.4832 100.504L14.1612 101.352C14.1612 101.352 11.1169 102.726 10.1365 102.288C7.25843 101.008 3.0216 90.5335 3.95037 89.5441C4.29437 89.1827 5.03395 89.5145 5.42954 89.8166C6.67365 90.7645 9.45425 93.5254 10.5034 94.3015C11.7303 95.2139 13.6051 94.9295 14.4192 94.7458C14.6543 94.6866 14.8893 94.8228 14.9753 95.0539Z" fill="url(#paint31_linear)"/>
<defs>
<linearGradient id="paint0_linear" x1="42.5293" y1="27.4246" x2="42.5293" y2="68.93" gradientUnits="userSpaceOnUse">
<stop stop-color="#73A7FF"/>
<stop offset="1" stop-color="#6F9CFF"/>
</linearGradient>
<linearGradient id="paint1_linear" x1="47.9212" y1="31.6854" x2="47.9212" y2="52.2482" gradientUnits="userSpaceOnUse">
<stop stop-color="#73A7FF"/>
<stop offset="1" stop-color="#6F9CFF"/>
</linearGradient>
<linearGradient id="paint2_linear" x1="42.9785" y1="69.1896" x2="42.9785" y2="101.504" gradientUnits="userSpaceOnUse">
<stop stop-color="#1F64FA"/>
<stop offset="1" stop-color="#477DF4"/>
</linearGradient>
<linearGradient id="paint3_linear" x1="5.34789" y1="68.7587" x2="33.2334" y2="88.6223" gradientUnits="userSpaceOnUse">
<stop offset="0.0200833" stop-color="#B0C9FF"/>
<stop offset="1" stop-color="#79A2FE"/>
</linearGradient>
<linearGradient id="paint4_linear" x1="63.2887" y1="23.7173" x2="63.2887" y2="83.1803" gradientUnits="userSpaceOnUse">
<stop stop-color="#73A7FF"/>
<stop offset="1" stop-color="#6F9CFF"/>
</linearGradient>
<linearGradient id="paint5_linear" x1="63.8851" y1="29.2012" x2="63.8851" y2="83.1799" gradientUnits="userSpaceOnUse">
<stop stop-color="#407ADB"/>
<stop offset="1" stop-color="#4882E2"/>
</linearGradient>
<linearGradient id="paint6_linear" x1="77.0651" y1="32.4752" x2="77.0651" y2="55.2006" gradientUnits="userSpaceOnUse">
<stop stop-color="#407ADB"/>
<stop offset="1" stop-color="#4882E2"/>
</linearGradient>
<linearGradient id="paint7_linear" x1="11.0778" y1="93.2062" x2="11.0778" y2="95.4982" gradientUnits="userSpaceOnUse">
<stop stop-color="#749FFE"/>
<stop offset="1" stop-color="#8EB2FF"/>
</linearGradient>
<linearGradient id="paint8_linear" x1="12.2238" y1="93.2062" x2="12.2238" y2="95.4982" gradientUnits="userSpaceOnUse">
<stop stop-color="#749FFE"/>
<stop offset="1" stop-color="#8EB2FF"/>
</linearGradient>
<linearGradient id="paint9_linear" x1="51.569" y1="102.374" x2="51.569" y2="105.43" gradientUnits="userSpaceOnUse">
<stop stop-color="#749FFE"/>
<stop offset="1" stop-color="#8EB2FF"/>
</linearGradient>
<linearGradient id="paint10_linear" x1="50.805" y1="102.374" x2="50.805" y2="103.902" gradientUnits="userSpaceOnUse">
<stop stop-color="#407ADB"/>
<stop offset="1" stop-color="#4882E2"/>
</linearGradient>
<linearGradient id="paint11_linear" x1="46.095" y1="91.2871" x2="46.095" y2="99.0201" gradientUnits="userSpaceOnUse">
<stop stop-color="#749FFE"/>
<stop offset="1" stop-color="#8EB2FF"/>
</linearGradient>
<linearGradient id="paint12_linear" x1="46.095" y1="91.2871" x2="46.095" y2="99.0201" gradientUnits="userSpaceOnUse">
<stop stop-color="#749FFE"/>
<stop offset="1" stop-color="#8EB2FF"/>
</linearGradient>
<linearGradient id="paint13_linear" x1="48.1311" y1="73.3426" x2="48.1311" y2="100.846" gradientUnits="userSpaceOnUse">
<stop stop-color="#B1CAFF"/>
<stop offset="1" stop-color="#B1CAFF"/>
</linearGradient>
<linearGradient id="paint14_linear" x1="21.055" y1="92.0354" x2="21.055" y2="99.7508" gradientUnits="userSpaceOnUse">
<stop stop-color="#749FFE"/>
<stop offset="1" stop-color="#8EB2FF"/>
</linearGradient>
<linearGradient id="paint15_linear" x1="21.055" y1="92.0354" x2="21.055" y2="99.7508" gradientUnits="userSpaceOnUse">
<stop stop-color="#749FFE"/>
<stop offset="1" stop-color="#8EB2FF"/>
</linearGradient>
<linearGradient id="paint16_linear" x1="61.7284" y1="7.71503" x2="61.7284" y2="15.1894" gradientUnits="userSpaceOnUse">
<stop stop-color="#B3CAFF"/>
<stop offset="1" stop-color="#477DF4"/>
</linearGradient>
<linearGradient id="paint17_linear" x1="61.7284" y1="7.71503" x2="61.7284" y2="15.1894" gradientUnits="userSpaceOnUse">
<stop stop-color="#B3CAFF"/>
<stop offset="1" stop-color="#477DF4"/>
</linearGradient>
<linearGradient id="paint18_linear" x1="53.9259" y1="0" x2="53.9259" y2="10.1234" gradientUnits="userSpaceOnUse">
<stop stop-color="#86ACFF"/>
<stop offset="1" stop-color="#477DF4"/>
</linearGradient>
<linearGradient id="paint19_linear" x1="63.5365" y1="8.76697" x2="63.5365" y2="13.4722" gradientUnits="userSpaceOnUse">
<stop stop-color="#86ACFF"/>
<stop offset="1" stop-color="#477DF4"/>
</linearGradient>
<linearGradient id="paint20_linear" x1="63.5365" y1="8.76697" x2="63.5365" y2="13.4722" gradientUnits="userSpaceOnUse">
<stop stop-color="#86ACFF"/>
<stop offset="1" stop-color="#477DF4"/>
</linearGradient>
<linearGradient id="paint21_linear" x1="77.8301" y1="25.4234" x2="77.8301" y2="69.1874" gradientUnits="userSpaceOnUse">
<stop stop-color="#73A7FF"/>
<stop offset="1" stop-color="#6F9CFF"/>
</linearGradient>
<linearGradient id="paint22_linear" x1="68.3908" y1="61.1738" x2="68.3908" y2="69.9414" gradientUnits="userSpaceOnUse">
<stop stop-color="#5288FF"/>
<stop offset="1" stop-color="#6F9CFF"/>
</linearGradient>
<linearGradient id="paint23_linear" x1="68.3908" y1="61.1738" x2="68.3908" y2="69.9414" gradientUnits="userSpaceOnUse">
<stop stop-color="#5288FF"/>
<stop offset="1" stop-color="#6F9CFF"/>
</linearGradient>
<linearGradient id="paint24_linear" x1="34.4897" y1="72.2794" x2="34.4897" y2="75.2019" gradientUnits="userSpaceOnUse">
<stop stop-color="#6299F3"/>
<stop offset="1" stop-color="#7AA4EA"/>
</linearGradient>
<linearGradient id="paint25_linear" x1="34.4897" y1="72.2794" x2="34.4897" y2="75.2019" gradientUnits="userSpaceOnUse">
<stop stop-color="#6299F3"/>
<stop offset="1" stop-color="#7AA4EA"/>
</linearGradient>
<linearGradient id="paint26_linear" x1="25.7222" y1="72.2794" x2="25.7222" y2="75.2019" gradientUnits="userSpaceOnUse">
<stop stop-color="#6299F3"/>
<stop offset="1" stop-color="#7AA4EA"/>
</linearGradient>
<linearGradient id="paint27_linear" x1="20.8855" y1="48.3148" x2="20.8855" y2="74.0329" gradientUnits="userSpaceOnUse">
<stop stop-color="#407ADB"/>
<stop offset="1" stop-color="#4882E2"/>
</linearGradient>
<linearGradient id="paint28_linear" x1="20.8855" y1="48.3148" x2="20.8855" y2="74.0329" gradientUnits="userSpaceOnUse">
<stop stop-color="#407ADB"/>
<stop offset="1" stop-color="#4882E2"/>
</linearGradient>
<linearGradient id="paint29_linear" x1="20.301" y1="48.3148" x2="20.301" y2="74.0329" gradientUnits="userSpaceOnUse">
<stop stop-color="#407ADB"/>
<stop offset="1" stop-color="#4882E2"/>
</linearGradient>
<linearGradient id="paint30_linear" x1="53.479" y1="95.4982" x2="53.479" y2="112.306" gradientUnits="userSpaceOnUse">
<stop stop-color="#407ADB"/>
<stop offset="1" stop-color="#4882E2"/>
</linearGradient>
<linearGradient id="paint31_linear" x1="10.3138" y1="89.3863" x2="10.3138" y2="102.374" gradientUnits="userSpaceOnUse">
<stop stop-color="#407ADB"/>
<stop offset="1" stop-color="#4882E2"/>
</linearGradient>
</defs>
</svg>
