<svg width="119" height="127" viewBox="0 0 119 127" fill="none" xmlns="http://www.w3.org/2000/svg">
<path d="M64.7557 96.9926H14.3773V78.2975H64.9215C68.9555 78.2975 72.2264 81.5684 72.2264 85.6024V89.522C72.2264 93.6478 68.8816 96.9926 64.7557 96.9926Z" fill="url(#paint0_linear)"/>
<path d="M71.0411 85.552V89.5753C71.0291 91.2936 70.0776 92.7842 68.68 93.5819C67.992 93.9731 67.1966 94.1972 66.3512 94.1972H11.6418C11.0003 94.1972 10.4804 94.7171 10.4804 95.3587V95.8333C10.4804 96.4748 11.0003 96.9947 11.6418 96.9947H106.154C108.865 96.9947 111.262 95.6473 112.71 93.5831C113.622 92.2834 114.159 90.6998 114.159 88.9898V85.8155C114.159 84.6446 113.89 83.5344 113.412 82.547C112.197 80.0334 109.623 78.2996 106.643 78.2996H11.6418C11.0003 78.2996 10.4804 78.8183 10.4804 79.4598V79.9344C10.4804 80.5759 11.0003 81.0958 11.6418 81.0958H66.5181C67.8298 81.0958 69.0163 81.6539 69.8462 82.547C70.5808 83.3376 71.0339 84.3906 71.0411 85.552Z" fill="url(#paint1_linear)"/>
<path d="M14.3773 87.6451L21.3913 87.9599L14.3773 88.1484V87.6451Z" fill="#FCFDFF"/>
<path d="M14.3773 83.343L31.0632 83.6566L14.3773 83.8462V83.343Z" fill="#FCFDFF"/>
<path d="M30.8915 83.5945C30.8915 83.5945 29.7908 84.1871 29.426 85.1613C29.3616 85.3319 29.3198 85.5143 29.3115 85.7063C29.2507 87.0013 29.3115 89.9311 29.3115 89.9311L26.0609 88.4656L22.8186 89.9311V85.9603C22.8186 85.209 23.0965 84.4793 23.614 84.0011C23.8644 83.7698 24.1685 83.5945 24.5119 83.5945H30.8915Z" fill="url(#paint2_linear)"/>
<path d="M30.8915 83.5945C30.8915 83.5945 29.7908 84.1871 29.426 85.1613L22.9104 85.2198C22.9104 85.2198 23.1656 83.8246 24.5107 83.5945H30.8915Z" fill="url(#paint3_linear)"/>
<path d="M63.8792 71.3663C60.9959 76.3853 57.3685 78.3218 57.3685 78.3218H42.2793C42.2805 78.3218 66.0793 67.5374 63.8792 71.3663Z" fill="#233862"/>
<path d="M52.291 110.197C51.8975 110.648 51.8475 111.151 52.0418 111.689C52.0418 111.691 52.043 111.695 52.0454 111.696C52.4055 112.69 53.5944 113.8 54.9752 114.909C55.1517 115.051 55.3091 115.181 55.4451 115.302C55.4808 115.333 55.5166 115.365 55.55 115.396C55.5774 115.42 55.6048 115.446 55.6311 115.469C56.9189 116.656 56.4348 116.928 58.7481 119.337C61.3858 122.082 63.2031 122.131 63.7194 121.882C64.1571 121.668 63.2687 120.212 62.2837 118.576C62.236 118.498 62.1895 118.418 62.1406 118.338C62.0095 118.121 61.8795 117.899 61.7495 117.681C60.5964 115.711 60.8921 114.788 61.1664 111.857C61.3882 109.476 64.8713 98.5515 64.8713 98.5515L59.8154 97.681C59.8154 97.681 58.2926 106.38 56.6148 107.719C55.7181 108.433 54.7141 108.442 53.852 108.971C53.7911 109.008 53.7315 109.046 53.6731 109.084C53.1842 109.41 52.6857 109.745 52.291 110.197Z" fill="#FDCEAE"/>
<path d="M52.291 110.197C51.8975 110.648 51.8475 111.151 52.0418 111.689C52.0418 111.691 52.043 111.695 52.0454 111.696C52.4866 112.689 53.6457 113.795 54.98 114.9C55.1541 115.044 55.3079 115.178 55.4451 115.302C55.4808 115.333 55.5166 115.365 55.55 115.396C55.5774 115.42 55.6048 115.446 55.6311 115.469C56.9189 116.657 56.4348 116.928 58.7481 119.337C61.3858 122.082 63.2031 122.131 63.7194 121.882C64.1571 121.668 63.2687 120.212 62.2837 118.576C61.7698 118.388 59.3849 117.42 57.5807 115.111C55.9924 113.084 54.9323 110.48 53.8508 108.971C53.7899 109.008 53.7303 109.046 53.6719 109.085C53.1842 109.41 52.6857 109.745 52.291 110.197Z" fill="#447EDF"/>
<path d="M93.0571 107.039C93.3696 108.6 95.5935 108.339 98.0785 107.732C100.564 107.125 99.9733 107.847 103.51 107.456C107.047 107.065 108.119 105.746 108.226 105.22C108.323 104.754 106.575 104.589 104.7 104.373C104.464 104.347 104.228 104.317 103.991 104.288C101.874 104.023 100.324 102.657 98.4017 101.535C96.5808 100.473 93.8632 96.1441 93.8632 96.1441L89.0124 96.5281C89.0124 96.5281 91.5582 100.394 92.542 102.075C93.1215 103.064 93.0905 104.371 93.0178 105.381C92.982 105.929 92.9462 106.49 93.0571 107.039Z" fill="#FDCEAE"/>
<path d="M98.0785 107.732C100.564 107.125 99.9733 107.847 103.51 107.456C107.047 107.064 108.119 105.746 108.226 105.22C108.323 104.754 106.575 104.589 104.7 104.373L104.682 104.409C104.682 104.409 102.561 105.913 99.6168 105.983C97.2176 106.041 94.6753 105.353 93.0178 105.381C92.9796 105.929 92.9439 106.491 93.0548 107.039C93.3696 108.6 95.5935 108.339 98.0785 107.732Z" fill="#447EDF"/>
<path d="M74.4681 76.023L69.9333 88.2253L64.0128 104.158C64.0128 104.158 62.4065 104.313 60.8671 103.87C59.4505 103.461 57.8252 102.389 57.8252 102.389C57.8252 102.389 59.4696 85.2823 62.5353 75.4625C63.3212 72.9417 64.2024 70.9026 65.1742 69.7555C69.9285 64.1367 74.4681 76.023 74.4681 76.023Z" fill="url(#paint4_linear)"/>
<path d="M69.8569 56.6445C66.8866 55.6858 58.4131 56.9164 49.9014 58.5822L48.1187 55.6429L29.7348 54.2072C29.7348 54.2072 23.6676 67.6603 26.9898 76.2328C27.4775 77.4932 28.4481 78.3005 30.1008 78.3279C30.1008 78.3291 30.3691 78.3267 30.3691 78.3279C30.3691 78.3279 41.311 78.322 44.8645 78.322C54.007 78.322 64.2143 72.0366 65.5343 71.7731C67.695 71.3402 68.5596 75.6628 70.7215 80.2013C72.8822 84.7397 91.036 100.3 91.036 100.3C91.036 100.3 93.8263 100.327 94.9782 99.8957C96.2171 99.4306 96.6714 98.8272 96.6714 98.8272C96.6714 98.8272 76.5573 58.8052 69.8569 56.6445Z" fill="url(#paint5_linear)"/>
<path d="M48.0114 30.3248C41.4648 33.9296 28.1834 41.4026 28.1142 41.3537C28.1142 41.3537 23.2324 43.1937 20.4635 41.3537C15.8475 38.2879 13.372 30.0386 21.8134 22.9388C26.0227 19.3984 29.0145 18.5363 29.4689 12.8817C29.7157 9.81475 33.9083 -0.309104 40.8746 0.628158C41.4565 0.706859 45.0398 0.873802 47.3949 2.11037C53.3976 5.262 57.8264 28.9296 48.0114 30.3248Z" fill="#424B96"/>
<path d="M42.5249 27.2564C42.5535 27.2755 39.3041 28.3845 37.1303 27.4222C35.0865 26.5183 33.5375 23.1556 33.5673 23.1532C34.4974 23.1103 35.5181 22.297 36.3051 16.962L36.701 17.1039L43.3596 19.4996C43.3596 19.4996 42.8767 21.6364 42.5655 23.6695C42.3019 25.3795 42.1612 27.0155 42.5249 27.2564Z" fill="#FDCEAE"/>
<path d="M43.3596 19.501C43.3596 19.501 42.8767 21.6379 42.5655 23.671C38.7413 22.9829 37.24 19.1719 36.7022 17.1042L43.3596 19.501Z" fill="#F3B898"/>
<path d="M44.3505 21.621C44.3505 21.621 35.2415 20.3988 36.0893 14.737C36.9383 9.0753 36.3337 5.10565 42.1863 5.64583C48.0388 6.1872 48.8425 8.51604 49.0178 10.4752C49.1955 12.4344 46.7426 21.7939 44.3505 21.621Z" fill="#FDCEAE"/>
<path d="M48.6875 7.37257C48.6875 7.37257 42.8564 12.3975 38.8892 12.803C34.9231 13.2084 33.4206 11.9349 33.4206 11.9349C33.4206 11.9349 35.759 9.99356 37.1661 6.86101C37.5811 5.93806 38.4563 5.30368 39.4651 5.21663C42.2972 4.97218 47.6668 4.86128 48.6875 7.37257Z" fill="#424B96"/>
<path d="M45.0422 6.92321C45.0422 6.92321 46.993 8.80966 47.6071 10.2084C48.1998 11.5582 48.3775 14.7874 47.9052 16.0705C47.9052 16.0705 50.9448 10.1595 49.2241 7.2881C47.3996 4.2426 45.0422 6.92321 45.0422 6.92321Z" fill="#424B96"/>
<path d="M50.1959 40.6764C49.9205 59.1164 50.1208 55.2636 48.1032 57.0129C47.6167 57.4338 46.2501 57.6855 44.4519 57.8035C38.7973 58.1791 28.8583 57.2478 28.4803 56.2021C27.1758 52.5866 28.0963 51.4633 27.0088 45.928C26.8955 45.3389 26.7548 44.7021 26.5903 44.0081C25.6828 40.2066 24.8004 38.9128 28.0188 32.8051C30.9379 27.2722 33.9703 22.7814 34.2434 22.9436C41.9442 27.5154 42.5655 23.6722 42.5655 23.6722C42.5655 23.6722 50.3307 31.6818 50.1959 40.6764Z" fill="url(#paint6_linear)"/>
<path d="M69.9333 88.2252L64.0128 104.157C64.0128 104.157 62.4066 104.312 60.8671 103.87C59.4505 103.461 57.8252 102.389 57.8252 102.389C57.8252 102.389 59.4696 85.2822 62.5353 75.4625L69.9333 88.2252Z" fill="url(#paint7_linear)"/>
<path d="M42.5655 23.6722C42.5655 23.6722 50.4893 25.0161 51.4206 28.4276C52.3507 31.8392 57.8276 51.8973 57.8276 51.8973C57.8276 51.8973 53.7995 52.6212 51.9381 50.7597C50.0767 48.8983 45.4631 33.4943 45.4631 33.4943L42.5655 23.6722Z" fill="url(#paint8_linear)"/>
<path d="M44.4519 57.8045C38.7973 58.1801 28.8583 57.2488 28.4803 56.203C27.1758 52.5875 28.0963 51.4642 27.0088 45.9289L29.736 38.2496C29.736 38.2496 29.2852 46.8018 31.8072 49.0507C34.3269 51.2997 42.1326 53.3924 43.3596 55.2717C43.9499 56.1732 44.3386 57.0783 44.4519 57.8045Z" fill="url(#paint9_linear)"/>
<path d="M37.9734 54.207C37.9734 54.207 43.5516 52.9645 44.4519 53.4606C45.3522 53.9554 47.5523 55.7584 47.8277 56.3856C48.1032 57.0129 45.8244 55.9099 45.0827 55.7107C44.6022 55.5819 43.3382 56.0208 42.7133 56.2294C40.0804 57.1071 38.467 56.6551 38.467 56.6551L37.9734 54.207Z" fill="#FFB27D"/>
<path d="M34.2374 22.9398C34.2374 22.9398 26.7465 23.4013 24.1541 27.018C20.504 32.1085 13.2635 53.8051 17.4132 56.6991C22.0864 59.9581 38.6829 57.5517 38.6829 57.5517C38.6829 57.5517 39.235 54.9701 38.467 53.7216C37.6991 52.4731 25.2118 50.4555 24.6347 49.8795C24.0587 49.3036 31.8382 38.6407 31.8382 36.9117C31.8382 35.1815 34.2374 22.9398 34.2374 22.9398Z" fill="url(#paint10_linear)"/>
<path d="M44.7226 55.013C44.7226 55.013 45.8912 56.5202 46.274 56.7003C46.6567 56.8804 46.9048 56.8351 46.9048 56.8351L46.1166 55.4172L44.7226 55.013Z" fill="#FFB27D"/>
<path d="M44.4519 53.4604L47.8504 55.1107C47.8504 55.1107 47.7061 55.3468 47.2875 55.3278C46.869 55.3087 45.8137 54.9223 45.8137 54.9223L44.4519 53.4604Z" fill="#FFB27D"/>
<path d="M46.274 59.01H73.1564L81.2424 38.9019H54.4017L46.274 59.01Z" fill="url(#paint11_linear)"/>
<path d="M73.4713 58.2267H37.9734V59.0102H73.1565L73.4713 58.2267Z" fill="#457FE0"/>
<path d="M66.3702 48.9556C66.573 48.2485 66.164 47.6761 65.4568 47.6761C64.7497 47.6761 64.0128 48.2497 63.8101 48.9556C63.6074 49.6628 64.0164 50.2351 64.7235 50.2351C65.4306 50.2363 66.1675 49.6628 66.3702 48.9556Z" fill="white"/>
<defs>
<linearGradient id="paint0_linear" x1="43.3018" y1="78.2975" x2="43.3018" y2="96.9926" gradientUnits="userSpaceOnUse">
<stop stop-color="#CECECE"/>
<stop offset="1" stop-color="#D1D1D1" stop-opacity="0"/>
</linearGradient>
<linearGradient id="paint1_linear" x1="62.3195" y1="78.2996" x2="62.3195" y2="96.9947" gradientUnits="userSpaceOnUse">
<stop stop-color="#5890EC"/>
<stop offset="1" stop-color="#649BF7"/>
</linearGradient>
<linearGradient id="paint2_linear" x1="26.855" y1="83.5945" x2="26.855" y2="89.9311" gradientUnits="userSpaceOnUse">
<stop stop-color="#5890EC"/>
<stop offset="1" stop-color="#649BF7"/>
</linearGradient>
<linearGradient id="paint3_linear" x1="26.901" y1="83.5945" x2="26.901" y2="85.2198" gradientUnits="userSpaceOnUse">
<stop stop-color="#5890EC"/>
<stop offset="1" stop-color="#649BF7"/>
</linearGradient>
<linearGradient id="paint4_linear" x1="66.1466" y1="68.2469" x2="66.1466" y2="104.184" gradientUnits="userSpaceOnUse">
<stop stop-color="#75A0FE"/>
<stop offset="1" stop-color="#A1BDFC"/>
</linearGradient>
<linearGradient id="paint5_linear" x1="33" y1="66.5001" x2="90" y2="100" gradientUnits="userSpaceOnUse">
<stop stop-color="#91B3FD"/>
<stop offset="1" stop-color="#B1CAFF"/>
</linearGradient>
<linearGradient id="paint6_linear" x1="37.974" y1="22.9393" x2="37.974" y2="57.8884" gradientUnits="userSpaceOnUse">
<stop stop-color="#407ADB"/>
<stop offset="1" stop-color="#4882E2"/>
</linearGradient>
<linearGradient id="paint7_linear" x1="63.8792" y1="75.4625" x2="63.8792" y2="104.184" gradientUnits="userSpaceOnUse">
<stop stop-color="#75A0FE"/>
<stop offset="1" stop-color="#A1BDFC"/>
</linearGradient>
<linearGradient id="paint8_linear" x1="50.1965" y1="23.6722" x2="50.1965" y2="52.0359" gradientUnits="userSpaceOnUse">
<stop stop-color="#73A6FF"/>
<stop offset="1" stop-color="#709EFF"/>
</linearGradient>
<linearGradient id="paint9_linear" x1="35.7304" y1="38.2496" x2="35.7304" y2="57.8894" gradientUnits="userSpaceOnUse">
<stop stop-color="#407ADB"/>
<stop offset="1" stop-color="#4882E2"/>
</linearGradient>
<linearGradient id="paint10_linear" x1="27.521" y1="22.9398" x2="27.521" y2="58.4072" gradientUnits="userSpaceOnUse">
<stop stop-color="#73A6FF"/>
<stop offset="1" stop-color="#709EFF"/>
</linearGradient>
<linearGradient id="paint11_linear" x1="63.7582" y1="38.9019" x2="63.7582" y2="59.01" gradientUnits="userSpaceOnUse">
<stop stop-color="#5890EC"/>
<stop offset="1" stop-color="#649BF7"/>
</linearGradient>
</defs>
</svg>
