<svg width="45" height="45" viewBox="0 0 45 45" fill="none" xmlns="http://www.w3.org/2000/svg">
<path d="M22.5 0C10.0736 0 0 10.0736 0 22.5C0 34.9264 10.0736 45 22.5 45C34.9264 45 45 34.9264 45 22.5C44.9868 10.0792 34.9209 0.0132778 22.5 0ZM31.9756 23.2169C31.8199 23.5294 31.5667 23.7827 31.2541 23.9384V23.9464L18.397 30.375C17.6029 30.7718 16.6377 30.4498 16.2409 29.6558C16.1281 29.4301 16.07 29.1809 16.0714 28.9286V16.0715C16.071 15.1838 16.7902 14.464 17.6778 14.4636C17.9275 14.4635 18.1737 14.5215 18.397 14.6331L31.2541 21.0617C32.0485 21.4576 32.3716 22.4225 31.9756 23.2169Z" fill="white"/>
</svg>
