<svg width="83" height="83" viewBox="0 0 83 83" fill="none" xmlns="http://www.w3.org/2000/svg">
<g clip-path="url(#clip0)">
<path d="M39.024 3.06997C40.7848 1.55401 43.3935 1.60662 45.092 3.19206C48.5195 6.39098 54.686 13.1697 57.4867 22.6255C58.9144 27.4459 59.3619 33.5646 58.7143 39.4127C58.7063 39.4847 58.6972 39.5561 58.6889 39.628L64.1377 46.2541C65.0345 47.3448 65.371 48.7604 65.0611 50.1378L62.7383 60.4604C62.5033 61.5051 61.7622 62.3471 60.756 62.713C59.7497 63.0789 58.6409 62.9096 57.7897 62.2601L51.9928 57.8364C51.9094 57.9518 51.8261 58.0672 51.7413 58.1811C50.8726 59.3482 49.4791 60.0274 48.0137 59.9979L33.8213 59.7126C32.6062 59.6882 31.4602 59.179 30.636 58.3209C30.4662 58.1442 30.3101 57.9525 30.1697 57.7473C30.0896 57.6301 30.011 57.5114 29.9323 57.3928L23.9621 61.58C23.0856 62.1947 21.9707 62.3194 20.9802 61.9134C20.568 61.7445 20.2052 61.4953 19.9079 61.1858C19.4905 60.7511 19.2025 60.198 19.0899 59.5829L17.184 49.1752C16.9297 47.7863 17.3229 46.3855 18.263 45.332L23.9736 38.9303C23.9682 38.8581 23.9619 38.7864 23.9568 38.7141C23.5447 32.8446 24.2377 26.7488 25.8581 21.9896C29.0368 12.6537 35.4712 6.12855 39.024 3.06997ZM20.5503 48.5587L22.3734 58.5143L28.1917 54.4337C26.4764 51.1335 25.243 47.4239 24.5368 43.4394L20.8166 47.6097C20.5845 47.8698 20.4875 48.2158 20.5503 48.5587ZM33.8901 56.2911L48.0826 56.5765C48.4448 56.5837 48.7864 56.4198 48.9962 56.1377C50.0763 54.6863 50.9801 53.1752 51.7365 51.6527L30.4415 51.2245C31.2764 53.0874 32.1728 54.6134 32.9949 55.816C33.1938 56.1064 33.528 56.2838 33.8901 56.2911ZM61.4943 48.4277L57.9449 44.1112C57.0792 48.0643 55.6976 51.7213 53.8511 54.9498L59.5005 59.261L61.7223 49.3866C61.7989 49.0464 61.7157 48.6968 61.4943 48.4277ZM27.3705 38.4741C27.6227 42.065 28.2788 45.1555 29.1219 47.7752L53.19 48.2592C54.4234 44.8824 55.0258 41.6285 55.3129 39.0361C55.9122 33.6241 55.5085 27.9969 54.2054 23.5972C51.6351 14.9188 45.929 8.65525 42.7568 5.6935C42.337 5.30152 41.692 5.28854 41.2566 5.66342C37.9678 8.49502 32.0148 14.5244 29.0977 23.0925C27.6188 27.4361 26.9893 33.0425 27.3705 38.4741Z" fill="white"/>
<path d="M35.4307 31.937C33.9134 30.3571 32.9968 28.1991 33.0442 25.8411C33.09 23.5564 34.0231 21.4263 35.671 19.8433C37.319 18.2603 39.4849 17.4137 41.7696 17.4597C46.4862 17.5544 50.246 21.4689 50.1511 26.1851C50.1052 28.4699 49.1723 30.6 47.5243 32.183C45.8763 33.766 43.7104 34.6125 41.4257 34.5666C39.0672 34.5192 36.9485 33.5174 35.4307 31.937ZM46.7299 26.1164C46.7584 24.7015 46.2086 23.4069 45.298 22.4589C44.3873 21.5109 43.1159 20.9095 41.701 20.8811C40.3302 20.8536 39.0307 21.3615 38.0419 22.3113C37.0532 23.2611 36.4933 24.5392 36.4657 25.91C36.4088 28.7398 38.6649 31.0884 41.4947 31.1454C42.8655 31.1729 44.165 30.665 45.1538 29.7152C46.1426 28.7655 46.7023 27.4872 46.7299 26.1164Z" fill="white"/>
<path d="M46.6606 74.2054C46.3572 73.8895 46.1743 73.458 46.1839 72.9856L46.3428 65.0866C46.3618 64.1418 47.1431 63.3913 48.0879 63.4103C49.0327 63.4292 49.7832 64.2106 49.7642 65.1554L49.6053 73.0543C49.5863 73.9992 48.805 74.7496 47.8602 74.7307C47.3879 74.7212 46.964 74.5212 46.6606 74.2054Z" fill="white"/>
<path d="M40.8488 63.2649C41.7936 63.2839 42.5442 64.0652 42.5252 65.0101L42.2198 80.1964C42.2008 81.1413 41.4195 81.8918 40.4746 81.8728C40.0022 81.8633 39.5785 81.6632 39.2751 81.3474C38.9717 81.0316 38.7888 80.6001 38.7984 80.1276L39.1038 64.9414C39.1227 63.9964 39.904 63.246 40.8488 63.2649Z" fill="white"/>
<path d="M35.2864 64.8645L35.1275 72.7634C35.1085 73.7083 34.3272 74.4588 33.3824 74.4398C32.91 74.4303 32.4861 74.2302 32.1828 73.9145C31.8795 73.5987 31.6965 73.1671 31.7061 72.6947L31.865 64.7958C31.8839 63.8509 32.6652 63.1004 33.6101 63.1194C34.5549 63.1383 35.3054 63.9197 35.2864 64.8645Z" fill="white"/>
</g>
<defs>
<clipPath id="clip0">
<rect width="58.4057" height="58.4057" fill="white" transform="matrix(-0.692749 -0.721178 -0.721178 0.692749 82.5814 42.1208)"/>
</clipPath>
</defs>
</svg>
