<svg width="16" height="26" viewBox="0 0 16 26" fill="none" xmlns="http://www.w3.org/2000/svg">
<path d="M14.4297 11.7221L3.72345 0.471522C3.47583 0.211106 3.14035 0.0627036 2.77892 0.053741C2.4175 0.0447784 2.07507 0.176369 1.81485 0.424192L0.986314 1.21243C0.447163 1.72608 0.425935 2.5821 0.938984 3.12104L9.92928 12.5686L0.471277 21.5688C0.211056 21.8166 0.0624588 22.1519 0.0535011 22.5132C0.0445335 22.8748 0.17633 23.217 0.423942 23.4776L1.21239 24.3058C1.46021 24.5662 1.7955 24.7146 2.15692 24.7235C2.51835 24.7325 2.86078 24.6009 3.121 24.3531L14.3822 13.6373C14.643 13.3887 14.7913 13.0518 14.7995 12.6899C14.8093 12.3267 14.6779 11.9831 14.4297 11.7221Z" fill="#4264B1"/>
</svg>
