<svg width="10" height="15" viewBox="0 0 10 15" fill="none" xmlns="http://www.w3.org/2000/svg">
<path d="M8.64229 7.02063L2.23005 0.282406C2.08174 0.126436 1.88081 0.0375548 1.66435 0.0321868C1.44788 0.0268189 1.24279 0.105632 1.08694 0.254059L0.590708 0.726156C0.267797 1.03379 0.255083 1.54648 0.562361 1.86927L5.94687 7.52762L0.28224 12.9181C0.126387 13.0665 0.0373884 13.2673 0.0320234 13.4837C0.0266525 13.7003 0.105589 13.9052 0.25389 14.0613L0.726112 14.5573C0.874537 14.7133 1.07535 14.8022 1.29181 14.8075C1.50828 14.8129 1.71337 14.7341 1.86922 14.5857L8.61384 8.16771C8.77007 8.01881 8.85885 7.81703 8.86374 7.60031C8.86962 7.38278 8.79094 7.17697 8.64229 7.02063Z" fill="#8B9EC8"/>
</svg>
