<svg width="16" height="10" viewBox="0 0 16 10" fill="none" xmlns="http://www.w3.org/2000/svg">
<path d="M8.19397 8.60104L14.619 1.87499C14.7677 1.71943 14.8469 1.51449 14.842 1.29801C14.837 1.08154 14.7485 0.880434 14.5928 0.731831L14.0976 0.258662C13.7749 -0.0492218 13.2622 -0.0374899 12.9545 0.28482L7.55911 5.93285L1.90482 0.531526C1.74913 0.382923 1.54431 0.303594 1.32795 0.308545C1.11136 0.313501 0.910379 0.402115 0.761533 0.557686L0.288607 1.05301C0.139885 1.2087 0.0606764 1.41351 0.0656297 1.62999C0.0705831 1.84647 0.159079 2.04757 0.314765 2.19617L7.04684 8.62729C7.20302 8.77624 7.40879 8.85531 7.6255 8.84987C7.84307 8.84537 8.04489 8.75698 8.19397 8.60104Z" fill="#8B9EC8"/>
</svg>
