<svg width="57" height="53" viewBox="0 0 57 53" fill="none" xmlns="http://www.w3.org/2000/svg">
<path d="M56.7401 14.2405C56.4854 13.719 56.0558 13.2942 55.5329 13.0453L32.1985 1.86533C29.5023 0.57348 27.4975 0.573591 24.8016 1.86533L1.46965 13.044C0.944065 13.2942 0.514339 13.719 0.259954 14.2402C0.0868386 14.5944 -0.000553998 14.9728 2.64235e-06 15.365C-0.000553998 15.757 0.0869499 16.1353 0.259843 16.4895C0.514339 17.0106 0.943843 17.4355 1.46697 17.6846L6.23438 19.9687V33.2978C6.23438 36.1239 8.67836 38.6955 13.1159 40.5388C17.2433 42.2532 22.7067 43.1975 28.5 43.1975C32.9603 43.1975 37.3251 42.6179 40.9709 41.5546V46.6283L39.1859 49.7198C38.8785 50.2523 39.0609 50.9331 39.5934 51.2406C39.7687 51.3418 39.9601 51.39 40.149 51.39C40.5338 51.39 40.908 51.1903 41.1141 50.8331L42.7268 48.0398H43.1974V50.99C43.1974 51.6047 43.6959 52.1033 44.3107 52.1033C44.9256 52.1033 45.424 51.6047 45.424 50.99V48.0398H45.8946L47.5073 50.8331C47.7135 51.1903 48.0876 51.39 48.4724 51.39C48.6612 51.39 48.8527 51.3418 49.028 51.2406C49.5605 50.9331 49.743 50.2523 49.4355 49.7198L47.6506 46.6283V40.2468C47.6506 39.6996 47.5174 39.1833 47.2832 38.7271C49.5668 37.1476 50.7656 35.2877 50.7656 33.2978V19.9686L55.5306 17.6856C56.0562 17.4354 56.4857 17.0105 56.7401 16.4895C56.9134 16.1345 57.0009 15.7552 56.9999 15.3674C57.0008 14.9744 56.9133 14.5951 56.7401 14.2405ZM13.9701 38.4826C10.469 37.0283 8.46094 35.1385 8.46094 33.2978V31.5534C9.84531 33.0481 11.8424 34.4012 14.3653 35.513C14.5114 35.5774 14.6637 35.6079 14.8137 35.6079C15.2414 35.6079 15.6494 35.3597 15.833 34.9431C16.0809 34.3805 15.8259 33.7234 15.2632 33.4754C10.9619 31.58 8.48265 29.0523 8.46105 26.5404C8.46105 26.5398 8.46094 26.5392 8.46094 26.5385V21.0355L24.8015 28.8644C26.1496 29.5104 27.3246 29.8333 28.5 29.8333C29.6751 29.8332 30.8506 29.5102 32.1985 28.8644L43.1974 23.5947V37.0985C42.2381 37.4387 41.4797 38.2054 41.1501 39.1696C37.5588 40.3322 33.0935 40.9709 28.5 40.9709C22.9932 40.9709 17.833 40.0872 13.9701 38.4826ZM45.424 45.8132H43.1974V40.2468C43.1974 39.6329 43.6968 39.1335 44.3107 39.1335C44.9246 39.1335 45.424 39.6329 45.424 40.2468V45.8132ZM48.5391 33.2978C48.5391 34.6044 47.502 35.965 45.6047 37.1679C45.5453 37.1429 45.485 37.1201 45.424 37.0985V22.5279L48.5391 21.0354V33.2978ZM54.7392 15.5125C54.6951 15.6029 54.6246 15.651 54.5708 15.6766L44.3107 20.5924L33.1272 15.2343C33.2311 14.922 33.2871 14.593 33.2871 14.2517C33.2871 12.1448 31.1843 10.4944 28.5 10.4944C25.8157 10.4944 23.7129 12.1448 23.7129 14.2517C23.7129 16.3586 25.8157 18.009 28.5 18.009C29.7616 18.009 30.8946 17.6444 31.7413 17.0392L41.7341 21.8269L31.2363 26.8565C29.1394 27.8612 27.8606 27.8612 25.7636 26.8565L2.42662 15.6755C2.3753 15.651 2.30472 15.6029 2.26063 15.5124C2.23792 15.4658 2.22645 15.4172 2.22657 15.3674C2.22657 15.3658 2.22657 15.3641 2.22657 15.3624C2.22645 15.3128 2.23792 15.264 2.26074 15.2174C2.30483 15.127 2.37519 15.079 2.42907 15.0533L25.7636 3.87336C26.812 3.37093 27.656 3.11967 28.4999 3.11967C29.3439 3.11967 30.1879 3.37093 31.2363 3.87336L54.5735 15.0547C54.6247 15.0791 54.6951 15.1271 54.7394 15.2177C54.7621 15.2641 54.7734 15.3128 54.7733 15.3675C54.7734 15.4172 54.762 15.4658 54.7392 15.5125ZM28.5 15.7823C26.9911 15.7823 25.9395 14.9757 25.9395 14.2516C25.9395 13.5275 26.9911 12.7208 28.5 12.7208C30.0089 12.7208 31.0606 13.5275 31.0606 14.2516C31.0606 14.9757 30.0089 15.7823 28.5 15.7823Z" fill="#3F68BF"/>
<path d="M19.5562 34.9996C18.9414 34.9996 18.4429 35.4982 18.4429 36.1129C18.4429 36.7277 18.9414 37.2262 19.5562 37.2262H19.557C20.1719 37.2262 20.6698 36.7277 20.6698 36.1129C20.6698 35.4982 20.1711 34.9996 19.5562 34.9996Z" fill="#3F68BF"/>
</svg>
