<svg width="46" height="54" viewBox="0 0 46 54" fill="none" xmlns="http://www.w3.org/2000/svg">
<path d="M15.2514 4.57874H10.9684C10.4315 4.57874 9.99634 5.01395 9.99634 5.55075C9.99634 6.08756 10.4314 6.52277 10.9684 6.52277H15.2514C15.7883 6.52277 16.2235 6.08756 16.2235 5.55075C16.2235 5.01395 15.7883 4.57874 15.2514 4.57874Z" fill="#3F68BF"/>
<path d="M18.8787 6.41466C19.3556 6.41466 19.7422 6.02805 19.7422 5.55114C19.7422 5.07423 19.3556 4.68762 18.8787 4.68762C18.4018 4.68762 18.0152 5.07423 18.0152 5.55114C18.0152 6.02805 18.4018 6.41466 18.8787 6.41466Z" fill="#3F68BF"/>
<path d="M18.5155 48.1617H12.1944C11.6912 48.1617 11.2832 48.5697 11.2832 49.073C11.2832 49.5762 11.6912 49.9842 12.1944 49.9842H18.5155C19.0188 49.9842 19.4268 49.5762 19.4268 49.073C19.4269 48.5697 19.0188 48.1617 18.5155 48.1617Z" fill="#3F68BF"/>
<path d="M12.7142 22.5833C12.7142 20.7917 14.1568 20.1635 15.8786 20.1635C17.9028 20.1635 18.5776 21.0477 19.1128 21.0477C19.6479 21.0477 19.9504 20.3497 19.9504 19.9773C19.9504 19.0212 17.9328 18.5311 16.3245 18.4531V15.5827C16.3245 15.0795 15.9165 14.6715 15.4132 14.6715C14.91 14.6715 14.502 15.0795 14.502 15.5827V18.557C12.5871 18.89 10.7597 20.0139 10.7597 22.7695C10.7597 28.4235 18.4147 26.3062 18.4147 30.983C18.4147 32.9142 17.1349 33.8681 15.1805 33.8681C12.4349 33.8681 11.8998 31.9835 11.2017 31.9835C10.7597 31.9835 10.3409 32.5885 10.3409 33.0539C10.3409 33.9657 11.9455 35.3989 14.502 35.6458V38.5456C14.502 39.0489 14.91 39.4568 15.4132 39.4568C15.9165 39.4568 16.3245 39.0489 16.3245 38.5456V35.6119C18.7226 35.2728 20.3691 33.7151 20.3691 30.7971C20.3692 24.4681 12.7142 26.5157 12.7142 22.5833Z" fill="#3F68BF"/>
<path d="M40.4363 42.7916C40.4368 42.7914 40.4375 42.7911 40.438 42.7909C40.439 42.7904 40.4402 42.7899 40.441 42.7896C40.4395 42.7901 40.438 42.7909 40.4363 42.7916Z" fill="#3F68BF"/>
<path d="M44.9416 46.7L43.7873 44.0562C43.5771 43.5739 43.2321 43.1911 42.8153 42.9335C43.1105 42.2033 43.1252 41.3613 42.7861 40.5849L39.5529 33.1696C39.2309 32.4308 38.638 31.8599 37.8835 31.5645C37.129 31.2681 36.3064 31.2826 35.5677 31.6046L30.0952 33.9909L29.8413 33.4089V5.82181C29.8413 3.09527 27.6226 0.876709 24.8962 0.876709H5.81425C3.0877 0.876709 0.869141 3.09539 0.869141 5.82181V49.0086C0.869141 51.7351 3.08782 53.9537 5.81425 53.9537H21.951C22.454 53.9537 22.8622 53.5455 22.8622 53.0424C22.8622 52.5394 22.454 52.1312 21.951 52.1312H5.81425C4.09254 52.1312 2.6916 50.7303 2.6916 49.0086V46.0454H28.0187V49.0086C28.0187 50.5273 26.9313 51.8213 25.4343 52.0837C24.9386 52.1712 24.6081 52.6439 24.6943 53.1396C24.7818 53.6353 25.2545 53.967 25.7501 53.8796C28.1207 53.4628 29.8412 51.4142 29.8412 49.0086V48.2103C29.908 48.248 29.9773 48.2832 30.0478 48.316C29.8886 48.8738 29.9263 49.4618 30.1595 49.9977L31.3126 52.6427C31.8191 53.8035 33.1723 54.3034 34.2906 53.8115L43.7714 49.678C44.3254 49.4374 44.7519 48.9939 44.973 48.4313C45.1943 47.869 45.1822 47.2542 44.9416 46.7ZM2.6916 44.2228V10.6078H6.24437C6.74739 10.6078 7.1556 10.1996 7.1556 9.69657C7.1556 9.19355 6.74739 8.78534 6.24437 8.78534H2.6916V5.82194C2.6916 4.10022 4.09254 2.69929 5.81425 2.69929H24.8962C26.6179 2.69929 28.0188 4.10022 28.0188 5.82194V8.78534H9.88941C9.38518 8.78534 8.97818 9.19355 8.97818 9.69657C8.97818 10.1996 9.38518 10.6078 9.88941 10.6078H28.0187V29.228L26.4708 25.6777C25.7855 24.1066 24.0006 23.3047 22.4065 23.8527C20.5908 24.4741 19.7202 26.5178 20.4722 28.2414L24.5194 37.5229L23.8073 37.331C21.078 36.5616 18.7095 39.458 20.093 41.9809C20.5171 42.756 21.2449 43.3393 22.0892 43.5798L24.3456 44.2226L24.3463 44.2228H2.6916ZM31.7671 46.5713C31.7634 46.5725 31.761 46.5737 31.7574 46.5749C31.2089 46.8071 30.5746 46.5488 30.3407 46.0111L29.8413 44.8666L29.591 44.2931C29.4027 43.8593 29.032 43.5349 28.5765 43.406L28.0188 43.2469L22.6229 41.7099C22.2754 41.6102 21.9741 41.3685 21.7979 41.0465C21.238 40.0241 22.2132 38.8918 23.2814 39.2034C23.3221 39.2135 23.299 39.2069 23.2884 39.204C23.3209 39.2129 23.562 39.279 24.7479 39.5995C26.0518 39.951 27.2362 38.5927 26.5254 37.2545C26.4955 37.1948 26.3584 36.8747 22.2545 27.465C22.1063 27.1261 22.1087 26.7506 22.2594 26.408C22.7249 25.3444 24.2165 25.373 24.6882 26.4541L28.0186 34.0918L28.7014 35.6579C28.906 36.1269 29.4567 36.3815 29.9809 36.1609L36.344 33.3858C36.6077 33.2716 36.9017 33.2667 37.1727 33.3737C37.4437 33.4794 37.6562 33.6836 37.7705 33.9472L41.0037 41.3613C41.2431 41.9092 40.9916 42.5495 40.4435 42.7877C40.4434 42.7877 40.4434 42.7879 40.4433 42.7879C40.4432 42.788 40.4431 42.788 40.4431 42.788C40.441 42.789 40.4393 42.7897 40.4374 42.7904C40.4352 42.7914 40.4325 42.7925 40.4291 42.7939C40.4293 42.7938 40.4295 42.7938 40.4296 42.7937C40.4289 42.794 40.4282 42.7943 40.4276 42.7945C40.4255 42.7955 40.423 42.7966 40.4203 42.7977C40.4173 42.799 40.4162 42.7995 40.4171 42.7991C40.2351 42.8786 38.9661 43.432 31.7671 46.5713ZM41.0951 44.6246C41.0924 44.6258 41.0889 44.6274 41.0842 44.6293C41.0887 44.6273 41.0924 44.6258 41.0951 44.6246ZM42.9939 47.8968L33.5143 52.0303C33.3528 52.0996 33.1656 52.0267 33.0951 51.865L31.942 49.22C31.8211 48.9427 31.9509 48.6111 32.2288 48.491C38.8863 45.5878 40.6934 44.7997 41.0356 44.6505C40.9415 44.6916 40.7799 44.7621 40.761 44.7703C40.7761 44.7637 40.9068 44.7067 41.2758 44.5459C41.3451 44.5155 41.4192 44.501 41.4909 44.501C41.7059 44.501 41.9162 44.6274 42.006 44.8326L43.1591 47.4777C43.2291 47.6378 43.157 47.8257 42.9939 47.8968Z" fill="#3F68BF"/>
<path d="M40.7617 44.7704C40.7587 44.7717 40.7587 44.7717 40.7617 44.7704V44.7704Z" fill="#3F68BF"/>
</svg>
