<svg width="38" height="42" viewBox="0 0 38 42" fill="none" xmlns="http://www.w3.org/2000/svg">
<path d="M35.9368 0H1.96388C0.379896 0 -0.551218 1.7852 0.356353 3.08421C0.373825 3.10899 -0.18143 2.35284 13.3196 20.7301C13.6224 21.1683 13.7825 21.681 13.7825 22.2139V39.9254C13.7825 41.6477 15.7568 42.5977 17.0956 41.5846L22.8503 37.2466C23.6444 36.657 24.1182 35.7151 24.1182 34.7258V22.2139C24.1182 21.681 24.2781 21.1683 24.5811 20.7301C38.0717 2.36695 37.5268 3.10882 37.5443 3.08421C38.4515 1.78577 37.5214 0 35.9368 0V0ZM22.5883 19.286C22.0304 20.0453 21.6573 21.1041 21.6573 22.2138V34.7257C21.6573 34.94 21.5543 35.1442 21.3821 35.2716C21.2306 35.3832 22.3781 34.5207 16.2434 39.1452V22.2139C16.2434 21.17 15.9273 20.1658 15.3294 19.3099C15.3145 19.2887 15.7312 19.8561 6.86873 7.79285H31.0318L22.5883 19.286ZM32.8397 5.3319H5.06089L2.95167 2.46088H34.949L32.8397 5.3319Z" fill="#3F68BF"/>
</svg>
