<svg width="45" height="53" viewBox="0 0 45 53" fill="none" xmlns="http://www.w3.org/2000/svg">
<path d="M38.8334 36.2632L30.0272 40.6245C29.7166 39.3231 28.7365 38.2157 27.3639 37.8091L23.2865 36.6005C20.3467 35.7265 16.4777 35.0085 12.623 37.2316C12.3784 37.3719 12.1594 37.5122 11.966 37.6361C11.2332 38.1058 10.7849 38.3914 9.5048 38.3995C9.09385 37.3876 8.10051 36.672 6.94259 36.672H2.76459C1.24022 36.672 0 37.9116 0 39.4353V49.1269C0 50.6506 1.24012 51.8902 2.76459 51.8902H6.94269C8.4063 51.8902 9.60718 50.7473 9.70066 49.3075C11.4309 49.3314 12.5646 49.4621 14.9125 50.1521C16.2037 50.5323 21.723 52.1377 22.143 52.2596C23.5299 52.6618 24.6956 53 25.9106 52.9999C27.2826 52.9999 28.7173 52.5686 30.6035 51.3115C30.6123 51.3056 30.621 51.2996 30.6295 51.2935L42.7551 42.6645C44.4757 41.4423 44.9762 39.2353 43.92 37.5325C42.8822 35.8533 40.7434 35.3194 38.8334 36.2632ZM7.63687 49.1269C7.63687 49.5091 7.32549 49.82 6.94259 49.82H2.76459C2.38179 49.82 2.07031 49.5091 2.07031 49.1269V39.4353C2.07031 39.0532 2.38169 38.7422 2.76459 38.7422H6.94269C7.32549 38.7422 7.63697 39.0532 7.63697 39.4353V49.1269H7.63687ZM41.5554 40.9775L29.4421 49.5977C26.6959 51.4246 25.53 51.0864 22.7197 50.2713C22.2942 50.148 16.7869 48.546 15.4968 48.1661C12.9797 47.4263 11.7361 47.2679 9.70718 47.2384V40.4668C11.4586 40.4196 12.2842 39.8912 13.0831 39.3792C13.2647 39.2628 13.4524 39.1425 13.6551 39.0263C16.1648 37.5789 18.8687 37.4469 22.6974 38.5852L26.7757 39.794C27.7193 40.0736 28.2642 41.0646 27.991 42.0039C27.9905 42.0054 27.9901 42.007 27.9896 42.0084C27.7138 42.9479 26.7207 43.4888 25.7753 43.215L19.944 41.5249C19.3948 41.3657 18.8207 41.6818 18.6617 42.231C18.5025 42.78 18.8186 43.3542 19.3678 43.5133L25.199 45.2034C27.0823 45.7492 29.0541 44.7909 29.8136 43.0404L39.7513 38.1186C40.5494 37.7241 41.6328 37.77 42.1596 38.6223C42.6324 39.3845 42.3729 40.3968 41.5554 40.9775Z" fill="#3F68BF"/>
<path d="M12.8602 14.2382V29.3769C12.8602 31.3358 14.4546 32.9295 16.4145 32.9295H35.4874C37.4457 32.9295 39.0389 31.3358 39.0389 29.3769V14.2388C40.6034 13.9524 41.793 12.5807 41.793 10.9357V9.46565C41.793 7.61345 40.2855 6.10667 38.4323 6.10667H36.2881C36.5338 5.19108 36.4708 4.2025 36.0808 3.23267C35.3823 1.49557 33.7767 0.205767 32.0857 0.0232687C30.5549 -0.141735 29.1606 0.57656 28.1599 2.04741L25.9504 5.30018L23.7387 2.04721C22.7397 0.577181 21.3467 -0.141321 19.8156 0.0230617C18.1239 0.205146 16.5177 1.49495 15.8185 3.23277C15.4284 4.20261 15.3653 5.19108 15.6109 6.10657H13.4694C11.6164 6.10657 10.1089 7.61334 10.1089 9.46555V10.9356C10.109 12.5797 11.2973 13.9508 12.8602 14.2382ZM29.8723 3.21124C30.4377 2.38011 31.1085 1.99969 31.8637 2.08157C32.8011 2.18271 33.7454 2.97367 34.1602 4.005C34.3415 4.45591 34.54 5.27938 34.0669 6.10667H27.9056L29.8723 3.21124ZM17.7395 4.00551C18.1547 2.97357 19.0996 2.1824 20.0374 2.08147C20.7927 1.9999 21.4622 2.38022 22.0269 3.21103L23.9956 6.10667H17.8325C17.3596 5.27958 17.5581 4.45633 17.7395 4.00551ZM12.1793 9.46565C12.1793 8.75502 12.7581 8.17699 13.4696 8.17699H38.4324C39.1439 8.17699 39.7228 8.75512 39.7228 9.46565V10.9357C39.7228 11.6463 39.1439 12.2243 38.4324 12.2243H25.9511C25.3794 12.2243 24.9159 12.6878 24.9159 13.2595C24.9159 13.8312 25.3794 14.2947 25.9511 14.2947H36.9687V29.377C36.9687 30.1943 36.3043 30.8593 35.4875 30.8593H16.4146C15.5963 30.8593 14.9306 30.1943 14.9306 29.377V14.2947H16.4969C17.0686 14.2947 17.532 13.8312 17.532 13.2595C17.532 12.6878 17.0686 12.2243 16.4969 12.2243H13.4697C12.7582 12.2243 12.1794 11.6462 12.1794 10.9357V9.46565H12.1793Z" fill="#3F68BF"/>
<path d="M21.1476 14.2947C21.7193 14.2947 22.1828 13.8312 22.1828 13.2595C22.1828 12.6878 21.7193 12.2244 21.1476 12.2244H21.1447C20.573 12.2244 20.111 12.6878 20.111 13.2595C20.1109 13.8312 20.5759 14.2947 21.1476 14.2947Z" fill="#3F68BF"/>
</svg>
