<svg width="53" height="55" viewBox="0 0 53 55" fill="none" xmlns="http://www.w3.org/2000/svg">
<path d="M22.9418 14.9585C23.3867 14.9585 23.7475 14.5979 23.7475 14.1528V13.2631C23.7475 12.818 23.3867 12.4574 22.9418 12.4574C22.4967 12.4574 22.1361 12.818 22.1361 13.2631V14.1528C22.1361 14.5979 22.4967 14.9585 22.9418 14.9585Z" fill="#3F68BF"/>
<path d="M30.0603 14.9585C30.5052 14.9585 30.866 14.5979 30.866 14.1528V13.2631C30.866 12.818 30.5052 12.4574 30.0603 12.4574C29.6153 12.4574 29.2546 12.818 29.2546 13.2631V14.1528C29.2546 14.5979 29.6153 14.9585 30.0603 14.9585Z" fill="#3F68BF"/>
<path d="M24.7213 21.076H28.2807C28.7256 21.076 29.0863 20.7154 29.0863 20.2704C29.0863 19.8253 28.7256 19.4647 28.2807 19.4647H24.7213C24.2763 19.4647 23.9157 19.8253 23.9157 20.2704C23.9157 20.7154 24.2764 21.076 24.7213 21.076Z" fill="#3F68BF"/>
<path d="M51.9157 49.2083C51.9143 49.2049 51.913 49.2016 51.9115 49.1981L50.1606 44.9871C50.1595 44.9844 50.1584 44.9817 50.1572 44.9791L46.5713 36.3554C45.7597 34.3305 44.2982 32.7916 42.4415 31.9931C41.6441 30.9373 40.379 30.2534 38.9569 30.2534H37.0707C36.6256 30.2534 36.265 30.6141 36.265 31.0591C36.265 31.5041 36.6256 31.8648 37.0707 31.8648H38.9569C40.4752 31.8648 41.7104 33.1 41.7104 34.6183V49.8294H11.2887V34.6184C11.2887 33.1001 12.5239 31.8649 14.0422 31.8649H33.8481C34.2932 31.8649 34.6538 31.5043 34.6538 31.0592C34.6538 30.6142 34.2932 30.2535 33.8481 30.2535H32.6429V26.1097C34.6211 24.4886 35.9494 22.1027 36.1719 19.4079H37.1796C38.6052 19.4079 39.7648 18.2482 39.7648 16.8227V13.2631C39.7648 11.8375 38.6051 10.6778 37.1796 10.6778H36.2056V9.70804C36.2056 9.70664 36.2058 9.70524 36.2058 9.70385C36.2058 9.70245 36.2056 9.70105 36.2056 9.69966V5.25476C36.2056 2.35727 33.8482 0 30.9508 0H22.0529C19.1554 0 16.7981 2.35727 16.7981 5.25476V9.70105C16.7981 9.70202 16.798 9.70288 16.798 9.70385C16.798 9.70481 16.7981 9.70567 16.7981 9.70664V10.6779H15.8241C14.3985 10.6779 13.2389 11.8378 13.2389 13.2633V16.8224C13.2389 18.248 14.3986 19.4077 15.8241 19.4077H16.8318C17.0542 22.1009 18.3809 24.4855 20.3571 26.1066V30.2534H14.0421C12.6196 30.2534 11.3543 30.9376 10.5569 31.9939C8.70087 32.7926 7.23993 34.3311 6.42878 36.3556L2.84304 44.9788C2.84186 44.9817 2.84068 44.9846 2.83939 44.9875L1.08852 49.1981C1.08702 49.2015 1.08573 49.205 1.08433 49.2083C0.573648 50.4852 0.714908 51.9394 1.46224 53.0985C2.20034 54.2434 3.39562 54.9349 4.74172 54.9955C4.76385 54.9965 4.80929 54.9985 9.5843 54.9998C9.5872 54.9998 9.5901 55 9.593 55H10.4826H10.4828H13.3204C13.7655 55 14.1261 54.6394 14.1261 54.1943C14.1261 53.7493 13.7655 53.3887 13.3204 53.3887H10.483C10.2393 53.3887 9.93213 53.3886 9.58849 53.3885C9.05353 53.386 8.61901 52.9503 8.61901 52.4148V51.5249C8.61901 51.4785 8.65682 51.4408 8.70312 51.4408H10.4828H42.5159H44.2955C44.3419 51.4408 44.3796 51.4786 44.3796 51.5249V52.4148C44.3796 52.9503 43.9451 53.3861 43.4101 53.3885C43.0668 53.3886 42.7603 53.3887 42.5167 53.3887H16.5432C16.0982 53.3887 15.7375 53.7493 15.7375 54.1943C15.7375 54.6394 16.0982 55 16.5432 55H42.5173H42.5175H43.406C43.4089 55 43.4118 54.9998 43.4147 54.9998C48.1909 54.9985 48.2363 54.9965 48.2588 54.9955C49.6045 54.9349 50.7998 54.2434 51.5379 53.0985C52.2851 51.9394 52.4264 50.4852 51.9157 49.2083ZM37.1796 12.2891C37.7166 12.2891 38.1535 12.7259 38.1535 13.2629V16.8226C38.1535 17.3596 37.7166 17.7965 37.1796 17.7965H36.2056V12.2891H37.1796ZM22.0529 1.61133H30.9508C32.9598 1.61133 34.5943 3.24575 34.5943 5.25476V8.89818H33.6195C33.0825 8.89818 32.6456 8.4613 32.6456 7.92419V6.95019H32.73C33.175 6.95019 33.5356 6.58958 33.5356 6.14453C33.5356 5.69948 33.175 5.33887 32.73 5.33887H20.2725C19.8274 5.33887 19.4668 5.69948 19.4668 6.14453C19.4668 6.58958 19.8274 6.95019 20.2725 6.95019H20.3565V7.92408C20.3565 8.46119 19.9196 8.89808 19.3825 8.89808H18.4094V5.25465C18.4094 3.24575 20.0438 1.61133 22.0529 1.61133ZM14.8502 16.8225V13.2634C14.8502 12.7263 15.2871 12.2894 15.8241 12.2894H16.7981L16.7982 17.7966H15.8242C15.2871 17.7965 14.8502 17.3596 14.8502 16.8225ZM18.4095 18.6022L18.4094 10.5095H19.3825C20.808 10.5095 21.9678 9.34968 21.9678 7.92419V6.95019H31.0341V7.92408C31.0341 9.34968 32.1938 10.5094 33.6193 10.5094H34.594V18.6021C34.594 23.0642 30.9638 26.6944 26.5017 26.6944C22.0398 26.6946 18.4095 23.0643 18.4095 18.6022ZM21.9684 27.1796C23.3224 27.898 24.8653 28.3059 26.5019 28.3059C28.1369 28.3059 29.6785 27.8988 31.0315 27.1815V30.2535H21.9684V27.1796ZM7.91862 36.9693C7.92012 36.966 7.92141 36.9625 7.92281 36.9591C8.32822 35.9456 8.93161 35.0869 9.68195 34.4301C9.67926 34.4926 9.67722 34.5553 9.67722 34.6183V44.4905H4.79114L7.91862 36.9693ZM7.00779 51.5248V52.4147C7.00779 52.7588 7.07589 53.087 7.19836 53.3875C5.98964 53.3868 4.93358 53.3861 4.80167 53.3851C3.98891 53.3446 3.26586 52.9225 2.8164 52.2253C2.35234 51.5055 2.2635 50.6033 2.57857 49.8113L4.12104 46.1018H9.67722V49.8292H8.70323C7.76834 49.8294 7.00779 50.5899 7.00779 51.5248ZM45.0771 36.9592C45.0785 36.9627 45.0798 36.966 45.0813 36.9695L48.2089 44.4907H43.3218V34.6185C43.3218 34.5551 43.3196 34.4922 43.3169 34.4294C44.0678 35.0861 44.6715 35.9452 45.0771 36.9592ZM50.1836 52.2254C49.7341 52.9226 49.0109 53.3448 48.1984 53.3852C48.0667 53.3862 47.01 53.387 45.8006 53.3876C45.9232 53.0871 45.9913 52.7589 45.9913 52.4148V51.5249C45.9913 50.59 45.2307 49.8295 44.2959 49.8295H43.3219V46.102H48.8791L50.4217 49.8116C50.7364 50.6035 50.6477 51.5056 50.1836 52.2254Z" fill="#3F68BF"/>
<path d="M23.9143 41.7369C23.9143 43.1625 25.074 44.3222 26.4995 44.3222C27.925 44.3222 29.0847 43.1624 29.0847 41.7369C29.0847 40.3115 27.925 39.1517 26.4995 39.1517C25.074 39.1517 23.9143 40.3115 23.9143 41.7369ZM27.4734 41.7369C27.4734 42.2739 27.0365 42.7108 26.4995 42.7108C25.9625 42.7108 25.5256 42.2739 25.5256 41.7369C25.5256 41.1999 25.9625 40.7631 26.4995 40.7631C27.0365 40.7631 27.4734 41.1999 27.4734 41.7369Z" fill="#3F68BF"/>
</svg>
