<svg width="45" height="45" viewBox="0 0 45 45" fill="none" xmlns="http://www.w3.org/2000/svg">
<path d="M41.0449 0.5H3.95508C1.77425 0.5 0.5 1.77425 0.5 3.95508V32.2559C0.5 34.4367 1.77425 35.5 3.95508 35.5L17 36.2109L16.2818 39.1839C15.9134 41.0262 13.9032 42.3633 12.0245 42.3633H8.4375C7.70941 42.3633 7.11914 42.9536 7.11914 43.6816C7.11914 44.4097 7.70941 44.5 8.4375 44.5H36.5625C37.2906 44.5 37.8809 44.4097 37.8809 43.6816C37.8809 42.9536 37.2906 42.3633 36.5625 42.3633H32.9755C31.0968 42.3633 28.8684 41.0263 28.5 39.1839L28 36.2109L41.0449 35.5C43.2258 35.5 44.5 34.4367 44.5 32.2559V4C44.5 1.81917 43.2258 0.5 41.0449 0.5ZM26.5118 39.7009C26.7099 40.6915 27.127 41.5944 27.7064 42.3633H17.2936C17.873 41.5945 18.2901 40.6916 18.4882 39.701L19.1863 36.2109H25.8137L26.5118 39.7009ZM42.3633 32.2559C42.3633 32.9828 41.7719 33.5742 41.0449 33.5742H3.95508C3.22813 33.5742 2.63672 32.9828 2.63672 32.2559V3.95508C2.63672 3.22813 3.22813 2.63672 3.95508 2.63672H41.0449C41.7719 2.63672 42.3633 3.22813 42.3633 3.95508V32.2559Z" fill="#3F68BF"/>
<path d="M16.3477 21.9727H28.6523C29.3804 21.9727 29.9707 21.3824 29.9707 20.6543V19.7754C29.9707 16.9837 28.4305 14.5463 26.1563 13.2642C26.8891 12.4166 27.334 11.3133 27.334 10.1074C27.334 7.44196 25.1655 5.27344 22.5 5.27344C19.8345 5.27344 17.666 7.44196 17.666 10.1074C17.666 11.3133 18.1109 12.4166 18.8437 13.2642C16.5695 14.5463 15.0293 16.9837 15.0293 19.7754V20.6543C15.0293 21.3824 15.6196 21.9727 16.3477 21.9727ZM20.3027 10.1074C20.3027 8.89585 21.2884 7.91016 22.5 7.91016C23.7116 7.91016 24.6973 8.89585 24.6973 10.1074C24.6973 11.319 23.7116 12.3047 22.5 12.3047C21.2884 12.3047 20.3027 11.319 20.3027 10.1074ZM22.5 14.9414C25.0175 14.9414 27.0916 16.8755 27.3142 19.3359H17.6858C17.9084 16.8755 19.9825 14.9414 22.5 14.9414Z" fill="#3F68BF"/>
<path d="M38.3203 26.543H14.1504V26.1035C14.1504 25.3754 13.5601 24.7852 12.832 24.7852C12.1039 24.7852 11.5137 25.3754 11.5137 26.1035V26.543H6.67969C5.9516 26.543 5.36133 27.1332 5.36133 27.8613C5.36133 28.5894 5.9516 29.1797 6.67969 29.1797H11.5137V29.6191C11.5137 30.3472 12.1039 30.9375 12.832 30.9375C13.5601 30.9375 14.1504 30.3472 14.1504 29.6191V29.1797H38.3203C39.0484 29.1797 39.6387 28.5894 39.6387 27.8613C39.6387 27.1332 39.0484 26.543 38.3203 26.543Z" fill="#3F68BF"/>
</svg>
