<svg width="43" height="43" viewBox="0 0 43 43" fill="none" xmlns="http://www.w3.org/2000/svg">
<path d="M28.7188 27.5769C27.7 27.5769 26.8711 26.8595 26.8711 25.9778C26.8711 25.0959 27.7 24.3785 28.7188 24.3785C29.7376 24.3785 30.5664 25.0959 30.5664 25.9778C30.5664 26.4415 30.9425 26.8176 31.4063 26.8176C31.87 26.8176 32.2461 26.4415 32.2461 25.9778C32.2461 24.4387 31.0994 23.1447 29.5586 22.7935V22.3567C29.5586 21.8929 29.1825 21.5168 28.7188 21.5168C28.255 21.5168 27.8789 21.8929 27.8789 22.3567V22.7935C26.3382 23.1447 25.1914 24.4387 25.1914 25.9778C25.1914 27.7857 26.7738 29.2566 28.7188 29.2566C29.7376 29.2566 30.5664 29.974 30.5664 30.8558C30.5664 31.7376 29.7376 32.455 28.7188 32.455C27.7 32.455 26.8711 31.7376 26.8711 30.8558C26.8711 30.392 26.495 30.016 26.0313 30.016C25.5675 30.016 25.1914 30.392 25.1914 30.8558C25.1914 32.3948 26.3382 33.6889 27.8789 34.0401V34.4029C27.8789 34.8666 28.255 35.2427 28.7188 35.2427C29.1825 35.2427 29.5586 34.8666 29.5586 34.4029V34.0401C31.0994 33.6889 32.2461 32.3948 32.2461 30.8558C32.2461 29.0478 30.6638 27.5769 28.7188 27.5769Z" fill="#3F68BF"/>
<path d="M37.9174 22.5814C36.8203 20.8719 35.2746 19.504 33.4476 18.6256C33.0294 18.4246 32.5276 18.6006 32.3267 19.0187C32.1257 19.4368 32.3017 19.9385 32.7198 20.1395C35.9037 21.67 37.9609 24.9403 37.9609 28.4708C37.9609 29.9815 37.5885 31.4797 36.8841 32.8036C36.6663 33.213 36.8216 33.7216 37.2311 33.9395C37.3567 34.0064 37.4917 34.0381 37.6248 34.0381C37.9253 34.0381 38.2159 33.8763 38.3669 33.5926C39.2002 32.0268 39.6406 30.2556 39.6406 28.4708C39.6406 26.3745 39.0447 24.338 37.9174 22.5814Z" fill="#3F68BF"/>
<path d="M30.0389 17.5529L29.9824 17.5529C29.5186 17.5529 29.1425 17.9289 29.1425 18.3927C29.1425 18.8565 29.5186 19.2325 29.9824 19.2325L30.031 19.2326C30.0323 19.2326 30.0336 19.2326 30.035 19.2326C30.497 19.2326 30.8726 18.8592 30.8748 18.3967C30.8769 17.9329 30.5026 17.5551 30.0389 17.5529Z" fill="#3F68BF"/>
<path d="M24.7255 36.8021C21.5417 35.2714 19.4845 32.0012 19.4845 28.4707C19.4845 26.96 19.8569 25.4618 20.5613 24.1379C20.7791 23.7285 20.6238 23.2199 20.2143 23.002C19.805 22.7842 19.2962 22.9395 19.0784 23.349C18.2452 24.9148 17.8048 26.6859 17.8048 28.4707C17.8048 30.567 18.4007 32.6034 19.528 34.3601C20.6251 36.0696 22.1707 37.4376 23.9978 38.316C24.1151 38.3724 24.2391 38.399 24.3611 38.399C24.6739 38.399 24.974 38.2236 25.1187 37.9229C25.3195 37.5048 25.1436 37.003 24.7255 36.8021Z" fill="#3F68BF"/>
<path d="M27.463 37.709L27.4144 37.7089C26.9484 37.708 26.5728 38.0808 26.5707 38.5448C26.5686 39.0086 26.943 39.3864 27.4067 39.3886L27.463 39.3887C27.9268 39.3887 28.3028 39.0126 28.3028 38.5489C28.3028 38.0851 27.9268 37.709 27.463 37.709Z" fill="#3F68BF"/>
<path d="M32.5362 14.7113C32.434 14.4678 32.3088 14.2383 32.1631 14.0254H34.3495C36.4797 14.0254 38.2128 12.2923 38.2128 10.1621C38.2128 8.03192 36.4797 6.29882 34.3495 6.29882H27.6241C28.0517 5.67717 28.3027 4.92509 28.3027 4.11523C28.3027 1.98505 26.5696 0.251953 24.4394 0.251953H3.86327C1.7331 0.251953 0 1.98505 0 4.11523C0 6.2454 1.7331 7.9785 3.86327 7.9785H10.5887C10.1612 8.60015 9.91014 9.35223 9.91014 10.1621C9.91014 10.972 10.1611 11.724 10.5887 12.3457H8.39842C6.26825 12.3457 4.53515 14.0788 4.53515 16.209C4.53515 17.4324 5.10742 18.5241 5.99773 19.2324C5.10742 19.9407 4.53515 21.0324 4.53515 22.2558C4.53515 23.4792 5.10742 24.5709 5.99773 25.2793C5.10742 25.9876 4.53515 27.0793 4.53515 28.3027C4.53515 29.5261 5.10742 30.6178 5.99773 31.3261C5.10742 32.0344 4.53515 33.1261 4.53515 34.3495C4.53515 36.4797 6.26825 38.2128 8.39842 38.2128H18.296C20.9033 41.0017 24.6126 42.7481 28.7227 42.7481C36.5952 42.7481 43 36.3432 43 28.4707C43 21.9185 38.5631 16.3839 32.5362 14.7113ZM34.3495 7.9785C35.5536 7.9785 36.5331 8.95809 36.5331 10.1621C36.5331 11.3661 35.5536 12.3457 34.3495 12.3457H28.9746H13.7734C12.5693 12.3457 11.5898 11.3661 11.5898 10.1621C11.5898 8.95809 12.5693 7.9785 13.7734 7.9785H34.3495ZM3.86327 6.29882C2.65919 6.29882 1.67968 5.31922 1.67968 4.11523C1.67968 2.91123 2.65919 1.93164 3.86327 1.93164H24.4394C25.6435 1.93164 26.623 2.91123 26.623 4.11523C26.623 5.31922 25.6435 6.29882 24.4394 6.29882H3.86327ZM8.39842 14.0254H28.9746C29.3128 14.0254 29.6368 14.104 29.9274 14.2447C29.5301 14.2114 29.1285 14.1934 28.7227 14.1934C24.78 14.1934 21.2057 15.8 18.6195 18.3925H8.39842C7.19442 18.3925 6.21483 17.413 6.21483 16.209C6.21483 15.005 7.19442 14.0254 8.39842 14.0254ZM8.39842 20.0722H17.1844C16.231 21.3784 15.4939 22.8517 15.0258 24.4394H8.39842C7.19434 24.4394 6.21483 23.4599 6.21483 22.2558C6.21483 21.0518 7.19434 20.0722 8.39842 20.0722ZM8.39842 26.1191H14.6401C14.5127 26.8844 14.4454 27.6698 14.4454 28.4707C14.4454 29.1549 14.4948 29.8276 14.5883 30.4863H8.39842C7.19434 30.4863 6.21483 29.5068 6.21483 28.3027C6.21483 27.0986 7.19434 26.1191 8.39842 26.1191ZM8.39842 36.5331C7.19434 36.5331 6.21483 35.5536 6.21483 34.3495C6.21483 33.1455 7.19434 32.166 8.39842 32.166H14.9312C15.355 33.746 16.0434 35.2184 16.9463 36.5331H8.39842ZM28.7227 41.0684C21.7764 41.0684 16.1251 35.4171 16.1251 28.4707C16.1251 21.5244 21.7764 15.8731 28.7227 15.8731C35.669 15.8731 41.3203 21.5244 41.3203 28.4707C41.3203 35.4171 35.669 41.0684 28.7227 41.0684Z" fill="#3F68BF"/>
</svg>
