<svg width="73" height="73" viewBox="0 0 73 73" fill="none" xmlns="http://www.w3.org/2000/svg">
<g clip-path="url(#clip0)">
<path d="M57.381 39.4875L57.5996 49.8328C57.6478 52.067 55.8713 53.9813 53.5777 54.0284C51.3085 54.0754 49.4297 52.2778 49.383 50.0065L49.2526 43.8433L46.1713 43.9083C45.604 43.9198 45.1344 43.4699 45.1225 42.9028L45.0662 40.2316C44.9139 40.2877 43.9116 40.6547 26.2364 47.1264C24.2192 48.2035 21.7551 46.7765 21.7071 44.4713L21.5631 37.6444L17.9846 35.9485C17.6329 35.7815 17.4054 35.4309 17.3972 35.0417L17.3105 30.9333C17.3023 30.5441 17.5162 30.1838 17.8592 30.0027L21.3626 28.1575L21.2025 20.5784C21.1792 19.4805 21.7221 18.4783 22.6541 17.8977C22.6652 17.8905 22.6762 17.8838 22.6875 17.877C23.595 17.3272 24.6924 17.2798 25.6431 17.7478L45.9799 25.4161L56.052 25.2035C60.0131 25.1193 63.3109 28.2686 63.3934 32.2415C63.4702 35.8735 60.8364 38.9162 57.381 39.4875ZM51.4371 49.9637C51.4604 51.0973 52.3985 51.9975 53.5351 51.9738C54.6756 51.9505 55.5696 50.9988 55.5456 49.8765L55.3283 39.6045L51.2199 39.6912C51.4714 51.5795 51.4333 49.7732 51.4371 49.9637ZM49.209 41.7887L49.1657 39.7345L47.1115 39.7779L47.1549 41.8321L49.209 41.7887ZM19.3781 31.5247L19.438 34.3637L21.5144 35.3476L21.411 30.454L19.3781 31.5247ZM24.7571 19.6016C24.2876 19.3587 23.8893 19.5455 23.7401 19.6416C23.5912 19.7341 23.2457 20.0073 23.2568 20.5345L23.7613 44.428C23.7775 45.206 24.6211 45.6854 25.2986 45.2974C25.4201 45.2276 25.4885 45.2157 25.83 45.0871L25.2966 19.8129C24.893 19.6587 24.8468 19.6482 24.7571 19.6016ZM27.3684 20.5941L27.8696 44.3404L45.0203 38.0602L44.7905 27.1633L27.3684 20.5941ZM61.3392 32.2848C61.3205 31.3835 61.0653 30.5022 60.6008 29.7354C59.6513 28.1682 57.9249 27.2191 56.0954 27.2577L46.8515 27.4527L47.0682 37.7237L56.3123 37.529C59.144 37.4688 61.3989 35.1165 61.3392 32.2848Z" fill="#3F68BF"/>
<path d="M4.37992 31.5376L10.9267 31.2959C11.4936 31.2753 11.9705 31.7178 11.9912 32.2848C12.0123 32.851 11.5705 33.3283 11.0023 33.3493L4.45594 33.5908C3.88865 33.6116 3.41208 33.1689 3.39142 32.6019C3.3702 32.0348 3.81297 31.5583 4.37992 31.5376Z" fill="#3F68BF"/>
<path d="M10.4067 40.3268L13.2505 37.3606C13.6432 36.9509 14.2935 36.937 14.7032 37.3297C15.1129 37.7225 15.1263 38.3727 14.7335 38.7823L11.8894 41.7488C11.4945 42.1611 10.8439 42.1692 10.437 41.7794C10.0273 41.3867 10.0137 40.7362 10.4067 40.3268Z" fill="#3F68BF"/>
<path d="M11.4906 22.8656L14.4581 25.7092C14.8678 26.1019 14.8815 26.7519 14.489 27.1619C14.0964 27.571 13.4465 27.5857 13.0363 27.1928L10.0691 24.349C9.65944 23.9563 9.64551 23.306 10.0383 22.8963C10.4307 22.4868 11.081 22.4729 11.4906 22.8656Z" fill="#3F68BF"/>
</g>
<defs>
<clipPath id="clip0">
<rect width="52.5994" height="52.5994" fill="white" transform="matrix(-0.855285 0.518159 0.518159 0.855285 44.9875 0)"/>
</clipPath>
</defs>
</svg>
