<svg width="38" height="38" viewBox="0 0 38 38" fill="none" xmlns="http://www.w3.org/2000/svg">
<path d="M19 38C29.4934 38 38 29.4934 38 19C38 8.50659 29.4934 0 19 0C8.50659 0 0 8.50659 0 19C0 29.4934 8.50659 38 19 38Z" fill="white"/>
<path d="M8.69401 18.5884L27.0132 11.5252C27.8634 11.218 28.606 11.7326 28.3305 13.0183L28.3321 13.0167L25.2129 27.7116C24.9818 28.7534 24.3627 29.0068 23.4966 28.5159L18.7466 25.0152L16.4555 27.2223C16.2022 27.4757 15.9884 27.6894 15.4976 27.6894L15.8348 22.8555L24.6382 14.9024C25.0213 14.5652 24.5527 14.3752 24.0476 14.7108L13.1685 21.5603L8.47868 20.0973C7.46059 19.7743 7.43843 19.0793 8.69401 18.5884Z" fill="#4878C0"/>
</svg>
