<svg width="19" height="19" viewBox="0 0 19 19" fill="none" xmlns="http://www.w3.org/2000/svg">
<path d="M0.335596 9.16067L4.71358 10.7947L6.40812 16.2443C6.51655 16.5933 6.94335 16.7223 7.22664 16.4907L9.667 14.5013C9.9228 14.2929 10.2872 14.2825 10.5545 14.4765L14.956 17.6722C15.2591 17.8924 15.6884 17.7264 15.7644 17.3602L18.9888 1.85041C19.0717 1.4504 18.6787 1.1167 18.2978 1.26401L0.330466 8.19528C-0.112931 8.36628 -0.109067 8.99404 0.335596 9.16067ZM6.13503 9.92485L14.6912 4.65507C14.845 4.56064 15.0032 4.76856 14.8712 4.89105L7.80982 11.4549C7.56161 11.686 7.40151 11.9951 7.35616 12.3308L7.11562 14.1133C7.08376 14.3513 6.74943 14.375 6.68375 14.1446L5.75864 10.894C5.65268 10.5233 5.80709 10.1273 6.13503 9.92485Z" fill="white"/>
</svg>
