<svg width="539" height="319" viewBox="0 0 539 319" fill="none" xmlns="http://www.w3.org/2000/svg">
<mask id="mask0" mask-type="alpha" maskUnits="userSpaceOnUse" x="0" y="0" width="539" height="319">
<rect width="539" height="319" rx="22" fill="url(#paint0_linear)"/>
</mask>
<g mask="url(#mask0)">
<rect width="539" height="319" rx="22" fill="url(#paint1_linear)"/>
<ellipse cx="602.987" cy="410.5" rx="252.987" ry="191.5" fill="#426CC6"/>
<path d="M581.934 70.4067C559.373 90.8285 528.711 105.175 493.488 108C488.868 96.8686 485.373 85.5751 483 74.3188C513.532 74.0712 540.112 63.1502 559.394 47C565.916 55.405 573.452 63.273 581.934 70.4067Z" fill="#A6C2FF"/>
<path d="M578.958 70.3477C557.21 89.3821 528.136 102.784 494.848 105.767C490.83 96.0425 487.678 86.1911 485.388 76.3506C514.755 75.5638 540.399 65.0395 559.361 49.5643C565.129 56.9524 571.674 63.924 578.958 70.3477Z" fill="#A6C2FF"/>
<path d="M553.472 62.5606C551.198 64.0685 548.416 64.4367 545.976 63.7901C534.363 70.5141 521.15 75.5856 506.742 78.3514C505.623 80.6176 503.245 82.3731 500.021 82.8114C496.781 83.2541 493.492 83.5829 490.155 83.7911C491.559 88.593 493.168 93.3839 494.987 98.1507C498.534 97.8198 502.033 97.3661 505.477 96.7919C508.806 96.2418 512.265 96.7919 515.172 98.1069C531.049 94.414 545.615 88.2511 558.439 80.2823C558.927 77.9591 560.432 75.728 562.791 74.0974C565.918 71.9365 568.927 69.6637 571.813 67.288C568.306 63.8033 564.996 60.1849 561.89 56.4547C559.203 58.5894 556.394 60.6276 553.472 62.5606Z" fill="#D3E1FF"/>
<path d="M543.561 76.7713C547.355 82.3359 546.105 89.2966 539.797 92.0076C533.509 94.7275 525.154 91.5496 522.108 85.3429C519.037 79.1339 521.796 72.7453 527.334 70.6567C532.899 68.5812 539.743 71.1892 543.561 76.7713Z" fill="#92B2F8"/>
<path d="M514.767 88.3344C515.912 90.7693 514.419 93.3795 511.273 94.0436C508.131 94.7098 504.647 93.0902 503.648 90.5545C502.645 88.0166 504.387 85.6014 507.382 85.0359C510.382 84.4705 513.619 85.8951 514.767 88.3344Z" fill="#92B2F8"/>
<path d="M50.9436 180.407C26.1006 200.828 -7.6645 215.175 -46.4508 218C-51.5383 206.869 -55.3865 195.575 -58 184.319C-24.379 184.071 4.8908 173.15 26.1234 157C33.3054 165.405 41.6032 173.273 50.9436 180.407Z" fill="#A6C2FF"/>
<path d="M47.6671 180.348C23.718 199.382 -8.29785 212.784 -44.9531 215.767C-49.3775 206.043 -52.8484 196.191 -55.3705 186.351C-23.0322 185.564 5.20636 175.04 26.0869 159.564C32.4388 166.952 39.646 173.924 47.6671 180.348Z" fill="#A6C2FF"/>
<path d="M19.6023 172.561C17.0985 174.068 14.0346 174.437 11.3479 173.79C-1.44057 180.514 -15.9897 185.586 -31.8559 188.351C-33.0883 190.618 -35.7064 192.373 -39.2574 192.811C-42.8243 193.254 -46.4462 193.583 -50.1206 193.791C-48.5749 198.593 -46.8029 203.384 -44.7999 208.151C-40.8945 207.82 -37.0417 207.366 -33.2484 206.792C-29.5831 206.242 -25.7737 206.792 -22.5726 208.107C-5.08987 204.414 10.9501 198.251 25.0716 190.282C25.609 187.959 27.2667 185.728 29.8642 184.097C33.3077 181.936 36.6209 179.664 39.7991 177.288C35.9372 173.803 32.2925 170.185 28.8718 166.455C25.9131 168.589 22.8194 170.628 19.6023 172.561Z" fill="#D3E1FF"/>
<path d="M8.68869 186.771C12.8662 192.336 11.4897 199.297 4.54323 202.008C-2.38036 204.727 -11.5813 201.55 -14.9357 195.343C-18.3174 189.134 -15.2786 182.745 -9.18048 180.657C-3.0526 178.581 4.48378 181.189 8.68869 186.771Z" fill="#92B2F8"/>
<path d="M25.5015 178.866C27.3101 180.849 26.7134 183.786 23.9718 185.368C21.2348 186.953 17.4964 186.473 15.8204 184.358C14.1398 182.243 15.0452 179.398 17.6496 177.943C20.2562 176.492 23.686 176.88 25.5015 178.866Z" fill="#92B2F8"/>
</g>
<defs>
<linearGradient id="paint0_linear" x1="269.5" y1="0" x2="269.5" y2="319" gradientUnits="userSpaceOnUse">
<stop stop-color="#2852AF"/>
<stop offset="1" stop-color="#3B63BB"/>
</linearGradient>
<linearGradient id="paint1_linear" x1="9.90808" y1="10.5" x2="405.994" y2="448.998" gradientUnits="userSpaceOnUse">
<stop stop-color="#2A54AF"/>
<stop offset="1" stop-color="#2B57B7"/>
</linearGradient>
</defs>
</svg>
