<svg width="21" height="21" viewBox="0 0 21 21" fill="none" xmlns="http://www.w3.org/2000/svg">
<path d="M19.9278 5.57929C19.701 4.73586 19.036 4.071 18.1927 3.84389C16.6521 3.42236 10.4895 3.42236 10.4895 3.42236C10.4895 3.42236 4.32719 3.42236 2.78658 3.82791C1.9595 4.05478 1.27829 4.73598 1.05143 5.57929C0.645996 7.11978 0.645996 10.3145 0.645996 10.3145C0.645996 10.3145 0.645996 13.5254 1.05143 15.0498C1.27853 15.8931 1.94328 16.558 2.7867 16.7851C4.34341 17.2067 10.4897 17.2067 10.4897 17.2067C10.4897 17.2067 16.6521 17.2067 18.1927 16.8012C19.0361 16.5742 19.701 15.9093 19.9281 15.066C20.3334 13.5254 20.3334 10.3308 20.3334 10.3308C20.3334 10.3308 20.3496 7.11978 19.9278 5.57929ZM8.52748 13.266V7.36311L13.652 10.3145L8.52748 13.266Z" fill="white"/>
</svg>
